<?xml version="1.0" encoding="utf-8"?>
<!-- Generator: Adobe Illustrator 20.1.0, SVG Export Plug-In . SVG Version: 6.00 Build 0)  -->
<svg version="1.1" id="Layer_1" xmlns="http://www.w3.org/2000/svg" xmlns:xlink="http://www.w3.org/1999/xlink" x="0px" y="0px"
	 viewBox="0 0 400 143" enable-background="new 0 0 400 143" xml:space="preserve">
<g>
	<path fill="#C4C732" d="M118.3,23h-2.6v-2.6c0-1.9,0.8-3.5,2.6-3.5v1.2c-1.1,0-1.4,1.2-1.4,2.3h1.4V23z"/>
	<path fill="#C4C732" d="M122.2,16.9h2.3v17h-2.3V16.9z"/>
	<path fill="#C4C732" d="M145.6,33.9h-2v-1.7l0,0c-0.7,1.4-2.2,2-3.9,2c-3.8,0-5.7-3-5.7-6.5s1.9-6.4,5.6-6.4c1.2,0,3.1,0.5,4,1.9
		l0,0v-6.3h2L145.6,33.9L145.6,33.9z M139.9,32.4c2.7,0,3.8-2.4,3.8-4.6c0-2.4-1.1-4.7-3.9-4.7c-2.8,0-3.7,2.4-3.7,4.8
		C136.1,30.2,137.3,32.4,139.9,32.4z"/>
	<path fill="#C4C732" d="M154,21.3c3.9,0,6,2.8,6,6.5c0,3.6-2.1,6.4-6,6.4s-6-2.8-6-6.4C148.1,24.1,150.1,21.3,154,21.3z M154,32.4
		c2.1,0,3.8-1.7,3.8-4.6c0-3-1.7-4.7-3.8-4.7s-3.8,1.7-3.8,4.7C150.2,30.7,151.9,32.4,154,32.4z"/>
	<path fill="#C4C732" d="M162.4,21.6h1.9v2l0,0c0.9-1.5,2.2-2.2,4-2.2c3.2,0,4.2,1.9,4.2,4.5V34h-2v-8.3c0-1.5-1-2.5-2.5-2.5
		c-2.5,0-3.6,1.6-3.6,3.9v7h-2L162.4,21.6L162.4,21.6z"/>
	<path fill="#C4C732" d="M176.1,16.9h2.6v2.6c0,1.9-0.8,3.5-2.6,3.5v-1.2c1.1,0,1.4-1.2,1.4-2.3h-1.4V16.9z"/>
	<path fill="#C4C732" d="M184.6,21.6h2.5v1.8h-2.5V31c0,1,0.3,1.1,1.5,1.1h0.9v1.8h-1.5c-2.1,0-2.9-0.4-2.9-2.7v-7.8h-2.1v-1.8h2.1
		v-3.7h2V21.6z"/>
	<path fill="#C4C732" d="M196.8,23.4h-2.1v-1.8h2.1v-1.8c0-2,1.2-3,3.4-3c0.4,0,0.9,0.1,1.3,0.2v1.8c-0.4-0.1-0.8-0.2-1.1-0.2
		c-1,0-1.5,0.3-1.5,1.4v1.7h2.4v1.8h-2.4V34h-2L196.8,23.4L196.8,23.4z"/>
	<path fill="#C4C732" d="M213.5,30c-0.5,2.7-2.5,4.2-5.3,4.2c-3.9,0-5.8-2.7-5.9-6.5c0-3.7,2.4-6.4,5.8-6.4c4.4,0,5.7,4.1,5.6,7.1
		h-9.2c-0.1,2.1,1.1,4,3.8,4c1.7,0,2.8-0.8,3.2-2.4C211.5,30,213.5,30,213.5,30z M211.6,26.6c-0.1-1.9-1.5-3.5-3.5-3.5
		c-2.1,0-3.4,1.6-3.5,3.5H211.6z"/>
	<path fill="#C4C732" d="M226.3,30c-0.5,2.7-2.5,4.2-5.3,4.2c-3.9,0-5.8-2.7-5.9-6.5c0-3.7,2.4-6.4,5.8-6.4c4.4,0,5.7,4.1,5.6,7.1
		h-9.2c-0.1,2.1,1.1,4,3.8,4c1.7,0,2.8-0.8,3.2-2.4C224.3,30,226.3,30,226.3,30z M224.3,26.6c-0.1-1.9-1.5-3.5-3.5-3.5
		c-2.1,0-3.4,1.6-3.5,3.5H224.3z"/>
	<path fill="#C4C732" d="M228.7,16.9h2v17h-2V16.9z"/>
	<path fill="#C4C732" d="M241.7,30c0.1,1.8,1.7,2.4,3.3,2.4c1.3,0,3-0.3,3-1.8c0-3.2-8.1-1-8.1-5.8c0-2.5,2.4-3.5,4.6-3.5
		c2.8,0,4.9,0.9,5,3.9h-2c-0.1-1.6-1.5-2.1-2.9-2.1c-1.2,0-2.6,0.3-2.6,1.6c0,1.4,2.1,1.7,4,2.1c2,0.5,4,1.1,4,3.5
		c0,3-2.7,3.9-5.2,3.9c-2.8,0-5.1-1.1-5.2-4.2C239.6,30,241.7,30,241.7,30z"/>
	<path fill="#C4C732" d="M263.3,33.9c-0.4,0.2-0.9,0.3-1.5,0.3c-1,0-1.7-0.6-1.7-1.9c-1.1,1.3-2.6,1.9-4.3,1.9c-2.2,0-4.1-1-4.1-3.5
		c0-2.8,2.1-3.4,4.2-3.8c2.2-0.5,4.1-0.3,4.1-1.8c0-1.8-1.5-2-2.7-2c-1.7,0-3,0.5-3.1,2.3h-2c0.1-3,2.5-4.1,5.2-4.1
		c2.2,0,4.6,0.5,4.6,3.4V31c0,1,0,1.4,0.6,1.4c0.2,0,0.4,0,0.6-0.1v1.6H263.3z M260,27.5c-1.6,1.2-6.1,0-6.1,3
		c0,1.3,1.1,1.8,2.4,1.8c2.7,0,3.8-1.6,3.8-2.8L260,27.5L260,27.5z"/>
	<path fill="#C4C732" d="M266,23.4h-2v-1.8h2.1v-1.8c0-2,1.2-3,3.4-3c0.4,0,0.9,0.1,1.3,0.2v1.8c-0.4-0.1-0.8-0.2-1.1-0.2
		c-1,0-1.5,0.3-1.5,1.4v1.7h2.4v1.8H268V34h-2V23.4z"/>
	<path fill="#C4C732" d="M282.7,30c-0.5,2.7-2.5,4.2-5.3,4.2c-3.9,0-5.8-2.7-5.9-6.5c0-3.7,2.4-6.4,5.8-6.4c4.4,0,5.7,4.1,5.6,7.1
		h-9.2c-0.1,2.1,1.1,4,3.8,4c1.7,0,2.8-0.8,3.2-2.4C280.7,30,282.7,30,282.7,30z M280.8,26.6c-0.1-1.9-1.5-3.5-3.5-3.5
		c-2.1,0-3.4,1.6-3.5,3.5H280.8z"/>
	<path fill="#C4C732" d="M291.7,16.9h2v6.4l0,0c0.7-1.4,2.2-2,3.9-2c3.8,0,5.7,3,5.7,6.5s-1.9,6.4-5.6,6.4c-1.2,0-3.1-0.5-4-1.9l0,0
		v1.6h-2V16.9z M297.4,23.1c-2.7,0-3.8,2.4-3.8,4.6c0,2.4,1.1,4.7,3.9,4.7s3.7-2.4,3.7-4.8C301.2,25.3,300.1,23.1,297.4,23.1z"/>
	<path fill="#C4C732" d="M316.3,30c-0.5,2.7-2.5,4.2-5.3,4.2c-3.9,0-5.8-2.7-5.9-6.5c0-3.7,2.4-6.4,5.8-6.4c4.4,0,5.7,4.1,5.6,7.1
		h-9.2c-0.1,2.1,1.1,4,3.8,4c1.7,0,2.8-0.8,3.2-2.4C314.3,30,316.3,30,316.3,30z M314.3,26.6c-0.1-1.9-1.5-3.5-3.5-3.5
		c-2.1,0-3.4,1.6-3.5,3.5H314.3z"/>
	<path fill="#C4C732" d="M326.9,25.5c-0.3-1.5-1.4-2.5-3-2.5c-2.9,0-3.8,2.3-3.8,4.8c0,2.3,1,4.5,3.6,4.5c2,0,3.1-1.1,3.4-3h2.1
		c-0.5,3-2.3,4.8-5.4,4.8c-3.8,0-5.8-2.6-5.8-6.3s1.9-6.6,5.8-6.6c2.8,0,5,1.3,5.3,4.2h-2.2V25.5z"/>
	<path fill="#C4C732" d="M342.3,33.9c-0.4,0.2-0.9,0.3-1.5,0.3c-1,0-1.7-0.6-1.7-1.9c-1.1,1.3-2.6,1.9-4.3,1.9c-2.2,0-4.1-1-4.1-3.5
		c0-2.8,2.1-3.4,4.2-3.8c2.2-0.5,4.1-0.3,4.1-1.8c0-1.8-1.5-2-2.7-2c-1.7,0-3,0.5-3.1,2.3h-2c0.1-3,2.5-4.1,5.2-4.1
		c2.2,0,4.6,0.5,4.6,3.4V31c0,1,0,1.4,0.6,1.4c0.2,0,0.4,0,0.6-0.1L342.3,33.9L342.3,33.9z M339,27.5c-1.6,1.2-6.1,0-6.1,3
		c0,1.3,1.1,1.8,2.4,1.8c2.7,0,3.8-1.6,3.8-2.8L339,27.5L339,27.5z"/>
	<path fill="#C4C732" d="M354.3,33.9h-1.9v-2l0,0c-0.9,1.5-2.2,2.2-4,2.2c-3.2,0-4.2-1.9-4.2-4.5v-8.1h2v8.3c0,1.5,1,2.5,2.5,2.5
		c2.5,0,3.6-1.6,3.6-3.9v-7h2V33.9z"/>
	<path fill="#C4C732" d="M358.6,30c0.1,1.8,1.7,2.4,3.3,2.4c1.3,0,3-0.3,3-1.8c0-3.2-8.1-1-8.1-5.8c0-2.5,2.4-3.5,4.6-3.5
		c2.8,0,4.9,0.9,5,3.9h-2c-0.1-1.6-1.5-2.1-2.9-2.1c-1.2,0-2.6,0.3-2.6,1.6c0,1.4,2.1,1.7,4,2.1c2,0.5,4,1.1,4,3.5
		c0,3-2.7,3.9-5.2,3.9c-2.8,0-5.1-1.1-5.2-4.2C356.5,30,358.6,30,358.6,30z"/>
	<path fill="#C4C732" d="M379.8,30c-0.5,2.7-2.5,4.2-5.3,4.2c-3.9,0-5.8-2.7-5.9-6.5c0-3.7,2.4-6.4,5.8-6.4c4.4,0,5.7,4.1,5.6,7.1
		h-9.2c-0.1,2.1,1.1,4,3.8,4c1.7,0,2.8-0.8,3.2-2.4C377.8,30,379.8,30,379.8,30z M377.8,26.6c-0.1-1.9-1.5-3.5-3.5-3.5
		c-2.1,0-3.4,1.6-3.5,3.5H377.8z"/>
</g>
<g>
	<path fill="#C4C732" d="M133.4,63.6c-0.4,0.2-0.9,0.3-1.5,0.3c-1,0-1.7-0.6-1.7-1.9c-1.1,1.3-2.6,1.9-4.3,1.9c-2.2,0-4.1-1-4.1-3.5
		c0-2.8,2.1-3.4,4.2-3.8c2.2-0.5,4.1-0.3,4.1-1.8c0-1.8-1.5-2-2.7-2c-1.7,0-3,0.5-3.1,2.3h-2c0.1-3,2.5-4.1,5.2-4.1
		c2.2,0,4.6,0.5,4.6,3.4v6.3c0,1,0,1.4,0.6,1.4c0.2,0,0.4,0,0.6-0.1L133.4,63.6L133.4,63.6z M130.1,57.3c-1.6,1.2-6.1,0-6.1,3
		c0,1.3,1.1,1.8,2.4,1.8c2.7,0,3.8-1.6,3.8-2.8v-2H130.1z"/>
	<path fill="#C4C732" d="M138.1,51.4h2.5v1.8h-2.5v7.6c0,1,0.3,1.1,1.5,1.1h0.9v1.8H139c-2.1,0-2.9-0.4-2.9-2.7v-7.8H134v-1.8h2.1
		v-3.7h2V51.4z"/>
	<path fill="#C4C732" d="M150.7,59.8c0.1,1.8,1.7,2.4,3.3,2.4c1.3,0,3-0.3,3-1.8c0-3.2-8.1-1-8.1-5.8c0-2.5,2.4-3.5,4.6-3.5
		c2.8,0,4.9,0.9,5,3.9h-2c-0.1-1.6-1.5-2.1-2.9-2.1c-1.2,0-2.6,0.3-2.6,1.6c0,1.4,2.1,1.7,4,2.1c2,0.5,4,1.1,4,3.5
		c0,3-2.7,3.9-5.2,3.9c-2.8,0-5.1-1.1-5.2-4.2H150.7z"/>
	<path fill="#C4C732" d="M166.6,51.1c3.9,0,6,2.8,6,6.5c0,3.6-2.1,6.4-6,6.4s-6-2.8-6-6.4C160.7,53.9,162.7,51.1,166.6,51.1z
		 M166.6,62.2c2.1,0,3.8-1.7,3.8-4.6c0-3-1.7-4.7-3.8-4.7s-3.8,1.7-3.8,4.7C162.8,60.5,164.5,62.2,166.6,62.2z"/>
	<path fill="#C4C732" d="M175,51.4h1.9v1.8l0,0c0.9-1.4,2.2-2.1,4-2.1c1.5,0,2.9,0.6,3.4,2.1c0.8-1.3,2.3-2.1,3.9-2.1
		c2.5,0,4.1,1,4.1,3.6v9h-2v-8.1c0-1.5-0.4-2.7-2.4-2.7s-3.2,1.2-3.2,3.1v7.7h-2v-8.1c0-1.6-0.5-2.7-2.3-2.7c-2.4,0-3.3,2.2-3.3,3.1
		v7.7h-2L175,51.4L175,51.4z"/>
	<path fill="#C4C732" d="M205.8,59.8c-0.5,2.7-2.5,4.2-5.3,4.2c-3.9,0-5.8-2.7-5.9-6.5c0-3.7,2.4-6.4,5.8-6.4c4.4,0,5.7,4.1,5.6,7.1
		h-9.2c-0.1,2.1,1.1,4,3.8,4c1.7,0,2.8-0.8,3.2-2.4C203.8,59.8,205.8,59.8,205.8,59.8z M203.9,56.3c-0.1-1.9-1.5-3.5-3.5-3.5
		c-2.1,0-3.4,1.6-3.5,3.5H203.9z"/>
	<path fill="#C4C732" d="M214.8,51.4h2V53l0,0c0.7-1.4,2.2-2,3.9-2c3.8,0,5.7,3,5.7,6.5s-1.9,6.4-5.6,6.4c-1.2,0-3.1-0.5-4-1.9l0,0
		v6.4h-2L214.8,51.4L214.8,51.4z M220.5,52.9c-2.7,0-3.8,2.4-3.8,4.6c0,2.4,1.1,4.7,3.9,4.7c2.8,0,3.7-2.4,3.7-4.8
		C224.3,55.1,223.1,52.9,220.5,52.9z"/>
	<path fill="#C4C732" d="M234.2,51.1c3.9,0,6,2.8,6,6.5c0,3.6-2.1,6.4-6,6.4s-6-2.8-6-6.4C228.2,53.9,230.3,51.1,234.2,51.1z
		 M234.2,62.2c2.1,0,3.8-1.7,3.8-4.6c0-3-1.7-4.7-3.8-4.7s-3.8,1.7-3.8,4.7C230.3,60.5,232,62.2,234.2,62.2z"/>
	<path fill="#C4C732" d="M244.7,49.1h-2v-2.5h2V49.1z M242.6,51.4h2v12.3h-2V51.4z"/>
	<path fill="#C4C732" d="M247.8,51.4h1.9v2l0,0c0.9-1.5,2.2-2.2,4-2.2c3.2,0,4.2,1.9,4.2,4.5v8.1h-2v-8.3c0-1.5-1-2.5-2.5-2.5
		c-2.5,0-3.6,1.6-3.6,3.9v7h-2L247.8,51.4L247.8,51.4z"/>
	<path fill="#C4C732" d="M263.9,51.4h2.5v1.8h-2.5v7.6c0,1,0.3,1.1,1.5,1.1h0.9v1.8h-1.5c-2.1,0-2.9-0.4-2.9-2.7v-7.8h-2.1v-1.8h2.1
		v-3.7h2V51.4z"/>
	<path fill="#C4C732" d="M276.4,59.8c0.1,1.8,1.7,2.4,3.3,2.4c1.3,0,3-0.3,3-1.8c0-3.2-8.1-1-8.1-5.8c0-2.5,2.4-3.5,4.6-3.5
		c2.8,0,4.9,0.9,5,3.9h-2c-0.1-1.6-1.5-2.1-2.9-2.1c-1.2,0-2.6,0.3-2.6,1.6c0,1.4,2.1,1.7,4,2.1c2,0.5,4,1.1,4,3.5
		c0,3-2.7,3.9-5.2,3.9c-2.8,0-5.1-1.1-5.2-4.2H276.4z"/>
	<path fill="#C4C732" d="M292.4,51.1c3.9,0,6,2.8,6,6.5c0,3.6-2.1,6.4-6,6.4s-6-2.8-6-6.4C286.4,53.9,288.5,51.1,292.4,51.1z
		 M292.4,62.2c2.1,0,3.8-1.7,3.8-4.6c0-3-1.7-4.7-3.8-4.7s-3.8,1.7-3.8,4.7C288.6,60.5,290.3,62.2,292.4,62.2z"/>
	<path fill="#C4C732" d="M300.7,51.4h1.9v1.8l0,0c0.9-1.4,2.2-2.1,4-2.1c1.5,0,2.9,0.6,3.4,2.1c0.8-1.3,2.3-2.1,3.9-2.1
		c2.5,0,4.1,1,4.1,3.6v9h-2v-8.1c0-1.5-0.4-2.7-2.4-2.7s-3.2,1.2-3.2,3.1v7.7h-2v-8.1c0-1.6-0.5-2.7-2.3-2.7c-2.4,0-3.3,2.2-3.3,3.1
		v7.7h-2V51.4H300.7z"/>
	<path fill="#C4C732" d="M331.6,59.8c-0.5,2.7-2.5,4.2-5.3,4.2c-3.9,0-5.8-2.7-5.9-6.5c0-3.7,2.4-6.4,5.8-6.4c4.4,0,5.7,4.1,5.6,7.1
		h-9.2c-0.1,2.1,1.1,4,3.8,4c1.7,0,2.8-0.8,3.2-2.4C329.6,59.8,331.6,59.8,331.6,59.8z M329.6,56.3c-0.1-1.9-1.5-3.5-3.5-3.5
		c-2.1,0-3.4,1.6-3.5,3.5H329.6z"/>
	<path fill="#C4C732" d="M339.2,51.1c3.9,0,6,2.8,6,6.5c0,3.6-2.1,6.4-6,6.4s-6-2.8-6-6.4C333.2,53.9,335.3,51.1,339.2,51.1z
		 M339.2,62.2c2.1,0,3.8-1.7,3.8-4.6c0-3-1.7-4.7-3.8-4.7s-3.8,1.7-3.8,4.7C335.3,60.5,337,62.2,339.2,62.2z"/>
	<path fill="#C4C732" d="M347.5,51.4h1.9v2l0,0c0.9-1.5,2.2-2.2,4-2.2c3.2,0,4.2,1.9,4.2,4.5v8.1h-2v-8.3c0-1.5-1-2.5-2.5-2.5
		c-2.5,0-3.6,1.6-3.6,3.9v7h-2V51.4z"/>
	<path fill="#C4C732" d="M371.3,59.8c-0.5,2.7-2.5,4.2-5.3,4.2c-3.9,0-5.8-2.7-5.9-6.5c0-3.7,2.4-6.4,5.8-6.4c4.4,0,5.7,4.1,5.6,7.1
		h-9.2c-0.1,2.1,1.1,4,3.8,4c1.7,0,2.8-0.8,3.2-2.4C369.3,59.8,371.3,59.8,371.3,59.8z M369.3,56.3c-0.1-1.9-1.5-3.5-3.5-3.5
		c-2.1,0-3.4,1.6-3.5,3.5H369.3z"/>
</g>
<g>
	<path fill="#C4C732" d="M130.9,85.1c-0.3-1.5-1.4-2.5-3-2.5c-2.9,0-3.8,2.3-3.8,4.8c0,2.3,1,4.5,3.6,4.5c2,0,3.1-1.1,3.4-3h2.1
		c-0.5,3-2.3,4.8-5.4,4.8c-3.8,0-5.8-2.6-5.8-6.3s1.9-6.6,5.8-6.6c2.8,0,5,1.3,5.3,4.2L130.9,85.1L130.9,85.1z"/>
	<path fill="#C4C732" d="M146.2,93.4c-0.4,0.2-0.9,0.3-1.5,0.3c-1,0-1.7-0.6-1.7-1.9c-1.1,1.3-2.6,1.9-4.3,1.9c-2.2,0-4.1-1-4.1-3.5
		c0-2.8,2.1-3.4,4.2-3.8c2.2-0.5,4.1-0.3,4.1-1.8c0-1.8-1.5-2-2.7-2c-1.7,0-3,0.5-3.1,2.3h-2c0.1-3,2.5-4.1,5.2-4.1
		c2.2,0,4.6,0.5,4.6,3.4v6.3c0,1,0,1.4,0.6,1.4c0.2,0,0.4,0,0.6-0.1L146.2,93.4L146.2,93.4z M142.9,87.1c-1.6,1.2-6.1,0-6.1,3
		c0,1.3,1.1,1.8,2.4,1.8c2.7,0,3.8-1.6,3.8-2.8L142.9,87.1L142.9,87.1z"/>
	<path fill="#C4C732" d="M148.1,81.1h1.9v2l0,0c0.9-1.5,2.2-2.2,4-2.2c3.2,0,4.2,1.9,4.2,4.5v8.1h-2v-8.3c0-1.5-1-2.5-2.5-2.5
		c-2.5,0-3.6,1.6-3.6,3.9v7h-2L148.1,81.1L148.1,81.1z"/>
	<path fill="#C4C732" d="M170.8,81.1h2.5v1.8h-2.5v7.6c0,1,0.3,1.1,1.5,1.1h0.9v1.8h-1.5c-2.1,0-2.9-0.4-2.9-2.7v-7.8h-2.1v-1.8h2.1
		v-3.7h2V81.1z"/>
	<path fill="#C4C732" d="M185.6,93.4h-1.9v-2l0,0c-0.9,1.5-2.2,2.2-4,2.2c-3.2,0-4.2-1.9-4.2-4.5V81h2v8.3c0,1.5,1,2.5,2.5,2.5
		c2.5,0,3.6-1.6,3.6-3.9v-7h2L185.6,93.4L185.6,93.4z"/>
	<path fill="#C4C732" d="M188.6,81.1h1.9v2.6l0,0c1-2,2.3-3,4.5-2.9V83c-3.3,0-4.5,1.8-4.5,5v5.5h-2V81.1H188.6z"/>
	<path fill="#C4C732" d="M197,81.1h1.9v2l0,0c0.9-1.5,2.2-2.2,4-2.2c3.2,0,4.2,1.9,4.2,4.5v8.1h-2v-8.3c0-1.5-1-2.5-2.5-2.5
		c-2.5,0-3.6,1.6-3.6,3.9v7h-2L197,81.1L197,81.1z"/>
	<path fill="#C4C732" d="M227.8,93.4c-0.4,0.2-0.9,0.3-1.5,0.3c-1,0-1.7-0.6-1.7-1.9c-1.1,1.3-2.6,1.9-4.3,1.9c-2.2,0-4.1-1-4.1-3.5
		c0-2.8,2.1-3.4,4.2-3.8c2.2-0.5,4.1-0.3,4.1-1.8c0-1.8-1.5-2-2.7-2c-1.7,0-3,0.5-3.1,2.3h-2c0.1-3,2.5-4.1,5.2-4.1
		c2.2,0,4.6,0.5,4.6,3.4v6.3c0,1,0,1.4,0.6,1.4c0.2,0,0.4,0,0.6-0.1L227.8,93.4L227.8,93.4z M224.5,87.1c-1.6,1.2-6.1,0-6.1,3
		c0,1.3,1.1,1.8,2.4,1.8c2.7,0,3.8-1.6,3.8-2.8L224.5,87.1L224.5,87.1z"/>
	<path fill="#C4C732" d="M229.6,81.1h1.9v2.6l0,0c1-2,2.3-3,4.5-2.9V83c-3.3,0-4.5,1.8-4.5,5v5.5h-2V81.1H229.6z"/>
	<path fill="#C4C732" d="M242.5,80.8c3.9,0,6,2.8,6,6.5c0,3.6-2.1,6.4-6,6.4s-6-2.8-6-6.4C236.5,83.7,238.6,80.8,242.5,80.8z
		 M242.5,91.9c2.1,0,3.8-1.7,3.8-4.6c0-3-1.7-4.7-3.8-4.7s-3.8,1.7-3.8,4.7S240.4,91.9,242.5,91.9z"/>
	<path fill="#C4C732" d="M261,93.4h-1.9v-2l0,0c-0.9,1.5-2.2,2.2-4,2.2c-3.2,0-4.2-1.9-4.2-4.5V81h2v8.3c0,1.5,1,2.5,2.5,2.5
		c2.5,0,3.6-1.6,3.6-3.9v-7h2V93.4z"/>
	<path fill="#C4C732" d="M264.1,81.1h1.9v2l0,0c0.9-1.5,2.2-2.2,4-2.2c3.2,0,4.2,1.9,4.2,4.5v8.1h-2v-8.3c0-1.5-1-2.5-2.5-2.5
		c-2.5,0-3.6,1.6-3.6,3.9v7h-2V81.1z"/>
	<path fill="#C4C732" d="M288.3,93.4h-2v-1.7l0,0c-0.7,1.4-2.2,2-3.9,2c-3.8,0-5.7-3-5.7-6.5s1.9-6.4,5.6-6.4c1.2,0,3.1,0.5,4,1.9
		l0,0v-6.3h2V93.4z M282.6,91.9c2.7,0,3.8-2.4,3.8-4.6c0-2.4-1.1-4.7-3.9-4.7s-3.7,2.4-3.7,4.8C278.8,89.7,280,91.9,282.6,91.9z"/>
	<path fill="#C4C732" d="M309,93.4c-0.4,0.2-0.9,0.3-1.5,0.3c-1,0-1.7-0.6-1.7-1.9c-1.1,1.3-2.6,1.9-4.3,1.9c-2.2,0-4.1-1-4.1-3.5
		c0-2.8,2.1-3.4,4.2-3.8c2.2-0.5,4.1-0.3,4.1-1.8c0-1.8-1.5-2-2.7-2c-1.7,0-3,0.5-3.1,2.3h-2c0.1-3,2.5-4.1,5.2-4.1
		c2.2,0,4.6,0.5,4.6,3.4v6.3c0,1,0,1.4,0.6,1.4c0.2,0,0.4,0,0.6-0.1L309,93.4L309,93.4z M305.7,87.1c-1.6,1.2-6.1,0-6.1,3
		c0,1.3,1.1,1.8,2.4,1.8c2.7,0,3.8-1.6,3.8-2.8L305.7,87.1L305.7,87.1z"/>
	<path fill="#C4C732" d="M310.9,81.1h1.9v2l0,0c0.9-1.5,2.2-2.2,4-2.2c3.2,0,4.2,1.9,4.2,4.5v8.1h-2v-8.3c0-1.5-1-2.5-2.5-2.5
		c-2.5,0-3.6,1.6-3.6,3.9v7h-2V81.1z"/>
	<path fill="#C4C732" d="M335.1,93.4h-2v-1.7l0,0c-0.7,1.4-2.2,2-3.9,2c-3.8,0-5.7-3-5.7-6.5s1.9-6.4,5.6-6.4c1.2,0,3.1,0.5,4,1.9
		l0,0v-6.3h2V93.4z M329.4,91.9c2.7,0,3.8-2.4,3.8-4.6c0-2.4-1.1-4.7-3.9-4.7s-3.7,2.4-3.7,4.8C325.6,89.7,326.8,91.9,329.4,91.9z"
		/>
</g>
<g>
	<path fill="#C4C732" d="M125.3,110.9h2.5v1.8h-2.5v7.6c0,1,0.3,1.1,1.5,1.1h0.9v1.8h-1.5c-2.1,0-2.9-0.4-2.9-2.7v-7.8h-2.1v-1.8
		h2.1v-3.7h2V110.9z"/>
	<path fill="#C4C732" d="M140.9,123.2c-0.4,0.2-0.9,0.3-1.5,0.3c-1,0-1.7-0.6-1.7-1.9c-1.1,1.3-2.6,1.9-4.3,1.9
		c-2.2,0-4.1-1-4.1-3.5c0-2.8,2.1-3.4,4.2-3.8c2.2-0.5,4.1-0.3,4.1-1.8c0-1.8-1.5-2-2.7-2c-1.7,0-3,0.5-3.1,2.3h-2
		c0.1-3,2.5-4.1,5.2-4.1c2.2,0,4.6,0.5,4.6,3.4v6.3c0,1,0,1.4,0.6,1.4c0.2,0,0.4,0,0.6-0.1L140.9,123.2L140.9,123.2z M137.6,116.9
		c-1.6,1.2-6.1,0-6.1,3c0,1.3,1.1,1.8,2.4,1.8c2.7,0,3.8-1.6,3.8-2.8L137.6,116.9L137.6,116.9z"/>
	<path fill="#C4C732" d="M142.9,106.2h2v10.1l5.6-5.4h2.7l-4.9,4.5l5.2,7.8h-2.6l-4.2-6.4l-1.9,1.8v4.7h-2L142.9,106.2L142.9,106.2z
		"/>
	<path fill="#C4C732" d="M165.7,119.3c-0.5,2.7-2.5,4.2-5.3,4.2c-3.9,0-5.8-2.7-5.9-6.5c0-3.7,2.4-6.4,5.8-6.4
		c4.4,0,5.7,4.1,5.6,7.1h-9.2c-0.1,2.1,1.1,4,3.8,4c1.7,0,2.8-0.8,3.2-2.4C163.7,119.3,165.7,119.3,165.7,119.3z M163.7,115.9
		c-0.1-1.9-1.5-3.5-3.5-3.5c-2.1,0-3.4,1.6-3.5,3.5H163.7z"/>
	<path fill="#C4C732" d="M177.4,110.9h2.5v1.8h-2.5v7.6c0,1,0.3,1.1,1.5,1.1h0.9v1.8h-1.5c-2.1,0-2.9-0.4-2.9-2.7v-7.8h-2.1v-1.8
		h2.1v-3.7h2V110.9z"/>
	<path fill="#C4C732" d="M182.1,106.2h2v6.5l0,0c0.6-1.5,2.4-2.1,3.9-2.1c3.2,0,4.2,1.9,4.2,4.5v8.1h-2v-8.3c0-1.5-1-2.5-2.5-2.5
		c-2.5,0-3.6,1.6-3.6,3.9v7h-2L182.1,106.2L182.1,106.2z"/>
	<path fill="#C4C732" d="M206.2,123.2c-0.4,0.2-0.9,0.3-1.5,0.3c-1,0-1.7-0.6-1.7-1.9c-1.1,1.3-2.6,1.9-4.3,1.9
		c-2.2,0-4.1-1-4.1-3.5c0-2.8,2.1-3.4,4.2-3.8c2.2-0.5,4.1-0.3,4.1-1.8c0-1.8-1.5-2-2.7-2c-1.7,0-3,0.5-3.1,2.3h-2
		c0.1-3,2.5-4.1,5.2-4.1c2.2,0,4.6,0.5,4.6,3.4v6.3c0,1,0,1.4,0.6,1.4c0.2,0,0.4,0,0.6-0.1L206.2,123.2L206.2,123.2z M202.9,116.9
		c-1.6,1.2-6.1,0-6.1,3c0,1.3,1.1,1.8,2.4,1.8c2.7,0,3.8-1.6,3.8-2.8L202.9,116.9L202.9,116.9z"/>
	<path fill="#C4C732" d="M210.9,110.9h2.5v1.8h-2.5v7.6c0,1,0.3,1.1,1.5,1.1h0.9v1.8h-1.5c-2.1,0-2.9-0.4-2.9-2.7v-7.8h-2.1v-1.8
		h2.1v-3.7h2V110.9z"/>
	<path fill="#C4C732" d="M233.1,123.2c-0.4,0.2-0.9,0.3-1.5,0.3c-1,0-1.7-0.6-1.7-1.9c-1.1,1.3-2.6,1.9-4.3,1.9
		c-2.2,0-4.1-1-4.1-3.5c0-2.8,2.1-3.4,4.2-3.8c2.2-0.5,4.1-0.3,4.1-1.8c0-1.8-1.5-2-2.7-2c-1.7,0-3,0.5-3.1,2.3h-2
		c0.1-3,2.5-4.1,5.2-4.1c2.2,0,4.6,0.5,4.6,3.4v6.3c0,1,0,1.4,0.6,1.4c0.2,0,0.4,0,0.6-0.1L233.1,123.2L233.1,123.2z M229.8,116.9
		c-1.6,1.2-6.1,0-6.1,3c0,1.3,1.1,1.8,2.4,1.8c2.7,0,3.8-1.6,3.8-2.8L229.8,116.9L229.8,116.9z"/>
	<path fill="#C4C732" d="M247.2,123.2h-2.1l-2.5-9.8l0,0l-2.5,9.8h-2.2l-4-12.3h2.2l2.8,10.1l0,0l2.5-10.1h2.2l2.6,10.1l0,0
		l2.8-10.1h2.1L247.2,123.2z"/>
	<path fill="#C4C732" d="M264,123.2c-0.4,0.2-0.9,0.3-1.5,0.3c-1,0-1.7-0.6-1.7-1.9c-1.1,1.3-2.6,1.9-4.3,1.9c-2.2,0-4.1-1-4.1-3.5
		c0-2.8,2.1-3.4,4.2-3.8c2.2-0.5,4.1-0.3,4.1-1.8c0-1.8-1.5-2-2.7-2c-1.7,0-3,0.5-3.1,2.3h-2c0.1-3,2.5-4.1,5.2-4.1
		c2.2,0,4.6,0.5,4.6,3.4v6.3c0,1,0,1.4,0.6,1.4c0.2,0,0.4,0,0.6-0.1L264,123.2L264,123.2z M260.7,116.9c-1.6,1.2-6.1,0-6.1,3
		c0,1.3,1.1,1.8,2.4,1.8c2.7,0,3.8-1.6,3.8-2.8L260.7,116.9L260.7,116.9z"/>
	<path fill="#C4C732" d="M270.7,124.9c-1,2.4-1.8,3.3-3.6,3.3c-0.5,0-1,0-1.4-0.2v-1.9c0.4,0.1,0.8,0.3,1.2,0.3
		c0.8,0,1.3-0.4,1.7-1.1l0.8-2.1l-4.9-12.2h2.3l3.6,10.1l0,0l3.5-10.1h2.1L270.7,124.9z"/>
	<path fill="#C4C732" d="M276.5,120.6h2.6v2.6h-2.6V120.6z"/>
	<path fill="#C4C732" d="M283.1,106.2h2.6v2.6c0,1.9-0.8,3.5-2.6,3.5v-1.2c1.1,0,1.4-1.2,1.4-2.3h-1.4V106.2z"/>
</g>
<line fill="none" stroke="#DADADA" stroke-width="0.25" stroke-linecap="round" stroke-linejoin="round" stroke-dasharray="0,0.807" x1="30.5" y1="109.8" x2="23.3" y2="109.8"/>
<path fill="none" stroke="#000000" stroke-width="0.25" stroke-linecap="round" stroke-linejoin="round" d="M22.5,109.8L22.5,109.8
	 M32.1,109.8L32.1,109.8"/>
<polygon fill="none" stroke="#878787" stroke-width="0.25" stroke-linecap="round" stroke-linejoin="round" stroke-miterlimit="10" points="
	22.4,77.9 9.3,77.9 9.2,114 22.4,110 "/>
<line fill="none" stroke="#DADADA" stroke-width="0.25" stroke-linecap="round" stroke-linejoin="round" stroke-dasharray="0,0.801" x1="82.8" y1="77.9" x2="77.3" y2="77.9"/>
<line fill="none" stroke="#DADADA" stroke-width="0.25" stroke-linecap="round" stroke-linejoin="round" stroke-dasharray="0,0.74" x1="89.7" y1="109.8" x2="77.2" y2="109.8"/>
<path fill="none" stroke="#DADADA" stroke-width="0.25" stroke-linecap="round" stroke-linejoin="round" d="M76.5,109.8L76.5,109.8
	 M91.2,109.8L91.2,109.8"/>
<line fill="none" stroke="#DADADA" stroke-width="0.25" stroke-linecap="round" stroke-linejoin="round" stroke-dasharray="0,0.72" x1="32.2" y1="115.7" x2="32.2" y2="119.3"/>
<path fill="none" stroke="#DADADA" stroke-width="0.25" stroke-linecap="round" stroke-linejoin="round" d="M32.2,120L32.2,120
	 M32.2,114.3L32.2,114.3"/>
<line fill="none" stroke="#DADADA" stroke-width="0.25" stroke-linecap="round" stroke-linejoin="round" stroke-dasharray="0,0.766" x1="53.9" y1="31.2" x2="53.9" y2="57.8"/>
<line fill="none" stroke="#DADADA" stroke-width="0.25" stroke-linecap="round" stroke-linejoin="round" stroke-dasharray="0,0.754" x1="75.8" y1="38.4" x2="75.8" y2="76.5"/>
<line fill="none" stroke="#DADADA" stroke-width="0.25" stroke-linecap="round" stroke-linejoin="round" stroke-dasharray="0,0.738" x1="80.7" y1="114.3" x2="63.9" y2="114.3"/>
<line fill="none" stroke="#DADADA" stroke-width="0.25" stroke-linecap="round" stroke-linejoin="round" stroke-dasharray="0,0.716" x1="19.1" y1="123" x2="19.1" y2="115.2"/>
<path fill="none" stroke="#000000" stroke-width="0.25" stroke-linecap="round" stroke-linejoin="round" d="M19.1,114.5L19.1,114.5
	 M19.1,124.5L19.1,124.5"/>
<polygon fill="none" stroke="#DADADA" stroke-width="0.501" stroke-linecap="round" stroke-linejoin="round" stroke-miterlimit="10" points="
	32.2,77.9 19,77.9 19,114 32.2,110 "/>
<polygon fill="none" stroke="#DADADA" stroke-width="0.501" stroke-linecap="round" stroke-linejoin="round" stroke-miterlimit="10" points="
	32.2,77.9 53.9,59 40.4,59 40.4,59 19,77.9 "/>
<polygon fill="none" stroke="#DADADA" stroke-width="0.501" stroke-linecap="round" stroke-linejoin="round" stroke-miterlimit="10" points="
	47.2,64.8 62.6,77.9 75.8,77.9 54,59 53.9,59 40.4,59 "/>
<polygon fill="none" stroke="#DADADA" stroke-width="0.501" stroke-linecap="round" stroke-linejoin="round" stroke-miterlimit="10" points="
	32.2,110 19,114 62.5,114 75.8,110 "/>
<polygon fill="none" stroke="#DADADA" stroke-width="0.501" stroke-linecap="round" stroke-linejoin="round" stroke-miterlimit="10" points="
	75.8,110 75.8,77.9 62.6,77.9 62.6,110 62.5,114 "/>
<line fill="none" stroke="#DADADA" stroke-width="0.25" stroke-linecap="round" stroke-linejoin="round" stroke-dasharray="0,0.771" x1="16.9" y1="114.3" x2="10" y2="114.3"/>
<line fill="none" stroke="#DADADA" stroke-width="0.25" stroke-linecap="round" stroke-linejoin="round" stroke-dasharray="0,0.754" x1="62.7" y1="38.4" x2="62.7" y2="76.5"/>
<polygon fill="none" stroke="#878787" stroke-width="0.25" stroke-linecap="round" stroke-linejoin="round" stroke-miterlimit="10" points="
	96.1,110 96.1,78 82.9,78 82.9,110 82.9,114.1 "/>
<polygon fill="none" stroke="#878787" stroke-width="0.25" stroke-linecap="round" stroke-linejoin="round" stroke-miterlimit="10" points="
	47.2,23.1 62.6,36.2 75.8,36.2 54,17.2 53.9,17.1 40.4,17.1 "/>
<line fill="none" stroke="#DADADA" stroke-width="0.25" stroke-linecap="round" stroke-linejoin="round" stroke-dasharray="0,0.756" x1="18.9" y1="57.9" x2="18.9" y2="76.7"/>
<polygon fill="#C3C530" stroke="#C3C530" stroke-width="0.25" stroke-linecap="round" stroke-linejoin="round" stroke-miterlimit="10" points="
	75.9,120.7 62.7,124.7 19,124.7 32.2,120.7 "/>
<line fill="none" stroke="#DADADA" stroke-width="0.25" stroke-linecap="round" stroke-linejoin="round" stroke-dasharray="0,0.775" x1="31.9" y1="57.4" x2="31.9" y2="76.6"/>
<polygon fill="none" stroke="#878787" stroke-width="0.25" stroke-linecap="round" stroke-linejoin="round" stroke-miterlimit="10" points="
	53.8,36.7 32,55.7 18.9,55.7 40.2,36.7 "/>
<line fill="none" stroke="#DADADA" stroke-width="0.25" stroke-linecap="round" stroke-linejoin="round" stroke-dasharray="0,0.75" x1="40.4" y1="19.8" x2="40.4" y2="57.8"/>
<line fill="none" stroke="#DADADA" stroke-width="0.25" stroke-linecap="round" stroke-linejoin="round" stroke-dasharray="0,0.771" x1="75.9" y1="118.4" x2="75.9" y2="111.6"/>
<path fill="none" stroke="#DADADA" stroke-width="0.25" stroke-linecap="round" stroke-linejoin="round" d="M75.9,110.8L75.9,110.8
	 M75.9,120L75.9,120"/>
<line fill="none" stroke="#DADADA" stroke-width="0.25" stroke-linecap="round" stroke-linejoin="round" stroke-dasharray="0,0.755" x1="62.7" y1="115.5" x2="62.7" y2="123.8"/>
<path fill="none" stroke="#DADADA" stroke-width="0.25" stroke-linecap="round" stroke-linejoin="round" d="M62.7,124.5L62.7,124.5
	 M62.7,114L62.7,114"/>
</svg>
