<?xml version="1.0" encoding="utf-8"?>
<!-- Generator: Adobe Illustrator 20.1.0, SVG Export Plug-In . SVG Version: 6.00 Build 0)  -->
<svg version="1.1" id="Layer_1" xmlns="http://www.w3.org/2000/svg" xmlns:xlink="http://www.w3.org/1999/xlink" x="0px" y="0px"
	 viewBox="0 0 400 284" enable-background="new 0 0 400 284" xml:space="preserve">
<g>
	<path fill="#C7C5B1" d="M118.5,11.8h-2.7V9.1c0-1.9,0.8-3.6,2.7-3.6v1.2c-1.1,0-1.4,1.2-1.4,2.4h1.4V11.8z"/>
	<path fill="#C7C5B1" d="M138.1,22.9h-2.4l-4-14.6l0,0l-4,14.6h-2.4l-4.5-17.4h2.4l3.4,14.5l0,0l3.9-14.5h2.5l3.8,14.5l0,0l3.5-14.5
		h2.3L138.1,22.9z"/>
	<path fill="#C7C5B1" d="M144.6,5.5h2.1v6.6l0,0c0.7-1.5,2.5-2.1,4-2.1c3.3,0,4.3,1.9,4.3,4.6v8.3h-2v-8.5c0-1.6-1-2.5-2.6-2.5
		c-2.5,0-3.7,1.7-3.7,3.9v7.1h-2.1L144.6,5.5L144.6,5.5z"/>
	<path fill="#C7C5B1" d="M168.9,18.9c-0.6,2.8-2.5,4.3-5.4,4.3c-4,0-5.9-2.8-6-6.6c0-3.8,2.5-6.5,5.9-6.5c4.5,0,5.8,4.2,5.7,7.2
		h-9.4c-0.1,2.2,1.2,4.1,3.9,4.1c1.7,0,2.9-0.8,3.3-2.5H168.9z M166.9,15.4c-0.1-2-1.6-3.6-3.6-3.6c-2.1,0-3.5,1.6-3.6,3.6H166.9z"
		/>
	<path fill="#C7C5B1" d="M171.3,10.3h1.9v2l0,0c0.9-1.6,2.3-2.3,4.1-2.3c3.3,0,4.3,1.9,4.3,4.6v8.3h-2.1v-8.5c0-1.6-1-2.5-2.6-2.5
		c-2.5,0-3.7,1.7-3.7,3.9v7.1h-2.1V10.3H171.3z"/>
	<path fill="#C7C5B1" d="M192,5.5h2.3v17.4H192V5.5z"/>
	<path fill="#C7C5B1" d="M205.5,12.1h-2.1v-1.8h2.1V8.4c0-2,1.2-3.1,3.5-3.1c0.4,0,0.9,0.1,1.3,0.2v1.8c-0.4-0.1-0.8-0.2-1.2-0.2
		c-1,0-1.6,0.3-1.6,1.4v1.8h2.4v1.8h-2.4v10.8h-2.1V12.1H205.5z M211.9,8V5.5h2.1V8H211.9z M211.9,22.9V10.3h2.1v12.6
		C214,22.9,211.9,22.9,211.9,22.9z"/>
	<path fill="#C7C5B1" d="M217.2,10.3h1.9V13l0,0c1-2,2.4-3,4.6-2.9v2.2c-3.3,0-4.6,1.9-4.6,5.1V23H217V10.3H217.2z"/>
	<path fill="#C7C5B1" d="M226.6,18.9c0.1,1.9,1.7,2.4,3.4,2.4c1.3,0,3-0.3,3-1.9c0-3.2-8.2-1-8.2-5.9c0-2.5,2.5-3.6,4.7-3.6
		c2.8,0,5,0.9,5.2,3.9h-2.1c-0.1-1.6-1.6-2.1-2.9-2.1c-1.2,0-2.7,0.3-2.7,1.6c0,1.5,2.2,1.8,4.1,2.2c2.1,0.5,4.1,1.2,4.1,3.6
		c0,3-2.8,4-5.4,4c-2.8,0-5.2-1.1-5.3-4.3h2.1V18.9z"/>
	<path fill="#C7C5B1" d="M240.4,10.3h2.5v1.8h-2.5V20c0,1,0.3,1.1,1.6,1.1h0.9v1.8h-1.6c-2.1,0-3-0.4-3-2.8v-8h-2.1v-1.8h2.1V6.5
		h2.1V10.3z"/>
	<path fill="#C7C5B1" d="M251.9,5.5h2.1v6.6l0,0c0.7-1.5,2.5-2.1,4-2.1c3.3,0,4.3,1.9,4.3,4.6v8.3h-2.1v-8.5c0-1.6-1-2.5-2.6-2.5
		c-2.5,0-3.7,1.7-3.7,3.9v7.1h-2.1V5.5H251.9z"/>
	<path fill="#C7C5B1" d="M276.6,22.8c-0.4,0.2-0.9,0.3-1.5,0.3c-1.1,0-1.8-0.6-1.8-1.9c-1.1,1.4-2.7,1.9-4.4,1.9
		c-2.3,0-4.2-1-4.2-3.5c0-2.8,2.1-3.5,4.3-3.9c2.3-0.5,4.2-0.3,4.2-1.9c0-1.8-1.5-2.1-2.8-2.1c-1.8,0-3,0.5-3.1,2.4h-2.1
		c0.1-3.1,2.5-4.2,5.3-4.2c2.3,0,4.7,0.5,4.7,3.5V20c0,1,0,1.4,0.7,1.4c0.2,0,0.4,0,0.6-0.1L276.6,22.8L276.6,22.8z M273.3,16.4
		c-1.6,1.2-6.3,0-6.3,3.1c0,1.4,1.2,1.8,2.4,1.8c2.7,0,3.8-1.7,3.8-2.8v-2.1H273.3z"/>
	<path fill="#C7C5B1" d="M289.8,22.9h-2.1v-1.7l0,0c-0.7,1.4-2.3,2-4,2c-3.9,0-5.8-3.1-5.8-6.6c0-3.6,1.9-6.5,5.7-6.5
		c1.3,0,3.2,0.5,4.1,2l0,0V5.5h2.1L289.8,22.9L289.8,22.9z M283.9,21.4c2.8,0,3.8-2.4,3.8-4.7c0-2.5-1.1-4.8-4-4.8
		c-2.8,0-3.8,2.4-3.8,4.9C280,19.1,281.3,21.4,283.9,21.4z"/>
	<path fill="#C7C5B1" d="M299.7,10.3h1.9v1.8l0,0c0.9-1.4,2.3-2.1,4.1-2.1c1.6,0,2.9,0.6,3.5,2.1c0.9-1.4,2.3-2.1,3.9-2.1
		c2.5,0,4.2,1,4.2,3.7v9.2h-2.1v-8.3c0-1.6-0.4-2.8-2.4-2.8s-3.3,1.3-3.3,3.2v7.8h-2.1v-8.3c0-1.6-0.5-2.8-2.4-2.8
		c-2.4,0-3.4,2.2-3.4,3.2v7.8h-2.1V10.3H299.7z"/>
	<path fill="#C7C5B1" d="M325.4,24.6c-1,2.4-1.8,3.4-3.7,3.4c-0.5,0-1,0-1.4-0.2v-1.9c0.4,0.1,0.8,0.3,1.2,0.3
		c0.9,0,1.3-0.4,1.7-1.1l0.9-2.1l-5-12.5h2.3l3.7,10.3l0,0l3.5-10.3h2.2L325.4,24.6z"/>
</g>
<g>
	<path fill="#C7C5B1" d="M122.8,35.9h2.1v6.6l0,0c0.7-1.5,2.5-2.1,4-2.1c3.3,0,4.3,1.9,4.3,4.6v8.3h-2.1v-8.5c0-1.6-1-2.5-2.6-2.5
		c-2.5,0-3.7,1.7-3.7,3.9v7.1h-2.1V35.9H122.8z"/>
	<path fill="#C7C5B1" d="M141.8,40.4c4,0,6.1,2.9,6.1,6.6c0,3.7-2.1,6.6-6.1,6.6s-6.1-2.9-6.1-6.6C135.7,43.3,137.8,40.4,141.8,40.4
		z M141.8,51.8c2.2,0,3.9-1.7,3.9-4.7s-1.8-4.8-3.9-4.8s-3.9,1.7-3.9,4.8C137.9,50.1,139.6,51.8,141.8,51.8z"/>
	<path fill="#C7C5B1" d="M160.7,53.3h-1.9v-2l0,0c-0.9,1.6-2.3,2.3-4.1,2.3c-3.3,0-4.3-1.9-4.3-4.6v-8.3h2.1v8.5
		c0,1.6,1,2.5,2.6,2.5c2.5,0,3.7-1.7,3.7-3.9v-7.1h2.1v12.6H160.7z"/>
	<path fill="#C7C5B1" d="M165.1,49.4c0.1,1.9,1.7,2.4,3.4,2.4c1.3,0,3-0.3,3-1.9c0-3.2-8.2-1-8.2-5.9c0-2.5,2.5-3.6,4.7-3.6
		c2.8,0,5,0.9,5.2,3.9h-2.1c-0.1-1.6-1.6-2.1-2.9-2.1c-1.2,0-2.7,0.3-2.7,1.6c0,1.5,2.2,1.8,4.1,2.2c2.1,0.5,4.1,1.2,4.1,3.6
		c0,3-2.8,4-5.4,4c-2.8,0-5.2-1.1-5.3-4.3L165.1,49.4L165.1,49.4z"/>
	<path fill="#C7C5B1" d="M186.8,49.3c-0.6,2.8-2.5,4.3-5.4,4.3c-4,0-5.9-2.8-6-6.6c0-3.8,2.5-6.5,5.9-6.5c4.5,0,5.8,4.2,5.7,7.2
		h-9.4c-0.1,2.2,1.2,4.1,3.9,4.1c1.7,0,2.9-0.8,3.3-2.5H186.8z M184.8,45.8c-0.1-2-1.6-3.6-3.6-3.6c-2.1,0-3.5,1.6-3.6,3.6H184.8z"
		/>
	<path fill="#C7C5B1" d="M208.3,53.3h-2.2l-2.6-10l0,0l-2.5,10h-2.2l-4-12.6h2.3l2.8,10.3l0,0l2.5-10.3h2.3l2.6,10.3l0,0l2.8-10.3
		h2.1L208.3,53.3z"/>
	<path fill="#C7C5B1" d="M216.5,38.5h-2.1V36h2.1V38.5z M214.4,40.7h2.1v12.6h-2.1V40.7z"/>
	<path fill="#C7C5B1" d="M222.6,40.7h2.5v1.8h-2.5v7.8c0,1,0.3,1.1,1.6,1.1h0.9v1.8h-1.6c-2.1,0-3-0.4-3-2.8v-8h-2.1v-1.8h2.1V37
		h2.1V40.7z"/>
	<path fill="#C7C5B1" d="M227.4,35.9h2.1v6.6l0,0c0.7-1.5,2.5-2.1,4-2.1c3.3,0,4.3,1.9,4.3,4.6v8.3h-2.1v-8.5c0-1.6-1-2.5-2.6-2.5
		c-2.5,0-3.7,1.7-3.7,3.9v7.1h-2.1V35.9H227.4z"/>
	<path fill="#C7C5B1" d="M247.7,40.7h1.9v1.8l0,0c0.9-1.4,2.3-2.1,4.1-2.1c1.6,0,2.9,0.6,3.5,2.1c0.9-1.4,2.3-2.1,3.9-2.1
		c2.5,0,4.2,1,4.2,3.7v9.2h-2.1V45c0-1.6-0.4-2.8-2.4-2.8s-3.3,1.3-3.3,3.2v7.8h-2.1v-8.3c0-1.6-0.5-2.8-2.4-2.8
		c-2.4,0-3.4,2.2-3.4,3.2v7.8h-2.1V40.7H247.7z"/>
	<path fill="#C7C5B1" d="M273.4,55c-1,2.4-1.8,3.4-3.7,3.4c-0.5,0-1,0-1.4-0.2v-1.9c0.4,0.1,0.8,0.3,1.2,0.3c0.9,0,1.3-0.4,1.7-1.1
		l0.9-2.1l-5-12.5h2.3l3.7,10.3l0,0l3.5-10.3h2.2L273.4,55z"/>
	<path fill="#C7C5B1" d="M287.5,35.9h2.1v10.3l5.7-5.5h2.8l-5,4.6l5.4,8h-2.6l-4.3-6.6l-1.9,1.8v4.8h-2.1V35.9H287.5z"/>
	<path fill="#C7C5B1" d="M302.2,38.5h-2.1V36h2.1V38.5z M300.1,40.7h2.1v12.6h-2.1V40.7z"/>
	<path fill="#C7C5B1" d="M316.7,53.3h-2.1v-1.7l0,0c-0.7,1.4-2.3,2-4,2c-3.9,0-5.8-3.1-5.8-6.6c0-3.6,1.9-6.5,5.7-6.5
		c1.3,0,3.2,0.5,4.1,2l0,0V36h2.1L316.7,53.3L316.7,53.3z M310.8,51.8c2.8,0,3.8-2.4,3.8-4.7c0-2.5-1.1-4.8-4-4.8
		c-2.8,0-3.8,2.4-3.8,4.9C306.9,49.5,308.1,51.8,310.8,51.8z"/>
	<path fill="#C7C5B1" d="M321.1,49.4c0.1,1.9,1.7,2.4,3.4,2.4c1.3,0,3-0.3,3-1.9c0-3.2-8.2-1-8.2-5.9c0-2.5,2.5-3.6,4.7-3.6
		c2.8,0,5,0.9,5.2,3.9h-2.1c-0.1-1.6-1.6-2.1-2.9-2.1c-1.2,0-2.7,0.3-2.7,1.6c0,1.5,2.2,1.8,4.1,2.2c2.1,0.5,4.1,1.2,4.1,3.6
		c0,3-2.8,4-5.4,4c-2.8,0-5.2-1.1-5.3-4.3L321.1,49.4L321.1,49.4z"/>
	<path fill="#C7C5B1" d="M332.5,50.6h2.7v2.5c0,1.8-0.8,3.3-2.7,3.8v-1.2c1.1-0.4,1.5-1.6,1.4-2.4h-1.4V50.6z"/>
	<path fill="#C7C5B1" d="M347.7,38.5h-2.1V36h2.1V38.5z M345.7,40.7h2.1v12.6h-2.1V40.7z"/>
	<path fill="#C7C5B1" d="M353.8,40.7h2.5v1.8h-2.5v7.8c0,1,0.3,1.1,1.6,1.1h0.9v1.8h-1.6c-2.1,0-3-0.4-3-2.8v-8h-2.1v-1.8h2.1V37
		h2.1V40.7z"/>
</g>
<g>
	<path fill="#C7C5B1" d="M135.3,83.7h-2.2l-2.6-10l0,0l-2.5,10h-2.2l-4-12.6h2.3l2.8,10.3l0,0l2.5-10.3h2.3l2.6,10.3l0,0l2.8-10.3
		h2.1L135.3,83.7z"/>
	<path fill="#C7C5B1" d="M152.4,83.7c-0.4,0.2-0.9,0.3-1.5,0.3c-1.1,0-1.8-0.6-1.8-1.9c-1.1,1.4-2.7,1.9-4.4,1.9
		c-2.3,0-4.2-1-4.2-3.5c0-2.8,2.1-3.5,4.3-3.9c2.3-0.5,4.2-0.3,4.2-1.9c0-1.8-1.5-2.1-2.8-2.1c-1.8,0-3,0.5-3.1,2.4H141
		c0.1-3.1,2.5-4.2,5.3-4.2c2.3,0,4.7,0.5,4.7,3.5v6.5c0,1,0,1.4,0.7,1.4c0.2,0,0.4,0,0.6-0.1v1.6H152.4z M149.1,77.2
		c-1.6,1.2-6.3,0-6.3,3.1c0,1.4,1.2,1.8,2.4,1.8c2.7,0,3.8-1.7,3.8-2.8v-2.1H149.1z"/>
	<path fill="#C7C5B1" d="M155.6,79.8c0.1,1.9,1.7,2.4,3.4,2.4c1.3,0,3-0.3,3-1.9c0-3.2-8.2-1-8.2-5.9c0-2.5,2.5-3.6,4.7-3.6
		c2.8,0,5,0.9,5.2,3.9h-2.1c-0.1-1.6-1.6-2.1-2.9-2.1c-1.2,0-2.7,0.3-2.7,1.6c0,1.5,2.2,1.8,4.1,2.2c2.1,0.5,4.1,1.2,4.1,3.6
		c0,3-2.8,4-5.4,4c-2.8,0-5.2-1.1-5.3-4.3h2.1V79.8z"/>
	<path fill="#C7C5B1" d="M173.3,71.2h1.9v2l0,0c0.9-1.6,2.3-2.3,4.1-2.3c3.3,0,4.3,1.9,4.3,4.6v8.3h-2.1v-8.5c0-1.6-1-2.5-2.6-2.5
		c-2.5,0-3.7,1.7-3.7,3.9v7.1h-2.1V71.2H173.3z"/>
	<path fill="#C7C5B1" d="M197.5,79.8c-0.6,2.8-2.5,4.3-5.4,4.3c-4,0-5.9-2.8-6-6.6c0-3.8,2.5-6.5,5.9-6.5c4.5,0,5.8,4.2,5.7,7.2
		h-9.4c-0.1,2.2,1.2,4.1,3.9,4.1c1.7,0,2.9-0.8,3.3-2.5H197.5z M195.5,76.2c-0.1-2-1.6-3.6-3.6-3.6c-2.1,0-3.5,1.6-3.6,3.6H195.5z"
		/>
	<path fill="#C7C5B1" d="M211,83.7c-0.4,0.2-0.9,0.3-1.5,0.3c-1.1,0-1.8-0.6-1.8-1.9c-1.1,1.4-2.7,1.9-4.4,1.9c-2.3,0-4.2-1-4.2-3.5
		c0-2.8,2.1-3.5,4.3-3.9c2.3-0.5,4.2-0.3,4.2-1.9c0-1.8-1.5-2.1-2.8-2.1c-1.8,0-3,0.5-3.1,2.4h-2.1c0.1-3.1,2.5-4.2,5.3-4.2
		c2.3,0,4.7,0.5,4.7,3.5v6.5c0,1,0,1.4,0.7,1.4c0.2,0,0.4,0,0.6-0.1v1.6H211z M207.7,77.2c-1.6,1.2-6.3,0-6.3,3.1
		c0,1.4,1.2,1.8,2.4,1.8c2.7,0,3.8-1.7,3.8-2.8v-2.1H207.7z"/>
	<path fill="#C7C5B1" d="M212.9,71.2h1.9v2.7l0,0c1-2,2.4-3,4.6-2.9v2.2c-3.3,0-4.6,1.9-4.6,5.1v5.6h-2.1V71.2H212.9z"/>
	<path fill="#C7C5B1" d="M227.8,71.2h1.9V73l0,0c0.9-1.4,2.3-2.1,4.1-2.1c1.6,0,2.9,0.6,3.5,2.1c0.9-1.4,2.3-2.1,3.9-2.1
		c2.5,0,4.2,1,4.2,3.7v9.2h-2.1v-8.3c0-1.6-0.4-2.8-2.4-2.8s-3.3,1.3-3.3,3.2v7.8h-2.1v-8.3c0-1.6-0.5-2.8-2.4-2.8
		c-2.4,0-3.4,2.2-3.4,3.2v7.8h-2.1V71.2H227.8z"/>
	<path fill="#C7C5B1" d="M253.5,85.4c-1,2.4-1.8,3.4-3.7,3.4c-0.5,0-1,0-1.4-0.2v-1.9c0.4,0.1,0.8,0.3,1.2,0.3
		c0.9,0,1.3-0.4,1.7-1.1l0.9-2.1l-5-12.5h2.3l3.7,10.3l0,0l3.5-10.3h2.2L253.5,85.4z"/>
	<path fill="#C7C5B1" d="M267.6,71.2h2.1v1.7l0,0c0.7-1.4,2.3-2,4-2c3.9,0,5.8,3.1,5.8,6.6c0,3.6-1.9,6.5-5.7,6.5
		c-1.3,0-3.2-0.5-4.1-2l0,0v6.5h-2.1L267.6,71.2L267.6,71.2z M273.4,72.7c-2.8,0-3.8,2.4-3.8,4.7c0,2.5,1.1,4.8,4,4.8
		c2.8,0,3.8-2.4,3.8-4.9C277.3,75,276.1,72.7,273.4,72.7z"/>
	<path fill="#C7C5B1" d="M293.1,83.7c-0.4,0.2-0.9,0.3-1.5,0.3c-1.1,0-1.8-0.6-1.8-1.9c-1.1,1.4-2.7,1.9-4.4,1.9
		c-2.3,0-4.2-1-4.2-3.5c0-2.8,2.1-3.5,4.3-3.9c2.3-0.5,4.2-0.3,4.2-1.9c0-1.8-1.5-2.1-2.8-2.1c-1.8,0-3,0.5-3.1,2.4h-2.1
		c0.1-3.1,2.5-4.2,5.3-4.2c2.3,0,4.7,0.5,4.7,3.5v6.5c0,1,0,1.4,0.7,1.4c0.2,0,0.4,0,0.6-0.1L293.1,83.7L293.1,83.7z M289.7,77.2
		c-1.6,1.2-6.3,0-6.3,3.1c0,1.4,1.2,1.8,2.4,1.8c2.7,0,3.8-1.7,3.8-2.8v-2.1H289.7z"/>
	<path fill="#C7C5B1" d="M294.9,71.2h1.9v2.7l0,0c1-2,2.4-3,4.6-2.9v2.2c-3.3,0-4.6,1.9-4.6,5.1v5.6h-2.1V71.2H294.9z"/>
	<path fill="#C7C5B1" d="M313.4,79.8c-0.6,2.8-2.5,4.3-5.4,4.3c-4,0-5.9-2.8-6-6.6c0-3.8,2.5-6.5,5.9-6.5c4.5,0,5.8,4.2,5.7,7.2
		h-9.4c-0.1,2.2,1.2,4.1,3.9,4.1c1.7,0,2.9-0.8,3.3-2.5H313.4z M311.4,76.2c-0.1-2-1.6-3.6-3.6-3.6c-2.1,0-3.5,1.6-3.6,3.6H311.4z"
		/>
	<path fill="#C7C5B1" d="M315.8,71.2h1.9v2l0,0c0.9-1.6,2.3-2.3,4.1-2.3c3.3,0,4.3,1.9,4.3,4.6v8.3H324v-8.5c0-1.6-1-2.5-2.6-2.5
		c-2.5,0-3.7,1.7-3.7,3.9v7.1h-2.1V71.2H315.8z"/>
	<path fill="#C7C5B1" d="M332.2,71.2h2.5V73h-2.5v7.8c0,1,0.3,1.1,1.6,1.1h0.9v1.8h-1.6c-2.1,0-3-0.4-3-2.8v-8H328v-1.8h2.1v-3.8
		h2.1V71.2z"/>
	<path fill="#C7C5B1" d="M338.2,79.8c0.1,1.9,1.7,2.4,3.4,2.4c1.3,0,3-0.3,3-1.9c0-3.2-8.2-1-8.2-5.9c0-2.5,2.5-3.6,4.7-3.6
		c2.8,0,5,0.9,5.2,3.9h-2.1c-0.1-1.6-1.6-2.1-2.9-2.1c-1.2,0-2.7,0.3-2.7,1.6c0,1.5,2.2,1.8,4.1,2.2c2.1,0.5,4.1,1.2,4.1,3.6
		c0,3-2.8,4-5.4,4c-2.8,0-5.2-1.1-5.3-4.3h2.1V79.8z"/>
	<path fill="#C7C5B1" d="M349.6,81h2.7v2.7h-2.7V81z"/>
</g>
<g>
	<path fill="#C7C5B1" d="M123.3,96.8h2.3v17.4h-2.3V96.8z"/>
	<path fill="#C7C5B1" d="M147.1,114.2H145v-1.7l0,0c-0.7,1.4-2.3,2-4,2c-3.9,0-5.8-3.1-5.8-6.6c0-3.6,1.9-6.5,5.7-6.5
		c1.3,0,3.2,0.5,4.1,2l0,0v-6.5h2.1V114.2z M141.3,112.6c2.8,0,3.8-2.4,3.8-4.7c0-2.5-1.1-4.8-4-4.8c-2.8,0-3.8,2.4-3.8,4.9
		C137.4,110.3,138.6,112.6,141.3,112.6z"/>
	<path fill="#C7C5B1" d="M161.1,110.2c-0.6,2.8-2.5,4.3-5.4,4.3c-4,0-5.9-2.8-6-6.6c0-3.8,2.5-6.5,5.9-6.5c4.5,0,5.8,4.2,5.7,7.2
		h-9.4c-0.1,2.2,1.2,4.1,3.9,4.1c1.7,0,2.9-0.8,3.3-2.5H161.1z M159.1,106.7c-0.1-2-1.6-3.6-3.6-3.6c-2.1,0-3.5,1.6-3.6,3.6H159.1z"
		/>
	<path fill="#C7C5B1" d="M163.5,96.8h2.1v17.4h-2.1V96.8z"/>
	<path fill="#C7C5B1" d="M171,99.3h-2.1v-2.5h2.1V99.3z M168.9,101.6h2.1v12.6h-2.1V101.6z"/>
	<path fill="#C7C5B1" d="M174.3,96.8h2.1v6.5l0,0c0.7-1.4,2.3-2,4-2c3.9,0,5.8,3.1,5.8,6.6c0,3.6-1.9,6.5-5.7,6.5
		c-1.3,0-3.2-0.5-4.1-2l0,0v1.7h-2.1V96.8z M180.1,103.1c-2.8,0-3.8,2.4-3.8,4.7c0,2.5,1.1,4.8,4,4.8c2.8,0,3.8-2.4,3.8-4.9
		C184,105.4,182.8,103.1,180.1,103.1z"/>
	<path fill="#C7C5B1" d="M199.4,110.2c-0.6,2.8-2.5,4.3-5.4,4.3c-4,0-5.9-2.8-6-6.6c0-3.8,2.5-6.5,5.9-6.5c4.5,0,5.8,4.2,5.7,7.2
		h-9.4c-0.1,2.2,1.2,4.1,3.9,4.1c1.7,0,2.9-0.8,3.3-2.5H199.4z M197.4,106.7c-0.1-2-1.6-3.6-3.6-3.6c-2.1,0-3.5,1.6-3.6,3.6H197.4z"
		/>
	<path fill="#C7C5B1" d="M201.6,101.6h1.9v2.7l0,0c1-2,2.4-3,4.6-2.9v2.2c-3.3,0-4.6,1.9-4.6,5.1v5.6h-2.1v-12.7H201.6z"/>
	<path fill="#C7C5B1" d="M220.9,114.1c-0.4,0.2-0.9,0.3-1.5,0.3c-1.1,0-1.8-0.6-1.8-1.9c-1.1,1.4-2.7,1.9-4.4,1.9
		c-2.3,0-4.2-1-4.2-3.5c0-2.8,2.1-3.5,4.3-3.9c2.3-0.5,4.2-0.3,4.2-1.8c0-1.8-1.5-2.1-2.8-2.1c-1.8,0-3,0.5-3.1,2.4h-2.1
		c0.1-3.1,2.5-4.2,5.3-4.2c2.3,0,4.7,0.5,4.7,3.5v6.5c0,1,0,1.4,0.7,1.4c0.2,0,0.4,0,0.6-0.1v1.5H220.9z M217.6,107.7
		c-1.6,1.2-6.3,0-6.3,3.1c0,1.4,1.2,1.8,2.4,1.8c2.7,0,3.8-1.7,3.8-2.8v-2.1H217.6z"/>
	<path fill="#C7C5B1" d="M225.7,101.6h2.5v1.8h-2.5v7.8c0,1,0.3,1.1,1.6,1.1h0.9v1.8h-1.6c-2.1,0-3-0.4-3-2.8v-8h-2.1v-1.8h2.1v-3.8
		h2.1V101.6z"/>
	<path fill="#C7C5B1" d="M241.3,110.2c-0.6,2.8-2.5,4.3-5.4,4.3c-4,0-5.9-2.8-6-6.6c0-3.8,2.5-6.5,5.9-6.5c4.5,0,5.8,4.2,5.7,7.2
		H232c-0.1,2.2,1.2,4.1,3.9,4.1c1.7,0,2.9-0.8,3.3-2.5H241.3z M239.3,106.7c-0.1-2-1.6-3.6-3.6-3.6c-2.1,0-3.5,1.6-3.6,3.6H239.3z"
		/>
	<path fill="#C7C5B1" d="M243.7,96.8h2.1v17.4h-2.1V96.8z"/>
	<path fill="#C7C5B1" d="M254,115.8c-1,2.4-1.8,3.4-3.7,3.4c-0.5,0-1,0-1.4-0.2v-1.9c0.4,0.1,0.8,0.3,1.2,0.3c0.9,0,1.3-0.4,1.7-1.1
		l0.9-2.1l-5-12.5h2.3l3.7,10.3l0,0l3.5-10.3h2.2L254,115.8z"/>
	<path fill="#C7C5B1" d="M280.4,114.2h-2.2l-2.6-10l0,0l-2.5,10h-2.2l-4-12.6h2.3l2.8,10.3l0,0l2.5-10.3h2.3l2.6,10.3l0,0l2.8-10.3
		h2.1L280.4,114.2z"/>
	<path fill="#C7C5B1" d="M297.5,114.1c-0.4,0.2-0.9,0.3-1.5,0.3c-1.1,0-1.8-0.6-1.8-1.9c-1.1,1.4-2.7,1.9-4.4,1.9
		c-2.3,0-4.2-1-4.2-3.5c0-2.8,2.1-3.5,4.3-3.9c2.3-0.5,4.2-0.3,4.2-1.8c0-1.8-1.5-2.1-2.8-2.1c-1.8,0-3,0.5-3.1,2.4h-2.1
		c0.1-3.1,2.5-4.2,5.3-4.2c2.3,0,4.7,0.5,4.7,3.5v6.5c0,1,0,1.4,0.7,1.4c0.2,0,0.4,0,0.6-0.1L297.5,114.1L297.5,114.1z M294.2,107.7
		c-1.6,1.2-6.3,0-6.3,3.1c0,1.4,1.2,1.8,2.4,1.8c2.7,0,3.8-1.7,3.8-2.8v-2.1H294.2z"/>
	<path fill="#C7C5B1" d="M299.5,101.6h1.9v2l0,0c0.9-1.6,2.3-2.3,4.1-2.3c3.3,0,4.3,1.9,4.3,4.6v8.3h-2.1v-8.5c0-1.6-1-2.5-2.6-2.5
		c-2.5,0-3.7,1.7-3.7,3.9v7.1h-2.1v-12.6H299.5z"/>
	<path fill="#C7C5B1" d="M315.9,101.6h2.5v1.8h-2.5v7.8c0,1,0.3,1.1,1.6,1.1h0.9v1.8h-1.6c-2.1,0-3-0.4-3-2.8v-8h-2.1v-1.8h2.1v-3.8
		h2.1V101.6z"/>
	<path fill="#C7C5B1" d="M331.4,110.2c-0.6,2.8-2.5,4.3-5.4,4.3c-4,0-5.9-2.8-6-6.6c0-3.8,2.5-6.5,5.9-6.5c4.5,0,5.8,4.2,5.7,7.2
		h-9.4c-0.1,2.2,1.2,4.1,3.9,4.1c1.7,0,2.9-0.8,3.3-2.5H331.4z M329.4,106.7c-0.1-2-1.6-3.6-3.6-3.6c-2.1,0-3.5,1.6-3.6,3.6H329.4z"
		/>
	<path fill="#C7C5B1" d="M345,114.2h-2.1v-1.7l0,0c-0.7,1.4-2.3,2-4,2c-3.9,0-5.8-3.1-5.8-6.6c0-3.6,1.9-6.5,5.7-6.5
		c1.3,0,3.2,0.5,4.1,2l0,0v-6.5h2.1L345,114.2L345,114.2z M339.1,112.6c2.8,0,3.8-2.4,3.8-4.7c0-2.5-1.1-4.8-4-4.8
		c-2.8,0-3.8,2.4-3.8,4.9C335.2,110.3,336.5,112.6,339.1,112.6z"/>
</g>
<g>
	<path fill="#C7C5B1" d="M125.7,132h2.5v1.8h-2.5v7.8c0,1,0.3,1.1,1.6,1.1h0.9v1.8h-1.6c-2.1,0-3-0.4-3-2.8v-8h-2.1V132h2.1v-3.8
		h2.1V132z"/>
	<path fill="#C7C5B1" d="M130.5,127.2h2.1v6.6l0,0c0.7-1.5,2.5-2.1,4-2.1c3.3,0,4.3,1.9,4.3,4.6v8.3h-2.1v-8.5c0-1.6-1-2.5-2.6-2.5
		c-2.5,0-3.7,1.7-3.7,3.9v7.1h-2.1v-17.4H130.5z"/>
	<path fill="#C7C5B1" d="M154.7,140.6c-0.6,2.8-2.5,4.3-5.4,4.3c-4,0-5.9-2.8-6-6.6c0-3.8,2.5-6.5,5.9-6.5c4.5,0,5.8,4.2,5.7,7.2
		h-9.4c-0.1,2.2,1.2,4.1,3.9,4.1c1.7,0,2.9-0.8,3.3-2.5H154.7z M152.8,137.1c-0.1-2-1.6-3.6-3.6-3.6c-2.1,0-3.5,1.6-3.6,3.6H152.8z"
		/>
	<path fill="#C7C5B1" d="M157.1,132h1.9v1.8l0,0c0.9-1.4,2.3-2.1,4.1-2.1c1.6,0,2.9,0.6,3.5,2.1c0.9-1.4,2.3-2.1,3.9-2.1
		c2.5,0,4.2,1,4.2,3.7v9.2h-2.1v-8.3c0-1.6-0.4-2.8-2.4-2.8s-3.3,1.3-3.3,3.2v7.8h-2.1v-8.3c0-1.6-0.5-2.8-2.4-2.8
		c-2.4,0-3.4,2.2-3.4,3.2v7.8h-2.1V132H157.1z"/>
	<path fill="#C7C5B1" d="M184.6,132h1.9v2l0,0c0.9-1.6,2.3-2.3,4.1-2.3c3.3,0,4.3,1.9,4.3,4.6v8.3H193v-8.5c0-1.6-1-2.5-2.6-2.5
		c-2.5,0-3.7,1.7-3.7,3.9v7.1h-2.1L184.6,132L184.6,132z"/>
	<path fill="#C7C5B1" d="M208.9,140.6c-0.6,2.8-2.5,4.3-5.4,4.3c-4,0-5.9-2.8-6-6.6c0-3.8,2.5-6.5,5.9-6.5c4.5,0,5.8,4.2,5.7,7.2
		h-9.4c-0.1,2.2,1.2,4.1,3.9,4.1c1.7,0,2.9-0.8,3.3-2.5H208.9z M206.9,137.1c-0.1-2-1.6-3.6-3.6-3.6c-2.1,0-3.5,1.6-3.6,3.6H206.9z"
		/>
	<path fill="#C7C5B1" d="M222.4,144.5c-0.4,0.2-0.9,0.3-1.5,0.3c-1.1,0-1.8-0.6-1.8-1.9c-1.1,1.4-2.7,1.9-4.4,1.9
		c-2.3,0-4.2-1-4.2-3.5c0-2.8,2.1-3.5,4.3-3.9c2.3-0.5,4.2-0.3,4.2-1.9c0-1.8-1.5-2.1-2.8-2.1c-1.8,0-3,0.5-3.1,2.4H211
		c0.1-3.1,2.5-4.2,5.3-4.2c2.3,0,4.7,0.5,4.7,3.5v6.5c0,1,0,1.4,0.7,1.4c0.2,0,0.4,0,0.6-0.1L222.4,144.5L222.4,144.5z M219,138.1
		c-1.6,1.2-6.3,0-6.3,3.1c0,1.4,1.2,1.8,2.4,1.8c2.7,0,3.8-1.7,3.8-2.8v-2.1H219z"/>
	<path fill="#C7C5B1" d="M224.2,132h1.9v2.7l0,0c1-2,2.4-3,4.6-2.9v2.2c-3.3,0-4.6,1.9-4.6,5.1v5.6H224V132H224.2z"/>
	<path fill="#C7C5B1" d="M240.4,140.6c0.1,1.9,1.7,2.4,3.4,2.4c1.3,0,3-0.3,3-1.9c0-3.2-8.2-1-8.2-5.9c0-2.5,2.5-3.6,4.7-3.6
		c2.8,0,5,0.9,5.2,3.9h-2.1c-0.1-1.6-1.6-2.1-2.9-2.1c-1.2,0-2.7,0.3-2.7,1.6c0,1.5,2.2,1.8,4.1,2.2c2.1,0.5,4.1,1.2,4.1,3.6
		c0,3-2.8,4-5.4,4c-2.8,0-5.2-1.1-5.3-4.3h2.1V140.6z"/>
	<path fill="#C7C5B1" d="M256.8,131.7c4,0,6.1,2.9,6.1,6.6c0,3.7-2.1,6.6-6.1,6.6s-6.1-2.9-6.1-6.6
		C250.6,134.6,252.8,131.7,256.8,131.7z M256.8,143.1c2.2,0,3.9-1.7,3.9-4.7s-1.8-4.8-3.9-4.8s-3.9,1.7-3.9,4.8
		C252.8,141.4,254.6,143.1,256.8,143.1z"/>
	<path fill="#C7C5B1" d="M274.9,132h2.5v1.8h-2.5v7.8c0,1,0.3,1.1,1.6,1.1h0.9v1.8h-1.6c-2.1,0-3-0.4-3-2.8v-8h-2.1V132h2.1v-3.8
		h2.1V132z"/>
	<path fill="#C7C5B1" d="M279.7,127.2h2.1v6.6l0,0c0.7-1.5,2.5-2.1,4-2.1c3.3,0,4.3,1.9,4.3,4.6v8.3H288v-8.5c0-1.6-1-2.5-2.6-2.5
		c-2.5,0-3.7,1.7-3.7,3.9v7.1h-2.1v-17.4H279.7z"/>
	<path fill="#C7C5B1" d="M304,140.6c-0.6,2.8-2.5,4.3-5.4,4.3c-4,0-5.9-2.8-6-6.6c0-3.8,2.5-6.5,5.9-6.5c4.5,0,5.8,4.2,5.7,7.2h-9.4
		c-0.1,2.2,1.2,4.1,3.9,4.1c1.7,0,2.9-0.8,3.3-2.5H304z M302,137.1c-0.1-2-1.6-3.6-3.6-3.6c-2.1,0-3.5,1.6-3.6,3.6H302z"/>
	<path fill="#C7C5B1" d="M311.3,146.3c-1,2.4-1.8,3.4-3.7,3.4c-0.5,0-1,0-1.4-0.2v-1.9c0.4,0.1,0.8,0.3,1.2,0.3
		c0.9,0,1.3-0.4,1.7-1.1l0.9-2.1l-5-12.5h2.3l3.7,10.3l0,0l3.5-10.3h2.2L311.3,146.3z"/>
	<path fill="#C7C5B1" d="M333.8,136c-0.3-1.6-1.4-2.5-3.1-2.5c-3,0-3.9,2.4-3.9,4.9c0,2.3,1,4.6,3.7,4.6c2,0,3.2-1.1,3.5-3.1h2.1
		c-0.5,3.1-2.4,4.9-5.5,4.9c-3.8,0-5.9-2.7-5.9-6.4c0-3.8,1.9-6.7,5.9-6.7c2.9,0,5.1,1.3,5.4,4.3H333.8z"/>
	<path fill="#C7C5B1" d="M343.8,131.7c4,0,6.1,2.9,6.1,6.6c0,3.7-2.1,6.6-6.1,6.6s-6.1-2.9-6.1-6.6
		C337.7,134.6,339.8,131.7,343.8,131.7z M343.8,143.1c2.2,0,3.9-1.7,3.9-4.7s-1.8-4.8-3.9-4.8s-3.9,1.7-3.9,4.8
		C339.8,141.4,341.6,143.1,343.8,143.1z"/>
	<path fill="#C7C5B1" d="M362.7,144.6h-1.9v-2l0,0c-0.9,1.6-2.3,2.3-4.1,2.3c-3.3,0-4.3-1.9-4.3-4.6V132h2.1v8.5
		c0,1.6,1,2.5,2.6,2.5c2.5,0,3.7-1.7,3.7-3.9V132h2.1v12.6H362.7z"/>
	<path fill="#C7C5B1" d="M366,127.2h2.1v17.4H366V127.2z"/>
	<path fill="#C7C5B1" d="M382.5,144.6h-2.1v-1.7l0,0c-0.7,1.4-2.3,2-4,2c-3.9,0-5.8-3.1-5.8-6.6c0-3.6,1.9-6.5,5.7-6.5
		c1.3,0,3.2,0.5,4.1,2l0,0v-6.5h2.1L382.5,144.6L382.5,144.6z M376.6,143.1c2.8,0,3.8-2.4,3.8-4.7c0-2.5-1.1-4.8-4-4.8
		c-2.8,0-3.8,2.4-3.8,4.9C372.8,140.8,374,143.1,376.6,143.1z"/>
</g>
<g>
	<path fill="#C7C5B1" d="M122.8,157.6h2.1v6.6l0,0c0.7-1.5,2.5-2.1,4-2.1c3.3,0,4.3,1.9,4.3,4.6v8.3h-2.1v-8.5c0-1.6-1-2.5-2.6-2.5
		c-2.5,0-3.7,1.7-3.7,3.9v7.1h-2.1v-17.4H122.8z"/>
	<path fill="#C7C5B1" d="M147.1,171c-0.6,2.8-2.5,4.3-5.4,4.3c-4,0-5.9-2.8-6-6.6c0-3.8,2.5-6.5,5.9-6.5c4.5,0,5.8,4.2,5.7,7.2h-9.4
		c-0.1,2.2,1.2,4.1,3.9,4.1c1.7,0,2.9-0.8,3.3-2.5H147.1z M145.1,167.5c-0.1-2-1.6-3.6-3.6-3.6c-2.1,0-3.5,1.6-3.6,3.6H145.1z"/>
	<path fill="#C7C5B1" d="M149.5,157.6h2.1V175h-2.1V157.6z"/>
	<path fill="#C7C5B1" d="M154.9,162.4h2.1v1.7l0,0c0.7-1.4,2.3-2,4-2c3.9,0,5.8,3.1,5.8,6.6c0,3.6-1.9,6.5-5.7,6.5
		c-1.3,0-3.2-0.5-4.1-2l0,0v6.5h-2.1V162.4z M160.7,164c-2.8,0-3.8,2.4-3.8,4.7c0,2.5,1.1,4.8,4,4.8c2.8,0,3.8-2.4,3.8-4.9
		C164.6,166.3,163.4,164,160.7,164z"/>
	<path fill="#C7C5B1" d="M169.7,172.3h2.7v2.5c0,1.8-0.8,3.3-2.7,3.8v-1.2c1.1-0.4,1.5-1.6,1.4-2.4h-1.4V172.3z"/>
	<path fill="#C7C5B1" d="M182.9,157.6h2.1v6.5l0,0c0.7-1.4,2.3-2,4-2c3.9,0,5.8,3.1,5.8,6.6c0,3.6-1.9,6.5-5.7,6.5
		c-1.3,0-3.2-0.5-4.1-2l0,0v1.7h-2.1V157.6z M188.7,164c-2.8,0-3.8,2.4-3.8,4.7c0,2.5,1.1,4.8,4,4.8c2.8,0,3.8-2.4,3.8-4.9
		C192.6,166.3,191.4,164,188.7,164z"/>
	<path fill="#C7C5B1" d="M207.6,175h-1.9v-2l0,0c-0.9,1.6-2.3,2.3-4.1,2.3c-3.3,0-4.3-1.9-4.3-4.6v-8.3h2.1v8.5c0,1.6,1,2.5,2.6,2.5
		c2.5,0,3.7-1.7,3.7-3.9v-7.1h2.1V175H207.6z"/>
	<path fill="#C7C5B1" d="M213.6,162.4h2.5v1.8h-2.5v7.8c0,1,0.3,1.1,1.6,1.1h0.9v1.8h-1.6c-2.1,0-3-0.4-3-2.8v-8h-2.1v-1.8h2.1v-3.8
		h2.1V162.4z"/>
	<path fill="#C7C5B1" d="M225.2,162.4h1.9v2l0,0c0.9-1.6,2.3-2.3,4.1-2.3c3.3,0,4.3,1.9,4.3,4.6v8.3h-2.1v-8.5c0-1.6-1-2.5-2.6-2.5
		c-2.5,0-3.7,1.7-3.7,3.9v7.1H225v-12.6H225.2z"/>
	<path fill="#C7C5B1" d="M244.1,162.1c4,0,6.1,2.9,6.1,6.6c0,3.7-2.1,6.6-6.1,6.6s-6.1-2.9-6.1-6.6S240.2,162.1,244.1,162.1z
		 M244.1,173.5c2.2,0,3.9-1.7,3.9-4.7s-1.8-4.8-3.9-4.8s-3.9,1.7-3.9,4.8C240.2,171.8,242,173.5,244.1,173.5z"/>
	<path fill="#C7C5B1" d="M265.1,175H263l-2.6-10l0,0l-2.5,10h-2.2l-4-12.6h2.3l2.8,10.3l0,0l2.5-10.3h2.3l2.6,10.3l0,0l2.8-10.3h2.1
		L265.1,175z"/>
	<path fill="#C7C5B1" d="M278.3,157.6h2.3V175h-2.3V157.6z"/>
	<path fill="#C7C5B1" d="M284.7,157.6h2.7v2.7c0,1.9-0.8,3.6-2.7,3.6v-1.2c1.1,0,1.4-1.2,1.4-2.4h-1.4V157.6z"/>
	<path fill="#C7C5B1" d="M291,162.4h1.9v1.8l0,0c0.9-1.4,2.3-2.1,4.1-2.1c1.6,0,2.9,0.6,3.5,2.1c0.9-1.4,2.3-2.1,3.9-2.1
		c2.5,0,4.2,1,4.2,3.7v9.2h-2.1v-8.3c0-1.6-0.4-2.8-2.4-2.8s-3.3,1.3-3.3,3.2v7.8h-2.1v-8.3c0-1.6-0.5-2.8-2.4-2.8
		c-2.4,0-3.4,2.2-3.4,3.2v7.8H291V162.4z"/>
	<path fill="#C7C5B1" d="M323.9,162.1c4,0,6.1,2.9,6.1,6.6c0,3.7-2.1,6.6-6.1,6.6s-6.1-2.9-6.1-6.6S319.9,162.1,323.9,162.1z
		 M323.9,173.5c2.2,0,3.9-1.7,3.9-4.7s-1.8-4.8-3.9-4.8s-3.9,1.7-3.9,4.8C320,171.8,321.8,173.5,323.9,173.5z"/>
	<path fill="#C7C5B1" d="M332.6,157.6h2.1V175h-2.1V157.6z"/>
	<path fill="#C7C5B1" d="M349.1,175H347v-1.7l0,0c-0.7,1.4-2.3,2-4,2c-3.9,0-5.8-3.1-5.8-6.6c0-3.6,1.9-6.5,5.7-6.5
		c1.3,0,3.2,0.5,4.1,2l0,0v-6.5h2.1L349.1,175L349.1,175z M343.3,173.5c2.8,0,3.8-2.4,3.8-4.7c0-2.5-1.1-4.8-4-4.8
		c-2.8,0-3.8,2.4-3.8,4.9C339.4,171.2,340.6,173.5,343.3,173.5z"/>
	<path fill="#C7C5B1" d="M363,171c-0.6,2.8-2.5,4.3-5.4,4.3c-4,0-5.9-2.8-6-6.6c0-3.8,2.5-6.5,5.9-6.5c4.5,0,5.8,4.2,5.7,7.2h-9.4
		c-0.1,2.2,1.2,4.1,3.9,4.1c1.7,0,2.9-0.8,3.3-2.5H363z M361,167.5c-0.1-2-1.6-3.6-3.6-3.6c-2.1,0-3.5,1.6-3.6,3.6H361z"/>
	<path fill="#C7C5B1" d="M365.3,162.4h1.9v2.7l0,0c1-2,2.4-3,4.6-2.9v2.2c-3.3,0-4.6,1.9-4.6,5.1v5.6h-2.1v-12.7H365.3z"/>
</g>
<g>
	<path fill="#C7C5B1" d="M134,205.4c-0.4,0.2-0.9,0.3-1.5,0.3c-1.1,0-1.8-0.6-1.8-1.9c-1.1,1.4-2.7,1.9-4.4,1.9
		c-2.3,0-4.2-1-4.2-3.5c0-2.8,2.1-3.5,4.3-3.9c2.3-0.5,4.2-0.3,4.2-1.8c0-1.8-1.5-2.1-2.8-2.1c-1.8,0-3,0.5-3.1,2.4h-2.1
		c0.1-3.1,2.5-4.2,5.3-4.2c2.3,0,4.7,0.5,4.7,3.5v6.5c0,1,0,1.4,0.7,1.4c0.2,0,0.4,0,0.6-0.1L134,205.4L134,205.4z M130.6,198.9
		c-1.6,1.2-6.3,0-6.3,3.1c0,1.4,1.2,1.8,2.4,1.8c2.7,0,3.8-1.7,3.8-2.8v-2.1H130.6z"/>
	<path fill="#C7C5B1" d="M135.9,192.9h1.9v2l0,0c0.9-1.6,2.3-2.3,4.1-2.3c3.3,0,4.3,1.9,4.3,4.6v8.3h-2.1V197c0-1.6-1-2.5-2.6-2.5
		c-2.5,0-3.7,1.7-3.7,3.9v7.1h-2.1v-12.6H135.9z"/>
	<path fill="#C7C5B1" d="M160.7,205.4h-2.1v-1.7l0,0c-0.7,1.4-2.3,2-4,2c-3.9,0-5.8-3.1-5.8-6.6c0-3.6,1.9-6.5,5.7-6.5
		c1.3,0,3.2,0.5,4.1,2l0,0v-6.5h2.1V205.4z M154.8,203.9c2.8,0,3.8-2.4,3.8-4.7c0-2.5-1.1-4.8-4-4.8c-2.8,0-3.8,2.4-3.8,4.9
		C150.9,201.6,152.1,203.9,154.8,203.9z"/>
	<path fill="#C7C5B1" d="M173.5,192.9h2.5v1.8h-2.5v7.8c0,1,0.3,1.1,1.6,1.1h0.9v1.8h-1.6c-2.1,0-3-0.4-3-2.8v-8h-2.1v-1.8h2.1V189
		h2.1V192.9z"/>
	<path fill="#C7C5B1" d="M178.3,188.1h2.1v6.6l0,0c0.7-1.5,2.5-2.1,4-2.1c3.3,0,4.3,1.9,4.3,4.6v8.3h-2.1V197c0-1.6-1-2.5-2.6-2.5
		c-2.5,0-3.7,1.7-3.7,3.9v7.1h-2.1v-17.4H178.3z"/>
	<path fill="#C7C5B1" d="M202.6,201.4c-0.6,2.8-2.5,4.3-5.4,4.3c-4,0-5.9-2.8-6-6.6c0-3.8,2.5-6.5,5.9-6.5c4.5,0,5.8,4.2,5.7,7.2
		h-9.4c-0.1,2.2,1.2,4.1,3.9,4.1c1.7,0,2.9-0.8,3.3-2.5H202.6z M200.6,197.9c-0.1-2-1.6-3.6-3.6-3.6c-2.1,0-3.5,1.6-3.6,3.6H200.6z"
		/>
	<path fill="#C7C5B1" d="M209.8,207.1c-1,2.4-1.8,3.4-3.7,3.4c-0.5,0-1,0-1.4-0.2v-1.9c0.4,0.1,0.8,0.3,1.2,0.3
		c0.9,0,1.3-0.4,1.7-1.1l0.9-2.1l-5-12.5h2.3l3.7,10.3l0,0L213,193h2.2L209.8,207.1z"/>
	<path fill="#C7C5B1" d="M235,205.4c-0.4,0.2-0.9,0.3-1.5,0.3c-1.1,0-1.8-0.6-1.8-1.9c-1.1,1.4-2.7,1.9-4.4,1.9
		c-2.3,0-4.2-1-4.2-3.5c0-2.8,2.1-3.5,4.3-3.9c2.3-0.5,4.2-0.3,4.2-1.8c0-1.8-1.5-2.1-2.8-2.1c-1.8,0-3,0.5-3.1,2.4h-2.1
		c0.1-3.1,2.5-4.2,5.3-4.2c2.3,0,4.7,0.5,4.7,3.5v6.5c0,1,0,1.4,0.7,1.4c0.2,0,0.4,0,0.6-0.1v1.5H235z M231.6,198.9
		c-1.6,1.2-6.3,0-6.3,3.1c0,1.4,1.2,1.8,2.4,1.8c2.7,0,3.8-1.7,3.8-2.8v-2.1H231.6z"/>
	<path fill="#C7C5B1" d="M236.8,192.9h1.9v2.7l0,0c1-2,2.4-3,4.6-2.9v2.2c-3.3,0-4.6,1.9-4.6,5.1v5.6h-2.1v-12.7H236.8z"/>
	<path fill="#C7C5B1" d="M255.3,201.4c-0.6,2.8-2.5,4.3-5.4,4.3c-4,0-5.9-2.8-6-6.6c0-3.8,2.5-6.5,5.9-6.5c4.5,0,5.8,4.2,5.7,7.2
		h-9.4c-0.1,2.2,1.2,4.1,3.9,4.1c1.7,0,2.9-0.8,3.3-2.5H255.3z M253.3,197.9c-0.1-2-1.6-3.6-3.6-3.6c-2.1,0-3.5,1.6-3.6,3.6H253.3z"
		/>
	<path fill="#C7C5B1" d="M269.8,192.6c4,0,6.1,2.9,6.1,6.6c0,3.7-2.1,6.6-6.1,6.6s-6.1-2.9-6.1-6.6
		C263.7,195.5,265.8,192.6,269.8,192.6z M269.8,203.9c2.2,0,3.9-1.7,3.9-4.7s-1.8-4.8-3.9-4.8s-3.9,1.7-3.9,4.8
		S267.7,203.9,269.8,203.9z"/>
	<path fill="#C7C5B1" d="M278.5,188.1h2.1v17.4h-2.1V188.1z"/>
	<path fill="#C7C5B1" d="M295,205.4h-2.1v-1.7l0,0c-0.7,1.4-2.3,2-4,2c-3.9,0-5.8-3.1-5.8-6.6c0-3.6,1.9-6.5,5.7-6.5
		c1.3,0,3.2,0.5,4.1,2l0,0v-6.5h2.1L295,205.4L295,205.4z M289.2,203.9c2.8,0,3.8-2.4,3.8-4.7c0-2.5-1.1-4.8-4-4.8
		c-2.8,0-3.8,2.4-3.8,4.9C285.3,201.6,286.5,203.9,289.2,203.9z"/>
	<path fill="#C7C5B1" d="M308.9,201.4c-0.6,2.8-2.5,4.3-5.4,4.3c-4,0-5.9-2.8-6-6.6c0-3.8,2.5-6.5,5.9-6.5c4.5,0,5.8,4.2,5.7,7.2
		h-9.4c-0.1,2.2,1.2,4.1,3.9,4.1c1.7,0,2.9-0.8,3.3-2.5H308.9z M306.9,197.9c-0.1-2-1.6-3.6-3.6-3.6c-2.1,0-3.5,1.6-3.6,3.6H306.9z"
		/>
	<path fill="#C7C5B1" d="M311.2,192.9h1.9v2.7l0,0c1-2,2.4-3,4.6-2.9v2.2c-3.3,0-4.6,1.9-4.6,5.1v5.6H311v-12.7H311.2z"/>
	<path fill="#C7C5B1" d="M327.4,201.5c0.1,1.8,1.7,2.4,3.4,2.4c1.3,0,3-0.3,3-1.9c0-3.2-8.2-1-8.2-5.9c0-2.5,2.5-3.6,4.7-3.6
		c2.8,0,5,0.9,5.2,3.9h-2.1c-0.1-1.6-1.6-2.1-2.9-2.1c-1.2,0-2.7,0.3-2.7,1.6c0,1.5,2.2,1.8,4.1,2.2c2.1,0.5,4.1,1.2,4.1,3.6
		c0,3-2.8,4-5.4,4c-2.8,0-5.2-1.1-5.3-4.3h2.1V201.5z"/>
	<path fill="#C7C5B1" d="M343.7,192.6c4,0,6.1,2.9,6.1,6.6c0,3.7-2.1,6.6-6.1,6.6s-6.1-2.9-6.1-6.6S339.7,192.6,343.7,192.6z
		 M343.7,203.9c2.2,0,3.9-1.7,3.9-4.7s-1.8-4.8-3.9-4.8s-3.9,1.7-3.9,4.8S341.6,203.9,343.7,203.9z"/>
</g>
<g>
	<path fill="#C7C5B1" d="M123.3,218.5h2.3v17.4h-2.3V218.5z"/>
	<path fill="#C7C5B1" d="M147.1,235.9H145v-1.7l0,0c-0.7,1.4-2.3,2-4,2c-3.9,0-5.8-3.1-5.8-6.6c0-3.6,1.9-6.5,5.7-6.5
		c1.3,0,3.2,0.5,4.1,2l0,0v-6.5h2.1V235.9z M141.3,234.3c2.8,0,3.8-2.4,3.8-4.7c0-2.5-1.1-4.8-4-4.8c-2.8,0-3.8,2.4-3.8,4.9
		C137.4,232,138.6,234.3,141.3,234.3z"/>
	<path fill="#C7C5B1" d="M155.7,223c4,0,6.1,2.9,6.1,6.6c0,3.7-2.1,6.6-6.1,6.6s-6.1-2.9-6.1-6.6C149.6,225.9,151.8,223,155.7,223z
		 M155.7,234.3c2.2,0,3.9-1.7,3.9-4.7s-1.8-4.8-3.9-4.8s-3.9,1.7-3.9,4.8S153.6,234.3,155.7,234.3z"/>
	<path fill="#C7C5B1" d="M164.3,223.3h1.9v2l0,0c0.9-1.6,2.3-2.3,4.1-2.3c3.3,0,4.3,1.9,4.3,4.6v8.3h-2.1v-8.5c0-1.6-1-2.5-2.6-2.5
		c-2.5,0-3.7,1.7-3.7,3.9v7.1h-2.1v-12.6H164.3z"/>
	<path fill="#C7C5B1" d="M178.3,218.5h2.7v2.7c0,1.9-0.8,3.6-2.7,3.6v-1.2c1.1,0,1.4-1.2,1.4-2.4h-1.4V218.5z"/>
	<path fill="#C7C5B1" d="M187,223.3h2.5v1.8H187v7.8c0,1,0.3,1.1,1.6,1.1h0.9v1.8h-1.6c-2.1,0-3-0.4-3-2.8v-8h-2.1v-1.8h2.1v-3.8
		h2.1V223.3z"/>
	<path fill="#C7C5B1" d="M198.6,223.3h1.9v2l0,0c0.9-1.6,2.3-2.3,4.1-2.3c3.3,0,4.3,1.9,4.3,4.6v8.3h-2.1v-8.5c0-1.6-1-2.5-2.6-2.5
		c-2.5,0-3.7,1.7-3.7,3.9v7.1h-2.1v-12.6H198.6z"/>
	<path fill="#C7C5B1" d="M222.8,231.9c-0.6,2.8-2.5,4.3-5.4,4.3c-4,0-5.9-2.8-6-6.6c0-3.8,2.5-6.5,5.9-6.5c4.5,0,5.8,4.2,5.7,7.2
		h-9.4c-0.1,2.2,1.2,4.1,3.9,4.1c1.7,0,2.9-0.8,3.3-2.5H222.8z M220.9,228.4c-0.1-2-1.6-3.6-3.6-3.6c-2.1,0-3.5,1.6-3.6,3.6H220.9z"
		/>
	<path fill="#C7C5B1" d="M235.9,231.9c-0.6,2.8-2.5,4.3-5.4,4.3c-4,0-5.9-2.8-6-6.6c0-3.8,2.5-6.5,5.9-6.5c4.5,0,5.8,4.2,5.7,7.2
		h-9.4c-0.1,2.2,1.2,4.1,3.9,4.1c1.7,0,2.9-0.8,3.3-2.5H235.9z M233.9,228.4c-0.1-2-1.6-3.6-3.6-3.6c-2.1,0-3.5,1.6-3.6,3.6H233.9z"
		/>
	<path fill="#C7C5B1" d="M249.5,235.9h-2.1v-1.7l0,0c-0.7,1.4-2.3,2-4,2c-3.9,0-5.8-3.1-5.8-6.6c0-3.6,1.9-6.5,5.7-6.5
		c1.3,0,3.2,0.5,4.1,2l0,0v-6.5h2.1V235.9z M243.7,234.3c2.8,0,3.8-2.4,3.8-4.7c0-2.5-1.1-4.8-4-4.8c-2.8,0-3.8,2.4-3.8,4.9
		C239.8,232,241,234.3,243.7,234.3z"/>
	<path fill="#C7C5B1" d="M262.3,223.3h2.5v1.8h-2.5v7.8c0,1,0.3,1.1,1.6,1.1h0.9v1.8h-1.6c-2.1,0-3-0.4-3-2.8v-8h-2.1v-1.8h2.1v-3.8
		h2.1V223.3z"/>
	<path fill="#C7C5B1" d="M272.5,223c4,0,6.1,2.9,6.1,6.6c0,3.7-2.1,6.6-6.1,6.6s-6.1-2.9-6.1-6.6S268.6,223,272.5,223z M272.5,234.3
		c2.2,0,3.9-1.7,3.9-4.7s-1.8-4.8-3.9-4.8s-3.9,1.7-3.9,4.8S270.4,234.3,272.5,234.3z"/>
	<path fill="#C7C5B1" d="M287.8,223.3h1.9v2.7l0,0c1-2,2.4-3,4.6-2.9v2.2c-3.3,0-4.6,1.9-4.6,5.1v5.6h-2.1v-12.7H287.8z"/>
	<path fill="#C7C5B1" d="M306.3,231.9c-0.6,2.8-2.5,4.3-5.4,4.3c-4,0-5.9-2.8-6-6.6c0-3.8,2.5-6.5,5.9-6.5c4.5,0,5.8,4.2,5.7,7.2
		H297c-0.1,2.2,1.2,4.1,3.9,4.1c1.7,0,2.9-0.8,3.3-2.5H306.3z M304.3,228.4c-0.1-2-1.6-3.6-3.6-3.6c-2.1,0-3.5,1.6-3.6,3.6H304.3z"
		/>
	<path fill="#C7C5B1" d="M308.7,218.5h2.1v17.4h-2.1V218.5z"/>
	<path fill="#C7C5B1" d="M318.9,237.5c-1,2.4-1.8,3.4-3.7,3.4c-0.5,0-1,0-1.4-0.2v-1.9c0.4,0.1,0.8,0.3,1.2,0.3
		c0.9,0,1.3-0.4,1.7-1.1l0.9-2.1l-5-12.5h2.3l3.7,10.3l0,0l3.5-10.3h2.2L318.9,237.5z"/>
</g>
<g>
	<path fill="#C7C5B1" d="M128.2,253.4c4,0,6.1,2.9,6.1,6.6s-2.1,6.6-6.1,6.6s-6.1-2.9-6.1-6.6S124.3,253.4,128.2,253.4z
		 M128.2,264.8c2.2,0,3.9-1.7,3.9-4.7s-1.8-4.8-3.9-4.8s-3.9,1.7-3.9,4.8S126.1,264.8,128.2,264.8z"/>
	<path fill="#C7C5B1" d="M136.8,253.7h1.9v2l0,0c0.9-1.6,2.3-2.3,4.1-2.3c3.3,0,4.3,1.9,4.3,4.6v8.3H145v-8.5c0-1.6-1-2.5-2.6-2.5
		c-2.5,0-3.7,1.7-3.7,3.9v7.1h-2.1v-12.6H136.8z"/>
	<path fill="#C7C5B1" d="M160,253.7h2.5v1.8H160v7.8c0,1,0.3,1.1,1.6,1.1h0.9v1.8h-1.6c-2.1,0-3-0.4-3-2.8v-8h-2.1v-1.8h2.1v-3.8
		h2.1V253.7z"/>
	<path fill="#C7C5B1" d="M164.8,248.9h2.1v6.6l0,0c0.7-1.5,2.5-2.1,4-2.1c3.3,0,4.3,1.9,4.3,4.6v8.3h-2.1v-8.5c0-1.6-1-2.5-2.6-2.5
		c-2.5,0-3.7,1.7-3.7,3.9v7.1h-2.1v-17.4H164.8z"/>
	<path fill="#C7C5B1" d="M189,262.3c-0.6,2.8-2.5,4.3-5.4,4.3c-4,0-5.9-2.8-6-6.6c0-3.8,2.5-6.5,5.9-6.5c4.5,0,5.8,4.2,5.7,7.2h-9.4
		c-0.1,2.2,1.2,4.1,3.9,4.1c1.7,0,2.9-0.8,3.3-2.5H189z M187,258.8c-0.1-2-1.6-3.6-3.6-3.6c-2.1,0-3.5,1.6-3.6,3.6H187z"/>
	<path fill="#C7C5B1" d="M191.4,253.7h1.9v1.8l0,0c0.9-1.4,2.3-2.1,4.1-2.1c1.6,0,2.9,0.6,3.5,2.1c0.9-1.4,2.3-2.1,3.9-2.1
		c2.5,0,4.2,1,4.2,3.7v9.2h-2.1V258c0-1.6-0.4-2.8-2.4-2.8s-3.3,1.3-3.3,3.2v7.8h-2.1V258c0-1.6-0.5-2.8-2.4-2.8
		c-2.4,0-3.4,2.2-3.4,3.2v7.8h-2.1v-12.5H191.4z"/>
	<path fill="#C7C5B1" d="M212.6,263.6h2.7v2.7h-2.7V263.6z"/>
	<path fill="#C7C5B1" d="M219.3,248.9h2.7v2.7c0,1.9-0.8,3.6-2.7,3.6V254c1.1,0,1.4-1.2,1.4-2.4h-1.4V248.9z"/>
</g>
<line fill="none" stroke="#DADADA" stroke-width="0.25" stroke-linecap="round" stroke-linejoin="round" stroke-dasharray="0,0.807" x1="28.8" y1="100.5" x2="21.4" y2="100.5"/>
<path fill="none" stroke="#000000" stroke-width="0.25" stroke-linecap="round" stroke-linejoin="round" d="M20.6,100.5L20.6,100.5
	 M30.4,100.5L30.4,100.5"/>
<polygon fill="#C9C5B2" points="20.5,67.9 7.1,67.9 7.1,104.7 20.5,100.6 "/>
<line fill="none" stroke="#DADADA" stroke-width="0.25" stroke-linecap="round" stroke-linejoin="round" stroke-dasharray="0,0.801" x1="82.3" y1="67.9" x2="76.6" y2="67.9"/>
<line fill="none" stroke="#DADADA" stroke-width="0.25" stroke-linecap="round" stroke-linejoin="round" stroke-dasharray="0,0.74" x1="89.3" y1="100.5" x2="76.5" y2="100.5"/>
<path fill="none" stroke="#DADADA" stroke-width="0.25" stroke-linecap="round" stroke-linejoin="round" d="M75.8,100.5L75.8,100.5
	 M90.8,100.5L90.8,100.5"/>
<line fill="none" stroke="#DADADA" stroke-width="0.25" stroke-linecap="round" stroke-linejoin="round" stroke-dasharray="0,0.72" x1="30.5" y1="106.5" x2="30.5" y2="110.1"/>
<path fill="none" stroke="#DADADA" stroke-width="0.25" stroke-linecap="round" stroke-linejoin="round" d="M30.5,110.9L30.5,110.9
	 M30.5,105L30.5,105"/>
<line fill="none" stroke="#DADADA" stroke-width="0.25" stroke-linecap="round" stroke-linejoin="round" stroke-dasharray="0,0.766" x1="52.7" y1="20.1" x2="52.7" y2="47.3"/>
<line fill="none" stroke="#DADADA" stroke-width="0.25" stroke-linecap="round" stroke-linejoin="round" stroke-dasharray="0,0.754" x1="75.1" y1="27.4" x2="75.1" y2="66.5"/>
<line fill="none" stroke="#DADADA" stroke-width="0.25" stroke-linecap="round" stroke-linejoin="round" stroke-dasharray="0,0.738" x1="80.1" y1="105" x2="62.9" y2="105"/>
<line fill="none" stroke="#DADADA" stroke-width="0.25" stroke-linecap="round" stroke-linejoin="round" stroke-dasharray="0,0.716" x1="17.2" y1="114" x2="17.2" y2="106"/>
<path fill="none" stroke="#000000" stroke-width="0.25" stroke-linecap="round" stroke-linejoin="round" d="M17.2,105.3L17.2,105.3
	 M17.2,115.4L17.2,115.4"/>
<polygon fill="none" stroke="#DADADA" stroke-width="0.501" stroke-linecap="round" stroke-linejoin="round" stroke-miterlimit="10" points="
	30.5,67.9 17.1,67.9 17.1,104.7 30.5,100.6 "/>
<polygon fill="none" stroke="#DADADA" stroke-width="0.501" stroke-linecap="round" stroke-linejoin="round" stroke-miterlimit="10" points="
	30.5,67.9 52.7,48.5 38.9,48.5 38.9,48.5 17.1,67.9 "/>
<polygon fill="none" stroke="#DADADA" stroke-width="0.501" stroke-linecap="round" stroke-linejoin="round" stroke-miterlimit="10" points="
	45.9,54.5 61.6,67.9 75,67.9 52.8,48.5 52.7,48.5 38.9,48.5 "/>
<polygon fill="none" stroke="#DADADA" stroke-width="0.501" stroke-linecap="round" stroke-linejoin="round" stroke-miterlimit="10" points="
	30.5,100.6 17.1,104.7 61.5,104.7 75,100.6 "/>
<polygon fill="none" stroke="#DADADA" stroke-width="0.501" stroke-linecap="round" stroke-linejoin="round" stroke-miterlimit="10" points="
	75,100.6 75,67.9 61.6,67.9 61.5,100.6 61.5,104.7 "/>
<line fill="none" stroke="#DADADA" stroke-width="0.25" stroke-linecap="round" stroke-linejoin="round" stroke-dasharray="0,0.771" x1="14.9" y1="105" x2="7.9" y2="105"/>
<line fill="none" stroke="#DADADA" stroke-width="0.25" stroke-linecap="round" stroke-linejoin="round" stroke-dasharray="0,0.754" x1="61.7" y1="27.4" x2="61.7" y2="66.5"/>
<polygon fill="none" stroke="#878787" stroke-width="0.25" stroke-linecap="round" stroke-linejoin="round" stroke-miterlimit="10" points="
	95.8,100.7 95.8,67.9 82.4,67.9 82.3,100.7 82.3,104.8 "/>
<polygon fill="none" stroke="#878787" stroke-width="0.25" stroke-linecap="round" stroke-linejoin="round" stroke-miterlimit="10" points="
	45.9,11.8 61.6,25.2 75,25.2 52.8,5.9 52.7,5.8 38.9,5.8 "/>
<line fill="none" stroke="#DADADA" stroke-width="0.25" stroke-linecap="round" stroke-linejoin="round" stroke-dasharray="0,0.756" x1="16.9" y1="47.4" x2="16.9" y2="66.6"/>
<polygon fill="none" stroke="#878787" stroke-width="0.25" stroke-linecap="round" stroke-linejoin="round" stroke-miterlimit="10" points="
	75.2,111.6 61.7,115.7 17,115.7 30.5,111.6 "/>
<line fill="none" stroke="#DADADA" stroke-width="0.25" stroke-linecap="round" stroke-linejoin="round" stroke-dasharray="0,0.775" x1="30.3" y1="46.9" x2="30.3" y2="66.6"/>
<polygon fill="none" stroke="#878787" stroke-width="0.25" stroke-linecap="round" stroke-linejoin="round" stroke-miterlimit="10" points="
	52.6,25.8 30.3,45.2 16.9,45.2 38.7,25.8 "/>
<line fill="none" stroke="#DADADA" stroke-width="0.25" stroke-linecap="round" stroke-linejoin="round" stroke-dasharray="0,0.75" x1="38.9" y1="8.5" x2="38.9" y2="47.3"/>
<line fill="none" stroke="#DADADA" stroke-width="0.25" stroke-linecap="round" stroke-linejoin="round" stroke-dasharray="0,0.771" x1="75.2" y1="109.3" x2="75.2" y2="102.3"/>
<path fill="none" stroke="#DADADA" stroke-width="0.25" stroke-linecap="round" stroke-linejoin="round" d="M75.2,101.5L75.2,101.5
	 M75.2,110.9L75.2,110.9"/>
<line fill="none" stroke="#DADADA" stroke-width="0.25" stroke-linecap="round" stroke-linejoin="round" stroke-dasharray="0,0.755" x1="61.7" y1="106.3" x2="61.7" y2="114.7"/>
<path fill="none" stroke="#DADADA" stroke-width="0.25" stroke-linecap="round" stroke-linejoin="round" d="M61.7,115.5L61.7,115.5
	 M61.7,104.8L61.7,104.8"/>
<text transform="matrix(1 0 0 1 375.3115 22.895)" fill="#A2D6D9" font-family="'HelveticaNeueLTPro-Roman'" font-size="24.3391px"> </text>
<text transform="matrix(1 0 0 1 355.7451 53.3193)" fill="#A2D6D9" font-family="'HelveticaNeueLTPro-Roman'" font-size="24.3391px"> </text>
</svg>
