<?xml version="1.0" encoding="utf-8"?>
<!-- Generator: Adobe Illustrator 20.1.0, SVG Export Plug-In . SVG Version: 6.00 Build 0)  -->
<svg version="1.1" id="Layer_1" xmlns="http://www.w3.org/2000/svg" xmlns:xlink="http://www.w3.org/1999/xlink" x="0px" y="0px"
	 viewBox="0 0 400 275" enable-background="new 0 0 400 275" xml:space="preserve">
<g>
	<path fill="#656463" d="M306.5,13c-0.1,0.3-0.3,0.7-0.4,1.1c-0.1,0.6-0.5,0.9-1.1,1.1c-0.3,0.1-0.5,0.1-0.8,0.2
		c-0.1,0.4-0.3,0.9-0.2,1.1c0.7,0.7,0.7,1.3-0.2,1.7v0.1c-0.4,0.4-0.8,0.8-1.4,1.3c0.1,0.9,0.1,2.1,0.2,3.2c-0.4,0.1-0.7,0.2-1,0.2
		c-0.4,0-0.8-0.1-1.2-0.4c-0.2,0.1-0.5,0.3-0.6,0.3l0,0c-0.3-0.1-0.5-0.4-0.8-0.7c-0.4,0.1-0.6,0.5-0.5,0.9c0.1,0.6,0.5,1.1,0.6,1.7
		c0.1,0.9,0.2,1.9,0.2,2.8c0,0.3-0.1,0.4-0.3,0.4c-0.1,0-0.3-0.1-0.4-0.2c-0.5-0.3-1-0.7-1.5-1.1c-0.4,0.2-0.6,0.5-0.5,1.1
		s-0.2,1.2-0.3,1.8c0.4,0.1,0.8,0.1,1.2,0.2v0.6c0.1,0,0.2,0,0.3,0c1.2,0,1.6,0.8,1.3,2.3c-0.2,0-0.4,0-0.7,0c-0.2,0-0.3,0-0.5,0
		l-0.5-0.4c0-0.5-0.2-0.6-0.5-0.6c-0.2,0-0.3,0-0.6,0.1c0.3,0.8-0.5,0.7-0.7,1l0,0c-0.1,0-0.3-0.1-0.5-0.2c0,0.3,0,0.6,0,0.8H295
		c-0.8,0-0.9-0.3-1-1c0-0.3-0.3-0.7-0.6-0.9l0,0c-0.1,0-0.5,0.2-0.7,0.4l-0.4,0.4c-0.1,0.4-0.3,0.5-0.5,0.5s-0.4-0.1-0.6-0.2
		c-0.2-0.1-0.5-0.2-0.8-0.2c-0.4,0-0.7,0.2-0.8,0.5c-0.2,0.4-0.2,0.9-0.3,1.3c-0.2,0.7-0.3,1.3-0.5,2.1l0.3,0.2
		c0.7,0.1,0.5,0.4,0.2,0.8c-0.4,0.5-0.7,1-1.1,1.6c1.1,0.3,0.8,1.4,1.1,2.2c0.1,0.2-0.1,0.5-0.1,0.7c-0.2-0.1-0.5-0.3-0.7-0.4
		l-0.4-0.4c-0.2-0.2-0.3-0.3-0.5-0.3s-0.3,0.1-0.4,0.4c-0.4,1-0.6,2-0.9,3c0,0.2,0.2,0.4,0.3,0.6l0.1,0.4c-0.1,0.4-0.2,0.8-0.2,1.2
		c0,0.3,0,0.6,0.2,0.8c0.2,0.3,0.4,0.4,0.7,0.4c0.2,0,0.4-0.1,0.7-0.3c0.2-0.2,0.6-0.3,0.8-0.3c0.1,0,0.1,0,0.2,0
		c0.3,0.1,0.4,0.6,0.6,1.1c-0.2,0-0.4,0-0.5,0c-1,0-1.4,0.6-1.8,1.4l-0.2,0.2c-0.9,0.1-1.8,0.2-2.9,0.3c0-0.6,0-1.2,0-1.7l-0.1-0.5
		c-1-0.4-0.5-1.2-0.6-1.8v-0.1c0-0.8-0.1-1.7,0.6-2.3c0.3-0.3,0.7-0.7,0.4-1.3l-0.6,0.3c-0.5,0.5-0.9,1.1-1.3,1.7
		c-0.2,0.2-0.4,0.3-0.6,0.3c-0.1,0-0.3,0-0.4-0.1c-0.1,0,0-0.5,0.1-0.7c0.1-0.4,0.4-0.7,0.5-1.1c0.2-0.9,0.4-1.8,0.5-2.6
		c0-0.3,0-0.7-0.1-1c-0.3-0.7-0.6-1.3-0.9-2c-0.2-0.5-0.3-1-0.5-1.5c-0.6,0.3-1.2,0.6-1.8,0.8c-0.6,0.2-0.6,0.6-0.6,1.1
		c0,0.7,0.5,1.5-0.2,2.2l-0.1,0.3c-0.3,0.2-0.6,0.4-1,0.5l-0.4-0.4l-0.5-0.6c-0.3-0.3-0.6-0.6-0.5-1.1c0.1-0.6-0.4-1.1-0.8-1.1l0,0
		c-0.1,0.3-0.3,0.7-0.3,1c0,0.2,0,0.5,0.1,0.7c0.6,0.7,0.6,0.9-0.3,1.3c0,0.3,0,0.5,0,0.8l-0.4,0.2c-0.2-0.3-0.4-0.7-0.6-1l-0.4-0.6
		c-0.2,0.2-0.5,0.4-0.5,0.6c0,0.6-0.3,0.8-0.9,0.8H272c0.1,0.3,0,0.7,0.2,0.8c0.4,0.3,0.4,0.6,0.3,1l0.1,0.5
		c0.7,0.8,1.3,1.8,2.6,1.9c0.4,0,0.8,0.2,1.3,0.3c-0.2,0.2-0.4,0.5-0.5,0.7s-0.3,0.6-0.2,0.8c0.3,0.9,0.6,1.8,1,2.7l0.3,0.4
		c0.2,0.3,0.3,0.6,0.6,1.1c0.2,0,0.6,0,1.1,0.1l-0.2,0.4l-0.1,0.5l0.5-0.1c0.2-0.2,0.4-0.4,0.7-0.5c0.2-0.1,0.5-0.2,0.7-0.3
		c0,0.2,0.1,0.5,0.1,0.7c0.1,0.3,0.2,0.5,0.3,0.8c0.2-0.2,0.4-0.3,0.5-0.5c0.2-0.3,0.4-0.5,0.7-0.5c0.1,0,0.2,0,0.3,0
		c0.4,0.1,0.8,0.3,1.3,0.6c-0.3,0.2-0.6,0.4-0.9,0.5c-0.5,0.2-0.8,0.4-0.9,1c0,0.3-0.2,0.7-0.4,0.8c-0.7,0.4-0.5,0.8-0.2,1.2
		c0.3,0,0.5-0.1,0.8-0.1h0.1c0.1,0,0.1,0,0.2,0c0.6,0,1.1-0.2,1.4-0.9c0.1-0.2,0.4-0.5,0.7-0.5c0.7-0.1,1-0.5,1.2-1.1l0.3-0.4
		c0.5-0.2,1-0.3,1.4-0.4c0.1,0.5,0.2,1,0.3,1.5l-0.3,0.4c-0.8,0-1.3,0.7-1.9,1.1c-0.4,0.2-0.5,0.5-0.1,0.9c0.2,0.2,0.3,0.4,0.5,0.8
		c-0.3,0-0.4,0-0.5,0s-0.2,0-0.3,0c-0.6,0-1.2,0.4-1.4,1c-0.3,0.7-0.8,1.3-1.2,1.9l-0.3,0.5c0.2,0.2,0.4,0.3,0.6,0.4
		c0.5,0.1,1,0.1,1.4,0.1c0,0.4-0.1,0.8-0.1,1.2c-0.2,0-0.3-0.1-0.5-0.1c-0.8,0-1.3,0.5-1.8,1.2l-0.4,0.4c-0.2-0.1-0.4-0.3-0.4-0.3
		c-0.5,0-0.9,0-1.4,0c-0.3,0-0.6,0-0.9,0c-0.4,0-0.8-0.1-1.2-0.1c-0.1,0-0.2,0-0.3,0c-0.4,0.1-0.7,0.4-1.1,0.7
		c0,0.8,0.5,1.3,1.5,1.5c0.7,0.2,1.4,0.5,2.1,0.7c0.1,0.1,0.2,0.3,0.3,0.5c-0.3,0-0.5,0.1-0.6,0.1c-0.2,0.3-0.4,0.6-0.7,1
		c-0.2-0.3-0.3-0.4-0.4-0.6c-0.3-0.3-0.6-0.8-1-0.9c-0.2-0.1-0.4-0.1-0.6-0.1c-0.3,0-0.6,0.1-0.8,0.5c-0.1,0.2-0.5,0.3-0.7,0.3
		s-0.3,0-0.5,0s-0.5,0-0.7,0c-0.2,0.7-0.4,1.3-0.6,2c0.1,0.7,1.5,0.2,1.6,1.1c-0.3,0.2-0.6,0.4-0.9,0.5c0.2,0.2,0.3,0.5,0.5,0.7
		l0.5,0.5c0.8,0.5,0.8,1.1,0,1.7c-0.5,0.4-1,0.7-0.9,1.5c-0.5-0.1-1-0.2-1.5-0.3c-0.1,0-0.2,0-0.3,0c-0.3,0-0.5,0.1-0.5,0.6
		c0,0.4,0,0.9,0.1,1.3c0.1,0.3,0.2,0.5,0.5,0.5c0.1,0,0.3,0,0.4-0.2c0.2-0.1,0.4-0.1,0.6-0.1h0.1c0.7,0,1.4,0,2,0.2
		c0.1,0,0.3,0.1,0.4,0.1c0.7,0,1.2-0.5,1.8-0.6c0.1,0,0.3-0.2,0.6-0.2h0.1h0.6c0.1,0.2,0.2,0.5,0.3,0.6c0.4-0.1,0.7-0.2,1-0.2h0.1
		c0.1,0,0.2,0,0.3,0c1.3,0,2.8-1.2,2.9-2.6l-0.2-0.5c-0.1-0.2-0.3-0.5-0.4-0.7c0.4-0.2,0.8-0.5,1.2-0.6h0.7l0.1,0.5
		c0,0.2,0,0.5,0,0.8c0.5-0.2,0.8-0.4,1.2-0.6c0.1-0.1,0.2-0.1,0.3-0.1c0.2,0,0.3,0.2,0.3,0.5c0,1.1-0.2,1.4-1.2,1.8
		c-0.5,0.2-0.9,0.5-1.3,0.7c0.5,0.9,0.1,1.7-0.7,1.9c-0.4,0.1-0.8,0.3-1.4,0.5c1.1,0.8,0,1.1,0,1.6c-0.1,0.5-0.4,0.6-0.8,0.6
		c-0.1,0-0.2,0-0.4,0c-0.1,0.2-0.1,0.5-0.3,0.6c-0.3,0.3-0.5,0.6-0.4,1.1c0.1,0.2-0.3,0.5-0.5,0.7c-0.4,0.3-0.8,0.4-1.2,0.6
		c-0.3,0.1-0.5,0.3-0.8,0.4c-1.1,0.4-2,1-2.6,2.1c-0.4,0.9-1.2,1.3-1.9,1.9l-0.5,0.2c0-0.2,0-0.4,0-0.6c0-0.4-0.3-0.7-0.6-0.7
		c-0.1,0-0.3,0-0.4,0.1c-0.5,0.3-1,0.6-1.6,0.9c-0.2,0.1-0.5,0.2-0.8,0.3c-0.1-0.3-0.1-0.5-0.1-0.6c-0.8,0.2-1.6,0.4-2.4,0.7
		c-0.5,1.5-0.9,3.1-2.1,4.4c0.3,0.4,0.5,0.6,0.7,0.6s0.4-0.1,0.6-0.3c0.3-0.3,0.7-0.6,1-0.9c0.2-0.1,0.3-0.2,0.4-0.2
		c0.2,0,0.3,0.1,0.3,0.5l0.2,0.4c0.2,0.3,0.4,0.5,0.5,0.8c0.4,0.9-0.3,1.3-0.9,1.7c-0.4,0.3-0.8,0.7-0.3,1.2
		c0.2,0.2,0.4,0.3,0.6,0.3c0.3,0,0.6-0.2,0.8-0.5c0.3-0.4,0.5-0.5,0.7-0.5s0.4,0.1,0.7,0.4c0.4-0.2,0.8-0.3,1.2-0.4
		c0.6-0.2,1.4-1.1,1.4-1.7c0-0.8,0-1.7,0-2.7c0.3,0.1,0.7,0.1,1,0.2c0.1,0.1,0.3,0.1,0.4,0.1c0.2,0,0.4-0.1,0.5-0.3
		c0.2-0.3,0.3-0.6,0.4-0.9c0.1-0.2,0.3-0.6,0.4-0.6l0,0c0.1,0,0.1,0,0.2,0c0.5,0,0.7-0.5,0.8-0.7c0.8-1.9,2.3-3.2,3.5-4.8
		c0.4-0.5,1.2-1,0.9-1.9l0.2-0.4c0.3-0.4,0.6-0.6,1-0.6c0.2,0,0.5,0.1,0.7,0.2c-0.2,0.5-0.4,0.9-0.6,1.4c0.6,0.4,0.8,1,0.4,1.4
		c-0.8,0.9-1.6,1.9-2.5,2.7c-0.9,0.9-0.5,1.9-0.7,2.8c0.4,0.1,0.7,0.1,1,0.2c-0.1,0.3-0.2,0.5-0.4,0.8c-0.3,0.5-0.8,1-0.8,1.5
		s0.5,1,0.7,1.5l0.1,0.5c-0.4,0.7-1,1.4-1.7,1.5c-0.2,0.7-0.4,1.3-0.7,1.9c-0.4,0.8-0.9,1.5-0.8,2.5l-0.2,0.2
		c-0.1,0.3-0.3,0.7-0.4,1c-0.2,0.4-0.2,1.1-0.5,1.3c-1.2,0.7-1.6,1.8-1.9,3c-0.1,0.6,0.2,0.8,0.5,1c0.2,0.1,0.4,0.1,0.7,0.1
		c0.1,0,0.2,0,0.3,0c0.2,0,0.6-0.2,0.8-0.2h0.1c0.2,0.1,0.3,0.2,0.5,0.2c0.3,0,0.5-0.1,0.8-0.2c1.2-0.5,1.4-0.9,1.3-2.2
		c0-0.5,0.1-1.1,0.3-1.6c0.1-0.4,0.5-0.7,0.7-1.1c0.3-0.6,0.5-1.4,0.9-1.8c0.6-0.6,0.5-1.2,0.6-1.9l0.1-0.3c0.3-0.6,0.6-1.2,0.9-1.8
		c0.3-0.6,0.7-1,1.4-1.1c1.2-0.2,1.5-0.7,1-1.9c-0.1-0.3-0.1-0.7-0.1-1l0.5-0.2c0.6,0.4,1.1,0.8,1.7,1.3l0.5-0.6
		c0.8,0.5,0.8,0.8,0,1.9l0.3,0.4c0.7,0.4,1.1,0.9,1.3,1.7c0,0.2,0.4,0.5,0.6,0.5c1,0.2,2.1,1.3,2.2,2.4c0,0.6,0.5,1,0.9,1.2
		c1,0.5,1.3,0.8,1.3,1.9c0,0.2-0.2,0.5-0.3,0.6c0.2,0.5,0.5,0.9,0.5,1.4c0,1.1-0.4,1.8-1.7,2c-0.5,0.1-1.1,0.7-1.4,1.2
		c-0.2,0.3-0.2,0.7-0.6,0.9c-0.3,0.1-0.5,0.4-0.7,0.7c-0.4,0.8-0.7,1.6-1,2.3c-0.1,0.2-0.2,0.5-0.3,0.6c-0.7,0.6-1.5,1-2.2,1.6
		c-0.3,0.2-0.7,0.6-0.7,0.9c0,0.5-0.3,0.9-0.6,1.2c-0.4,0.5-0.7,1-1,1.6l-0.2-0.1c-0.4-0.3-0.6-0.5-0.8-0.5c-0.2,0-0.4,0.2-0.7,0.7
		c-0.2,0.2-0.3,0.5-0.4,0.8c-0.3,0.7-0.3,1.4-0.1,2.1c0.1,0.4,0.1,0.9,0.2,1.3c0.4,0.7,0.9,1.3,1.2,2c0.3,0.8,0.5,1.7,0.7,2.6
		l-0.2,0.4c-0.1,0.3-0.2,0.7-0.1,0.8c0.4,0.5,0.8,0.8,1.3,1.3c0.2-0.6,0.4-1,0.5-1.3c-0.2-0.5-0.3-0.9-0.4-1.2
		c-0.1-0.7-0.1-1.3-0.2-2c-0.2-0.9-0.1-1.2,0.7-1.6c0.3-0.1,0.6-0.2,0.9-0.2c0.5,0,0.8,0.2,1.1,0.6c0.2,0.2,0.3,0.4,0.6,0.5
		c1,0.3,1.3,1.3,2.1,1.9l0.1,0.4c-0.1,0.7,0.3,1,0.7,1.4c0.7,0.6,1.4,1.2,2.1,1.7c1.2-0.4,0.9-1.6,1.3-2.4c0.2-0.4,0.2-0.9,0.3-1.3
		c-0.2-0.1-0.4-0.1-0.5-0.2c-0.6-0.4-0.3-1-0.3-1.5l0.2-0.5c0.2,0.2,0.5,0.4,0.7,0.6c0.8,1,2.3,1.4,2.6,2.8l0,0
		c0.5,0.5,1,0.7,1.7,0.9c0.4,0.1,0.9,0.2,1.3,0.2s0.8-0.1,1.2-0.3c0.7-0.4,1.6-0.4,2.2-1.1c0.5-0.4,1.2-0.6,1.9-0.7
		c0.1,0,0.1,0,0.2,0c0.5,0,1,0.2,1.5,0.3c0.7-0.4,0.8-0.9,0.7-1.6c-0.1-0.6,0.2-0.8,0.6-0.8c0.1,0,0.3,0,0.4,0.1
		c0.2,0,0.3,0.1,0.5,0.1c0.1,0,0.2,0,0.3,0c0.1,0,0.2,0,0.4,0l0,0c0.2,0,0.5,0,0.7,0c0.5,0.1,1,0.3,1.5,0.4c0.4,0.1,0.8,0.3,0.6,0.7
		c-0.2,0.5-0.6,1.1-1.1,1.3c-0.8,0.4-1.4,0.9-1.7,1.7c-0.1,0.2-0.2,0.4-0.3,0.6c-0.1,0.2-0.3,0.5-0.3,0.7c0,0.8-0.5,1.1-1,1.5
		c-0.6,0.5-1.1,1.2-1.4,1.8c-0.2,0.5-0.3,0.9-0.7,1.3c-0.4,0.4-0.8,0.8-0.9,1.3c-0.2,0.6-0.3,1.1-1.1,1.2c0.2,0.3,0.3,0.6,0.4,0.8
		c0.4,0.7,0.8,1.3,1.1,2c0.3,0.7,0.4,1.5,0.8,2.1c0.5,0.8,0.5,1.5,0.4,2.4c0,0.3,0,0.7,0.1,1c0.2,0.5,0.4,1,0.5,1.6
		c0.1,0.5,0.3,0.8,0.9,0.8c0.3,0,0.6,0.2,1,0.3c-1.4,1.4-0.9,2.8-0.1,4.2l0.5-0.3c0.3-0.3,0.5-0.7,0.8-1c0.7-0.8,1.5-1.6,2.3-2.5
		c0.1,0.3,0.3,0.5,0.4,0.8c0.2,0.4,0.4,0.6,0.7,0.6c0.2,0,0.4-0.1,0.6-0.3l0.3-0.4l0.4-0.3l0.4,0.4c0.2,0.4,0.3,0.8,0.4,1.2
		c0.2,0.8,0,1.3-0.8,1.7c-0.7,0.3-1.2,1.2-1.2,1.9c0,0.4,0.1,0.9,0.1,1.3c0,0.3-0.1,0.5-0.5,0.5h-0.1c-0.2,0-0.3,0-0.5,0
		c-0.4,0-0.8,0-1.2,0.2c-0.4,0.1-0.8,0.5-0.9,0.9c-0.3,1-0.5,2.1-0.7,3.2c-0.2,1.1,0.1,1.5,1.1,1.8c0.2,0.1,0.4,0.2,0.7,0.4
		c-0.5,0.4-0.9,0.8-1.2,1.2c-0.7,0.7-1.3,1.4-1.9,2.1c-0.5,0.5-0.6,1-0.5,1.7c0.2,0.9,0.4,1.8,0.5,2.9c-0.8,0.2-1.5,0.4-2.2,0.6
		c-0.5,0.1-1,0.6-0.8,1.1s0.4,1.1,0.7,1.6c0.4,0.7,0.4,1.3-0.3,1.9c-0.6-0.6-1.2-1.1-1.7-1.7c-0.3-0.4-0.5-0.9-0.8-1.4l-0.4-0.5
		c-0.1-0.1-0.3-0.1-0.4-0.1c-0.6,0-1.5,0.3-1.8,0.5s-0.6,0.4-1,0.4c-0.1,0-0.2,0-0.4-0.1c-0.3-0.1-0.6-0.1-0.9-0.1
		c-0.7,0-1.5,0-2.2-0.1l-0.5-0.3c-0.3-0.8-1-1-1.7-1.3c-0.2,0.4-0.4,0.8-0.6,0.9c-0.5,0.2-1.2,0.3-1.8,0.5l-0.6,0.1
		c-0.3,0.4-0.6,0.5-1,0.5c-0.2,0-0.3,0-0.5,0l-0.5-0.1c0-0.2,0-0.5,0.1-0.7c0.3-0.4,0.7-0.8,1.1-1.3c-0.3-0.4-0.7-0.5-1-0.5
		c-0.2,0-0.3,0-0.5,0.1c-0.2,0-0.4,0.1-0.6,0.1c-0.6,0-0.8-0.3-0.8-1c0-0.4,0.2-0.8-0.4-0.9v-0.3c0.3-0.8-0.1-1.2-0.8-1.6
		c-0.7-0.3-1.4-0.6-2.1-0.6c-0.3,0-0.6,0-0.9,0.2c-0.5,0.2-1.1,0.3-1.2,1.1c-0.1,0.6-0.6,1.2-1.2,1.2c-0.1,0-0.2,0-0.3-0.1
		c-0.2-0.1-0.3-0.1-0.4-0.1c-0.4,0-0.7,0.3-0.7,1c0.7,0.1,1.1,0.4,1.1,1.2c0,0.2,0.4,0.5,0.6,0.5l0,0c0,0,0,0,0.1,0
		c0.5,0,0.8,0.3,0.7,0.7c-0.1,0.8,0.6,1.3,0.9,1.9c0.2,0.3,0.4,0.7,0.7,1.1c0.7,0.2,0.7,0.2,0.7,1v0.1c0.1,1.1-0.4,2-1.3,2.5
		c-0.5,0.3-1.1,0.5-1.7,0.9c-0.4,0.2-0.7,0.5-1.1,0.5c-0.1,0-0.3,0-0.5-0.1l-0.3,0.1c-1.1,0.2-1.7,1-2.5,1.7
		c-0.2,0.2-0.4,0.2-0.6,0.4c-0.2,0.3-0.4,0.5-0.6,0.8s-0.4,0.6-0.5,0.9l0.1,0.2c0.4-0.1,0.8-0.1,1.1-0.2c0.6-0.1,1.2-0.1,1.7-0.2
		c0.1,0,0.3-0.1,0.4-0.1c0.2,0,0.4,0.1,0.6,0.3s0.4,0.3,0.7,0.5c0.3-1.1,1.1-1.8,2.1-1.9c0.5,0,1,0,1.4-0.2c0.3-0.1,0.6-0.2,0.9-0.2
		s0.6,0,1,0.1c0.9,0.1,1.2,0.4,1.1,1.3l0.2,0.3c0.2,0.5,0.2,0.8-0.2,1.2c-0.2,0.2-0.3,0.6-0.3,0.8c0.1,0.4,0.4,0.8,0.5,1.2
		c0.5,1.3,0.9,2.1-0.7,2.9c-0.5,0.3-0.7,0.9-0.6,1.5c0.2,0.9,0.4,1.9,0.4,2.9c0.1,1.4-1.1,2.4-1.5,3.7c-0.1,0.3-0.3,0.5-0.4,0.8
		c-0.2,0.3-0.3,0.6-0.5,0.9c-0.4,0.5-1.1,0.6-1.3,1.2l-0.3,0.2c-0.6,0.3-1.3,0.6-1.9,0.9c-0.1,0-0.2,0.1-0.4,0.1c-0.1,0-0.2,0-0.3,0
		h-0.5c-0.7,0.3-1.4,0.6-2,1.1c-0.3,0.3-0.6,0.4-1,0.4c-0.2,0-0.4,0-0.6-0.1c-0.4-0.1-0.8-0.3-1.2-0.3c-0.4,0-0.7,0.1-1.1,0.4v0.5
		c-0.3-0.1-0.5-0.3-0.8-0.3c-0.2,0-0.3,0.1-0.5,0.3c-0.3,0.3-0.7,0.5-1.1,0.7l-0.5,0.2c-0.3,0.4-0.5,0.7-0.9,0.7
		c-0.2,0-0.4-0.1-0.6-0.2l-0.2,0.1c-0.2,0.2-0.4,0.3-0.6,0.3c-0.3,0-0.5-0.2-0.8-0.5s-0.6-0.5-0.9-0.5s-0.6,0.3-0.9,0.9
		c-0.1,0.2-0.2,0.5-0.4,0.6c-0.5,0.2-1,0.2-1.4,0.4c-1,0.3-2,0.5-3,0.8l0.3,0.2c-0.1,0.3-0.2,0.7-0.3,1c0.9,0.2,1.6,0.1,2.4,0.4
		c0.8,0.3,0.8,0.7,0.8,1.3c0,0.3,0,0.6,0,0.9c0,0.4-0.1,0.6-0.5,0.6h-0.1c-0.1,0-0.2,0-0.3,0c-0.7,0-1.2,0.4-1.4,1
		c0.2,0.6,0.3,1.1,0.4,1.6c0.2-0.2,0.3-0.2,0.4-0.2c0.2,0,0.4,0.2,0.5,0.4c0.2,0.2,0.4,0.3,0.5,0.5c0.2,0.3,0.4,0.6,0.4,0.8
		c-0.1,0.6,0.2,0.8,0.6,1c0.2,0.1,0.5,0.2,0.6,0.4c0.2,0.2,0.5,0.3,0.7,0.3s0.5-0.1,0.7-0.4c0.4-0.4,0.7-0.6,1.1-0.6
		c0.3,0,0.6,0.1,1.1,0.4c0.2-0.1,0.4-0.2,0.6-0.2l0,0c0.1,0,0.2,0,0.2,0c0.5,0,0.7-0.4,1-0.8c0.5-0.8,0.7-1.1,1.3-1.1
		c0.2,0,0.5,0,0.9,0.1c0.7,0.1,1.4,0.3,2.1,0.4c1,0.1,1.3,0.3,1.6,1.2c0.3,0.8,0.8,1.3,1.6,1.3c0.1,0,0.2,0,0.4,0c0.1,0,0.2,0,0.3,0
		c0.5,0,0.9,0.3,1.1,0.8c0.1,0.2,0.1,0.6,0,0.7c-0.1,0.1-0.3,0.1-0.5,0.1c-0.1,0-0.2,0-0.3,0c-0.3-0.1-0.5-0.4-0.7-0.5
		c-1.2,0.2-1.5,1.1-1.5,2.1l0.3,0.2c0.5,0.5,1.1,0.8,1.7,0.8c0.3,0,0.7-0.1,1-0.3c0.1,0,0.2-0.1,0.3-0.1c0.2,0,0.4,0,0.5,0.1
		c0.6,0.1,1.2,0.2,1.6,0.3c0.3-0.5,0.4-1,0.7-1.1c0.2-0.1,0.5-0.1,0.7-0.1c0.6,0,1.2,0.2,1.6,0.6c0.4,0.3,0.6,0.9,0.8,1.5
		c0.2,0.8,0.3,1.6,0.5,2.4c0.1,0.3,0.5,0.6,0.7,0.6c0.5,0,0.8,0.3,1,0.7c0.3,0.6,0.6,1.2,0.9,1.9c1,0.4,2.1,0.8,3.2,1.2v1.5h0.2
		c0-0.4,0.1-0.9,0.1-1.3h1.2c0,0.5,0,0.9,0.1,1.3h0.2c0.1-0.3,0.2-0.6,0.2-0.9c0.1-0.4,0.3-0.6,0.7-0.6h0.1c0.1,0,0.1,0,0.2,0
		c0.4,0,0.8-0.1,0.8-0.7l0.2-0.3c0.7-0.7,1.3-1.6,2.4-1.8c0.3-0.1,0.6-0.2,0.9-0.4c0.2-0.1,0.3-0.2,0.5-0.2s0.3,0.1,0.5,0.1
		c0.4,0.2,0.7,0.3,1.1,0.3c0.3,0,0.6-0.1,0.9-0.2c0.6-0.3,1.3-0.4,2-0.5c0.1,0,0.2,0,0.2,0c0.3,0,0.6,0.1,0.9,0.1
		c0,0.3-0.1,0.6-0.1,0.8c0,1.1-0.5,1.5-1.5,1.5h-0.1l0,0c-0.5,0-1.3,0.2-1.4,0.5c-0.3,0.9-1.2,0.9-1.7,1.5c-0.3,0.3-0.9,0.5-1.2,0.8
		c-0.5,0.5-1,1-1.2,1.5c-0.3,0.7-0.3,1.5-0.4,2.2c0,0.2-0.3,0.6-0.4,0.6s-0.2,0-0.3,0c-0.4,0-0.8-0.1-1.2-0.1
		c-0.2,0-0.4-0.2-0.6-0.2l0,0c-0.8,0.1-1.7,0.3-2.5,0.3c-0.1,0-0.3,0-0.4,0c-0.4,0-0.9,0-1.2-0.2c-0.6-0.3-1.2-0.8-1.8-1.3
		c-0.2-0.2-0.4-0.3-0.6-0.3c-0.1,0-0.2,0-0.3,0l-0.5-0.2l-0.5-0.3c-0.6-0.1-1.3-0.1-1.9-0.3c-0.7-0.2-1.3-0.6-2.1-0.6
		c-0.1,0-0.1,0-0.2,0c-0.3,0-0.5,0-0.8,0c-1,0-2-0.1-3-0.2h-0.5c-0.5-0.2-0.9-0.2-1.4-0.2c-0.6,0-1.2,0.1-1.9,0.3
		c0.4,0.6,0.3,1-0.3,1.2l-0.3,0.4c0,0.3,0.1,0.5,0.1,0.8c0,0.5,0.2,1.1-0.4,1.5c-0.4,0.3-0.8,0.6-1.2,0.9c-0.2,0.2-0.5,0.3-0.9,0.3
		c-0.7,0-1.4-0.3-1.7-0.9c-0.3,0-0.6,0-0.9,0c-0.2,0-0.5,0-0.7,0l-0.4,0.2c-0.3,0.7-0.5,1.4-0.8,2c-0.1,0.3-0.3,0.5-0.4,0.8
		c-0.2,0.8-0.3,1.6-0.4,2.5c-0.1,0.6-0.3,1-1,1.1c-0.4,0.1-0.9,0.4-1.2,0.8c-0.3,0.3-0.3,0.7-0.5,1.1c-0.1,0-0.2,0-0.3,0
		c-1,0-1.6,0.4-1.8,1.4c-0.1,0.3-0.4,0.7-0.7,0.8c-0.3,0.1-0.7,0.1-1,0.1s-0.6,0-0.8-0.1c-0.1,0-0.3-0.1-0.4-0.1
		c-0.3,0-0.4,0.1-0.6,0.4c-0.3,0.5-0.8,0.9-1.4,0.9c-0.1,0-0.2,0-0.4,0l-0.1,0.1c-0.2,0.6-0.3,1.3-0.5,1.8c-0.2,0.4-0.5,0.8-0.8,1
		c-0.3,0.2-0.8,0.2-1.1,0.3c-0.5,0.1-0.7,0.3-0.7,0.8c0,0.4-0.2,0.8-0.6,1c-0.4,0.2-0.8,0.5-1.2,0.7c-0.7,0.5-1.4,1-2.1,1.5
		c-0.1,0-0.1,0-0.2,0c-0.2,0-0.4-0.1-0.6-0.1l-0.3-0.1c-0.3,0.4-0.5,0.7-0.7,0.8l-0.8-0.1c-0.4-0.4-0.8-0.5-1.1-0.5
		c-0.2,0-0.5,0.1-0.8,0.2c-0.4,0.2-0.9,0.4-1.3,0.5c-1.3,0.2-1.7,0.6-1.8,1.9l-0.2,0.5c-0.5,0.4-0.2,0.8,0,1.2
		c0.1,0.2,0.5,0.2,0.8,0.3c0,0,0,0,0.1,0c0.3,0,0.7-0.1,1-0.1c0.9,0,1.2-0.3,1.3-1.2c0-0.4,0.2-0.6,0.5-0.6c0.1,0,0.1,0,0.2,0
		c0.4,0.1,0.7,0.4,1,0.6c0.2,0.1,0.4,0.3,0.7,0.4c0.6,0.4,1.4,0.6,1.7,1.2c0.3,0.7,0.8,1.5,0.2,2.2c0.1,0.2,0.2,0.4,0.3,0.5
		c0.2,0.3,0.5,0.6,0.8,0.9l0,0c0.1,0,0.4-0.3,0.6-0.5c0.3-0.2,0.6-0.5,1-0.5c0.9,0,1.6-0.8,1.5-1.7c0-0.4,0-0.8,0.1-1.2
		c0-0.5,0.3-0.7,0.7-0.7c0.1,0,0.2,0,0.4,0s0.3,0,0.4,0c0.5,0,0.7-0.2,0.9-0.8c0.1-0.2,0.4-0.4,0.7-0.5c0.2-0.1,0.6-0.1,0.8-0.2
		c0.3-0.2,0.6-0.3,0.9-0.3s0.5,0.1,0.8,0.4c0.7-0.5,0.8-0.6,0.8-1.3l0.2-0.5c0.2-0.3,0.4-0.5,0.6-0.8c0.3,0,0.5-0.1,0.7-0.1
		c0.4,0,0.5,0.1,0.6,0.5l0.4-0.3c0.4,0.1,0.6,0.2,0.9,0.3c0.1,0,0.1,0,0.2,0h0.1h0.1c0.1,0,0.2,0,0.3,0.1c0.3,0.2,0.6,0.3,1,0.3
		s0.8-0.1,1.1-0.2c0.4-0.2,0.8-0.2,1.2-0.2c0.3,0,0.5,0,0.8,0c1.2,0.1,1.8,0.6,2.1,1.6c0.6-0.3,1.2-0.6,1.8-0.9l0.1,0.3
		c-0.2,1.1,0.9,1.3,1.3,2l0.3,0.1c0.2-0.1,0.4-0.1,0.5-0.1c0.5,0,1,0.2,1.5,0.5s0.8,0.7,0.7,1.3c-0.1,0.6,0.1,0.9,0.7,0.9
		c0.6,0.1,1.2,0.1,1.8,0.1c0.2,0,0.4,0,0.6,0s0.3,0,0.5,0l0.5-0.4c0.2-0.9,0.7-1.5,1.6-1.7c0.5-0.2,1.1-0.4,1.5-0.7
		c0.3-0.3,0.5-0.7,0.8-1.2c-0.2-0.1-0.5-0.2-0.7-0.3l-0.4-0.4c0-0.7,0.3-0.9,1-1h0.3c0-0.6,0-1.1,0-1.5c0.1-1,1.1-1.3,1.5-2.1
		c0.1-0.3,0.4-0.5,0.7-0.5c0.2,0,0.3,0,0.5,0.1l0.5,0.1c0.6-0.3,1.2-0.7,1.6-1.1c0.4-0.3,0.7-0.4,1.1-0.5c0.1,0,0.1,0,0.2,0
		c0.3,0,0.6,0.1,0.8,0.1c0.3,0.1,0.6,0.1,0.8,0.1c0.3,0,0.6-0.1,0.9-0.4h0.3c0.3,0.1,0.7,0.2,1,0.2c0.5,0,1-0.1,1.5-0.4
		c0.1-0.1,0.2-0.1,0.4-0.1c0.2,0,0.5,0.1,0.7,0.2c0.9,0.4,1.9,0.8,2.7,1.5c1.1,0.9,2.2,2,3.2,3.1c0.3,0.3,0.5,0.5,0.9,0.5
		c0.1,0,0.1,0,0.2,0c0.3-0.1,0.5-0.4,0.7-0.6l-0.1-0.3c0.6,0.1,1.2,0.3,1.8,0.4c0.7,0.2,1.4,0.5,2.1,0.7c0.2,0.1,0.5,0.1,0.7,0.2
		c0.7,0.4,1.4,0.8,2,1.3c0.1,0.1,0.2,0.1,0.4,0.1c0.5,0,1.1-0.3,1.3-0.6c0.4-0.3,0.8-0.5,1.1-0.8c-0.5-0.9-0.1-1.8,0.8-1.8h0.1
		c0.9,0,1.7,0.1,2.7,0.2l0.6-0.3c0.8,0.3,1.7,0.6,2.4,1c0.6,0.3,0.6,0.6,0.1,1.1l-0.3,0.4c0.2,0,0.3,0,0.4,0h0.1c0.1,0,0.2,0,0.3,0
		c0.6,0,1,0.3,1.4,0.7c1,1,1.9,2.2,3.4,2.2c0.2,0,0.5,0,0.8-0.1h0.1c0.1,0,0.2,0.1,0.3,0.1c0.2,0,0.4-0.2,0.4-0.5
		c0.1-0.7,0.5-1.1,1.2-1.1l0,0l0,0c0.3,0,0.8-0.2,0.6-0.7c-0.2-1-1-1.5-1.8-1.8c-0.7-0.2-1.3-0.6-1.8-1.1c-0.4-0.4-0.6-0.8-0.1-1.3
		c0.2-0.2,0.5-0.4,0.7-0.4s0.4,0.1,0.7,0.3c0.3,0.2,0.5,0.5,0.7,0.7c0.4,0.3,0.8,0.6,1.2,0.7c0.7,0.2,1.4,0.2,2.1,0.3
		c0.3,0.1,0.6,0.3,0.9,0.3h0.1c0.1,0,0.2,0,0.2,0c0.3,0,0.6,0.2,0.8,0.4c0.6,0.6,1.2,1.2,1.8,1.8c0.2-0.2,0.3-0.4,0.5-0.6
		c0.3-0.3,0.6-0.7,0.9-0.7c1.2-0.2,2.4-0.3,3.6-0.3c0.1,0,0.2,0,0.3,0c0.9,0,1.8,0.1,2.7,0.1l0,0c0.7,0,1.4-0.1,2-0.1c0,0,0,0,0.1,0
		c0.5,0,0.9,0.1,1.1,0.7c0.2,0.4,0.5,0.7,0.9,0.9h0.1c0.2,0,0.5-0.2,0.7-0.3h0.3c1.2,0.2,2.3,0.6,3.3,1.4l0.5,0.3
		c0.4,0.2,0.8,0.3,1.2,0.6c0.2,0.2,0.4,0.3,0.7,0.3c0.2,0,0.4-0.1,0.6-0.3c0.5-0.5,1-1,1.5-1.4c0.3-0.2,0.6-0.5,0.9-0.5
		c1-0.2,2-0.3,3-0.3c1.3,0,2.4-0.3,3.2-1.3c0.3-0.4,0.7-0.7,1.2-0.7c0.1,0,0.3,0,0.4,0.1c0.8,0.3,1.5,0.6,2.2,0.8
		c0.2,0.1,0.4,0.1,0.6,0.1c0.1,0,0.2,0,0.2-0.1c0.2-0.1,0.1-0.6,0.1-0.9c0-0.2,0-0.5,0-0.7c0.3-1.4,1.7-2.6,3.2-2.6
		c0.1,0,0.1,0,0.2,0s0.1,0,0.2,0c0.3,0,0.5,0,0.7-0.2c0.5-0.5,1-0.4,1.6-0.4h0.1c0.1,0,0.2,0,0.3,0c0.1,0,0.2,0,0.3,0
		c0.3,0,0.5,0,0.7-0.2c0.9-0.7,1.6-1.5,1.6-2.8c0-0.7,0-1.4,0-2.1c0-0.6-0.1-1.2,0.6-1.5c0.2-0.1,0.3-0.4,0.4-0.7
		c0.1-0.2,0.2-0.6,0.1-0.7c-0.2-0.3-0.4-0.4-0.8-0.4c-0.1,0-0.2,0-0.3,0c-0.4,0.1-0.9,0.1-1.3,0.1s-0.7,0-1.1-0.1
		c-0.7-0.1-1.4-0.2-2.1-0.2c-0.8,0-1.5,0.1-2.3,0.4c-0.2,0.1-0.3,0.1-0.4,0.1c-0.3,0-0.5-0.2-0.7-0.7c-0.1-0.2-0.2-0.4-0.3-0.7
		c-0.2-0.3-0.3-0.6-0.4-0.7c-1.1-0.5-2.2-0.8-3-1.5c-0.8-0.6-1.5-1.1-2.4-1.2l-0.4-0.4c0.5-0.2,0.8-0.2,1-0.4
		c0.4-0.3,0.7-0.4,1.1-0.4c0.2,0,0.4,0,0.7,0.1c0.4,0.1,0.7,0.2,1.1,0.2s0.7-0.1,1.1-0.5c0.6-0.6,1.4-0.9,2.1-1.4
		c0.2-0.1,0.3-0.5,0.3-0.8c0.1-0.4-0.1-0.8,0.1-1.1c0.4-0.8,0.3-1.6,0.3-2.4c-0.3,0-0.5-0.1-0.8-0.1l0.2-0.4
		c0.6-0.2,1.1-0.4,1.7-0.5l0.6,0.3c0.3,0.3,0.6,0.6,1,0.6c0.1,0,0.2,0,0.3,0c0.3-0.1,0.6-0.2,1-0.3c1.3-0.3,2.1-1.3,2.8-2.2
		l-0.1-0.2c-0.4-0.3-0.6-0.8-0.4-1.1s0.7-0.5,1-0.7l0.4-0.1c0.7-0.6,1.4-1.3,2.1-1.9c0.6-0.6,1-1.3,1.9-1.3c0.3,0,0.7-0.3,0.9-0.5
		c0.5-0.8,0.8-1.7,1.2-2.6v-0.4c0.2-1,0.1-2,0.8-2.9c0.9-1.2,1.8-2.4,2-4c0-0.3,0.2-0.7,0.5-1c0.5-0.5,0.3-1.1,0.2-1.7
		c-0.1-0.5-0.1-0.9-0.1-1.4c0-0.6,0.2-1.3-0.4-1.7l-0.3-0.5c-0.1-0.7-0.1-1.3-0.1-2l-0.5-0.4c-0.3-0.3-0.5-0.6-0.8-0.9
		c-0.2-0.2-0.4-0.3-0.5-0.6s-0.4-0.4-0.5-0.5c-0.4-0.5-0.7-1-1.3-1.3v-0.2c-0.2-0.6-0.5-1.1-1.2-1.2l-0.4-0.3
		c-0.2-0.3-0.3-0.9-0.5-0.9c-0.7-0.1-0.6-0.5-0.4-1.1c-0.8-0.3-1.6-0.5-2.4-0.8c-1.1-0.5-2.3-0.9-3.5-0.9c-0.2,0-0.4,0-0.5,0h-0.3
		c-0.2-0.1-0.4-0.2-0.5-0.2c-0.2,0-0.4,0.2-0.4,0.7c-0.5-0.1-1-0.2-1.4-0.3c-0.5,0-0.9,0-1-0.5c-0.3,0.1-0.6,0.3-0.8,0.3l0,0
		c-0.5,0-0.9-0.1-1.4-0.2c-0.2,0-0.3,0-0.5,0c-0.1,0-0.2,0-0.3,0.1c-0.3,0.2-0.6,0.5-1,0.8c-0.4,0.7-0.8,1.5-1.3,2.4l0.4,0.2
		c-0.3,0.2-0.6,0.4-0.9,0.6l-0.2-0.4c-0.2,0.2-0.4,0.3-0.5,0.3c-0.2,0-0.4-0.1-0.6-0.4l-0.5-0.2c-1,0-1.1-0.1-1.4-1.1
		c-0.1-0.4-0.4-0.9-0.7-1.2c-0.3-0.3-0.8-0.4-1.2-0.6c-0.4-0.1-0.7-0.6-0.5-0.7c0.6-0.1,0.5-0.7,0.9-1c0.6-0.5,1.1-1.2,1.7-1.6
		c0.8-0.6,1.7-1.1,2.6-1.7c0.3-0.2,0.6-0.4,0.7-0.6c0.8-1.3,0.7-2.7,0.5-4c0-0.4-0.2-0.8-0.3-1.1c-0.3,0.1-0.5,0.3-0.7,0.3l0,0
		l-0.3-0.4c-0.2-0.7-0.5-1.5-0.7-2.3c-0.1-0.3-0.3-0.7-0.2-0.9c0.4-0.9,0.4-1.8,0.1-2.7c-0.2,0-0.5,0-0.7,0
		c-0.9-0.1-1.1-0.2-1.3-1.2l-0.2-0.3c-0.2-0.2-0.4-0.4-0.5-0.6c-0.3-0.5-0.6-1.3-1-1.4c-1-0.2-1.2-1.1-1.8-1.6
		c-0.3-0.3-0.6-0.8-0.7-1.2c-0.1-0.3,0.1-0.6,0.2-0.9c0.3,0.1,0.6,0.2,0.8,0.4c0.4,0.5,0.8,1,1.2,1.5c0.3,0.3,0.5,0.5,0.9,0.5
		c0.1,0,0.3,0,0.5-0.1s0.5-0.2,0.7-0.2c0.3,0,0.5,0.1,0.8,0.3c0.4,0.4,0.9,0.7,1.5,1.2c-0.1-0.7-0.2-1.4-0.4-2
		c-0.3-0.7-0.9-1.3-1.2-1.9c-0.4-0.8-0.8-1.7-1.2-2.6c-0.6-1.3-1.4-2.5-1.5-4c0-0.5-0.2-1-0.2-1.5c-0.1-1.1-0.1-2.2,0.9-2.9
		c0.1-0.1,0.3-0.3,0.5-0.5c-0.6-0.3-1.1-0.7-1.6-0.9c-0.6-0.3-0.7-0.7-0.3-1.2l0.1-0.4c0.2-0.8-0.2-1.3-0.8-1.7
		c-0.3-0.3-0.7-0.7-0.8-1.1c-0.3-1-0.4-2-0.6-3c-0.1-0.5-0.5-1-0.8-1.4l-0.2-0.4c0-0.9-0.5-1.5-1.1-2s-1.1-1-1.6-1.5
		c-0.8-0.8-1.7-1.5-2.9-1.9c-0.9-0.2-1.7-0.9-2.4-1.4c-0.4-0.3-1.2-0.4-1.3-1.2l-0.2-0.1c-0.7-0.3-0.8-0.9-0.4-1.4
		c-0.4-0.4-0.8-0.8-1.1-1.3c-0.8-1.1-0.5-2.5-0.7-3.7c-0.2-1,0-2.1,0-3.1l-0.1-0.3c-0.1-0.5-0.3-1-0.4-1.5c0-0.6,0.1-1.1,0.1-1.7
		c-0.3-0.1-0.5-0.1-0.7-0.2c-0.5-0.3-0.9-2.5-0.6-3c0.1-0.2,0.3-0.5,0.5-0.7h-0.2c-0.1-0.3-0.2-0.6-0.2-0.8l-0.1-0.3
		c-0.4-0.9-0.7-1.8,0.2-2.5c-0.7-0.9-0.9-1.7-0.2-2.7c0.2-0.3,0.3-0.6,0.3-1c0-0.8-0.1-1.6-0.2-2.4c-0.1-1.1-0.2-2.1-1.2-2.8
		c-0.7-0.4-1-1.1-0.8-1.9c0.1-0.4-0.1-0.7-0.5-0.7h-0.1c-0.1,0-0.1,0-0.2,0c-0.5,0-0.8-0.3-1-0.8c-0.1-0.3-0.4-0.4-0.5-0.7
		c-0.2-0.3-0.4-0.7-0.5-1c-0.1-0.4-0.2-0.8-0.3-1.2c-0.2-0.7-0.4-1.3-0.6-2l-0.2-0.4c-0.3-0.5-0.5-0.9-0.7-1.3
		c-0.4-0.2-0.7-0.4-1.1-0.6l-0.5-0.2c-0.1,0-0.1,0-0.2,0c-0.6,0-1-0.3-1.5-0.7c-0.7-0.7-1.5-1.3-2.2-2c-0.4-0.4-0.9-0.4-1.2-0.9
		c-0.4-0.8-1-1.6-2.1-1.6h-0.1l0,0c-0.4,0-0.8-0.2-1.2-0.3c-0.3,0.3-0.7,0.6-0.9,1c-0.5,1.2-1.4,1.4-2.4,1.4c-0.3,0-0.7,0-1.1-0.1
		c-0.3,0-0.6-0.2-0.9-0.4c-0.4-0.2-0.8-0.6-1.3-0.7c-0.4-0.1-0.9-0.1-1.3-0.2c-0.7-0.1-1.4-1-1.3-1.6c0.3,0,0.5,0,0.8,0
		c0.7-0.1,1.4-0.3,2.1-0.4s0.9-0.5,1.1-1c0.1-0.2,0.2-0.5,0.4-0.6c0.7-0.5,1.5-0.9,2.2-1.5c0.4-0.3,0.8-0.4,1.1-0.4
		c0.4,0,0.8,0.2,1.1,0.5c0.2,0.2,0.5,0.4,0.8,0.4c0.1,0,0.3,0,0.4-0.1c0.3-0.2,0.8-0.3,1.1-0.4c1.1-0.1,1.8-0.9,2.7-1.6
		c-0.4-0.4-0.7-0.9-1.1-1.2c-0.3-0.3-0.7-0.5-1.1-0.6c-1-0.3-1.4-1.5-0.7-2.3c0.5-0.5,0.3-1.2-0.4-1.4c-0.2-0.1-0.4-0.2-0.6-0.4
		c0.4-0.3,0.9-0.5,1.3-0.5c0.3,0,0.5,0.1,0.8,0.2c0.1,0.1,0.3,0.1,0.4,0.1c0.2,0,0.3-0.1,0.5-0.3c0.6-0.5,1.2-1.2,2-1.4
		c0.8-0.2,1.4-0.7,1.9-1.3c0.2-0.3,0.3-0.7,0.4-1.1c0.1-0.3,0.3-0.7,0.5-1c0.3-0.4,0.7-0.6,0.8-1.2c0.1-0.8,0.5-1.6,1.6-1.7l0.4-0.2
		c0.8-0.7,1.7-1.4,2.4-2.3c0.4-0.5,0.8-1.1,0.9-1.7c0-1.1,0.8-1.8,1.3-2.7c0.5-0.9,1.3-1.7,1.8-2.3c0-0.8-0.2-1.5,0-1.9
		c0.7-1.4,1.3-2.9,2.5-4s2.4-2.3,3.6-3.4l-0.2-0.1c0-0.4,0.1-0.7,0.1-1.1c-0.2-0.2-0.3-0.5-0.4-0.7c0-0.5,0-0.9,0-1.4l-0.2-0.4
		c-0.5-0.6-1.2-1-1.4-1.8c-0.1-0.2-0.4-0.4-0.6-0.4c-0.7-0.1-0.7-0.7-1-1.1l-0.3-0.6c-0.1,0-0.2,0-0.3,0c-0.2,0-0.4,0-0.5,0.1
		c-0.3,0.3-0.5,0.4-0.8,0.4c-0.2,0-0.5-0.1-0.8-0.3s-0.7-0.4-0.9-0.5c-0.4,0.1-0.8,0.3-1.1,0.3h-0.1c-1-0.2-2-0.4-3-0.7
		c-0.6-0.2-1.2-0.5-1.9-0.7c-0.7-0.2-1.5-0.3-2.2-0.7c-0.3-0.1-0.5-0.2-0.7-0.2s-0.3,0-0.5,0.1c-0.5,0.2-0.9,0.5-1.4,0.6
		c-0.1,0-0.2,0-0.3,0c-0.5,0-0.9-0.4-1.3-0.6c-0.9-0.3-1.6-0.8-2.2-1.6c-0.2-0.2-0.5-0.4-0.7-0.4c-0.4,0-0.9,0-1.3,0s-0.8,0-1.2,0
		l-0.5,0.5c0,0.4-0.2,0.5-0.5,0.5h-0.1c-0.3,0-0.7-0.1-1-0.1s-0.6,0-0.9,0c-0.6,0-1.1,0.1-1.7,0.6c-0.5,0.4-1.2,0.6-1.9,0.6
		c-0.1,0-0.1,0-0.2,0c-0.5,0-1-0.1-1.4-0.3c-0.5-0.1-1-0.3-1.5-0.3c-0.1,0-0.2,0-0.3,0l-0.1-0.1l0.3-0.6c1.9-1.8,3.8-3.7,5.7-5.5
		c0.2-0.2,0.3-0.6,0.5-0.9l-0.2-0.2c-0.3,0.2-0.5,0.5-0.8,0.7c-0.3,0.3-0.6,0.5-0.9,0.5s-0.5-0.1-0.8-0.4c-0.2-0.2-0.4-0.3-0.6-0.3
		c-0.1,0-0.2,0-0.4,0.1c-0.2,0.1-0.4,0.1-0.6,0.1c-0.1,0-0.2,0-0.3,0c-0.3-0.1-0.5-0.5-0.7-0.7c0.2-0.1,0.5-0.3,0.7-0.4
		c0.1,0,0.1,0,0.2,0c0.2,0,0.4,0,0.7,0.1c0.1-0.5,0.3-1,0.4-1.4c0.2-0.9,0.6-1.5,1.6-1.7c0.5-0.1,1.2-0.4,1.5-1.1
		c0.1-0.3,0.5-0.4,0.8-0.6V33c0.6-0.4,1.2-0.8,1.9-1.1c1.6-0.7,3-1.7,4.2-3c0.2-0.2,0.4-0.4,0.6-0.6s0.5-0.3,0.7-0.3
		c1.2-0.1,2.3-0.6,3.2-1.4c0.3-0.3,0.8-0.5,1-0.8c0.5-0.7,0.9-1.4,1.3-2.1c0.2-0.3,0.2-0.7-0.3-0.8c-0.8-0.1-1.1-0.9-0.5-1.5
		c0.2-0.3,0.5-0.5,0.8-0.8c0.6-0.7,1.2-1.4,1.3-2.5c-0.5-0.1-1-0.1-1.5-0.2l-0.6-0.2l-0.5-0.3c-0.3,0-0.7,0-1,0c-0.4,0-0.7,0-1.1,0
		c-0.1-0.4-0.2-0.7-0.3-1c-0.9,0.7-0.9,0.7-0.3,1.5c0.1,0.1,0.2,0.3,0.3,0.7c-0.4-0.1-0.9,0-1-0.2c-0.3-0.6-0.8-0.4-1.2-0.5
		l-0.4-0.2c-0.4-0.3-1-0.5-1.6-0.5c-0.4,0-0.7,0.1-1,0.2c-0.7,0.5-1.4,0.7-2.2,0.7c-0.2,0-0.5,0-0.7-0.1c-0.8-0.2-1.9-0.1-2.1-1.3
		c-0.6,0.4-0.7,0.5-1.3,0.5c-0.1,0-0.3,0-0.5,0H319c-0.2,0.3-0.5,0.4-0.9,0.4c-0.1,0-0.3,0-0.4,0s-0.3,0-0.4,0l0,0h-0.1
		c-0.2,0-0.4,0-0.6-0.1c-0.3-0.1-0.5-0.4-0.8-0.7l-0.2,0.2c-0.2,0.2-0.4,0.3-0.6,0.3s-0.3-0.1-0.6-0.4c-0.2-0.3-0.5-0.6-0.8-0.8
		c-0.4-0.4-0.7-0.6-1-0.6c-0.4,0-0.6,0.3-0.8,1l-0.6,0.2c-0.4-0.5-0.7-1-1.1-1.5c-0.3-0.4-0.6-0.9-1-1.1
		C308.6,13.7,307.6,13.4,306.5,13"/>
</g>
<g>
	<rect x="16.3" y="117.2" fill="#C3C530" width="371.5" height="2.5"/>
</g>
<g>
	<polygon fill="#C3C530" points="352.7,118.5 352.7,157.5 370.3,174.6 387.8,157.5 387.8,118.5 	"/>
</g>
<g>
	<path fill="#2C2C2B" d="M364.8,148.9L364.8,148.9c-1.7-0.1-3.1-1.1-3.7-2.6s-0.2-3.2,1-4.4l2.4-2.4c-0.3-0.3-0.7-0.7-0.9-0.9
		c-0.2-0.1-0.3-0.3-0.4-0.3c-0.1-0.1-0.3-0.3-0.5-0.5c-0.7-0.7-1.6-1.5-1.9-2.6c-0.3-1.5,0-3.4,1.5-4.4c1.3-0.9,2.6-1,3.9-0.5
		c0.1,0,0.1,0.1,0.2,0.1c0.1,0.1,0.2,0.1,0.3,0.1c0.1,0.1,0.2,0.1,0.3,0.2c0.5,0.3,1.1,0.8,1.8,1.5l1.4,1.4l1.4-1.4
		c1-1,3.1-3.1,5.6-1.8c1.2,0.6,2,1.7,2.2,2.9c0.2,1.3-0.3,2.8-1.4,3.9l-2.3,2.3c0.1,0.1,0.2,0.2,0.3,0.2c0.2,0.1,0.3,0.3,0.5,0.4
		l0.5,0.4c1.5,1.4,3.5,3.3,2.2,5.9c-0.6,1.3-1.8,2.1-3.2,2.3c-1.3,0.2-2.5-0.2-3.5-1.1l-2.4-2.4l0,0c-0.2,0.2-0.5,0.5-0.7,0.8
		c-1.2,1.3-2.5,2.7-4.5,2.8l0,0L364.8,148.9L364.8,148.9z M364.8,131.3c-0.6,0-1.1,0.2-1.7,0.6c-1,0.7-1.2,2-0.9,3
		c0.2,0.7,0.9,1.4,1.5,2c0.2,0.2,0.3,0.3,0.5,0.5c0.1,0.1,0.2,0.2,0.3,0.3c1.1,1,1.5,1.4,1.5,1.9v0.3l-0.2,0.3l-2.7,2.7
		c-0.9,0.9-1.2,2-0.8,3.1c0.4,1,1.3,1.7,2.5,1.8h0.1c1.5-0.1,2.5-1.3,3.6-2.4c0.3-0.3,0.5-0.6,0.8-0.8l0.9-0.9l1.1,1.1l2.2,2.2
		c0.7,0.7,1.5,0.9,2.4,0.8c1-0.2,1.8-0.8,2.3-1.7c0.8-1.6-0.3-2.8-1.9-4.4l-0.5-0.5c-0.1-0.1-0.2-0.2-0.4-0.3
		c-0.4-0.3-0.8-0.7-0.8-1.2c0-0.2,0-0.5,0.3-0.7l2.4-2.4c0.8-0.8,1.2-1.8,1-2.8c-0.1-0.9-0.7-1.6-1.6-2c-1.5-0.7-2.7,0.1-4.2,1.6
		l-2.3,2.3l-2.3-2.3c-0.6-0.6-1.1-1-1.6-1.3c-0.1-0.1-0.2-0.1-0.2-0.1l0,0l-0.4-0.2C365.5,131.4,365.1,131.3,364.8,131.3z"/>
</g>
<g>
	<path fill="#C3C530" d="M128.6,66.7c4.5,0,5.9,3.3,5.9,7.3c0,3.9-1.9,6.8-6.1,6.8c-4.4,0-5.9-3-5.9-6.9
		C122.5,69.9,124.4,66.7,128.6,66.7z M128.5,78.1c2.2,0,2.4-2.6,2.4-4.1c0-1.4-0.1-4.5-2.2-4.5c-2.3,0-2.5,2.8-2.5,4.5
		C126.2,75.5,126.2,78.1,128.5,78.1z M143.9,66.4h3.1l-14.9,26.8H129L143.9,66.4z M147.2,78.9c4.5,0,5.9,3.2,5.9,7.1s-1.9,7-6.1,7
		c-4.4,0-5.9-3.2-5.9-7.1C141.1,82,143,78.9,147.2,78.9z M147.1,90.3c2.2,0,2.4-2.8,2.4-4.3c0-1.4-0.1-4.3-2.2-4.3
		c-2.3,0-2.5,2.6-2.5,4.3C144.8,87.5,144.8,90.3,147.1,90.3z"/>
</g>
<g>
	<path fill="#C3C530" d="M16.2,133.9h9.9v2.6h-6.8v3.3h5.9v2.4h-5.9v5.8h-3.1C16.2,148,16.2,133.9,16.2,133.9z"/>
	<path fill="#C3C530" d="M32.7,133.9h3.2l5.3,14.1H38l-1.1-3.1h-5.3l-1.1,3.1h-3.1L32.7,133.9z M32.4,142.6h3.7l-1.8-5.2l0,0
		L32.4,142.6z"/>
	<path fill="#C3C530" d="M44.4,133.9h3.1V148h-3.1V133.9z"/>
	<path fill="#C3C530" d="M52.2,133.9h3.1v11.5h6.9v2.6h-10V133.9z"/>
	<path fill="#C3C530" d="M76.5,136.5h-4.2v-2.6h11.6v2.6h-4.2V148h-3.1v-11.5H76.5z"/>
	<path fill="#C3C530" d="M87.5,133.9h3.1v5.4h5.7v-5.4h3.1V148h-3.1v-6h-5.7v6.1h-3.1V133.9z"/>
	<path fill="#C3C530" d="M104.1,133.9h10.6v2.6h-7.5v3h6.9v2.4h-6.9v3.5h7.6v2.6h-10.7V133.9z"/>
	<path fill="#C3C530" d="M135.8,138.7c-0.2-1.4-1.6-2.5-3.1-2.5c-2.8,0-3.8,2.4-3.8,4.9c0,2.4,1,4.7,3.8,4.7c1.9,0,3-1.3,3.2-3.2h3
		c-0.3,3.5-2.7,5.8-6.2,5.8c-4.4,0-7-3.3-7-7.3c0-4.2,2.6-7.5,7-7.5c3.1,0,5.7,1.8,6.1,5.1H135.8z"/>
	<path fill="#C3C530" d="M143.1,133.9h7.6c2.5,0,4.1,1.8,4.1,3.9c0,1.7-0.7,2.9-2.2,3.5l0,0c1.5,0.4,2,1.9,2.1,3.3
		c0.1,0.9,0,2.6,0.6,3.3h-3.1c-0.4-0.9-0.3-2.3-0.5-3.4c-0.2-1.5-0.8-2.1-2.4-2.1h-3.1v5.5h-3.1L143.1,133.9L143.1,133.9z
		 M146.2,140.3h3.4c1.4,0,2.1-0.6,2.1-2s-0.7-2-2.1-2h-3.4V140.3z"/>
	<path fill="#C3C530" d="M159.4,133.9h3.1V148h-3.1V133.9z"/>
	<path fill="#C3C530" d="M170.3,136.5h-4.2v-2.6h11.6v2.6h-4.2V148h-3.1v-11.5H170.3z"/>
	<path fill="#C3C530" d="M181.2,133.9h10.6v2.6h-7.5v3h6.9v2.4h-6.9v3.5h7.6v2.6h-10.7L181.2,133.9L181.2,133.9z"/>
	<path fill="#C3C530" d="M196.1,133.9h7.6c2.5,0,4.1,1.8,4.1,3.9c0,1.7-0.7,2.9-2.2,3.5l0,0c1.5,0.4,2,1.9,2.1,3.3
		c0.1,0.9,0,2.6,0.6,3.3h-3.1c-0.4-0.9-0.3-2.3-0.5-3.4c-0.2-1.5-0.8-2.1-2.4-2.1h-3.1v5.5h-3.1L196.1,133.9L196.1,133.9z
		 M199.2,140.3h3.4c1.4,0,2.1-0.6,2.1-2s-0.7-2-2.1-2h-3.4V140.3z"/>
	<path fill="#C3C530" d="M212.4,133.9h3.1V148h-3.1V133.9z"/>
	<path fill="#C3C530" d="M224,133.9h3.2l5.3,14.1h-3.2l-1.1-3.1h-5.3l-1.1,3.1h-3.1L224,133.9z M223.7,142.6h3.7l-1.8-5.2l0,0
		L223.7,142.6z"/>
</g>
<g>
	<path fill="#656463" d="M383.9,232.2c0-0.5,0.4-0.9,1-0.9l0,0c0.5,0,0.9,0.4,0.9,0.9l0,0c0,0.5-0.4,0.9-0.9,0.9l0,0
		C384.3,233.1,383.9,232.7,383.9,232.2z M378.2,232.2c0-0.5,0.4-0.9,1-0.9l0,0c0.5,0,1,0.4,1,0.9l0,0c0,0.5-0.4,0.9-1,0.9l0,0
		C378.6,233.1,378.2,232.7,378.2,232.2z M372.5,232.2c0-0.5,0.4-0.9,0.9-0.9l0,0c0.5,0,1,0.4,1,0.9l0,0c0,0.5-0.4,0.9-1,0.9l0,0
		C372.9,233.1,372.5,232.7,372.5,232.2z M366.8,232.2c0-0.5,0.4-0.9,0.9-0.9l0,0c0.5,0,1,0.4,1,0.9l0,0c0,0.5-0.4,0.9-1,0.9l0,0
		C367.2,233.1,366.8,232.7,366.8,232.2z M361.1,232.2c0-0.5,0.4-0.9,1-0.9l0,0c0.5,0,0.9,0.4,0.9,0.9l0,0c0,0.5-0.4,0.9-0.9,0.9l0,0
		C361.5,233.1,361.1,232.7,361.1,232.2z M355.4,232.2c0-0.5,0.4-0.9,1-0.9l0,0c0.5,0,0.9,0.4,0.9,0.9l0,0c0,0.5-0.4,0.9-0.9,0.9l0,0
		C355.8,233.1,355.4,232.7,355.4,232.2z M349.7,232.2c0-0.5,0.4-0.9,1-0.9l0,0c0.5,0,1,0.4,1,0.9l0,0c0,0.5-0.4,0.9-1,0.9l0,0
		C350.1,233.1,349.7,232.7,349.7,232.2z M344,232.2c0-0.5,0.4-0.9,0.9-0.9l0,0c0.5,0,1,0.4,1,0.9l0,0c0,0.5-0.4,0.9-1,0.9l0,0
		C344.5,233.1,344,232.7,344,232.2z M338.3,232.2c0-0.5,0.4-0.9,0.9-0.9l0,0c0.5,0,1,0.4,1,0.9l0,0c0,0.5-0.4,0.9-1,0.9l0,0
		C338.8,233.1,338.3,232.7,338.3,232.2z M332.6,232.2c0-0.5,0.4-0.9,1-0.9l0,0c0.5,0,0.9,0.4,0.9,0.9l0,0c0,0.5-0.4,0.9-0.9,0.9l0,0
		C333.1,233.1,332.6,232.7,332.6,232.2z M327,232.2c0-0.5,0.4-0.9,1-0.9l0,0c0.5,0,0.9,0.4,0.9,0.9l0,0c0,0.5-0.4,0.9-0.9,0.9l0,0
		C327.4,233.1,327,232.7,327,232.2z M321.3,232.2c0-0.5,0.4-0.9,1-0.9l0,0c0.5,0,1,0.4,1,0.9l0,0c0,0.5-0.4,0.9-1,0.9l0,0
		C321.7,233.1,321.3,232.7,321.3,232.2z M315.6,232.2c0-0.5,0.4-0.9,0.9-0.9l0,0c0.5,0,1,0.4,1,0.9l0,0c0,0.5-0.4,0.9-1,0.9l0,0
		C316,233.1,315.6,232.7,315.6,232.2z M309.9,232.2c0-0.5,0.4-0.9,0.9-0.9l0,0c0.5,0,1,0.4,1,0.9l0,0c0,0.5-0.4,0.9-1,0.9l0,0
		C310.3,233.1,309.9,232.7,309.9,232.2z M304.2,232.2c0-0.5,0.4-0.9,1-0.9l0,0c0.5,0,0.9,0.4,0.9,0.9l0,0c0,0.5-0.4,0.9-0.9,0.9l0,0
		C304.6,233.1,304.2,232.7,304.2,232.2z M298.5,232.2c0-0.5,0.4-0.9,1-0.9l0,0c0.5,0,0.9,0.4,0.9,0.9l0,0c0,0.5-0.4,0.9-0.9,0.9l0,0
		C298.9,233.1,298.5,232.7,298.5,232.2z M292.8,232.2c0-0.5,0.4-0.9,0.9-0.9l0,0c0.5,0,1,0.4,1,0.9l0,0c0,0.5-0.4,0.9-1,0.9l0,0
		C293.2,233.1,292.8,232.7,292.8,232.2z M287.1,232.2c0-0.5,0.4-0.9,0.9-0.9l0,0c0.5,0,1,0.4,1,0.9l0,0c0,0.5-0.4,0.9-1,0.9l0,0
		C287.5,233.1,287.1,232.7,287.1,232.2z M281.4,232.2c0-0.5,0.4-0.9,0.9-0.9l0,0c0.5,0,1,0.4,1,0.9l0,0c0,0.5-0.4,0.9-1,0.9l0,0
		C281.8,233.1,281.4,232.7,281.4,232.2z M275.7,232.2c0-0.5,0.4-0.9,1-0.9l0,0c0.5,0,0.9,0.4,0.9,0.9l0,0c0,0.5-0.4,0.9-0.9,0.9l0,0
		C276.1,233.1,275.7,232.7,275.7,232.2z M270,232.2c0-0.5,0.4-0.9,1-0.9l0,0c0.5,0,0.9,0.4,0.9,0.9l0,0c0,0.5-0.4,0.9-0.9,0.9l0,0
		C270.5,233.1,270,232.7,270,232.2z M264.4,232.2c0-0.5,0.4-0.9,0.9-0.9l0,0c0.5,0,0.9,0.4,0.9,0.9l0,0c0,0.5-0.4,0.9-0.9,0.9l0,0
		C264.8,233.1,264.4,232.7,264.4,232.2z M258.7,232.2c0-0.5,0.4-0.9,0.9-0.9l0,0c0.5,0,1,0.4,1,0.9l0,0c0,0.5-0.4,0.9-1,0.9l0,0
		C259.1,233.1,258.7,232.7,258.7,232.2z M253,232.2c0-0.5,0.4-0.9,0.9-0.9l0,0c0.5,0,1,0.4,1,0.9l0,0c0,0.5-0.4,0.9-1,0.9l0,0
		C253.4,233.1,253,232.7,253,232.2z M247.3,232.2c0-0.5,0.4-0.9,1-0.9l0,0c0.5,0,0.9,0.4,0.9,0.9l0,0c0,0.5-0.4,0.9-0.9,0.9l0,0
		C247.7,233.1,247.3,232.7,247.3,232.2z M241.6,232.2c0-0.5,0.4-0.9,1-0.9l0,0c0.5,0,0.9,0.4,0.9,0.9l0,0c0,0.5-0.4,0.9-0.9,0.9l0,0
		C242,233.1,241.6,232.7,241.6,232.2z M235.9,232.2c0-0.5,0.4-0.9,0.9-0.9l0,0c0.5,0,0.9,0.4,0.9,0.9l0,0c0,0.5-0.4,0.9-0.9,0.9l0,0
		C236.3,233.1,235.9,232.7,235.9,232.2z M230.2,232.2c0-0.5,0.4-0.9,0.9-0.9l0,0c0.5,0,1,0.4,1,0.9l0,0c0,0.5-0.4,0.9-1,0.9l0,0
		C230.6,233.1,230.2,232.7,230.2,232.2z M224.5,232.2c0-0.5,0.4-0.9,0.9-0.9l0,0c0.5,0,1,0.4,1,0.9l0,0c0,0.5-0.4,0.9-1,0.9l0,0
		C224.9,233.1,224.5,232.7,224.5,232.2z M218.8,232.2c0-0.5,0.4-0.9,1-0.9l0,0c0.5,0,0.9,0.4,0.9,0.9l0,0c0,0.5-0.4,0.9-0.9,0.9l0,0
		C219.2,233.1,218.8,232.7,218.8,232.2z M213.1,232.2c0-0.5,0.4-0.9,1-0.9l0,0c0.5,0,0.9,0.4,0.9,0.9l0,0c0,0.5-0.4,0.9-0.9,0.9l0,0
		C213.5,233.1,213.1,232.7,213.1,232.2z M207.4,232.2c0-0.5,0.4-0.9,1-0.9l0,0c0.5,0,0.9,0.4,0.9,0.9l0,0c0,0.5-0.4,0.9-0.9,0.9l0,0
		C207.8,233.1,207.4,232.7,207.4,232.2z M201.7,232.2c0-0.5,0.4-0.9,0.9-0.9l0,0c0.5,0,1,0.4,1,0.9l0,0c0,0.5-0.4,0.9-1,0.9l0,0
		C202.1,233.1,201.7,232.7,201.7,232.2z M196,232.2c0-0.5,0.4-0.9,0.9-0.9l0,0c0.5,0,1,0.4,1,0.9l0,0c0,0.5-0.4,0.9-1,0.9l0,0
		C196.5,233.1,196,232.7,196,232.2z M190.3,232.2c0-0.5,0.4-0.9,1-0.9l0,0c0.5,0,0.9,0.4,0.9,0.9l0,0c0,0.5-0.4,0.9-0.9,0.9l0,0
		C190.8,233.1,190.3,232.7,190.3,232.2z M184.6,232.2c0-0.5,0.4-0.9,1-0.9l0,0c0.5,0,0.9,0.4,0.9,0.9l0,0c0,0.5-0.4,0.9-0.9,0.9l0,0
		C185.1,233.1,184.6,232.7,184.6,232.2z M178.9,232.2c0-0.5,0.4-0.9,1-0.9l0,0c0.5,0,1,0.4,1,0.9l0,0c0,0.5-0.4,0.9-1,0.9l0,0
		C179.4,233.1,178.9,232.7,178.9,232.2z M173.3,232.2c0-0.5,0.4-0.9,0.9-0.9l0,0c0.5,0,1,0.4,1,0.9l0,0c0,0.5-0.4,0.9-1,0.9l0,0
		C173.7,233.1,173.3,232.7,173.3,232.2z M167.6,232.2c0-0.5,0.4-0.9,0.9-0.9l0,0c0.5,0,1,0.4,1,0.9l0,0c0,0.5-0.4,0.9-1,0.9l0,0
		C168,233.1,167.6,232.7,167.6,232.2z M161.9,232.2c0-0.5,0.4-0.9,1-0.9l0,0c0.5,0,0.9,0.4,0.9,0.9l0,0c0,0.5-0.4,0.9-0.9,0.9l0,0
		C162.3,233.1,161.9,232.7,161.9,232.2z M156.2,232.2c0-0.5,0.4-0.9,1-0.9l0,0c0.5,0,0.9,0.4,0.9,0.9l0,0c0,0.5-0.4,0.9-0.9,0.9l0,0
		C156.6,233.1,156.2,232.7,156.2,232.2z M150.5,232.2c0-0.5,0.4-0.9,1-0.9l0,0c0.5,0,1,0.4,1,0.9l0,0c0,0.5-0.4,0.9-1,0.9l0,0
		C150.9,233.1,150.5,232.7,150.5,232.2z M144.8,232.2c0-0.5,0.4-0.9,0.9-0.9l0,0c0.5,0,1,0.4,1,0.9l0,0c0,0.5-0.4,0.9-1,0.9l0,0
		C145.2,233.1,144.8,232.7,144.8,232.2z M139.1,232.2c0-0.5,0.4-0.9,0.9-0.9l0,0c0.5,0,1,0.4,1,0.9l0,0c0,0.5-0.4,0.9-1,0.9l0,0
		C139.5,233.1,139.1,232.7,139.1,232.2z M133.4,232.2c0-0.5,0.4-0.9,1-0.9l0,0c0.5,0,0.9,0.4,0.9,0.9l0,0c0,0.5-0.4,0.9-0.9,0.9l0,0
		C133.8,233.1,133.4,232.7,133.4,232.2z M127.7,232.2c0-0.5,0.4-0.9,1-0.9l0,0c0.5,0,0.9,0.4,0.9,0.9l0,0c0,0.5-0.4,0.9-0.9,0.9l0,0
		C128.1,233.1,127.7,232.7,127.7,232.2z M122,232.2c0-0.5,0.4-0.9,1-0.9l0,0c0.5,0,1,0.4,1,0.9l0,0c0,0.5-0.4,0.9-1,0.9l0,0
		C122.4,233.1,122,232.7,122,232.2z M116.3,232.2c0-0.5,0.4-0.9,0.9-0.9l0,0c0.5,0,1,0.4,1,0.9l0,0c0,0.5-0.4,0.9-1,0.9l0,0
		C116.8,233.1,116.3,232.7,116.3,232.2z M110.6,232.2c0-0.5,0.4-0.9,0.9-0.9l0,0c0.5,0,1,0.4,1,0.9l0,0c0,0.5-0.4,0.9-1,0.9l0,0
		C111.1,233.1,110.6,232.7,110.6,232.2z M104.9,232.2c0-0.5,0.4-0.9,1-0.9l0,0c0.5,0,0.9,0.4,0.9,0.9l0,0c0,0.5-0.4,0.9-0.9,0.9l0,0
		C105.4,233.1,104.9,232.7,104.9,232.2z M99.2,232.2c0-0.5,0.4-0.9,1-0.9l0,0c0.5,0,0.9,0.4,0.9,0.9l0,0c0,0.5-0.4,0.9-0.9,0.9l0,0
		C99.7,233.1,99.2,232.7,99.2,232.2z M93.6,232.2c0-0.5,0.4-0.9,0.9-0.9l0,0c0.5,0,1,0.4,1,0.9l0,0c0,0.5-0.4,0.9-1,0.9l0,0
		C94,233.1,93.6,232.7,93.6,232.2z M87.9,232.2c0-0.5,0.4-0.9,0.9-0.9l0,0c0.5,0,1,0.4,1,0.9l0,0c0,0.5-0.4,0.9-1,0.9l0,0
		C88.3,233.1,87.9,232.7,87.9,232.2z M82.2,232.2c0-0.5,0.4-0.9,0.9-0.9l0,0c0.5,0,1,0.4,1,0.9l0,0c0,0.5-0.4,0.9-1,0.9l0,0
		C82.6,233.1,82.2,232.7,82.2,232.2z M76.5,232.2c0-0.5,0.4-0.9,1-0.9l0,0c0.5,0,0.9,0.4,0.9,0.9l0,0c0,0.5-0.4,0.9-0.9,0.9l0,0
		C76.9,233.1,76.5,232.7,76.5,232.2z M70.8,232.2c0-0.5,0.4-0.9,1-0.9l0,0c0.5,0,0.9,0.4,0.9,0.9l0,0c0,0.5-0.4,0.9-0.9,0.9l0,0
		C71.2,233.1,70.8,232.7,70.8,232.2z M65.1,232.2c0-0.5,0.4-0.9,0.9-0.9l0,0c0.5,0,0.9,0.4,0.9,0.9l0,0c0,0.5-0.4,0.9-0.9,0.9l0,0
		C65.5,233.1,65.1,232.7,65.1,232.2z M59.4,232.2c0-0.5,0.4-0.9,0.9-0.9l0,0c0.5,0,1,0.4,1,0.9l0,0c0,0.5-0.4,0.9-1,0.9l0,0
		C59.8,233.1,59.4,232.7,59.4,232.2z M53.7,232.2c0-0.5,0.4-0.9,0.9-0.9l0,0c0.5,0,1,0.4,1,0.9l0,0c0,0.5-0.4,0.9-1,0.9l0,0
		C54.1,233.1,53.7,232.7,53.7,232.2z M48,232.2c0-0.5,0.4-0.9,1-0.9l0,0c0.5,0,0.9,0.4,0.9,0.9l0,0c0,0.5-0.4,0.9-0.9,0.9l0,0
		C48.4,233.1,48,232.7,48,232.2z M42.3,232.2c0-0.5,0.4-0.9,1-0.9l0,0c0.5,0,0.9,0.4,0.9,0.9l0,0c0,0.5-0.4,0.9-0.9,0.9l0,0
		C42.7,233.1,42.3,232.7,42.3,232.2z M36.6,232.2c0-0.5,0.4-0.9,0.9-0.9l0,0c0.5,0,0.9,0.4,0.9,0.9l0,0c0,0.5-0.4,0.9-0.9,0.9l0,0
		C37,233.1,36.6,232.7,36.6,232.2z M30.9,232.2c0-0.5,0.4-0.9,0.9-0.9l0,0c0.5,0,1,0.4,1,0.9l0,0c0,0.5-0.4,0.9-1,0.9l0,0
		C31.3,233.1,30.9,232.7,30.9,232.2z M25.2,232.2c0-0.5,0.4-0.9,0.9-0.9l0,0c0.5,0,1,0.4,1,0.9l0,0c0,0.5-0.4,0.9-1,0.9l0,0
		C25.7,233.1,25.2,232.7,25.2,232.2z M19.5,232.2c0-0.5,0.4-0.9,1-0.9l0,0c0.5,0,0.9,0.4,0.9,0.9l0,0c0,0.5-0.4,0.9-0.9,0.9l0,0
		C20,233.1,19.5,232.7,19.5,232.2z M13.8,232.2c0-0.5,0.4-0.9,1-0.9l0,0c0.5,0,0.9,0.4,0.9,0.9l0,0c0,0.5-0.4,0.9-0.9,0.9l0,0
		C14.3,233.1,13.8,232.7,13.8,232.2z"/>
</g>
<g enable-background="new    ">
	<path fill="#C3C530" d="M52.6,92.3H37.7V44.9H19.3V33.7c10.3,0.3,19.8-3.3,21.4-14.5h11.8v73.1H52.6z"/>
	<path fill="#C3C530" d="M88.8,17.7c14.6,0,27,9.2,27,37.7c0,29.2-12.3,38.4-27,38.4C74.2,93.8,62,84.6,62,55.4
		C62,26.9,74.2,17.7,88.8,17.7z M88.8,81.6c12.1,0,12.1-17.9,12.1-26.1c0-7.6,0-25.5-12.1-25.5c-12,0-11.9,17.9-11.9,25.5
		C76.8,63.7,76.8,81.6,88.8,81.6z"/>
</g>
<g enable-background="new    ">
	<path fill="#C3C530" d="M16,159.1h10v2.6h-6.9v3.3h6v2.4h-6v5.9H16V159.1z"/>
	<path fill="#C3C530" d="M35.2,158.8c4.4,0,7,3.3,7,7.5c0,4.1-2.6,7.4-7,7.4s-7-3.3-7-7.4C28.2,162.1,30.8,158.8,35.2,158.8z
		 M35.2,171.1c2.8,0,3.9-2.4,3.9-4.8c0-2.5-1.1-4.9-3.9-4.9s-3.9,2.4-3.9,4.9C31.3,168.7,32.4,171.1,35.2,171.1z"/>
	<path fill="#C3C530" d="M45.4,159.1h7.7c2.6,0,4.2,1.8,4.2,3.9c0,1.7-0.7,2.9-2.3,3.6l0,0c1.5,0.4,2,1.9,2.1,3.3
		c0.1,0.9,0,2.6,0.6,3.4h-3.1c-0.4-0.9-0.3-2.3-0.5-3.4c-0.2-1.5-0.8-2.2-2.4-2.2h-3.1v5.6h-3.1v-14.2H45.4z M48.5,165.6h3.4
		c1.4,0,2.2-0.6,2.2-2s-0.7-2-2.2-2h-3.4V165.6z"/>
	<path fill="#C3C530" d="M69.5,168.7c0,1.9,1.5,2.6,3.2,2.6c1.1,0,2.8-0.3,2.8-1.8c0-1.6-2.2-1.8-4.2-2.4c-2.1-0.5-4.3-1.4-4.3-4.1
		c0-2.9,2.8-4.3,5.3-4.3c3,0,5.7,1.3,5.7,4.6h-3c-0.1-1.7-1.3-2.2-2.8-2.2c-1,0-2.2,0.4-2.2,1.6c0,1.1,0.7,1.3,4.3,2.2
		c1.1,0.2,4.2,0.9,4.2,4.2c0,2.6-2,4.6-5.9,4.6c-3.2,0-6.1-1.6-6.1-5.1L69.5,168.7L69.5,168.7z"/>
	<path fill="#C3C530" d="M84.5,161.8h-4.3v-2.6h11.7v2.6h-4.3v11.6h-3.1C84.5,173.4,84.5,161.8,84.5,161.8z"/>
	<path fill="#C3C530" d="M97,159.1h3.2l5.3,14.3h-3.3l-1.1-3.2h-5.3l-1.1,3.2h-3.2L97,159.1z M96.7,167.9h3.7l-1.8-5.2l0,0
		L96.7,167.9z"/>
	<path fill="#C3C530" d="M107.8,159.1h6.7c2.7,0,4.6,0.9,4.6,3.5c0,1.4-0.7,2.4-1.9,3c1.8,0.5,2.6,1.8,2.6,3.6c0,2.9-2.5,4.1-5,4.1
		h-6.9L107.8,159.1L107.8,159.1z M110.9,164.9h3.2c1.1,0,1.9-0.5,1.9-1.7c0-1.3-1-1.6-2.2-1.6h-2.9V164.9z M110.9,171h3.4
		c1.2,0,2.3-0.4,2.3-1.9s-0.9-2-2.3-2h-3.4V171z"/>
	<path fill="#C3C530" d="M122.8,159.1h3.1v14.3h-3.1V159.1z"/>
	<path fill="#C3C530" d="M129.7,159.1h3.1v11.6h7v2.6h-10.1V159.1z"/>
	<path fill="#C3C530" d="M142.6,159.1h3.1v14.3h-3.1V159.1z"/>
	<path fill="#C3C530" d="M152.6,161.8h-4.3v-2.6H160v2.6h-4.3v11.6h-3.1L152.6,161.8L152.6,161.8z"/>
	<path fill="#C3C530" d="M166.4,167.8l-5.3-8.7h3.5l3.3,5.6l3.3-5.6h3.5l-5.3,8.8v5.5h-3.1v-5.6H166.4z"/>
</g>
</svg>
