<?xml version="1.0" encoding="utf-8"?>
<!-- Generator: Adobe Illustrator 20.1.0, SVG Export Plug-In . SVG Version: 6.00 Build 0)  -->
<svg version="1.1" id="Layer_1" xmlns="http://www.w3.org/2000/svg" xmlns:xlink="http://www.w3.org/1999/xlink" x="0px" y="0px"
	 viewBox="0 0 400 207" enable-background="new 0 0 400 207" xml:space="preserve">
<line fill="none" stroke="#DADADA" stroke-width="0.25" stroke-linecap="round" stroke-linejoin="round" stroke-dasharray="0,0.807" x1="29.6" y1="110.4" x2="22.3" y2="110.4"/>
<path fill="none" stroke="#000000" stroke-width="0.25" stroke-linecap="round" stroke-linejoin="round" d="M21.5,110.4L21.5,110.4
	 M31.2,110.4L31.2,110.4"/>
<polygon fill="none" stroke="#878787" stroke-width="0.25" stroke-linecap="round" stroke-linejoin="round" stroke-miterlimit="10" points="
	21.4,78.1 8.1,78.1 8.1,114.6 21.4,110.6 "/>
<line fill="none" stroke="#DADADA" stroke-width="0.25" stroke-linecap="round" stroke-linejoin="round" stroke-dasharray="0,0.801" x1="82.6" y1="78.1" x2="77" y2="78.1"/>
<line fill="none" stroke="#DADADA" stroke-width="0.25" stroke-linecap="round" stroke-linejoin="round" stroke-dasharray="0,0.74" x1="89.6" y1="110.4" x2="76.9" y2="110.4"/>
<path fill="none" stroke="#DADADA" stroke-width="0.25" stroke-linecap="round" stroke-linejoin="round" d="M76.2,110.4L76.2,110.4
	 M91,110.4L91,110.4"/>
<line fill="none" stroke="#DADADA" stroke-width="0.25" stroke-linecap="round" stroke-linejoin="round" stroke-dasharray="0,0.72" x1="31.3" y1="116.4" x2="31.3" y2="120"/>
<path fill="none" stroke="#DADADA" stroke-width="0.25" stroke-linecap="round" stroke-linejoin="round" d="M31.3,120.7L31.3,120.7
	 M31.3,114.9L31.3,114.9"/>
<line fill="none" stroke="#DADADA" stroke-width="0.25" stroke-linecap="round" stroke-linejoin="round" stroke-dasharray="0,0.766" x1="53.3" y1="30.8" x2="53.3" y2="57.7"/>
<line fill="none" stroke="#DADADA" stroke-width="0.25" stroke-linecap="round" stroke-linejoin="round" stroke-dasharray="0,0.754" x1="75.5" y1="38.1" x2="75.5" y2="76.7"/>
<line fill="none" stroke="#DADADA" stroke-width="0.25" stroke-linecap="round" stroke-linejoin="round" stroke-dasharray="0,0.738" x1="80.4" y1="114.9" x2="63.4" y2="114.9"/>
<line fill="none" stroke="#DADADA" stroke-width="0.25" stroke-linecap="round" stroke-linejoin="round" stroke-dasharray="0,0.716" x1="18.1" y1="123.8" x2="18.1" y2="115.9"/>
<path fill="none" stroke="#000000" stroke-width="0.25" stroke-linecap="round" stroke-linejoin="round" d="M18.1,115.2L18.1,115.2
	 M18.1,125.3L18.1,125.3"/>
<polygon fill="none" stroke="#DADADA" stroke-width="0.501" stroke-linecap="round" stroke-linejoin="round" stroke-miterlimit="10" points="
	31.3,78.1 18,78.1 18,114.6 31.3,110.6 "/>
<polygon fill="none" stroke="#DADADA" stroke-width="0.501" stroke-linecap="round" stroke-linejoin="round" stroke-miterlimit="10" points="
	31.3,78.1 53.3,58.9 39.7,59 39.6,58.9 18,78.1 "/>
<polygon fill="none" stroke="#DADADA" stroke-width="0.501" stroke-linecap="round" stroke-linejoin="round" stroke-miterlimit="10" points="
	46.6,64.8 62.1,78.1 75.4,78.1 53.4,59 53.3,59 39.7,59 "/>
<polygon fill="none" stroke="#DADADA" stroke-width="0.501" stroke-linecap="round" stroke-linejoin="round" stroke-miterlimit="10" points="
	31.3,110.6 18,114.6 62.1,114.6 75.4,110.6 "/>
<polygon fill="none" stroke="#DADADA" stroke-width="0.501" stroke-linecap="round" stroke-linejoin="round" stroke-miterlimit="10" points="
	75.4,110.6 75.4,78.1 62.1,78.1 62.1,110.6 62.1,114.6 "/>
<line fill="none" stroke="#DADADA" stroke-width="0.25" stroke-linecap="round" stroke-linejoin="round" stroke-dasharray="0,0.771" x1="15.8" y1="114.9" x2="8.9" y2="114.9"/>
<line fill="none" stroke="#DADADA" stroke-width="0.25" stroke-linecap="round" stroke-linejoin="round" stroke-dasharray="0,0.754" x1="62.2" y1="38.1" x2="62.2" y2="76.7"/>
<polygon fill="none" stroke="#878787" stroke-width="0.25" stroke-linecap="round" stroke-linejoin="round" stroke-miterlimit="10" points="
	96,110.7 96,78.2 82.7,78.2 82.6,110.7 82.6,114.7 "/>
<polygon fill="#A2D6D9" points="46.6,22.6 62.1,35.8 75.4,35.8 53.4,16.7 53.3,16.6 39.7,16.6 "/>
<polygon fill="none" stroke="#A2D6D9" stroke-width="0.25" stroke-linecap="round" stroke-linejoin="round" stroke-miterlimit="10" points="
	46.6,22.6 62.1,35.8 75.4,35.8 53.4,16.7 53.3,16.6 39.7,16.6 "/>
<line fill="none" stroke="#DADADA" stroke-width="0.25" stroke-linecap="round" stroke-linejoin="round" stroke-dasharray="0,0.756" x1="17.8" y1="57.8" x2="17.8" y2="76.8"/>
<polygon fill="none" stroke="#878787" stroke-width="0.25" stroke-linecap="round" stroke-linejoin="round" stroke-miterlimit="10" points="
	75.6,121.4 62.2,125.5 17.9,125.5 31.3,121.4 "/>
<line fill="none" stroke="#DADADA" stroke-width="0.25" stroke-linecap="round" stroke-linejoin="round" stroke-dasharray="0,0.775" x1="31.1" y1="57.4" x2="31.1" y2="76.8"/>
<polygon fill="none" stroke="#878787" stroke-width="0.25" stroke-linecap="round" stroke-linejoin="round" stroke-miterlimit="10" points="
	53.2,36.4 31.1,55.6 17.8,55.6 39.5,36.4 "/>
<line fill="none" stroke="#DADADA" stroke-width="0.25" stroke-linecap="round" stroke-linejoin="round" stroke-dasharray="0,0.75" x1="39.6" y1="19.3" x2="39.6" y2="57.8"/>
<line fill="none" stroke="#DADADA" stroke-width="0.25" stroke-linecap="round" stroke-linejoin="round" stroke-dasharray="0,0.771" x1="75.6" y1="119.2" x2="75.6" y2="112.2"/>
<path fill="none" stroke="#DADADA" stroke-width="0.25" stroke-linecap="round" stroke-linejoin="round" d="M75.6,111.4L75.6,111.4
	 M75.6,120.7L75.6,120.7"/>
<line fill="none" stroke="#DADADA" stroke-width="0.25" stroke-linecap="round" stroke-linejoin="round" stroke-dasharray="0,0.755" x1="62.2" y1="116.2" x2="62.2" y2="124.5"/>
<path fill="none" stroke="#DADADA" stroke-width="0.25" stroke-linecap="round" stroke-linejoin="round" d="M62.2,125.3L62.2,125.3
	 M62.2,114.7L62.2,114.7"/>
<g>
	<path fill="#A2D6D9" d="M118.5,22.6h-2.7v-2.7c0-1.9,0.8-3.5,2.7-3.5v1.2c-1.1,0-1.4,1.2-1.4,2.3h1.4V22.6z"/>
	<path fill="#A2D6D9" d="M122.5,16.3h2.3v17.2h-2.3V16.3z"/>
	<path fill="#A2D6D9" d="M131.2,21.1h2.5v1.8h-2.5v7.7c0,1,0.3,1.1,1.5,1.1h0.9v1.8H132c-2.1,0-3-0.4-3-2.7v-7.9h-2v-1.8h2.1v-3.7h2
		L131.2,21.1L131.2,21.1z"/>
	<path fill="#A2D6D9" d="M136.4,16.3h2.7V19c0,1.9-0.8,3.5-2.7,3.5v-1.2c1.1,0,1.4-1.2,1.4-2.3h-1.4V16.3z"/>
	<path fill="#A2D6D9" d="M142.1,29.6c0.1,1.8,1.7,2.4,3.4,2.4c1.3,0,3-0.3,3-1.9c0-3.2-8.1-1-8.1-5.8c0-2.5,2.5-3.5,4.7-3.5
		c2.8,0,4.9,0.9,5.1,3.9h-2c-0.1-1.6-1.6-2.1-2.9-2.1c-1.2,0-2.7,0.3-2.7,1.6c0,1.4,2.2,1.7,4.1,2.2c2,0.5,4.1,1.2,4.1,3.5
		c0,3-2.8,3.9-5.3,3.9c-2.8,0-5.2-1.1-5.3-4.2C140.2,29.6,142.1,29.6,142.1,29.6z"/>
	<path fill="#A2D6D9" d="M170.6,33.5c-0.4,0.2-0.9,0.3-1.5,0.3c-1.1,0-1.7-0.6-1.7-1.9c-1.1,1.4-2.7,1.9-4.4,1.9
		c-2.3,0-4.1-1-4.1-3.5c0-2.8,2.1-3.4,4.2-3.8c2.2-0.5,4.2-0.3,4.2-1.8c0-1.8-1.5-2.1-2.8-2.1c-1.7,0-3,0.5-3.1,2.4h-2
		c0.1-3.1,2.5-4.2,5.3-4.2c2.2,0,4.7,0.5,4.7,3.4v6.4c0,1,0,1.4,0.7,1.4c0.2,0,0.4,0,0.6-0.1L170.6,33.5L170.6,33.5z M167.3,27.1
		c-1.6,1.2-6.2,0-6.2,3.1c0,1.4,1.2,1.8,2.4,1.8c2.7,0,3.8-1.7,3.8-2.8V27.1z"/>
	<path fill="#A2D6D9" d="M172.5,21.1h1.9v2l0,0c0.9-1.5,2.2-2.3,4-2.3c3.3,0,4.3,1.9,4.3,4.6v8.2h-2v-8.4c0-1.5-1-2.5-2.5-2.5
		c-2.5,0-3.7,1.7-3.7,3.9v7h-2V21.1z"/>
	<path fill="#A2D6D9" d="M203.3,29.6c-0.6,2.8-2.5,4.2-5.3,4.2c-4,0-5.9-2.8-6-6.6c0-3.8,2.5-6.5,5.9-6.5c4.4,0,5.8,4.1,5.6,7.1
		h-9.3c-0.1,2.2,1.2,4.1,3.9,4.1c1.7,0,2.9-0.8,3.2-2.4h2V29.6z M201.3,26.1c-0.1-2-1.5-3.5-3.6-3.5s-3.4,1.6-3.6,3.5H201.3z"/>
	<path fill="#A2D6D9" d="M205.6,21.1h1.9v1.8l0,0c0.9-1.4,2.3-2.1,4-2.1c1.5,0,2.9,0.6,3.4,2.1c0.8-1.4,2.3-2.1,3.9-2.1
		c2.5,0,4.1,1,4.1,3.6v9.1h-2v-8.2c0-1.5-0.4-2.8-2.4-2.8s-3.3,1.3-3.3,3.2v7.8h-2v-8.2c0-1.6-0.5-2.8-2.3-2.8
		c-2.4,0-3.3,2.2-3.3,3.2v7.8h-2L205.6,21.1L205.6,21.1z"/>
	<path fill="#A2D6D9" d="M226.2,16.3h2v6.4l0,0c0.7-1.4,2.2-2,4-2c3.8,0,5.7,3,5.7,6.6c0,3.5-1.9,6.5-5.7,6.5c-1.3,0-3.1-0.5-4-2
		l0,0v1.7h-2V16.3z M232,22.6c-2.8,0-3.8,2.4-3.8,4.7c0,2.4,1.1,4.7,3.9,4.7c2.8,0,3.7-2.4,3.7-4.8C235.9,24.9,234.7,22.6,232,22.6z
		"/>
	<path fill="#A2D6D9" d="M251.5,33.5c-0.4,0.2-0.9,0.3-1.5,0.3c-1.1,0-1.7-0.6-1.7-1.9c-1.1,1.4-2.7,1.9-4.4,1.9
		c-2.3,0-4.1-1-4.1-3.5c0-2.8,2.1-3.4,4.2-3.8c2.2-0.5,4.2-0.3,4.2-1.8c0-1.8-1.5-2.1-2.8-2.1c-1.7,0-3,0.5-3.1,2.4h-2
		c0.1-3.1,2.5-4.2,5.3-4.2c2.2,0,4.7,0.5,4.7,3.4v6.4c0,1,0,1.4,0.7,1.4c0.2,0,0.4,0,0.6-0.1L251.5,33.5L251.5,33.5z M248.2,27.1
		c-1.6,1.2-6.2,0-6.2,3.1c0,1.4,1.2,1.8,2.4,1.8c2.7,0,3.8-1.7,3.8-2.8V27.1z"/>
	<path fill="#A2D6D9" d="M253.4,21.1h1.9v2.6l0,0c1-2,2.4-3,4.6-2.9V23c-3.3,0-4.5,1.9-4.5,5v5.5h-2V21.1z"/>
	<path fill="#A2D6D9" d="M261.4,21.1h1.9v2.6l0,0c1-2,2.4-3,4.6-2.9V23c-3.3,0-4.5,1.9-4.5,5v5.5h-2V21.1z"/>
	<path fill="#A2D6D9" d="M280.5,33.5c-0.4,0.2-0.9,0.3-1.5,0.3c-1.1,0-1.7-0.6-1.7-1.9c-1.1,1.4-2.7,1.9-4.4,1.9
		c-2.3,0-4.1-1-4.1-3.5c0-2.8,2.1-3.4,4.2-3.8c2.2-0.5,4.2-0.3,4.2-1.8c0-1.8-1.5-2.1-2.8-2.1c-1.7,0-3,0.5-3.1,2.4h-2
		c0.1-3.1,2.5-4.2,5.3-4.2c2.2,0,4.7,0.5,4.7,3.4v6.4c0,1,0,1.4,0.7,1.4c0.2,0,0.4,0,0.6-0.1v1.6H280.5z M277.2,27.1
		c-1.6,1.2-6.2,0-6.2,3.1c0,1.4,1.2,1.8,2.4,1.8c2.7,0,3.8-1.7,3.8-2.8L277.2,27.1L277.2,27.1z"/>
	<path fill="#A2D6D9" d="M283.7,29.6c0.1,1.8,1.7,2.4,3.4,2.4c1.3,0,3-0.3,3-1.9c0-3.2-8.1-1-8.1-5.8c0-2.5,2.5-3.5,4.7-3.5
		c2.8,0,4.9,0.9,5.1,3.9h-2c-0.1-1.6-1.6-2.1-2.9-2.1c-1.2,0-2.7,0.3-2.7,1.6c0,1.4,2.2,1.7,4.1,2.2c2,0.5,4.1,1.2,4.1,3.5
		c0,3-2.8,3.9-5.3,3.9c-2.8,0-5.2-1.1-5.3-4.2C281.8,29.6,283.7,29.6,283.7,29.6z"/>
	<path fill="#A2D6D9" d="M295.7,29.6c0.1,1.8,1.7,2.4,3.4,2.4c1.3,0,3-0.3,3-1.9c0-3.2-8.1-1-8.1-5.8c0-2.5,2.5-3.5,4.7-3.5
		c2.8,0,4.9,0.9,5.1,3.9h-2c-0.1-1.6-1.6-2.1-2.9-2.1c-1.2,0-2.7,0.3-2.7,1.6c0,1.4,2.2,1.7,4.1,2.2c2,0.5,4.1,1.2,4.1,3.5
		c0,3-2.8,3.9-5.3,3.9c-2.8,0-5.2-1.1-5.3-4.2C293.8,29.6,295.7,29.6,295.7,29.6z"/>
	<path fill="#A2D6D9" d="M306.6,21.1h1.9v1.8l0,0c0.9-1.4,2.3-2.1,4-2.1c1.5,0,2.9,0.6,3.4,2.1c0.8-1.4,2.3-2.1,3.9-2.1
		c2.5,0,4.1,1,4.1,3.6v9.1h-2v-8.2c0-1.5-0.4-2.8-2.4-2.8s-3.3,1.3-3.3,3.2v7.8h-2v-8.2c0-1.6-0.5-2.8-2.3-2.8
		c-2.4,0-3.3,2.2-3.3,3.2v7.8h-2L306.6,21.1L306.6,21.1z"/>
	<path fill="#A2D6D9" d="M337.8,29.6c-0.6,2.8-2.5,4.2-5.3,4.2c-4,0-5.9-2.8-6-6.6c0-3.8,2.5-6.5,5.9-6.5c4.4,0,5.8,4.1,5.6,7.1
		h-9.3c-0.1,2.2,1.2,4.1,3.9,4.1c1.7,0,2.9-0.8,3.2-2.4h2V29.6z M335.8,26.1c-0.1-2-1.5-3.5-3.6-3.5s-3.4,1.6-3.6,3.5H335.8z"/>
	<path fill="#A2D6D9" d="M340.1,21.1h1.9v2l0,0c0.9-1.5,2.2-2.3,4.1-2.3c3.3,0,4.3,1.9,4.3,4.6v8.2h-2v-8.4c0-1.5-1-2.5-2.5-2.5
		c-2.5,0-3.7,1.7-3.7,3.9v7h-2L340.1,21.1L340.1,21.1z"/>
	<path fill="#A2D6D9" d="M356.3,21.1h2.5v1.8h-2.5v7.7c0,1,0.3,1.1,1.5,1.1h0.9v1.8h-1.6c-2.1,0-3-0.4-3-2.7v-7.9H352v-1.8h2.1v-3.7
		h2v3.7H356.3z"/>
	<path fill="#A2D6D9" d="M361.5,30.9h2.7v2.7h-2.7V30.9z"/>
</g>
<text transform="matrix(1 0 0 1 372.9492 33.5557)" fill="#A2D6D9" font-family="'HelveticaNeueLTPro-Roman'" font-size="24.116px"> </text>
<g>
	<path fill="#A2D6D9" d="M123.2,46.5h2.3v17.2h-2.3V46.5z"/>
	<path fill="#A2D6D9" d="M144.2,55.2c-0.3-1.6-1.4-2.5-3.1-2.5c-3,0-3.9,2.4-3.9,4.9c0,2.3,1,4.6,3.6,4.6c2,0,3.2-1.1,3.4-3h2.1
		c-0.5,3.1-2.3,4.8-5.5,4.8c-3.8,0-5.8-2.6-5.8-6.4c0-3.7,1.9-6.7,5.9-6.7c2.8,0,5.1,1.3,5.4,4.3C146.3,55.2,144.2,55.2,144.2,55.2z
		"/>
	<path fill="#A2D6D9" d="M159.7,63.7c-0.4,0.2-0.9,0.3-1.5,0.3c-1.1,0-1.7-0.6-1.7-1.9c-1.1,1.4-2.7,1.9-4.4,1.9
		c-2.3,0-4.1-1-4.1-3.5c0-2.8,2.1-3.4,4.2-3.8c2.2-0.5,4.2-0.3,4.2-1.8c0-1.8-1.5-2.1-2.8-2.1c-1.7,0-3,0.5-3.1,2.4h-2
		c0.1-3.1,2.5-4.2,5.3-4.2c2.2,0,4.7,0.5,4.7,3.4v6.4c0,1,0,1.4,0.7,1.4c0.2,0,0.4,0,0.6-0.1L159.7,63.7L159.7,63.7z M156.4,57.3
		c-1.6,1.2-6.2,0-6.2,3.1c0,1.4,1.2,1.8,2.4,1.8c2.7,0,3.8-1.7,3.8-2.8V57.3z"/>
	<path fill="#A2D6D9" d="M161.6,51.2h1.9v2l0,0c0.9-1.5,2.2-2.3,4.1-2.3c3.3,0,4.3,1.9,4.3,4.6v8.2h-2v-8.4c0-1.5-1-2.5-2.5-2.5
		c-2.5,0-3.7,1.7-3.7,3.9v7h-2V51.2H161.6z"/>
	<path fill="#A2D6D9" d="M175.5,46.5h2.7v2.7c0,1.9-0.8,3.5-2.7,3.5v-1.2c1.1,0,1.4-1.2,1.4-2.3h-1.4V46.5z"/>
	<path fill="#A2D6D9" d="M184.1,51.2h2.5V53h-2.5v7.7c0,1,0.3,1.1,1.5,1.1h0.9v1.8h-1.6c-2.1,0-3-0.4-3-2.7V53H180v-1.8h2.1v-3.7h2
		V51.2z"/>
	<path fill="#A2D6D9" d="M196.9,59.8c0.1,1.8,1.7,2.4,3.4,2.4c1.3,0,3-0.3,3-1.9c0-3.2-8.1-1-8.1-5.8c0-2.5,2.5-3.5,4.7-3.5
		c2.8,0,4.9,0.9,5.1,3.9h-2c-0.1-1.6-1.6-2.1-2.9-2.1c-1.2,0-2.7,0.3-2.7,1.6c0,1.4,2.2,1.7,4.1,2.2c2,0.5,4.1,1.2,4.1,3.5
		c0,3-2.8,3.9-5.3,3.9c-2.8,0-5.2-1.1-5.3-4.2H196.9z"/>
	<path fill="#A2D6D9" d="M218.3,59.7c-0.6,2.8-2.5,4.2-5.3,4.2c-4,0-5.9-2.8-6-6.6c0-3.8,2.5-6.5,5.9-6.5c4.4,0,5.8,4.1,5.6,7.1
		h-9.3c-0.1,2.2,1.2,4.1,3.9,4.1c1.7,0,2.9-0.8,3.2-2.4h2V59.7z M216.3,56.3c-0.1-2-1.5-3.5-3.6-3.5s-3.4,1.6-3.6,3.5H216.3z"/>
	<path fill="#A2D6D9" d="M231.2,59.7c-0.6,2.8-2.5,4.2-5.3,4.2c-4,0-5.9-2.8-6-6.6c0-3.8,2.5-6.5,5.9-6.5c4.4,0,5.8,4.1,5.6,7.1
		h-9.3c-0.1,2.2,1.2,4.1,3.9,4.1c1.7,0,2.9-0.8,3.2-2.4h2V59.7z M229.3,56.3c-0.1-2-1.5-3.5-3.6-3.5s-3.4,1.6-3.6,3.5H229.3z"/>
	<path fill="#A2D6D9" d="M243.1,51.2h2.5V53h-2.5v7.7c0,1,0.3,1.1,1.5,1.1h0.9v1.8H244c-2.1,0-3-0.4-3-2.7V53h-2.1v-1.8h2.1v-3.7h2
		v3.7H243.1z"/>
	<path fill="#A2D6D9" d="M247.9,46.5h2v6.6l0,0c0.7-1.5,2.5-2.1,3.9-2.1c3.3,0,4.3,1.9,4.3,4.6v8.2h-2v-8.4c0-1.5-1-2.5-2.5-2.5
		c-2.5,0-3.7,1.7-3.7,3.9v7h-2L247.9,46.5L247.9,46.5z"/>
	<path fill="#A2D6D9" d="M271.9,59.7c-0.6,2.8-2.5,4.2-5.3,4.2c-4,0-5.9-2.8-6-6.6c0-3.8,2.5-6.5,5.9-6.5c4.4,0,5.8,4.1,5.6,7.1
		h-9.3c-0.1,2.2,1.2,4.1,3.9,4.1c1.7,0,2.9-0.8,3.2-2.4h2V59.7z M269.9,56.3c-0.1-2-1.5-3.5-3.6-3.5s-3.4,1.6-3.6,3.5H269.9z"/>
	<path fill="#A2D6D9" d="M280.9,51.2h1.9V53l0,0c0.9-1.4,2.3-2.1,4-2.1c1.5,0,2.9,0.6,3.4,2.1c0.8-1.4,2.3-2.1,3.9-2.1
		c2.5,0,4.1,1,4.1,3.6v9.1h-2v-8.2c0-1.5-0.4-2.8-2.4-2.8s-3.3,1.3-3.3,3.2v7.8h-2v-8.2c0-1.6-0.5-2.8-2.3-2.8
		c-2.4,0-3.3,2.2-3.3,3.2v7.8h-2L280.9,51.2L280.9,51.2z"/>
	<path fill="#A2D6D9" d="M306.9,50.9c4,0,6.1,2.9,6.1,6.5s-2.1,6.5-6.1,6.5s-6.1-2.9-6.1-6.5C300.8,53.8,302.9,50.9,306.9,50.9z
		 M306.9,62.2c2.1,0,3.9-1.7,3.9-4.7s-1.7-4.7-3.9-4.7c-2.1,0-3.9,1.7-3.9,4.7S304.7,62.2,306.9,62.2z"/>
	<path fill="#A2D6D9" d="M325.7,63.7h-1.9v-2l0,0c-0.9,1.5-2.2,2.3-4.1,2.3c-3.3,0-4.3-1.9-4.3-4.6v-8.2h2v8.4c0,1.5,1,2.5,2.5,2.5
		c2.5,0,3.7-1.7,3.7-3.9v-7h2L325.7,63.7L325.7,63.7z"/>
	<path fill="#A2D6D9" d="M328.9,46.5h2v17.2h-2V46.5z"/>
	<path fill="#A2D6D9" d="M345.2,63.7h-2V62l0,0c-0.7,1.4-2.2,2-4,2c-3.8,0-5.7-3-5.7-6.6c0-3.5,1.9-6.5,5.7-6.5c1.3,0,3.1,0.5,4,2
		l0,0v-6.4h2V63.7z M339.4,62.2c2.8,0,3.8-2.4,3.8-4.7c0-2.4-1.1-4.7-3.9-4.7s-3.7,2.4-3.7,4.8C335.6,59.9,336.8,62.2,339.4,62.2z"
		/>
</g>
<g>
	<path fill="#A2D6D9" d="M122.8,76.6h2V83l0,0c0.7-1.4,2.2-2,4-2c3.8,0,5.7,3,5.7,6.6c0,3.5-1.9,6.5-5.7,6.5c-1.3,0-3.1-0.5-4-2l0,0
		v1.7h-2V76.6z M128.6,82.9c-2.8,0-3.8,2.4-3.8,4.7c0,2.4,1.1,4.7,3.9,4.7c2.8,0,3.7-2.4,3.7-4.8C132.5,85.2,131.3,82.9,128.6,82.9z
		"/>
	<path fill="#A2D6D9" d="M147.4,93.8h-1.9v-2l0,0c-0.9,1.5-2.2,2.3-4.1,2.3c-3.3,0-4.3-1.9-4.3-4.6v-8.2h2v8.4c0,1.5,1,2.5,2.5,2.5
		c2.5,0,3.7-1.7,3.7-3.9v-7h2v12.5H147.4z"/>
	<path fill="#A2D6D9" d="M153.3,81.4h2.5v1.8h-2.5v7.7c0,1,0.3,1.1,1.5,1.1h0.9v1.8h-1.6c-2.1,0-3-0.4-3-2.7v-7.9H149v-1.8h2.1v-3.7
		h2v3.7H153.3z"/>
	<path fill="#A2D6D9" d="M167.6,81.4h2.5v1.8h-2.5v7.7c0,1,0.3,1.1,1.5,1.1h0.9v1.8h-1.6c-2.1,0-3-0.4-3-2.7v-7.9h-2.1v-1.8h2.1
		v-3.7h2v3.7H167.6z"/>
	<path fill="#A2D6D9" d="M172.4,76.6h2v6.6l0,0c0.7-1.5,2.5-2.1,3.9-2.1c3.3,0,4.3,1.9,4.3,4.6v8.2h-2v-8.4c0-1.5-1-2.5-2.5-2.5
		c-2.5,0-3.7,1.7-3.7,3.9v7h-2V76.6z"/>
	<path fill="#A2D6D9" d="M196.4,89.9c-0.6,2.8-2.5,4.2-5.3,4.2c-4,0-5.9-2.8-6-6.6c0-3.8,2.5-6.5,5.9-6.5c4.4,0,5.8,4.1,5.6,7.1
		h-9.3c-0.1,2.2,1.2,4.1,3.9,4.1c1.7,0,2.9-0.8,3.2-2.4h2V89.9z M194.4,86.4c-0.1-2-1.5-3.5-3.6-3.5s-3.4,1.6-3.6,3.5H194.4z"/>
	<path fill="#A2D6D9" d="M206.7,89.9c0.1,1.8,1.7,2.4,3.4,2.4c1.3,0,3-0.3,3-1.9c0-3.2-8.1-1-8.1-5.8c0-2.5,2.5-3.5,4.7-3.5
		c2.8,0,4.9,0.9,5.1,3.9h-2c-0.1-1.6-1.6-2.1-2.9-2.1c-1.2,0-2.7,0.3-2.7,1.6c0,1.4,2.2,1.7,4.1,2.2c2,0.5,4.1,1.2,4.1,3.5
		c0,3-2.8,3.9-5.3,3.9c-2.8,0-5.2-1.1-5.3-4.2H206.7z"/>
	<path fill="#A2D6D9" d="M217.5,81.4h1.9v1.8l0,0c0.9-1.4,2.3-2.1,4-2.1c1.5,0,2.9,0.6,3.4,2.1c0.8-1.4,2.3-2.1,3.9-2.1
		c2.5,0,4.1,1,4.1,3.6v9.1h-2v-8.2c0-1.5-0.4-2.8-2.4-2.8s-3.3,1.3-3.3,3.2v7.8h-2v-8.2c0-1.6-0.5-2.8-2.3-2.8
		c-2.4,0-3.3,2.2-3.3,3.2v7.8h-2L217.5,81.4L217.5,81.4z"/>
	<path fill="#A2D6D9" d="M248.7,89.9c-0.6,2.8-2.5,4.2-5.3,4.2c-4,0-5.9-2.8-6-6.6c0-3.8,2.5-6.5,5.9-6.5c4.4,0,5.8,4.1,5.6,7.1
		h-9.3c-0.1,2.2,1.2,4.1,3.9,4.1c1.7,0,2.9-0.8,3.2-2.4h2V89.9z M246.7,86.4c-0.1-2-1.5-3.5-3.6-3.5s-3.4,1.6-3.6,3.5H246.7z"/>
	<path fill="#A2D6D9" d="M251.1,76.6h2v17.2h-2V76.6z"/>
	<path fill="#A2D6D9" d="M256.5,76.6h2v17.2h-2V76.6z"/>
	<path fill="#A2D6D9" d="M273.8,81.1c4,0,6.1,2.9,6.1,6.5s-2.1,6.5-6.1,6.5s-6.1-2.9-6.1-6.5C267.8,84,269.8,81.1,273.8,81.1z
		 M273.8,92.3c2.1,0,3.9-1.7,3.9-4.7s-1.7-4.7-3.9-4.7c-2.1,0-3.9,1.7-3.9,4.7S271.7,92.3,273.8,92.3z"/>
	<path fill="#A2D6D9" d="M283.1,83.2H281v-1.8h2.1v-1.9c0-2,1.2-3.1,3.4-3.1c0.4,0,0.9,0.1,1.3,0.2v1.8c-0.4-0.1-0.8-0.2-1.2-0.2
		c-1,0-1.6,0.3-1.6,1.4v1.7h2.4v1.8H285v10.7h-2V83.2H283.1z"/>
	<path fill="#A2D6D9" d="M298.3,79.1h-2v-2.5h2V79.1z M296.2,81.4h2v12.5h-2V81.4z"/>
	<path fill="#A2D6D9" d="M304.3,81.4h2.5v1.8h-2.5v7.7c0,1,0.3,1.1,1.5,1.1h0.9v1.8h-1.6c-2.1,0-3-0.4-3-2.7v-7.9H300v-1.8h2.1v-3.7
		h2v3.7H304.3z"/>
	<path fill="#A2D6D9" d="M317.9,79.1h-2v-2.5h2V79.1z M315.9,81.4h2v12.5h-2V81.4z"/>
	<path fill="#A2D6D9" d="M322.4,89.9c0.1,1.8,1.7,2.4,3.4,2.4c1.3,0,3-0.3,3-1.9c0-3.2-8.1-1-8.1-5.8c0-2.5,2.5-3.5,4.7-3.5
		c2.8,0,4.9,0.9,5.1,3.9h-2c-0.1-1.6-1.6-2.1-2.9-2.1c-1.2,0-2.7,0.3-2.7,1.6c0,1.4,2.2,1.7,4.1,2.2c2,0.5,4.1,1.2,4.1,3.5
		c0,3-2.8,3.9-5.3,3.9c-2.8,0-5.2-1.1-5.3-4.2H322.4z"/>
	<path fill="#A2D6D9" d="M341.1,89.9c0.1,1.8,1.7,2.4,3.4,2.4c1.3,0,3-0.3,3-1.9c0-3.2-8.1-1-8.1-5.8c0-2.5,2.5-3.5,4.7-3.5
		c2.8,0,4.9,0.9,5.1,3.9h-2c-0.1-1.6-1.6-2.1-2.9-2.1c-1.2,0-2.7,0.3-2.7,1.6c0,1.4,2.2,1.7,4.1,2.2c2,0.5,4.1,1.2,4.1,3.5
		c0,3-2.8,3.9-5.3,3.9c-2.8,0-5.2-1.1-5.3-4.2H341.1z"/>
	<path fill="#A2D6D9" d="M357.3,81.1c4,0,6.1,2.9,6.1,6.5s-2.1,6.5-6.1,6.5s-6.1-2.9-6.1-6.5C351.3,84,353.4,81.1,357.3,81.1z
		 M357.3,92.3c2.1,0,3.9-1.7,3.9-4.7s-1.7-4.7-3.9-4.7c-2.1,0-3.9,1.7-3.9,4.7S355.2,92.3,357.3,92.3z"/>
</g>
<g>
	<path fill="#A2D6D9" d="M124,120.1c0.1,1.8,1.7,2.4,3.4,2.4c1.3,0,3-0.3,3-1.9c0-3.2-8.1-1-8.1-5.8c0-2.5,2.5-3.5,4.7-3.5
		c2.8,0,4.9,0.9,5.1,3.9h-2c-0.1-1.6-1.6-2.1-2.9-2.1c-1.2,0-2.7,0.3-2.7,1.6c0,1.4,2.2,1.7,4.1,2.2c2,0.5,4.1,1.2,4.1,3.5
		c0,3-2.8,3.9-5.3,3.9c-2.8,0-5.2-1.1-5.3-4.2H124z"/>
	<path fill="#A2D6D9" d="M137.7,111.5h2.5v1.8h-2.5v7.7c0,1,0.3,1.1,1.5,1.1h0.9v1.8h-1.6c-2.1,0-3-0.4-3-2.7v-7.9h-2.1v-1.8h2.1
		v-3.7h2v3.7H137.7z"/>
	<path fill="#A2D6D9" d="M142.4,111.5h1.9v2.6l0,0c1-2,2.4-3,4.6-2.9v2.2c-3.3,0-4.5,1.9-4.5,5v5.5h-2V111.5z"/>
	<path fill="#A2D6D9" d="M155.4,111.2c4,0,6.1,2.9,6.1,6.5s-2.1,6.5-6.1,6.5s-6.1-2.9-6.1-6.5C149.3,114.1,151.4,111.2,155.4,111.2z
		 M155.4,122.5c2.1,0,3.9-1.7,3.9-4.7s-1.7-4.7-3.9-4.7c-2.1,0-3.9,1.7-3.9,4.7S153.2,122.5,155.4,122.5z"/>
	<path fill="#A2D6D9" d="M163.9,111.5h1.9v2l0,0c0.9-1.5,2.2-2.3,4.1-2.3c3.3,0,4.3,1.9,4.3,4.6v8.2h-2v-8.4c0-1.5-1-2.5-2.5-2.5
		c-2.5,0-3.7,1.7-3.7,3.9v7h-2v-12.5H163.9z"/>
	<path fill="#A2D6D9" d="M188,122.9c0,4.1-1.8,6.1-5.8,6.1c-2.3,0-5-1-5.2-3.7h2c0.1,1.5,1.9,2,3.2,2c2.7,0,3.7-1.9,3.7-4.7v-0.8
		l0,0c-0.7,1.5-2.3,2.3-3.9,2.3c-3.7,0-5.6-2.9-5.6-6.3c0-2.9,1.4-6.6,5.8-6.6c1.6,0,3,0.7,3.7,2.1l0,0v-1.8h1.9v11.4H188z
		 M186,117.5c0-2.2-1-4.5-3.5-4.5c-2.6,0-3.7,2.1-3.7,4.5c0,2.2,0.8,4.7,3.5,4.7S186,119.8,186,117.5z"/>
	<path fill="#A2D6D9" d="M200.7,111.5h2.5v1.8h-2.5v7.7c0,1,0.3,1.1,1.5,1.1h0.9v1.8h-1.6c-2.1,0-3-0.4-3-2.7v-7.9h-2.1v-1.8h2.1
		v-3.7h2v3.7H200.7z"/>
	<path fill="#A2D6D9" d="M205.4,106.8h2v6.6l0,0c0.7-1.5,2.5-2.1,3.9-2.1c3.3,0,4.3,1.9,4.3,4.6v8.2h-2v-8.4c0-1.5-1-2.5-2.5-2.5
		c-2.5,0-3.7,1.7-3.7,3.9v7h-2V106.8z"/>
	<path fill="#A2D6D9" d="M229.9,123.9c-0.4,0.2-0.9,0.3-1.5,0.3c-1.1,0-1.7-0.6-1.7-1.9c-1.1,1.4-2.7,1.9-4.4,1.9
		c-2.3,0-4.1-1-4.1-3.5c0-2.8,2.1-3.4,4.2-3.8c2.2-0.5,4.2-0.3,4.2-1.8c0-1.8-1.5-2.1-2.8-2.1c-1.7,0-3,0.5-3.1,2.4h-2
		c0.1-3.1,2.5-4.2,5.3-4.2c2.2,0,4.7,0.5,4.7,3.4v6.4c0,1,0,1.4,0.7,1.4c0.2,0,0.4,0,0.6-0.1L229.9,123.9L229.9,123.9z M226.5,117.6
		c-1.6,1.2-6.2,0-6.2,3.1c0,1.4,1.2,1.8,2.4,1.8c2.7,0,3.8-1.7,3.8-2.8V117.6z"/>
	<path fill="#A2D6D9" d="M234.6,111.5h2.5v1.8h-2.5v7.7c0,1,0.3,1.1,1.5,1.1h0.9v1.8h-1.6c-2.1,0-3-0.4-3-2.7v-7.9h-2.1v-1.8h2.1
		v-3.7h2v3.7H234.6z"/>
	<path fill="#A2D6D9" d="M246.5,106.8h2.3V124h-2.3V106.8z"/>
	<path fill="#A2D6D9" d="M259.1,106.8h2V117l5.7-5.4h2.7l-4.9,4.5l5.3,7.9h-2.6l-4.3-6.5l-1.9,1.8v4.7h-2L259.1,106.8L259.1,106.8z"
		/>
	<path fill="#A2D6D9" d="M271.5,111.5h1.9v2l0,0c0.9-1.5,2.2-2.3,4.1-2.3c3.3,0,4.3,1.9,4.3,4.6v8.2h-2v-8.4c0-1.5-1-2.5-2.5-2.5
		c-2.5,0-3.7,1.7-3.7,3.9v7h-2L271.5,111.5L271.5,111.5z"/>
	<path fill="#A2D6D9" d="M290.3,111.2c4,0,6.1,2.9,6.1,6.5s-2.1,6.5-6.1,6.5s-6.1-2.9-6.1-6.5C284.3,114.1,286.4,111.2,290.3,111.2z
		 M290.3,122.5c2.1,0,3.9-1.7,3.9-4.7s-1.7-4.7-3.9-4.7c-2.1,0-3.9,1.7-3.9,4.7S288.2,122.5,290.3,122.5z"/>
	<path fill="#A2D6D9" d="M311.1,124H309l-2.5-9.9l0,0L304,124h-2.2l-4-12.5h2.3l2.8,10.2l0,0l2.5-10.2h2.2l2.6,10.2l0,0l2.8-10.2
		h2.1L311.1,124z"/>
	<path fill="#A2D6D9" d="M326.6,111.5h2.5v1.8h-2.5v7.7c0,1,0.3,1.1,1.5,1.1h0.9v1.8h-1.6c-2.1,0-3-0.4-3-2.7v-7.9h-2.1v-1.8h2.1
		v-3.7h2v3.7H326.6z"/>
	<path fill="#A2D6D9" d="M331.4,106.8h2v6.6l0,0c0.7-1.5,2.5-2.1,3.9-2.1c3.3,0,4.3,1.9,4.3,4.6v8.2h-2v-8.4c0-1.5-1-2.5-2.5-2.5
		c-2.5,0-3.7,1.7-3.7,3.9v7h-2L331.4,106.8L331.4,106.8z"/>
	<path fill="#A2D6D9" d="M346.9,109.3h-2v-2.5h2V109.3z M344.9,111.5h2V124h-2V111.5z"/>
	<path fill="#A2D6D9" d="M351.4,120.1c0.1,1.8,1.7,2.4,3.4,2.4c1.3,0,3-0.3,3-1.9c0-3.2-8.1-1-8.1-5.8c0-2.5,2.5-3.5,4.7-3.5
		c2.8,0,4.9,0.9,5.1,3.9h-2c-0.1-1.6-1.6-2.1-2.9-2.1c-1.2,0-2.7,0.3-2.7,1.6c0,1.4,2.2,1.7,4.1,2.2c2,0.5,4.1,1.2,4.1,3.5
		c0,3-2.8,3.9-5.3,3.9c-2.8,0-5.2-1.1-5.3-4.2H351.4z"/>
</g>
<g>
	<path fill="#A2D6D9" d="M124.9,139.4h-2v-2.5h2V139.4z M122.9,141.7h2v12.5h-2V141.7z"/>
	<path fill="#A2D6D9" d="M129.4,150.2c0.1,1.8,1.7,2.4,3.4,2.4c1.3,0,3-0.3,3-1.9c0-3.2-8.1-1-8.1-5.8c0-2.5,2.5-3.5,4.7-3.5
		c2.8,0,4.9,0.9,5.1,3.9h-2c-0.1-1.6-1.6-2.1-2.9-2.1c-1.2,0-2.7,0.3-2.7,1.6c0,1.4,2.2,1.7,4.1,2.2c2,0.5,4.1,1.2,4.1,3.5
		c0,3-2.8,3.9-5.3,3.9c-2.8,0-5.2-1.1-5.3-4.2L129.4,150.2L129.4,150.2z"/>
	<path fill="#A2D6D9" d="M159.2,154.1H157l-2.5-9.9l0,0l-2.5,9.9h-2.2l-4-12.5h2.3l2.8,10.2l0,0l2.5-10.2h2.2l2.6,10.2l0,0l2.8-10.2
		h2.1L159.2,154.1z"/>
	<path fill="#A2D6D9" d="M165.2,136.9h2v6.6l0,0c0.7-1.5,2.5-2.1,3.9-2.1c3.3,0,4.3,1.9,4.3,4.6v8.2h-2v-8.4c0-1.5-1-2.5-2.5-2.5
		c-2.5,0-3.7,1.7-3.7,3.9v7h-2V136.9z"/>
	<path fill="#A2D6D9" d="M189.6,154.1c-0.4,0.2-0.9,0.3-1.5,0.3c-1.1,0-1.7-0.6-1.7-1.9c-1.1,1.4-2.7,1.9-4.4,1.9
		c-2.3,0-4.1-1-4.1-3.5c0-2.8,2.1-3.4,4.2-3.8c2.2-0.5,4.2-0.3,4.2-1.8c0-1.8-1.5-2.1-2.8-2.1c-1.7,0-3,0.5-3.1,2.4h-2
		c0.1-3.1,2.5-4.2,5.3-4.2c2.2,0,4.7,0.5,4.7,3.4v6.4c0,1,0,1.4,0.7,1.4c0.2,0,0.4,0,0.6-0.1L189.6,154.1L189.6,154.1z M186.3,147.7
		c-1.6,1.2-6.2,0-6.2,3.1c0,1.4,1.2,1.8,2.4,1.8c2.7,0,3.8-1.7,3.8-2.8V147.7z"/>
	<path fill="#A2D6D9" d="M194.4,141.7h2.5v1.8h-2.5v7.7c0,1,0.3,1.1,1.5,1.1h0.9v1.8h-1.6c-2.1,0-3-0.4-3-2.7v-7.9h-2.1v-1.8h2.1
		V138h2v3.7H194.4z"/>
	<path fill="#A2D6D9" d="M199.6,136.9h2.7v2.7c0,1.9-0.8,3.5-2.7,3.5v-1.2c1.1,0,1.4-1.2,1.4-2.3h-1.4V136.9z"/>
	<path fill="#A2D6D9" d="M205.3,150.2c0.1,1.8,1.7,2.4,3.4,2.4c1.3,0,3-0.3,3-1.9c0-3.2-8.1-1-8.1-5.8c0-2.5,2.5-3.5,4.7-3.5
		c2.8,0,4.9,0.9,5.1,3.9h-2c-0.1-1.6-1.6-2.1-2.9-2.1c-1.2,0-2.7,0.3-2.7,1.6c0,1.4,2.2,1.7,4.1,2.2c2,0.5,4.1,1.2,4.1,3.5
		c0,3-2.8,3.9-5.3,3.9c-2.8,0-5.2-1.1-5.3-4.2L205.3,150.2L205.3,150.2z"/>
	<path fill="#A2D6D9" d="M233.8,154.1c-0.4,0.2-0.9,0.3-1.5,0.3c-1.1,0-1.7-0.6-1.7-1.9c-1.1,1.4-2.7,1.9-4.4,1.9
		c-2.3,0-4.1-1-4.1-3.5c0-2.8,2.1-3.4,4.2-3.8c2.2-0.5,4.2-0.3,4.2-1.8c0-1.8-1.5-2.1-2.8-2.1c-1.7,0-3,0.5-3.1,2.4h-2
		c0.1-3.1,2.5-4.2,5.3-4.2c2.2,0,4.7,0.5,4.7,3.4v6.4c0,1,0,1.4,0.7,1.4c0.2,0,0.4,0,0.6-0.1L233.8,154.1L233.8,154.1z M230.5,147.7
		c-1.6,1.2-6.2,0-6.2,3.1c0,1.4,1.2,1.8,2.4,1.8c2.7,0,3.8-1.7,3.8-2.8V147.7z"/>
	<path fill="#A2D6D9" d="M236.6,143.5h-2.1v-1.8h2.1v-1.9c0-2,1.2-3.1,3.4-3.1c0.4,0,0.9,0.1,1.3,0.2v1.8c-0.4-0.1-0.8-0.2-1.2-0.2
		c-1,0-1.6,0.3-1.6,1.4v1.7h2.4v1.8h-2.4v10.7h-2v-10.6H236.6z"/>
	<path fill="#A2D6D9" d="M243.3,143.5h-2.1v-1.8h2.1v-1.9c0-2,1.2-3.1,3.4-3.1c0.4,0,0.9,0.1,1.3,0.2v1.8c-0.4-0.1-0.8-0.2-1.2-0.2
		c-1,0-1.6,0.3-1.6,1.4v1.7h2.4v1.8h-2.4v10.7h-2v-10.6H243.3z"/>
	<path fill="#A2D6D9" d="M260.2,150.2c-0.6,2.8-2.5,4.2-5.3,4.2c-4,0-5.9-2.8-6-6.6c0-3.8,2.5-6.5,5.9-6.5c4.4,0,5.8,4.1,5.6,7.1
		h-9.3c-0.1,2.2,1.2,4.1,3.9,4.1c1.7,0,2.9-0.8,3.2-2.4L260.2,150.2L260.2,150.2z M258.3,146.7c-0.1-2-1.5-3.5-3.6-3.5
		s-3.4,1.6-3.6,3.5H258.3z"/>
	<path fill="#A2D6D9" d="M271,145.7c-0.3-1.6-1.4-2.5-3.1-2.5c-3,0-3.9,2.4-3.9,4.9c0,2.3,1,4.6,3.6,4.6c2,0,3.2-1.1,3.4-3h2.1
		c-0.5,3.1-2.3,4.8-5.5,4.8c-3.8,0-5.8-2.6-5.8-6.4c0-3.7,1.9-6.7,5.9-6.7c2.8,0,5.1,1.3,5.4,4.3L271,145.7L271,145.7z"/>
	<path fill="#A2D6D9" d="M278.4,141.7h2.5v1.8h-2.5v7.7c0,1,0.3,1.1,1.5,1.1h0.9v1.8h-1.6c-2.1,0-3-0.4-3-2.7v-7.9h-2.1v-1.8h2.1
		V138h2v3.7H278.4z"/>
	<path fill="#A2D6D9" d="M285.3,139.4h-2v-2.5h2V139.4z M283.2,141.7h2v12.5h-2V141.7z"/>
	<path fill="#A2D6D9" d="M288.5,141.7h1.9v2l0,0c0.9-1.5,2.2-2.3,4.1-2.3c3.3,0,4.3,1.9,4.3,4.6v8.2h-2v-8.4c0-1.5-1-2.5-2.5-2.5
		c-2.5,0-3.7,1.7-3.7,3.9v7h-2L288.5,141.7L288.5,141.7z"/>
	<path fill="#A2D6D9" d="M312.6,153.1c0,4.1-1.8,6.1-5.8,6.1c-2.3,0-5-1-5.2-3.7h2c0.1,1.5,1.9,2,3.2,2c2.7,0,3.7-1.9,3.7-4.7V152
		l0,0c-0.7,1.5-2.3,2.3-3.9,2.3c-3.7,0-5.6-2.9-5.6-6.3c0-2.9,1.4-6.6,5.8-6.6c1.6,0,3,0.7,3.7,2.1l0,0v-1.8h1.9v11.4H312.6z
		 M310.6,147.7c0-2.2-1-4.5-3.5-4.5c-2.6,0-3.7,2.1-3.7,4.5c0,2.2,0.8,4.7,3.5,4.7S310.6,150,310.6,147.7z"/>
	<path fill="#A2D6D9" d="M322.4,141.7h1.9v1.8l0,0c0.9-1.4,2.3-2.1,4-2.1c1.5,0,2.9,0.6,3.4,2.1c0.8-1.4,2.3-2.1,3.9-2.1
		c2.5,0,4.1,1,4.1,3.6v9.1h-2V146c0-1.5-0.4-2.8-2.4-2.8s-3.3,1.3-3.3,3.2v7.8h-2V146c0-1.6-0.5-2.8-2.3-2.8c-2.4,0-3.3,2.2-3.3,3.2
		v7.8h-2L322.4,141.7L322.4,141.7z"/>
	<path fill="#A2D6D9" d="M347.9,155.8c-1,2.4-1.8,3.3-3.6,3.3c-0.5,0-1,0-1.4-0.2V157c0.4,0.1,0.8,0.3,1.2,0.3
		c0.8,0,1.3-0.4,1.7-1.1l0.8-2.1l-4.9-12.4h2.3l3.6,10.2l0,0l3.5-10.2h2.2L347.9,155.8z"/>
</g>
<g>
	<path fill="#A2D6D9" d="M131.2,175.8c-0.3-1.6-1.4-2.5-3.1-2.5c-3,0-3.9,2.4-3.9,4.9c0,2.3,1,4.6,3.6,4.6c2,0,3.2-1.1,3.4-3h2.1
		c-0.5,3.1-2.3,4.8-5.5,4.8c-3.8,0-5.8-2.6-5.8-6.4c0-3.7,1.9-6.7,5.9-6.7c2.8,0,5.1,1.3,5.4,4.3L131.2,175.8L131.2,175.8z"/>
	<path fill="#A2D6D9" d="M135.7,167.1h2v6.6l0,0c0.7-1.5,2.5-2.1,3.9-2.1c3.3,0,4.3,1.9,4.3,4.6v8.2h-2V176c0-1.5-1-2.5-2.5-2.5
		c-2.5,0-3.7,1.7-3.7,3.9v7h-2V167.1z"/>
	<path fill="#A2D6D9" d="M151.3,169.6h-2v-2.5h2V169.6z M149.2,171.8h2v12.5h-2V171.8z"/>
	<path fill="#A2D6D9" d="M154.6,167.1h2v17.2h-2V167.1z"/>
	<path fill="#A2D6D9" d="M171,184.3h-2v-1.7l0,0c-0.7,1.4-2.2,2-4,2c-3.8,0-5.7-3-5.7-6.6c0-3.5,1.9-6.5,5.7-6.5c1.3,0,3.1,0.5,4,2
		l0,0v-6.4h2V184.3z M165.2,182.8c2.8,0,3.8-2.4,3.8-4.7c0-2.4-1.1-4.7-3.9-4.7c-2.8,0-3.7,2.4-3.7,4.8
		C161.3,180.5,162.5,182.8,165.2,182.8z"/>
	<path fill="#A2D6D9" d="M174.1,171.8h1.9v2.6l0,0c1-2,2.4-3,4.6-2.9v2.2c-3.3,0-4.5,1.9-4.5,5v5.5h-2V171.8z"/>
	<path fill="#A2D6D9" d="M192.4,180.3c-0.6,2.8-2.5,4.2-5.3,4.2c-4,0-5.9-2.8-6-6.6c0-3.8,2.5-6.5,5.9-6.5c4.4,0,5.8,4.1,5.6,7.1
		h-9.3c-0.1,2.2,1.2,4.1,3.9,4.1c1.7,0,2.9-0.8,3.2-2.4L192.4,180.3L192.4,180.3z M190.4,176.9c-0.1-2-1.5-3.5-3.6-3.5
		s-3.4,1.6-3.6,3.5H190.4z"/>
	<path fill="#A2D6D9" d="M194.7,171.8h1.9v2l0,0c0.9-1.5,2.2-2.3,4.1-2.3c3.3,0,4.3,1.9,4.3,4.6v8.2h-2v-8.4c0-1.5-1-2.5-2.5-2.5
		c-2.5,0-3.7,1.7-3.7,3.9v7h-2v-12.5H194.7z"/>
	<path fill="#A2D6D9" d="M208.5,167.1h2.7v2.7c0,1.9-0.8,3.5-2.7,3.5v-1.2c1.1,0,1.4-1.2,1.4-2.3h-1.4V167.1z"/>
	<path fill="#A2D6D9" d="M214.3,180.4c0.1,1.8,1.7,2.4,3.4,2.4c1.3,0,3-0.3,3-1.9c0-3.2-8.1-1-8.1-5.8c0-2.5,2.5-3.5,4.7-3.5
		c2.8,0,4.9,0.9,5.1,3.9h-2c-0.1-1.6-1.6-2.1-2.9-2.1c-1.2,0-2.7,0.3-2.7,1.6c0,1.4,2.2,1.7,4.1,2.2c2,0.5,4.1,1.2,4.1,3.5
		c0,3-2.8,3.9-5.3,3.9c-2.8,0-5.2-1.1-5.3-4.2L214.3,180.4L214.3,180.4z"/>
	<path fill="#A2D6D9" d="M231.8,167.1h2v6.6l0,0c0.7-1.5,2.5-2.1,3.9-2.1c3.3,0,4.3,1.9,4.3,4.6v8.2h-2V176c0-1.5-1-2.5-2.5-2.5
		c-2.5,0-3.7,1.7-3.7,3.9v7h-2V167.1z"/>
	<path fill="#A2D6D9" d="M255.8,180.3c-0.6,2.8-2.5,4.2-5.3,4.2c-4,0-5.9-2.8-6-6.6c0-3.8,2.5-6.5,5.9-6.5c4.4,0,5.8,4.1,5.6,7.1
		h-9.3c-0.1,2.2,1.2,4.1,3.9,4.1c1.7,0,2.9-0.8,3.2-2.4L255.8,180.3L255.8,180.3z M253.8,176.9c-0.1-2-1.5-3.5-3.6-3.5
		s-3.4,1.6-3.6,3.5H253.8z"/>
	<path fill="#A2D6D9" d="M269.2,184.2c-0.4,0.2-0.9,0.3-1.5,0.3c-1.1,0-1.7-0.6-1.7-1.9c-1.1,1.4-2.7,1.9-4.4,1.9
		c-2.3,0-4.1-1-4.1-3.5c0-2.8,2.1-3.4,4.2-3.8c2.2-0.5,4.2-0.3,4.2-1.8c0-1.8-1.5-2.1-2.8-2.1c-1.7,0-3,0.5-3.1,2.4h-2
		c0.1-3.1,2.5-4.2,5.3-4.2c2.2,0,4.7,0.5,4.7,3.4v6.4c0,1,0,1.4,0.7,1.4c0.2,0,0.4,0,0.6-0.1v1.6H269.2z M265.8,177.8
		c-1.6,1.2-6.2,0-6.2,3.1c0,1.4,1.2,1.8,2.4,1.8c2.7,0,3.8-1.7,3.8-2.8L265.8,177.8L265.8,177.8z"/>
	<path fill="#A2D6D9" d="M271.2,167.1h2v17.2h-2V167.1z"/>
	<path fill="#A2D6D9" d="M279.3,171.8h2.5v1.8h-2.5v7.7c0,1,0.3,1.1,1.5,1.1h0.9v1.8h-1.6c-2.1,0-3-0.4-3-2.7v-7.9H275v-1.8h2.1
		v-3.7h2v3.7H279.3z"/>
	<path fill="#A2D6D9" d="M284,167.1h2v6.6l0,0c0.7-1.5,2.5-2.1,3.9-2.1c3.3,0,4.3,1.9,4.3,4.6v8.2h-2V176c0-1.5-1-2.5-2.5-2.5
		c-2.5,0-3.7,1.7-3.7,3.9v7h-2L284,167.1L284,167.1z"/>
	<path fill="#A2D6D9" d="M297.9,181.6h2.7v2.7h-2.7V181.6z"/>
	<path fill="#A2D6D9" d="M304.6,167.1h2.7v2.7c0,1.9-0.8,3.5-2.7,3.5v-1.2c1.1,0,1.4-1.2,1.4-2.3h-1.4V167.1z"/>
</g>
</svg>
