<?xml version="1.0" encoding="utf-8"?>
<!-- Generator: Adobe Illustrator 20.1.0, SVG Export Plug-In . SVG Version: 6.00 Build 0)  -->
<svg version="1.1" id="Layer_1" xmlns="http://www.w3.org/2000/svg" xmlns:xlink="http://www.w3.org/1999/xlink" x="0px" y="0px"
	 viewBox="0 0 400 210" enable-background="new 0 0 400 210" xml:space="preserve">
<g>
	<path fill="#29B5BF" d="M119.1,22.2h-2.7v-2.7c0-1.9,0.8-3.6,2.7-3.6v1.2c-1.1,0-1.4,1.2-1.4,2.3h1.4V22.2z"/>
	<path fill="#29B5BF" d="M123,16h2.3v7.4h9.1V16h2.3v17.2h-2.3v-7.9h-9.1v7.9H123V16z"/>
	<path fill="#29B5BF" d="M145.5,20.4c4,0,6.1,2.9,6.1,6.5s-2.1,6.5-6.1,6.5s-6.1-2.9-6.1-6.5S141.5,20.4,145.5,20.4z M145.5,31.7
		c2.1,0,3.9-1.7,3.9-4.7s-1.7-4.7-3.9-4.7c-2.1,0-3.9,1.7-3.9,4.7S143.3,31.7,145.5,31.7z"/>
	<path fill="#29B5BF" d="M153.9,20.7h1.9v1.8l0,0c0.9-1.4,2.3-2.1,4-2.1c1.5,0,2.9,0.6,3.4,2.1c0.8-1.4,2.3-2.1,3.9-2.1
		c2.5,0,4.2,1,4.2,3.6v9.2h-2.1V25c0-1.5-0.4-2.8-2.4-2.8s-3.3,1.3-3.3,3.2v7.8h-2.1V25c0-1.6-0.5-2.8-2.3-2.8
		c-2.4,0-3.3,2.2-3.3,3.2v7.8h-2.1V20.7H153.9z"/>
	<path fill="#29B5BF" d="M185.2,29.2c-0.6,2.8-2.5,4.3-5.3,4.3c-4,0-5.9-2.8-6-6.6c0-3.8,2.5-6.5,5.9-6.5c4.4,0,5.8,4.1,5.7,7.1H176
		c-0.1,2.2,1.2,4.1,3.9,4.1c1.7,0,2.9-0.8,3.2-2.4H185.2z M183.2,25.8c-0.1-2-1.5-3.5-3.6-3.5s-3.5,1.6-3.6,3.5H183.2z"/>
	<path fill="#29B5BF" d="M194.2,20.7h1.9v1.8l0,0c0.9-1.4,2.3-2.1,4-2.1c1.5,0,2.9,0.6,3.4,2.1c0.8-1.4,2.3-2.1,3.9-2.1
		c2.5,0,4.2,1,4.2,3.6v9.2h-2.1V25c0-1.5-0.4-2.8-2.4-2.8s-3.3,1.3-3.3,3.2v7.8H202V25c0-1.6-0.5-2.8-2.3-2.8
		c-2.4,0-3.3,2.2-3.3,3.2v7.8h-2.1L194.2,20.7L194.2,20.7z"/>
	<path fill="#29B5BF" d="M225.5,29.2c-0.6,2.8-2.5,4.3-5.3,4.3c-4,0-5.9-2.8-6-6.6c0-3.8,2.5-6.5,5.9-6.5c4.4,0,5.8,4.1,5.7,7.1
		h-9.3c-0.1,2.2,1.2,4.1,3.9,4.1c1.7,0,2.9-0.8,3.2-2.4H225.5z M223.5,25.8c-0.1-2-1.5-3.5-3.6-3.5s-3.5,1.6-3.6,3.5H223.5z"/>
	<path fill="#29B5BF" d="M238.9,33.2c-0.4,0.2-0.9,0.3-1.5,0.3c-1.1,0-1.7-0.6-1.7-1.9c-1.1,1.4-2.7,1.9-4.4,1.9
		c-2.3,0-4.1-1-4.1-3.5c0-2.8,2.1-3.5,4.2-3.8c2.2-0.5,4.2-0.3,4.2-1.8c0-1.8-1.5-2.1-2.8-2.1c-1.7,0-3,0.5-3.1,2.4h-2.1
		c0.1-3.1,2.5-4.2,5.3-4.2c2.2,0,4.7,0.5,4.7,3.4v6.4c0,1,0,1.4,0.7,1.4c0.2,0,0.4,0,0.6-0.1L238.9,33.2L238.9,33.2z M235.5,26.8
		c-1.6,1.2-6.2,0-6.2,3.1c0,1.4,1.2,1.8,2.4,1.8c2.7,0,3.8-1.7,3.8-2.8V26.8z"/>
	<path fill="#29B5BF" d="M240.8,20.7h1.9v2l0,0c0.9-1.5,2.2-2.3,4.1-2.3c3.3,0,4.3,1.9,4.3,4.6v8.2H249v-8.5c0-1.5-1-2.5-2.5-2.5
		c-2.5,0-3.7,1.7-3.7,3.9v7.1h-2.1V20.7H240.8z"/>
	<path fill="#29B5BF" d="M255.5,29.3c0.1,1.8,1.7,2.4,3.4,2.4c1.3,0,3-0.3,3-1.9c0-3.2-8.2-1-8.2-5.8c0-2.5,2.5-3.6,4.7-3.6
		c2.8,0,4.9,0.9,5.1,3.9h-2.1c-0.1-1.6-1.6-2.1-2.9-2.1c-1.2,0-2.7,0.3-2.7,1.6c0,1.4,2.2,1.7,4.1,2.2c2.1,0.5,4.1,1.2,4.1,3.6
		c0,3-2.8,3.9-5.3,3.9c-2.8,0-5.2-1.1-5.3-4.2H255.5z"/>
	<path fill="#29B5BF" d="M273.1,20.7h2.1v1.7l0,0c0.7-1.4,2.2-2,4-2c3.8,0,5.7,3,5.7,6.6s-1.9,6.5-5.7,6.5c-1.3,0-3.1-0.5-4-2l0,0
		V38h-2.1V20.7z M278.9,22.2c-2.8,0-3.8,2.4-3.8,4.7c0,2.4,1.1,4.7,3.9,4.7s3.7-2.4,3.7-4.8C282.7,24.5,281.5,22.2,278.9,22.2z"/>
	<path fill="#29B5BF" d="M298,29.2c-0.6,2.8-2.5,4.3-5.3,4.3c-4,0-5.9-2.8-6-6.6c0-3.8,2.5-6.5,5.9-6.5c4.4,0,5.8,4.1,5.7,7.1H289
		c-0.1,2.2,1.2,4.1,3.9,4.1c1.7,0,2.9-0.8,3.2-2.4H298z M296,25.8c-0.1-2-1.5-3.5-3.6-3.5s-3.5,1.6-3.6,3.5H296z"/>
	<path fill="#29B5BF" d="M311.3,33.2c-0.4,0.2-0.9,0.3-1.5,0.3c-1.1,0-1.7-0.6-1.7-1.9c-1.1,1.4-2.7,1.9-4.4,1.9
		c-2.3,0-4.1-1-4.1-3.5c0-2.8,2.1-3.5,4.2-3.8c2.2-0.5,4.2-0.3,4.2-1.8c0-1.8-1.5-2.1-2.8-2.1c-1.7,0-3,0.5-3.1,2.4H300
		c0.1-3.1,2.5-4.2,5.3-4.2c2.2,0,4.7,0.5,4.7,3.4v6.4c0,1,0,1.4,0.7,1.4c0.2,0,0.4,0,0.6-0.1L311.3,33.2L311.3,33.2z M308,26.8
		c-1.6,1.2-6.2,0-6.2,3.1c0,1.4,1.2,1.8,2.4,1.8c2.7,0,3.8-1.7,3.8-2.8L308,26.8L308,26.8z"/>
	<path fill="#29B5BF" d="M321.7,24.7c-0.3-1.6-1.4-2.5-3.1-2.5c-3,0-3.9,2.4-3.9,4.9c0,2.3,1,4.6,3.6,4.6c2,0,3.2-1.1,3.4-3h2.1
		c-0.5,3.1-2.3,4.9-5.5,4.9c-3.8,0-5.8-2.6-5.8-6.4s1.9-6.7,5.9-6.7c2.8,0,5.1,1.3,5.4,4.3h-2.1V24.7z"/>
	<path fill="#29B5BF" d="M336.9,29.2c-0.6,2.8-2.5,4.3-5.3,4.3c-4,0-5.9-2.8-6-6.6c0-3.8,2.5-6.5,5.9-6.5c4.4,0,5.8,4.1,5.7,7.1
		h-9.3c-0.1,2.2,1.2,4.1,3.9,4.1c1.7,0,2.9-0.8,3.2-2.4H336.9z M334.9,25.8c-0.1-2-1.5-3.5-3.6-3.5s-3.5,1.6-3.6,3.5H334.9z"/>
</g>
<g>
	<path fill="#29B5BF" d="M128.7,50.6c4,0,6.1,2.9,6.1,6.5s-2.1,6.5-6.1,6.5s-6.1-2.9-6.1-6.5C122.7,53.5,124.8,50.6,128.7,50.6z
		 M128.7,61.9c2.1,0,3.9-1.7,3.9-4.7s-1.7-4.7-3.9-4.7c-2.1,0-3.9,1.7-3.9,4.7S126.6,61.9,128.7,61.9z"/>
	<path fill="#29B5BF" d="M138.1,52.7H136v-1.8h2.1V49c0-2,1.2-3.1,3.5-3.1c0.4,0,0.9,0.1,1.3,0.2v1.8c-0.4-0.1-0.8-0.2-1.2-0.2
		c-1,0-1.6,0.3-1.6,1.4v1.7h2.4v1.8h-2.4v10.7H138V52.7H138.1z"/>
	<path fill="#29B5BF" d="M151.1,50.9h1.9v1.8l0,0c0.9-1.4,2.3-2.1,4-2.1c1.5,0,2.9,0.6,3.4,2.1c0.8-1.4,2.3-2.1,3.9-2.1
		c2.5,0,4.2,1,4.2,3.6v9.2h-2.1v-8.2c0-1.5-0.4-2.8-2.4-2.8s-3.3,1.3-3.3,3.2v7.8h-2.1v-8.2c0-1.6-0.5-2.8-2.3-2.8
		c-2.4,0-3.3,2.2-3.3,3.2v7.8h-2.1V50.9H151.1z"/>
	<path fill="#29B5BF" d="M173.9,48.7h-2.1v-2.5h2.1V48.7z M171.8,50.9h2.1v12.5h-2.1V50.9z"/>
	<path fill="#29B5BF" d="M177,50.9h1.9v2l0,0c0.9-1.5,2.2-2.3,4.1-2.3c3.3,0,4.3,1.9,4.3,4.6v8.2h-2.1v-8.5c0-1.5-1-2.5-2.5-2.5
		c-2.5,0-3.7,1.7-3.7,3.9v7.1h-2V50.9z"/>
	<path fill="#29B5BF" d="M201.6,63.4h-2.1v-1.7l0,0c-0.7,1.4-2.2,2-4,2c-3.8,0-5.7-3-5.7-6.6c0-3.5,1.9-6.5,5.7-6.5
		c1.3,0,3.1,0.5,4,2l0,0v-6.4h2.1V63.4z M195.8,61.9c2.8,0,3.8-2.4,3.8-4.7c0-2.4-1.1-4.7-3.9-4.7c-2.8,0-3.7,2.4-3.7,4.8
		C192,59.6,193.2,61.9,195.8,61.9z"/>
	<path fill="#29B5BF" d="M205.2,60.7h2.7v2.4c0,1.8-0.8,3.2-2.7,3.8v-1.2c1.1-0.4,1.5-1.5,1.4-2.3h-1.4V60.7z"/>
	<path fill="#29B5BF" d="M229.3,63.3c-0.4,0.2-0.9,0.3-1.5,0.3c-1.1,0-1.7-0.6-1.7-1.9c-1.1,1.4-2.7,1.9-4.4,1.9
		c-2.3,0-4.1-1-4.1-3.5c0-2.8,2.1-3.5,4.2-3.8c2.2-0.5,4.2-0.3,4.2-1.8c0-1.8-1.5-2.1-2.8-2.1c-1.7,0-3,0.5-3.1,2.4H218
		c0.1-3.1,2.5-4.2,5.3-4.2c2.2,0,4.7,0.5,4.7,3.4v6.4c0,1,0,1.4,0.7,1.4c0.2,0,0.4,0,0.6-0.1V63.3z M225.9,56.9
		c-1.6,1.2-6.2,0-6.2,3.1c0,1.4,1.2,1.8,2.4,1.8c2.7,0,3.8-1.7,3.8-2.8V56.9z"/>
	<path fill="#29B5BF" d="M243.6,63.4h-2.2l-2.5-9.9l0,0l-2.5,9.9h-2.2l-4-12.5h2.3l2.8,10.2l0,0l2.5-10.2h2.2l2.6,10.2l0,0l2.8-10.2
		h2.1L243.6,63.4z"/>
	<path fill="#29B5BF" d="M260.6,63.3c-0.4,0.2-0.9,0.3-1.5,0.3c-1.1,0-1.7-0.6-1.7-1.9c-1.1,1.4-2.7,1.9-4.4,1.9
		c-2.3,0-4.1-1-4.1-3.5c0-2.8,2.1-3.5,4.2-3.8c2.2-0.5,4.2-0.3,4.2-1.8c0-1.8-1.5-2.1-2.8-2.1c-1.7,0-3,0.5-3.1,2.4h-2.1
		c0.1-3.1,2.5-4.2,5.3-4.2c2.2,0,4.7,0.5,4.7,3.4v6.4c0,1,0,1.4,0.7,1.4c0.2,0,0.4,0,0.6-0.1V63.3z M257.2,56.9
		c-1.6,1.2-6.2,0-6.2,3.1c0,1.4,1.2,1.8,2.4,1.8c2.7,0,3.8-1.7,3.8-2.8V56.9z"/>
	<path fill="#29B5BF" d="M267.4,65.1c-1,2.4-1.8,3.3-3.6,3.3c-0.5,0-1,0-1.4-0.2v-1.9c0.4,0.1,0.8,0.3,1.2,0.3
		c0.8,0,1.3-0.4,1.7-1.1l0.8-2.1l-5-12.4h2.3l3.6,10.2l0,0l3.5-10.2h2.2L267.4,65.1z"/>
	<path fill="#29B5BF" d="M282.1,52.7H280v-1.8h2.1V49c0-2,1.2-3.1,3.5-3.1c0.4,0,0.9,0.1,1.3,0.2v1.8c-0.4-0.1-0.8-0.2-1.2-0.2
		c-1,0-1.6,0.3-1.6,1.4v1.7h2.4v1.8h-2.4v10.7H282V52.7H282.1z"/>
	<path fill="#29B5BF" d="M288.3,50.9h1.9v2.6l0,0c1-2,2.4-3,4.6-2.9v2.2c-3.3,0-4.5,1.9-4.5,5v5.6h-2.1V50.9H288.3z"/>
	<path fill="#29B5BF" d="M301.4,50.6c4,0,6.1,2.9,6.1,6.5s-2.1,6.5-6.1,6.5s-6.1-2.9-6.1-6.5S297.4,50.6,301.4,50.6z M301.4,61.9
		c2.1,0,3.9-1.7,3.9-4.7s-1.7-4.7-3.9-4.7c-2.2,0-3.9,1.7-3.9,4.7S299.2,61.9,301.4,61.9z"/>
	<path fill="#29B5BF" d="M309.9,50.9h1.9v1.8l0,0c0.9-1.4,2.3-2.1,4-2.1c1.5,0,2.9,0.6,3.4,2.1c0.8-1.4,2.3-2.1,3.9-2.1
		c2.5,0,4.2,1,4.2,3.6v9.2h-2.1v-8.2c0-1.5-0.4-2.8-2.4-2.8s-3.3,1.3-3.3,3.2v7.8h-2.1v-8.2c0-1.6-0.5-2.8-2.3-2.8
		c-2.4,0-3.3,2.2-3.3,3.2v7.8h-2.1V50.9H309.9z"/>
</g>
<g>
	<path fill="#29B5BF" d="M134,89.6c-0.6,2.8-2.5,4.3-5.3,4.3c-4,0-5.9-2.8-6-6.6c0-3.8,2.5-6.5,5.9-6.5c4.4,0,5.8,4.1,5.7,7.1H125
		c-0.1,2.2,1.2,4.1,3.9,4.1c1.7,0,2.9-0.8,3.2-2.4H134z M132,86.1c-0.1-2-1.5-3.5-3.6-3.5c-2.1,0-3.5,1.6-3.6,3.5H132z"/>
	<path fill="#29B5BF" d="M141.9,93.6h-2.2l-4.6-12.5h2.3l3.5,10.4l0,0l3.4-10.4h2.1L141.9,93.6z"/>
	<path fill="#29B5BF" d="M159,89.6c-0.6,2.8-2.5,4.3-5.3,4.3c-4,0-5.9-2.8-6-6.6c0-3.8,2.5-6.5,5.9-6.5c4.4,0,5.8,4.1,5.7,7.1H150
		c-0.1,2.2,1.2,4.1,3.9,4.1c1.7,0,2.9-0.8,3.2-2.4H159z M157.1,86.1c-0.1-2-1.5-3.5-3.6-3.5s-3.5,1.6-3.6,3.5H157.1z"/>
	<path fill="#29B5BF" d="M161.3,81.1h1.9v2.6l0,0c1-2,2.4-3,4.6-2.9V83c-3.3,0-4.5,1.9-4.5,5v5.6h-2.1V81.1H161.3z"/>
	<path fill="#29B5BF" d="M174.3,95.3c-1,2.4-1.8,3.3-3.6,3.3c-0.5,0-1,0-1.4-0.2v-1.9c0.4,0.1,0.8,0.3,1.2,0.3
		c0.8,0,1.3-0.4,1.7-1.1l0.8-2.1l-5-12.4h2.3l3.6,10.2l0,0l3.5-10.2h2.2L174.3,95.3z"/>
	<path fill="#29B5BF" d="M184.3,81.1h2.5v1.8h-2.5v7.8c0,1,0.3,1.1,1.5,1.1h0.9v1.8h-1.6c-2.1,0-3-0.4-3-2.7V83H180v-1.8h2.1v-3.7
		h2.1v3.6H184.3z"/>
	<path fill="#29B5BF" d="M189.1,76.3h2.1v6.6l0,0c0.7-1.5,2.5-2.1,3.9-2.1c3.3,0,4.3,1.9,4.3,4.6v8.2h-2.1v-8.5c0-1.5-1-2.5-2.5-2.5
		c-2.5,0-3.7,1.7-3.7,3.9v7.1H189V76.3H189.1z"/>
	<path fill="#29B5BF" d="M204.7,78.9h-2.1v-2.5h2.1V78.9z M202.6,81.1h2.1v12.5h-2.1V81.1z"/>
	<path fill="#29B5BF" d="M207.9,81.1h1.9v2l0,0c0.9-1.5,2.2-2.3,4.1-2.3c3.3,0,4.3,1.9,4.3,4.6v8.2h-2.1v-8.5c0-1.5-1-2.5-2.5-2.5
		c-2.5,0-3.7,1.7-3.7,3.9v7.1h-2.1V81.1H207.9z"/>
	<path fill="#29B5BF" d="M232.1,92.5c0,4.1-1.8,6.1-5.8,6.1c-2.3,0-5-1-5.2-3.7h2.1c0.1,1.5,1.9,2,3.2,2c2.7,0,3.7-1.9,3.7-4.7v-0.8
		l0,0c-0.7,1.5-2.3,2.3-3.9,2.3c-3.7,0-5.6-2.9-5.6-6.3c0-2.9,1.4-6.6,5.8-6.6c1.6,0,3,0.7,3.7,2.1l0,0v-1.8h1.9v11.4H232.1z
		 M230.1,87.1c0-2.2-1-4.5-3.6-4.5s-3.7,2.1-3.7,4.5c0,2.2,0.8,4.8,3.5,4.8S230.1,89.4,230.1,87.1z"/>
	<path fill="#29B5BF" d="M235.6,90.9h2.7v2.4c0,1.8-0.8,3.2-2.7,3.8v-1.2c1.1-0.4,1.5-1.5,1.4-2.3h-1.4V90.9z"/>
	<path fill="#29B5BF" d="M254,80.8c4,0,6.1,2.9,6.1,6.5s-2.1,6.5-6.1,6.5s-6.1-2.9-6.1-6.5C247.9,83.7,250,80.8,254,80.8z M254,92.1
		c2.1,0,3.9-1.7,3.9-4.7s-1.7-4.7-3.9-4.7c-2.2,0-3.9,1.7-3.9,4.7S251.8,92.1,254,92.1z"/>
	<path fill="#29B5BF" d="M262.5,81.1h1.9v2l0,0c0.9-1.5,2.2-2.3,4.1-2.3c3.3,0,4.3,1.9,4.3,4.6v8.2h-2.1v-8.5c0-1.5-1-2.5-2.5-2.5
		c-2.5,0-3.7,1.7-3.7,3.9v7.1h-2.1V81.1H262.5z"/>
	<path fill="#29B5BF" d="M282.6,81.1h1.9v1.8l0,0c0.9-1.4,2.3-2.1,4-2.1c1.5,0,2.9,0.6,3.4,2.1c0.8-1.4,2.3-2.1,3.9-2.1
		c2.5,0,4.2,1,4.2,3.6v9.2h-2.1v-8.2c0-1.5-0.4-2.8-2.4-2.8s-3.3,1.3-3.3,3.2v7.8h-2.1v-8.2c0-1.6-0.5-2.8-2.3-2.8
		c-2.4,0-3.3,2.2-3.3,3.2v7.8h-2.1V81.1H282.6z"/>
	<path fill="#29B5BF" d="M308.1,95.3c-1,2.4-1.8,3.3-3.6,3.3c-0.5,0-1,0-1.4-0.2v-1.9c0.4,0.1,0.8,0.3,1.2,0.3
		c0.8,0,1.3-0.4,1.7-1.1l0.8-2.1l-5-12.4h2.3l3.6,10.2l0,0l3.5-10.2h2.2L308.1,95.3z"/>
	<path fill="#29B5BF" d="M327.4,80.8c4,0,6.1,2.9,6.1,6.5s-2.1,6.5-6.1,6.5s-6.1-2.9-6.1-6.5C321.3,83.7,323.4,80.8,327.4,80.8z
		 M327.4,92.1c2.1,0,3.9-1.7,3.9-4.7s-1.7-4.7-3.9-4.7c-2.2,0-3.9,1.7-3.9,4.7S325.2,92.1,327.4,92.1z"/>
	<path fill="#29B5BF" d="M348.2,93.6H346l-2.5-9.9l0,0l-2.5,9.9h-2.2l-4-12.5h2.3l2.8,10.2l0,0l2.5-10.2h2.2l2.6,10.2l0,0l2.8-10.2
		h2.1L348.2,93.6z"/>
	<path fill="#29B5BF" d="M354.2,81.1h1.9v2l0,0c0.9-1.5,2.2-2.3,4.1-2.3c3.3,0,4.3,1.9,4.3,4.6v8.2h-2.1v-8.5c0-1.5-1-2.5-2.5-2.5
		c-2.5,0-3.7,1.7-3.7,3.9v7.1h-2.1V81.1H354.2z"/>
	<path fill="#29B5BF" d="M368.1,90.9h2.7v2.4c0,1.8-0.8,3.2-2.7,3.8v-1.2c1.1-0.4,1.5-1.5,1.4-2.3h-1.4V90.9z"/>
</g>
<g>
	<path fill="#29B5BF" d="M134.4,123.7c-0.4,0.2-0.9,0.3-1.5,0.3c-1.1,0-1.7-0.6-1.7-1.9c-1.1,1.4-2.7,1.9-4.4,1.9
		c-2.3,0-4.1-1-4.1-3.5c0-2.8,2.1-3.5,4.2-3.8c2.2-0.5,4.2-0.3,4.2-1.8c0-1.8-1.5-2.1-2.8-2.1c-1.7,0-3,0.5-3.1,2.4h-2.1
		c0.1-3.1,2.5-4.2,5.3-4.2c2.2,0,4.7,0.5,4.7,3.4v6.4c0,1,0,1.4,0.7,1.4c0.2,0,0.4,0,0.6-0.1V123.7z M131.1,117.3
		c-1.6,1.2-6.2,0-6.2,3.1c0,1.4,1.2,1.8,2.4,1.8c2.7,0,3.8-1.7,3.8-2.8V117.3z"/>
	<path fill="#29B5BF" d="M148.7,123.8h-2.2l-2.5-9.9l0,0l-2.5,9.9h-2.2l-4-12.5h2.3l2.8,10.2l0,0l2.5-10.2h2.2l2.6,10.2l0,0
		l2.8-10.2h2.1L148.7,123.8z"/>
	<path fill="#29B5BF" d="M165.7,123.7c-0.4,0.2-0.9,0.3-1.5,0.3c-1.1,0-1.7-0.6-1.7-1.9c-1.1,1.4-2.7,1.9-4.4,1.9
		c-2.3,0-4.1-1-4.1-3.5c0-2.8,2.1-3.5,4.2-3.8c2.2-0.5,4.2-0.3,4.2-1.8c0-1.8-1.5-2.1-2.8-2.1c-1.7,0-3,0.5-3.1,2.4h-2.1
		c0.1-3.1,2.5-4.2,5.3-4.2c2.2,0,4.7,0.5,4.7,3.4v6.4c0,1,0,1.4,0.7,1.4c0.2,0,0.4,0,0.6-0.1L165.7,123.7L165.7,123.7z M162.4,117.3
		c-1.6,1.2-6.2,0-6.2,3.1c0,1.4,1.2,1.8,2.4,1.8c2.7,0,3.8-1.7,3.8-2.8V117.3z"/>
	<path fill="#29B5BF" d="M172.5,125.4c-1,2.4-1.8,3.3-3.6,3.3c-0.5,0-1,0-1.4-0.2v-1.9c0.4,0.1,0.8,0.3,1.2,0.3
		c0.8,0,1.3-0.4,1.7-1.1l0.8-2.1l-5-12.4h2.3l3.6,10.2l0,0l3.5-10.2h2.2L172.5,125.4z"/>
	<path fill="#29B5BF" d="M187.2,113.1h-2.1v-1.8h2.1v-1.9c0-2,1.2-3.1,3.5-3.1c0.4,0,0.9,0.1,1.3,0.2v1.8c-0.4-0.1-0.8-0.2-1.2-0.2
		c-1,0-1.6,0.3-1.6,1.4v1.7h2.4v1.8h-2.4v10.7h-2.1v-10.6H187.2z"/>
	<path fill="#29B5BF" d="M193.5,111.3h1.9v2.6l0,0c1-2,2.4-3,4.6-2.9v2.2c-3.3,0-4.5,1.9-4.5,5v5.6h-2.1v-12.5H193.5z"/>
	<path fill="#29B5BF" d="M206.5,111c4,0,6.1,2.9,6.1,6.5s-2.1,6.5-6.1,6.5s-6.1-2.9-6.1-6.5C200.5,113.9,202.6,111,206.5,111z
		 M206.5,122.3c2.2,0,3.9-1.7,3.9-4.7s-1.7-4.7-3.9-4.7c-2.1,0-3.9,1.7-3.9,4.7S204.4,122.3,206.5,122.3z"/>
	<path fill="#29B5BF" d="M215,111.3h1.9v1.8l0,0c0.9-1.4,2.3-2.1,4-2.1c1.5,0,2.9,0.6,3.4,2.1c0.8-1.4,2.3-2.1,3.9-2.1
		c2.5,0,4.2,1,4.2,3.6v9.2h-2.1v-8.2c0-1.5-0.4-2.8-2.4-2.8s-3.3,1.3-3.3,3.2v7.8h-2.1v-8.2c0-1.6-0.5-2.8-2.3-2.8
		c-2.4,0-3.3,2.2-3.3,3.2v7.8H215V111.3z"/>
	<path fill="#29B5BF" d="M242.4,111.3h2.1v1.7l0,0c0.7-1.4,2.2-2,4-2c3.8,0,5.7,3,5.7,6.6s-1.9,6.5-5.7,6.5c-1.3,0-3.1-0.5-4-2l0,0
		v6.4h-2.1V111.3z M248.2,112.8c-2.8,0-3.8,2.4-3.8,4.7c0,2.4,1.1,4.7,3.9,4.7c2.8,0,3.7-2.4,3.7-4.8
		C252.1,115.1,250.8,112.8,248.2,112.8z"/>
	<path fill="#29B5BF" d="M256.6,111.3h1.9v2.6l0,0c1-2,2.4-3,4.6-2.9v2.2c-3.3,0-4.5,1.9-4.5,5v5.6h-2.1v-12.5H256.6z"/>
	<path fill="#29B5BF" d="M269.6,111c4,0,6.1,2.9,6.1,6.5s-2.1,6.5-6.1,6.5s-6.1-2.9-6.1-6.5C263.6,113.9,265.7,111,269.6,111z
		 M269.6,122.3c2.1,0,3.9-1.7,3.9-4.7s-1.7-4.7-3.9-4.7c-2.2,0-3.9,1.7-3.9,4.7S267.5,122.3,269.6,122.3z"/>
	<path fill="#29B5BF" d="M278.2,106.5h2.1v6.4l0,0c0.7-1.4,2.2-2,4-2c3.8,0,5.7,3,5.7,6.6s-1.9,6.5-5.7,6.5c-1.3,0-3.1-0.5-4-2l0,0
		v1.7h-2.1V106.5z M284,112.8c-2.8,0-3.8,2.4-3.8,4.7c0,2.4,1.1,4.7,3.9,4.7s3.7-2.4,3.7-4.8C287.8,115.1,286.6,112.8,284,112.8z"/>
	<path fill="#29B5BF" d="M292.6,106.5h2.1v17.2h-2.1V106.5z"/>
	<path fill="#29B5BF" d="M308.4,119.8c-0.6,2.8-2.5,4.3-5.3,4.3c-4,0-5.9-2.8-6-6.6c0-3.8,2.5-6.5,5.9-6.5c4.4,0,5.8,4.1,5.7,7.1
		h-9.3c-0.1,2.2,1.2,4.1,3.9,4.1c1.7,0,2.9-0.8,3.2-2.4H308.4z M306.5,116.3c-0.1-2-1.5-3.5-3.6-3.5s-3.5,1.6-3.6,3.5H306.5z"/>
	<path fill="#29B5BF" d="M310.8,111.3h1.9v1.8l0,0c0.9-1.4,2.3-2.1,4-2.1c1.5,0,2.9,0.6,3.4,2.1c0.8-1.4,2.3-2.1,3.9-2.1
		c2.5,0,4.2,1,4.2,3.6v9.2h-2.1v-8.2c0-1.5-0.4-2.8-2.4-2.8s-3.3,1.3-3.3,3.2v7.8h-2.1v-8.2c0-1.6-0.5-2.8-2.3-2.8
		c-2.4,0-3.3,2.2-3.3,3.2v7.8h-2.1v-12.5H310.8z"/>
	<path fill="#29B5BF" d="M332.6,119.8c0.1,1.8,1.7,2.4,3.4,2.4c1.3,0,3-0.3,3-1.9c0-3.2-8.2-1-8.2-5.8c0-2.5,2.5-3.6,4.7-3.6
		c2.8,0,4.9,0.9,5.1,3.9h-2.1c-0.1-1.6-1.6-2.1-2.9-2.1c-1.2,0-2.7,0.3-2.7,1.6c0,1.4,2.2,1.7,4.1,2.2c2.1,0.5,4.1,1.2,4.1,3.6
		c0,3-2.8,3.9-5.3,3.9c-2.8,0-5.2-1.1-5.3-4.2H332.6z"/>
	<path fill="#29B5BF" d="M355.5,111c4,0,6.1,2.9,6.1,6.5s-2.1,6.5-6.1,6.5s-6.1-2.9-6.1-6.5C349.5,113.9,351.6,111,355.5,111z
		 M355.5,122.3c2.1,0,3.9-1.7,3.9-4.7s-1.7-4.7-3.9-4.7c-2.2,0-3.9,1.7-3.9,4.7S353.4,122.3,355.5,122.3z"/>
	<path fill="#29B5BF" d="M364.9,113.1h-2.1v-1.8h2.1v-1.9c0-2,1.2-3.1,3.5-3.1c0.4,0,0.9,0.1,1.3,0.2v1.8c-0.4-0.1-0.8-0.2-1.2-0.2
		c-1,0-1.6,0.3-1.6,1.4v1.7h2.4v1.8h-2.4v10.7h-2.1v-10.6H364.9z"/>
</g>
<g>
	<path fill="#29B5BF" d="M123.4,141.5h1.9v2l0,0c0.9-1.5,2.2-2.3,4.1-2.3c3.3,0,4.3,1.9,4.3,4.6v8.2h-2.1v-8.5c0-1.5-1-2.5-2.5-2.5
		c-2.5,0-3.7,1.7-3.7,3.9v7.1h-2.1L123.4,141.5L123.4,141.5z"/>
	<path fill="#29B5BF" d="M142.2,141.2c4,0,6.1,2.9,6.1,6.5s-2.1,6.5-6.1,6.5s-6.1-2.9-6.1-6.5C136.1,144.1,138.2,141.2,142.2,141.2z
		 M142.2,152.4c2.1,0,3.9-1.7,3.9-4.7s-1.7-4.7-3.9-4.7c-2.1,0-3.9,1.7-3.9,4.7S140,152.4,142.2,152.4z"/>
	<path fill="#29B5BF" d="M152.8,139.2h-2.1v-2.5h2.1V139.2z M150.8,141.5h2.1V154h-2.1V141.5z"/>
	<path fill="#29B5BF" d="M157.3,150c0.1,1.8,1.7,2.4,3.4,2.4c1.3,0,3-0.3,3-1.9c0-3.2-8.2-1-8.2-5.8c0-2.5,2.5-3.6,4.7-3.6
		c2.8,0,4.9,0.9,5.1,3.9h-2.1c-0.1-1.6-1.6-2.1-2.9-2.1c-1.2,0-2.7,0.3-2.7,1.6c0,1.4,2.2,1.7,4.1,2.2c2.1,0.5,4.1,1.2,4.1,3.6
		c0,3-2.8,3.9-5.3,3.9c-2.8,0-5.2-1.1-5.3-4.2L157.3,150L157.3,150z"/>
	<path fill="#29B5BF" d="M178.7,150c-0.6,2.8-2.5,4.3-5.3,4.3c-4,0-5.9-2.8-6-6.6c0-3.8,2.5-6.5,5.9-6.5c4.4,0,5.8,4.1,5.7,7.1h-9.3
		c-0.1,2.2,1.2,4.1,3.9,4.1c1.7,0,2.9-0.8,3.2-2.4L178.7,150L178.7,150z M176.8,146.5c-0.1-2-1.5-3.5-3.6-3.5s-3.5,1.6-3.6,3.5
		H176.8z"/>
	<path fill="#29B5BF" d="M181.5,151.3h2.7v2.4c0,1.8-0.8,3.2-2.7,3.8v-1.2c1.1-0.4,1.5-1.5,1.4-2.3h-1.4V151.3z"/>
	<path fill="#29B5BF" d="M205.5,153.9c-0.4,0.2-0.9,0.3-1.5,0.3c-1.1,0-1.7-0.6-1.7-1.9c-1.1,1.4-2.7,1.9-4.4,1.9
		c-2.3,0-4.1-1-4.1-3.5c0-2.8,2.1-3.5,4.2-3.8c2.2-0.5,4.2-0.3,4.2-1.8c0-1.8-1.5-2.1-2.8-2.1c-1.7,0-3,0.5-3.1,2.4h-2.1
		c0.1-3.1,2.5-4.2,5.3-4.2c2.2,0,4.7,0.5,4.7,3.4v6.4c0,1,0,1.4,0.7,1.4c0.2,0,0.4,0,0.6-0.1L205.5,153.9L205.5,153.9z M202.2,147.5
		c-1.6,1.2-6.2,0-6.2,3.1c0,1.4,1.2,1.8,2.4,1.8c2.7,0,3.8-1.7,3.8-2.8V147.5z"/>
	<path fill="#29B5BF" d="M219.8,154h-2.2l-2.5-9.9l0,0l-2.5,9.9h-2.2l-4-12.5h2.3l2.8,10.2l0,0l2.5-10.2h2.2l2.6,10.2l0,0l2.8-10.2
		h2.1L219.8,154z"/>
	<path fill="#29B5BF" d="M236.8,153.9c-0.4,0.2-0.9,0.3-1.5,0.3c-1.1,0-1.7-0.6-1.7-1.9c-1.1,1.4-2.7,1.9-4.4,1.9
		c-2.3,0-4.1-1-4.1-3.5c0-2.8,2.1-3.5,4.2-3.8c2.2-0.5,4.2-0.3,4.2-1.8c0-1.8-1.5-2.1-2.8-2.1c-1.7,0-3,0.5-3.1,2.4h-2.1
		c0.1-3.1,2.5-4.2,5.3-4.2c2.2,0,4.7,0.5,4.7,3.4v6.4c0,1,0,1.4,0.7,1.4c0.2,0,0.4,0,0.6-0.1L236.8,153.9L236.8,153.9z M233.5,147.5
		c-1.6,1.2-6.2,0-6.2,3.1c0,1.4,1.2,1.8,2.4,1.8c2.7,0,3.8-1.7,3.8-2.8V147.5z"/>
	<path fill="#29B5BF" d="M243.6,155.6c-1,2.4-1.8,3.3-3.6,3.3c-0.5,0-1,0-1.4-0.2v-1.9c0.4,0.1,0.8,0.3,1.2,0.3
		c0.8,0,1.3-0.4,1.7-1.1l0.8-2.1l-5-12.4h2.3l3.6,10.2l0,0l3.5-10.2h2.2L243.6,155.6z"/>
	<path fill="#29B5BF" d="M258.4,143.3h-2.1v-1.8h2.1v-1.9c0-2,1.2-3.1,3.5-3.1c0.4,0,0.9,0.1,1.3,0.2v1.8c-0.4-0.1-0.8-0.2-1.2-0.2
		c-1,0-1.6,0.3-1.6,1.4v1.7h2.4v1.8h-2.4V154h-2.1v-10.7H258.4z"/>
	<path fill="#29B5BF" d="M264.6,141.5h1.9v2.6l0,0c1-2,2.4-3,4.6-2.9v2.2c-3.3,0-4.5,1.9-4.5,5v5.6h-2.1v-12.5H264.6z"/>
	<path fill="#29B5BF" d="M277.7,141.2c4,0,6.1,2.9,6.1,6.5s-2.1,6.5-6.1,6.5s-6.1-2.9-6.1-6.5C271.6,144.1,273.7,141.2,277.7,141.2z
		 M277.7,152.4c2.1,0,3.9-1.7,3.9-4.7s-1.7-4.7-3.9-4.7c-2.2,0-3.9,1.7-3.9,4.7S275.5,152.4,277.7,152.4z"/>
	<path fill="#29B5BF" d="M286.1,141.5h1.9v1.8l0,0c0.9-1.4,2.3-2.1,4-2.1c1.5,0,2.9,0.6,3.4,2.1c0.8-1.4,2.3-2.1,3.9-2.1
		c2.5,0,4.2,1,4.2,3.6v9.2h-2.1v-8.2c0-1.5-0.4-2.8-2.4-2.8s-3.3,1.3-3.3,3.2v7.8h-2.1v-8.2c0-1.6-0.5-2.8-2.3-2.8
		c-2.4,0-3.3,2.2-3.3,3.2v7.8h-2.1v-12.5H286.1z"/>
	<path fill="#29B5BF" d="M325.8,154h-2.2l-2.5-9.9l0,0l-2.5,9.9h-2.2l-4-12.5h2.3l2.8,10.2l0,0l2.5-10.2h2.2l2.6,10.2l0,0l2.8-10.2
		h2.1L325.8,154z"/>
	<path fill="#29B5BF" d="M337.1,141.2c4,0,6.1,2.9,6.1,6.5s-2.1,6.5-6.1,6.5s-6.1-2.9-6.1-6.5C331.1,144.1,333.2,141.2,337.1,141.2z
		 M337.1,152.4c2.1,0,3.9-1.7,3.9-4.7s-1.7-4.7-3.9-4.7c-2.2,0-3.9,1.7-3.9,4.7S335,152.4,337.1,152.4z"/>
	<path fill="#29B5BF" d="M345.5,141.5h1.9v2.6l0,0c1-2,2.4-3,4.6-2.9v2.2c-3.3,0-4.5,1.9-4.5,5v5.6h-2.1v-12.5H345.5z"/>
	<path fill="#29B5BF" d="M353.8,136.7h2.1v10.2l5.7-5.5h2.8l-5,4.5l5.3,7.9H362l-4.3-6.5l-1.9,1.8v4.7h-2.1L353.8,136.7L353.8,136.7
		z"/>
</g>
<g>
	<path fill="#29B5BF" d="M134.4,184.1c-0.4,0.2-0.9,0.3-1.5,0.3c-1.1,0-1.7-0.6-1.7-1.9c-1.1,1.4-2.7,1.9-4.4,1.9
		c-2.3,0-4.1-1-4.1-3.5c0-2.8,2.1-3.5,4.2-3.8c2.2-0.5,4.2-0.3,4.2-1.8c0-1.8-1.5-2.1-2.8-2.1c-1.7,0-3,0.5-3.1,2.4h-2.1
		c0.1-3.1,2.5-4.2,5.3-4.2c2.2,0,4.7,0.5,4.7,3.4v6.4c0,1,0,1.4,0.7,1.4c0.2,0,0.4,0,0.6-0.1V184.1z M131.1,177.7
		c-1.6,1.2-6.2,0-6.2,3.1c0,1.4,1.2,1.8,2.4,1.8c2.7,0,3.8-1.7,3.8-2.8V177.7z"/>
	<path fill="#29B5BF" d="M136.3,171.7h1.9v2l0,0c0.9-1.5,2.2-2.3,4.1-2.3c3.3,0,4.3,1.9,4.3,4.6v8.2h-2.1v-8.5c0-1.5-1-2.5-2.5-2.5
		c-2.5,0-3.7,1.7-3.7,3.9v7.1h-2.1v-12.5H136.3z"/>
	<path fill="#29B5BF" d="M160.9,184.2h-2.1v-1.7l0,0c-0.7,1.4-2.2,2-4,2c-3.8,0-5.7-3-5.7-6.6c0-3.5,1.9-6.5,5.7-6.5
		c1.3,0,3.1,0.5,4,2l0,0V167h2.1V184.2z M155.1,182.6c2.8,0,3.8-2.4,3.8-4.7c0-2.4-1.1-4.7-3.9-4.7c-2.8,0-3.7,2.4-3.7,4.8
		C151.2,180.4,152.5,182.6,155.1,182.6z"/>
	<path fill="#29B5BF" d="M179.3,175.7c-0.3-1.6-1.4-2.5-3.1-2.5c-3,0-3.9,2.4-3.9,4.9c0,2.3,1,4.6,3.6,4.6c2,0,3.2-1.1,3.4-3h2.1
		c-0.5,3.1-2.3,4.9-5.5,4.9c-3.8,0-5.8-2.6-5.8-6.4s1.9-6.7,5.9-6.7c2.9,0,5.1,1.3,5.4,4.3h-2.1V175.7z"/>
	<path fill="#29B5BF" d="M189.1,171.4c4,0,6.1,2.9,6.1,6.5s-2.1,6.5-6.1,6.5s-6.1-2.9-6.1-6.5C183.1,174.2,185.2,171.4,189.1,171.4z
		 M189.1,182.6c2.1,0,3.9-1.7,3.9-4.7s-1.7-4.7-3.9-4.7c-2.1,0-3.9,1.7-3.9,4.7S187,182.6,189.1,182.6z"/>
	<path fill="#29B5BF" d="M197.6,171.7h1.9v2l0,0c0.9-1.5,2.2-2.3,4.1-2.3c3.3,0,4.3,1.9,4.3,4.6v8.2h-2.1v-8.5c0-1.5-1-2.5-2.5-2.5
		c-2.5,0-3.7,1.7-3.7,3.9v7.1h-2.1v-12.5H197.6z"/>
	<path fill="#29B5BF" d="M211.9,173.5h-2.1v-1.8h2.1v-1.9c0-2,1.2-3.1,3.5-3.1c0.4,0,0.9,0.1,1.3,0.2v1.8c-0.4-0.1-0.8-0.2-1.2-0.2
		c-1,0-1.6,0.3-1.6,1.4v1.7h2.4v1.8h-2.4v10.7h-2.1v-10.6H211.9z"/>
	<path fill="#29B5BF" d="M228.5,184.2h-1.9v-2l0,0c-0.9,1.5-2.2,2.3-4.1,2.3c-3.3,0-4.3-1.9-4.3-4.6v-8.2h2.1v8.5
		c0,1.5,1,2.5,2.5,2.5c2.5,0,3.7-1.7,3.7-3.9v-7.1h2.1v12.5H228.5z"/>
	<path fill="#29B5BF" d="M232.9,180.2c0.1,1.8,1.7,2.4,3.4,2.4c1.3,0,3-0.3,3-1.9c0-3.2-8.2-1-8.2-5.8c0-2.5,2.5-3.6,4.7-3.6
		c2.8,0,4.9,0.9,5.1,3.9h-2.1c-0.1-1.6-1.6-2.1-2.9-2.1c-1.2,0-2.7,0.3-2.7,1.6c0,1.4,2.2,1.7,4.1,2.2c2.1,0.5,4.1,1.2,4.1,3.6
		c0,3-2.8,3.9-5.3,3.9c-2.8,0-5.2-1.1-5.3-4.2L232.9,180.2L232.9,180.2z"/>
	<path fill="#29B5BF" d="M245.9,169.4h-2.1v-2.5h2.1V169.4z M243.8,171.7h2.1v12.5h-2.1V171.7z"/>
	<path fill="#29B5BF" d="M254.4,171.4c4,0,6.1,2.9,6.1,6.5s-2.1,6.5-6.1,6.5s-6.1-2.9-6.1-6.5C248.4,174.2,250.5,171.4,254.4,171.4z
		 M254.4,182.6c2.1,0,3.9-1.7,3.9-4.7s-1.7-4.7-3.9-4.7c-2.2,0-3.9,1.7-3.9,4.7S252.3,182.6,254.4,182.6z"/>
	<path fill="#29B5BF" d="M262.9,171.7h1.9v2l0,0c0.9-1.5,2.2-2.3,4.1-2.3c3.3,0,4.3,1.9,4.3,4.6v8.2h-2.1v-8.5c0-1.5-1-2.5-2.5-2.5
		c-2.5,0-3.7,1.7-3.7,3.9v7.1h-2.1v-12.5H262.9z"/>
	<path fill="#29B5BF" d="M277.6,180.2c0.1,1.8,1.7,2.4,3.4,2.4c1.3,0,3-0.3,3-1.9c0-3.2-8.2-1-8.2-5.8c0-2.5,2.5-3.6,4.7-3.6
		c2.8,0,4.9,0.9,5.1,3.9h-2.1c-0.1-1.6-1.6-2.1-2.9-2.1c-1.2,0-2.7,0.3-2.7,1.6c0,1.4,2.2,1.7,4.1,2.2c2.1,0.5,4.1,1.2,4.1,3.6
		c0,3-2.8,3.9-5.3,3.9c-2.8,0-5.2-1.1-5.3-4.2L277.6,180.2L277.6,180.2z"/>
	<path fill="#29B5BF" d="M288.9,181.5h2.7v2.7h-2.7V181.5z"/>
	<path fill="#29B5BF" d="M295.6,166.9h2.7v2.7c0,1.9-0.8,3.6-2.7,3.6V172c1.1,0,1.4-1.2,1.4-2.3h-1.4V166.9z"/>
</g>
<line fill="none" stroke="#DADADA" stroke-width="0.25" stroke-linecap="round" stroke-linejoin="round" stroke-dasharray="0,0.807" x1="30" y1="110.2" x2="22.7" y2="110.2"/>
<path fill="none" stroke="#000000" stroke-width="0.25" stroke-linecap="round" stroke-linejoin="round" d="M21.9,110.2L21.9,110.2
	 M31.7,110.2L31.7,110.2"/>
<polygon fill="none" stroke="#878787" stroke-width="0.25" stroke-linecap="round" stroke-linejoin="round" stroke-miterlimit="10" points="
	21.8,77.8 8.5,77.8 8.5,114.4 21.8,110.3 "/>
<line fill="none" stroke="#DADADA" stroke-width="0.25" stroke-linecap="round" stroke-linejoin="round" stroke-dasharray="0,0.801" x1="83.1" y1="77.9" x2="77.5" y2="77.9"/>
<line fill="none" stroke="#DADADA" stroke-width="0.25" stroke-linecap="round" stroke-linejoin="round" stroke-dasharray="0,0.74" x1="90.1" y1="110.2" x2="77.4" y2="110.2"/>
<path fill="none" stroke="#DADADA" stroke-width="0.25" stroke-linecap="round" stroke-linejoin="round" d="M76.7,110.2L76.7,110.2
	 M91.6,110.2L91.6,110.2"/>
<line fill="none" stroke="#DADADA" stroke-width="0.25" stroke-linecap="round" stroke-linejoin="round" stroke-dasharray="0,0.72" x1="31.8" y1="116.1" x2="31.8" y2="119.8"/>
<path fill="none" stroke="#DADADA" stroke-width="0.25" stroke-linecap="round" stroke-linejoin="round" d="M31.8,120.5L31.8,120.5
	 M31.8,114.7L31.8,114.7"/>
<line fill="none" stroke="#DADADA" stroke-width="0.25" stroke-linecap="round" stroke-linejoin="round" stroke-dasharray="0,0.766" x1="53.8" y1="30.5" x2="53.8" y2="57.4"/>
<line fill="none" stroke="#DADADA" stroke-width="0.25" stroke-linecap="round" stroke-linejoin="round" stroke-dasharray="0,0.754" x1="76" y1="37.7" x2="76" y2="76.4"/>
<line fill="none" stroke="#DADADA" stroke-width="0.25" stroke-linecap="round" stroke-linejoin="round" stroke-dasharray="0,0.738" x1="81" y1="114.7" x2="63.9" y2="114.7"/>
<line fill="none" stroke="#DADADA" stroke-width="0.25" stroke-linecap="round" stroke-linejoin="round" stroke-dasharray="0,0.716" x1="18.5" y1="123.6" x2="18.5" y2="115.7"/>
<path fill="none" stroke="#000000" stroke-width="0.25" stroke-linecap="round" stroke-linejoin="round" d="M18.5,115L18.5,115
	 M18.5,125L18.5,125"/>
<polygon fill="none" stroke="#DADADA" stroke-width="0.501" stroke-linecap="round" stroke-linejoin="round" stroke-miterlimit="10" points="
	31.8,77.8 18.4,77.8 18.4,114.4 31.8,110.3 "/>
<polygon fill="none" stroke="#DADADA" stroke-width="0.501" stroke-linecap="round" stroke-linejoin="round" stroke-miterlimit="10" points="
	31.8,77.8 53.8,58.6 40.1,58.6 40.1,58.6 18.4,77.8 "/>
<polygon fill="none" stroke="#DADADA" stroke-width="0.501" stroke-linecap="round" stroke-linejoin="round" stroke-miterlimit="10" points="
	47,64.5 62.6,77.8 75.9,77.8 53.8,58.7 53.8,58.7 40.1,58.6 "/>
<polygon fill="none" stroke="#DADADA" stroke-width="0.501" stroke-linecap="round" stroke-linejoin="round" stroke-miterlimit="10" points="
	31.8,110.3 18.4,114.4 62.5,114.4 75.9,110.3 "/>
<polygon fill="none" stroke="#DADADA" stroke-width="0.501" stroke-linecap="round" stroke-linejoin="round" stroke-miterlimit="10" points="
	75.9,110.3 75.9,77.8 62.6,77.8 62.6,110.3 62.5,114.4 "/>
<line fill="none" stroke="#DADADA" stroke-width="0.25" stroke-linecap="round" stroke-linejoin="round" stroke-dasharray="0,0.771" x1="16.3" y1="114.7" x2="9.3" y2="114.7"/>
<line fill="none" stroke="#DADADA" stroke-width="0.25" stroke-linecap="round" stroke-linejoin="round" stroke-dasharray="0,0.754" x1="62.7" y1="37.7" x2="62.7" y2="76.4"/>
<polygon fill="#1EB5BF" points="96.5,110.4 96.5,77.9 83.2,77.9 83.2,110.4 83.2,114.5 "/>
<polygon fill="none" stroke="#878787" stroke-width="0.25" stroke-linecap="round" stroke-linejoin="round" stroke-miterlimit="10" points="
	47,22.2 62.6,35.5 75.9,35.5 53.8,16.3 53.8,16.2 40.1,16.2 "/>
<line fill="none" stroke="#DADADA" stroke-width="0.25" stroke-linecap="round" stroke-linejoin="round" stroke-dasharray="0,0.756" x1="18.2" y1="57.5" x2="18.2" y2="76.6"/>
<polygon fill="none" stroke="#878787" stroke-width="0.25" stroke-linecap="round" stroke-linejoin="round" stroke-miterlimit="10" points="
	76.1,121.2 62.7,125.3 18.4,125.3 31.8,121.2 "/>
<line fill="none" stroke="#DADADA" stroke-width="0.25" stroke-linecap="round" stroke-linejoin="round" stroke-dasharray="0,0.775" x1="31.5" y1="57" x2="31.5" y2="76.5"/>
<polygon fill="none" stroke="#878787" stroke-width="0.25" stroke-linecap="round" stroke-linejoin="round" stroke-miterlimit="10" points="
	53.6,36.1 31.6,55.3 18.2,55.3 39.9,36.1 "/>
<line fill="none" stroke="#DADADA" stroke-width="0.25" stroke-linecap="round" stroke-linejoin="round" stroke-dasharray="0,0.75" x1="40.1" y1="19" x2="40.1" y2="57.4"/>
<line fill="none" stroke="#DADADA" stroke-width="0.25" stroke-linecap="round" stroke-linejoin="round" stroke-dasharray="0,0.771" x1="76.1" y1="118.9" x2="76.1" y2="112"/>
<path fill="none" stroke="#DADADA" stroke-width="0.25" stroke-linecap="round" stroke-linejoin="round" d="M76.1,111.2L76.1,111.2
	 M76.1,120.5L76.1,120.5"/>
<line fill="none" stroke="#DADADA" stroke-width="0.25" stroke-linecap="round" stroke-linejoin="round" stroke-dasharray="0,0.755" x1="62.7" y1="116" x2="62.7" y2="124.3"/>
<path fill="none" stroke="#DADADA" stroke-width="0.25" stroke-linecap="round" stroke-linejoin="round" d="M62.7,125.1L62.7,125.1
	 M62.7,114.5L62.7,114.5"/>
<text transform="matrix(1 0 0 1 373.8984 33.2056)" fill="#A2D6D9" font-family="'HelveticaNeueLTPro-Roman'" font-size="24.1515px"> </text>
</svg>
