<?xml version="1.0" encoding="utf-8"?>
<!-- Generator: Adobe Illustrator 20.1.0, SVG Export Plug-In . SVG Version: 6.00 Build 0)  -->
<svg version="1.1" id="Layer_1" xmlns="http://www.w3.org/2000/svg" xmlns:xlink="http://www.w3.org/1999/xlink" x="0px" y="0px"
	 viewBox="0 0 400 234" style="enable-background:new 0 0 400 234;" xml:space="preserve">
<style type="text/css">
	.st0{fill:#E30613;}
	.st1{fill:none;stroke:#DADADA;stroke-width:0.25;stroke-linecap:round;stroke-linejoin:round;stroke-dasharray:0,0.807;}
	.st2{fill:none;stroke:#000000;stroke-width:0.25;stroke-linecap:round;stroke-linejoin:round;}
	.st3{fill:none;stroke:#878787;stroke-width:0.25;stroke-linecap:round;stroke-linejoin:round;stroke-miterlimit:10;}
	.st4{fill:none;stroke:#DADADA;stroke-width:0.25;stroke-linecap:round;stroke-linejoin:round;stroke-dasharray:0,0.801;}
	.st5{fill:none;stroke:#DADADA;stroke-width:0.25;stroke-linecap:round;stroke-linejoin:round;stroke-dasharray:0,0.74;}
	.st6{fill:none;stroke:#DADADA;stroke-width:0.25;stroke-linecap:round;stroke-linejoin:round;}
	.st7{fill:none;stroke:#DADADA;stroke-width:0.25;stroke-linecap:round;stroke-linejoin:round;stroke-dasharray:0,0.72;}
	.st8{fill:none;stroke:#DADADA;stroke-width:0.25;stroke-linecap:round;stroke-linejoin:round;stroke-dasharray:0,0.766;}
	.st9{fill:none;stroke:#DADADA;stroke-width:0.25;stroke-linecap:round;stroke-linejoin:round;stroke-dasharray:0,0.754;}
	.st10{fill:none;stroke:#DADADA;stroke-width:0.25;stroke-linecap:round;stroke-linejoin:round;stroke-dasharray:0,0.738;}
	.st11{fill:none;stroke:#DADADA;stroke-width:0.25;stroke-linecap:round;stroke-linejoin:round;stroke-dasharray:0,0.716;}
	.st12{fill:none;stroke:#DADADA;stroke-width:0.501;stroke-linecap:round;stroke-linejoin:round;stroke-miterlimit:10;}
	.st13{fill:none;stroke:#DADADA;stroke-width:0.25;stroke-linecap:round;stroke-linejoin:round;stroke-dasharray:0,0.771;}
	.st14{fill:none;stroke:#DADADA;stroke-width:0.25;stroke-linecap:round;stroke-linejoin:round;stroke-dasharray:0,0.756;}
	.st15{fill:none;stroke:#DADADA;stroke-width:0.25;stroke-linecap:round;stroke-linejoin:round;stroke-dasharray:0,0.775;}
	.st16{fill:#E30B17;stroke:#E30B17;stroke-width:0.25;stroke-linecap:round;stroke-linejoin:round;stroke-miterlimit:10;}
	.st17{fill:none;stroke:#DADADA;stroke-width:0.25;stroke-linecap:round;stroke-linejoin:round;stroke-dasharray:0,0.75;}
	.st18{fill:none;stroke:#DADADA;stroke-width:0.25;stroke-linecap:round;stroke-linejoin:round;stroke-dasharray:0,0.755;}
</style>
<g>
	<path class="st0" d="M116.9,23.6h-2.6V21c0-1.8,0.8-3.4,2.6-3.4v1.2c-1,0-1.4,1.2-1.4,2.3h1.4V23.6z"/>
	<path class="st0" d="M125.1,17.6h2.4l6.5,16.6h-2.4l-1.8-5h-7l-1.9,5h-2.3L125.1,17.6z M123.5,27.3h5.6l-2.8-7.8l0,0L123.5,27.3z"
		/>
	<path class="st0" d="M136.6,30.4c0.1,1.8,1.6,2.3,3.2,2.3c1.2,0,2.9-0.3,2.9-1.8c0-3.1-7.9-1-7.9-5.6c0-2.4,2.4-3.4,4.5-3.4
		c2.7,0,4.8,0.8,4.9,3.8h-2c-0.1-1.5-1.5-2-2.8-2c-1.2,0-2.6,0.3-2.6,1.5c0,1.4,2.1,1.7,3.9,2.1c2,0.4,3.9,1.1,3.9,3.4
		c0,2.9-2.7,3.8-5.1,3.8c-2.7,0-5-1.1-5.1-4.1H136.6z"/>
	<path class="st0" d="M149.1,20h-2v-2.4h2V20z M147.1,22.2h2v12h-2V22.2z"/>
	<path class="st0" d="M162.9,34.2h-2v-1.6l0,0c-0.7,1.3-2.2,1.9-3.8,1.9c-3.7,0-5.5-2.9-5.5-6.3s1.8-6.3,5.5-6.3
		c1.2,0,3,0.5,3.9,1.9l0,0v-6.2h2L162.9,34.2L162.9,34.2z M157.4,32.7c2.7,0,3.7-2.3,3.7-4.5c0-2.4-1.1-4.6-3.8-4.6
		s-3.6,2.3-3.6,4.7C153.6,30.6,154.8,32.7,157.4,32.7z"/>
	<path class="st0" d="M176.3,30.4c-0.5,2.7-2.4,4.1-5.1,4.1c-3.8,0-5.7-2.7-5.8-6.3c0-3.6,2.4-6.3,5.7-6.3c4.3,0,5.6,4,5.4,6.9h-9
		c-0.1,2.1,1.1,4,3.7,4c1.7,0,2.8-0.8,3.1-2.4C174.3,30.4,176.3,30.4,176.3,30.4z M174.4,27c-0.1-1.9-1.5-3.4-3.5-3.4
		s-3.3,1.5-3.4,3.4H174.4z"/>
	<path class="st0" d="M185.8,23.9h-2v-1.7h2v-1.8c0-2,1.2-3,3.3-3c0.4,0,0.9,0.1,1.3,0.2v1.7c-0.3-0.1-0.8-0.2-1.1-0.2
		c-1,0-1.5,0.3-1.5,1.4v1.7h2.3v1.7h-2.3v10.3h-2V23.9z"/>
	<path class="st0" d="M191.8,22.2h1.9v2.5l0,0c1-2,2.3-2.9,4.4-2.8V24c-3.2,0-4.4,1.8-4.4,4.9v5.4h-2V22.2H191.8z"/>
	<path class="st0" d="M204.4,21.9c3.8,0,5.8,2.8,5.8,6.3s-2,6.3-5.8,6.3s-5.8-2.8-5.8-6.3C198.5,24.7,200.6,21.9,204.4,21.9z
		 M204.4,32.7c2.1,0,3.7-1.6,3.7-4.5s-1.7-4.6-3.7-4.6s-3.7,1.7-3.7,4.6S202.3,32.7,204.4,32.7z"/>
	<path class="st0" d="M212.6,22.2h1.9V24l0,0c0.9-1.4,2.2-2,3.9-2c1.5,0,2.8,0.6,3.3,2c0.8-1.3,2.2-2,3.8-2c2.4,0,4,1,4,3.5v8.8h-2
		v-7.9c0-1.5-0.4-2.7-2.3-2.7s-3.1,1.2-3.1,3.1v7.5h-2v-7.9c0-1.6-0.5-2.7-2.3-2.7c-2.3,0-3.2,2.1-3.2,3.1v7.5h-2L212.6,22.2
		L212.6,22.2z"/>
	<path class="st0" d="M249.6,34.2c-0.3,0.2-0.8,0.3-1.4,0.3c-1,0-1.7-0.6-1.7-1.9c-1.1,1.3-2.6,1.9-4.2,1.9c-2.2,0-4-1-4-3.4
		c0-2.7,2-3.3,4.1-3.7c2.2-0.4,4.1-0.3,4.1-1.8c0-1.7-1.4-2-2.7-2c-1.7,0-2.9,0.5-3,2.3h-2c0.1-3,2.4-4,5.1-4c2.2,0,4.5,0.5,4.5,3.3
		v6.2c0,0.9,0,1.4,0.6,1.4c0.2,0,0.4,0,0.6-0.1L249.6,34.2L249.6,34.2z M246.4,28c-1.5,1.1-6,0-6,3c0,1.3,1.1,1.8,2.3,1.8
		c2.6,0,3.7-1.6,3.7-2.7V28z"/>
	<path class="st0" d="M257.9,17.6h2V24l0,0c0.6-1.5,2.4-2,3.8-2c3.2,0,4.1,1.8,4.1,4.4v7.9h-2v-8.1c0-1.5-0.9-2.4-2.4-2.4
		c-2.4,0-3.6,1.6-3.6,3.8v6.8h-2V17.6H257.9z"/>
	<path class="st0" d="M276,21.9c3.8,0,5.8,2.8,5.8,6.3s-2,6.3-5.8,6.3s-5.8-2.8-5.8-6.3S272.2,21.9,276,21.9z M276,32.7
		c2.1,0,3.7-1.6,3.7-4.5s-1.7-4.6-3.7-4.6s-3.7,1.7-3.7,4.6S273.9,32.7,276,32.7z"/>
	<path class="st0" d="M284.2,22.2h1.9V24l0,0c0.9-1.4,2.2-2,3.9-2c1.5,0,2.8,0.6,3.3,2c0.8-1.3,2.2-2,3.8-2c2.4,0,4,1,4,3.5v8.8h-2
		v-7.9c0-1.5-0.4-2.7-2.3-2.7s-3.1,1.2-3.1,3.1v7.5h-2v-7.9c0-1.6-0.5-2.7-2.3-2.7c-2.3,0-3.2,2.1-3.2,3.1v7.5h-2L284.2,22.2
		L284.2,22.2z"/>
	<path class="st0" d="M314.3,30.4c-0.5,2.7-2.4,4.1-5.1,4.1c-3.8,0-5.7-2.7-5.8-6.3c0-3.6,2.4-6.3,5.7-6.3c4.3,0,5.6,4,5.4,6.9h-9
		c-0.1,2.1,1.1,4,3.7,4c1.7,0,2.8-0.8,3.1-2.4C312.3,30.4,314.3,30.4,314.3,30.4z M312.4,27c-0.1-1.9-1.5-3.4-3.5-3.4
		s-3.3,1.5-3.4,3.4H312.4z"/>
	<path class="st0" d="M328.2,21.9c3.8,0,5.8,2.8,5.8,6.3s-2,6.3-5.8,6.3s-5.8-2.8-5.8-6.3C322.4,24.7,324.4,21.9,328.2,21.9z
		 M328.2,32.7c2.1,0,3.7-1.6,3.7-4.5s-1.7-4.6-3.7-4.6s-3.7,1.7-3.7,4.6S326.1,32.7,328.2,32.7z"/>
	<path class="st0" d="M341.8,34.2h-2.1l-4.5-12h2.2l3.4,10l0,0l3.3-10h2.1L341.8,34.2z"/>
	<path class="st0" d="M358.3,30.4c-0.5,2.7-2.4,4.1-5.1,4.1c-3.8,0-5.7-2.7-5.8-6.3c0-3.6,2.4-6.3,5.7-6.3c4.3,0,5.6,4,5.4,6.9h-9
		c-0.1,2.1,1.1,4,3.7,4c1.7,0,2.8-0.8,3.1-2.4C356.3,30.4,358.3,30.4,358.3,30.4z M356.4,27c-0.1-1.9-1.5-3.4-3.5-3.4
		s-3.3,1.5-3.4,3.4H356.4z"/>
	<path class="st0" d="M360.5,22.2h1.9v2.5l0,0c1-2,2.3-2.9,4.4-2.8V24c-3.2,0-4.4,1.8-4.4,4.9v5.4h-2V22.2H360.5z"/>
</g>
<g>
	<path class="st0" d="M123.7,51.3h2.4V53h-2.4v7.5c0,0.9,0.3,1.1,1.5,1.1h0.9v1.7h-1.5c-2,0-2.9-0.4-2.9-2.6V53h-2v-1.7h2v-3.6h2
		V51.3z"/>
	<path class="st0" d="M128.3,46.7h2V53l0,0c0.6-1.5,2.4-2,3.8-2c3.2,0,4.1,1.8,4.1,4.4v7.9h-2v-8.1c0-1.5-0.9-2.4-2.4-2.4
		c-2.4,0-3.6,1.6-3.6,3.8v6.8h-2L128.3,46.7L128.3,46.7z"/>
	<path class="st0" d="M151.5,59.5c-0.5,2.7-2.4,4.1-5.1,4.1c-3.8,0-5.7-2.7-5.8-6.3c0-3.6,2.4-6.3,5.7-6.3c4.3,0,5.6,4,5.4,6.9h-9
		c-0.1,2.1,1.1,4,3.7,4c1.7,0,2.8-0.8,3.1-2.4H151.5z M149.6,56.1c-0.1-1.9-1.5-3.4-3.5-3.4s-3.3,1.5-3.4,3.4H149.6z"/>
	<path class="st0" d="M155.8,49.1h-2v-2.4h2V49.1z M153.9,51.3h2v12h-2V51.3z"/>
	<path class="st0" d="M158.9,51.3h1.9v2.5l0,0c1-2,2.3-2.9,4.4-2.8v2.1c-3.2,0-4.4,1.8-4.4,4.9v5.4h-2V51.3H158.9z"/>
	<path class="st0" d="M173.1,46.7h2V53l0,0c0.6-1.5,2.4-2,3.8-2c3.2,0,4.1,1.8,4.1,4.4v7.9h-2v-8.1c0-1.5-0.9-2.4-2.4-2.4
		c-2.4,0-3.6,1.6-3.6,3.8v6.8h-2L173.1,46.7L173.1,46.7z"/>
	<path class="st0" d="M196.4,59.5c-0.5,2.7-2.4,4.1-5.1,4.1c-3.8,0-5.7-2.7-5.8-6.3c0-3.6,2.4-6.3,5.7-6.3c4.3,0,5.6,4,5.4,6.9h-9
		c-0.1,2.1,1.1,4,3.7,4c1.7,0,2.8-0.8,3.1-2.4H196.4z M194.5,56.1c-0.1-1.9-1.5-3.4-3.5-3.4s-3.3,1.5-3.4,3.4H194.5z"/>
	<path class="st0" d="M209.3,63.3c-0.3,0.2-0.8,0.3-1.4,0.3c-1,0-1.7-0.6-1.7-1.9c-1.1,1.3-2.6,1.9-4.2,1.9c-2.2,0-4-1-4-3.4
		c0-2.7,2-3.3,4.1-3.7c2.2-0.4,4.1-0.3,4.1-1.8c0-1.7-1.4-2-2.7-2c-1.7,0-2.9,0.5-3,2.3h-2c0.1-3,2.4-4,5.1-4c2.2,0,4.5,0.5,4.5,3.3
		v6.2c0,0.9,0,1.4,0.6,1.4c0.2,0,0.4,0,0.6-0.1L209.3,63.3L209.3,63.3z M206,57.1c-1.5,1.1-6,0-6,3c0,1.3,1.1,1.8,2.3,1.8
		c2.6,0,3.7-1.6,3.7-2.7V57.1z"/>
	<path class="st0" d="M221.9,63.3h-2v-1.6l0,0c-0.7,1.3-2.2,1.9-3.8,1.9c-3.7,0-5.5-2.9-5.5-6.3c0-3.4,1.8-6.3,5.5-6.3
		c1.2,0,3,0.5,3.9,1.9l0,0v-6.2h2L221.9,63.3L221.9,63.3z M216.3,61.8c2.7,0,3.7-2.3,3.7-4.5c0-2.4-1.1-4.6-3.8-4.6
		s-3.6,2.3-3.6,4.7C212.5,59.7,213.7,61.8,216.3,61.8z"/>
	<path class="st0" d="M225.3,60.7h2.6v2.4c0,1.8-0.8,3.1-2.6,3.7v-1.2c1-0.4,1.4-1.5,1.4-2.3h-1.4V60.7z"/>
	<path class="st0" d="M248.1,59.5c-0.5,2.7-2.4,4.1-5.1,4.1c-3.8,0-5.7-2.7-5.8-6.3c0-3.6,2.4-6.3,5.7-6.3c4.3,0,5.6,4,5.4,6.9h-9
		c-0.1,2.1,1.1,4,3.7,4c1.7,0,2.8-0.8,3.1-2.4H248.1z M246.2,56.1c-0.1-1.9-1.5-3.4-3.5-3.4s-3.3,1.5-3.4,3.4H246.2z"/>
	<path class="st0" d="M261,63.3c-0.3,0.2-0.8,0.3-1.4,0.3c-1,0-1.7-0.6-1.7-1.9c-1.1,1.3-2.6,1.9-4.2,1.9c-2.2,0-4-1-4-3.4
		c0-2.7,2-3.3,4.1-3.7c2.2-0.4,4.1-0.3,4.1-1.8c0-1.7-1.4-2-2.7-2c-1.7,0-2.9,0.5-3,2.3h-2c0.1-3,2.4-4,5.1-4c2.2,0,4.5,0.5,4.5,3.3
		v6.2c0,0.9,0,1.4,0.6,1.4c0.2,0,0.4,0,0.6-0.1V63.3z M257.8,57.1c-1.5,1.1-6,0-6,3c0,1.3,1.1,1.8,2.3,1.8c2.6,0,3.7-1.6,3.7-2.7
		V57.1z"/>
	<path class="st0" d="M271,55.1c-0.3-1.5-1.3-2.4-3-2.4c-2.9,0-3.7,2.3-3.7,4.7c0,2.2,1,4.4,3.5,4.4c1.9,0,3-1.1,3.3-2.9h2
		c-0.4,3-2.3,4.7-5.3,4.7c-3.7,0-5.6-2.5-5.6-6.1s1.9-6.5,5.7-6.5c2.7,0,4.9,1.3,5.2,4.1H271z"/>
	<path class="st0" d="M275.4,46.7h2V53l0,0c0.6-1.5,2.4-2,3.8-2c3.2,0,4.1,1.8,4.1,4.4v7.9h-2v-8.1c0-1.5-0.9-2.4-2.4-2.4
		c-2.4,0-3.6,1.6-3.6,3.8v6.8h-2V46.7H275.4z"/>
	<path class="st0" d="M294.9,51.3h2v1.6l0,0c0.7-1.3,2.2-1.9,3.8-1.9c3.7,0,5.5,2.9,5.5,6.3c0,3.4-1.8,6.3-5.5,6.3
		c-1.2,0-3-0.5-3.9-1.9l0,0v6.2h-2V51.3H294.9z M300.4,52.7c-2.7,0-3.7,2.3-3.7,4.5c0,2.4,1.1,4.6,3.8,4.6c2.7,0,3.6-2.3,3.6-4.7
		C304.2,54.9,303,52.7,300.4,52.7z"/>
	<path class="st0" d="M318.9,59.5c-0.5,2.7-2.4,4.1-5.1,4.1c-3.8,0-5.7-2.7-5.8-6.3c0-3.6,2.4-6.3,5.7-6.3c4.3,0,5.6,4,5.4,6.9h-9
		c-0.1,2.1,1.1,4,3.7,4c1.7,0,2.8-0.8,3.1-2.4H318.9z M316.9,56.1c-0.1-1.9-1.5-3.4-3.5-3.4s-3.3,1.5-3.4,3.4H316.9z"/>
	<path class="st0" d="M321,51.3h1.9v2.5l0,0c1-2,2.3-2.9,4.4-2.8v2.1c-3.2,0-4.4,1.8-4.4,4.9v5.4h-2V51.3H321z"/>
	<path class="st0" d="M330.1,59.5c0.1,1.8,1.6,2.3,3.2,2.3c1.2,0,2.9-0.3,2.9-1.8c0-3.1-7.9-1-7.9-5.6c0-2.4,2.4-3.4,4.5-3.4
		c2.7,0,4.8,0.8,4.9,3.8h-2c-0.1-1.5-1.5-2-2.8-2c-1.2,0-2.6,0.3-2.6,1.5c0,1.4,2.1,1.7,3.9,2.1c2,0.4,3.9,1.1,3.9,3.4
		c0,2.9-2.7,3.8-5.1,3.8c-2.7,0-5-1.1-5.1-4.1H330.1z"/>
	<path class="st0" d="M345.7,51c3.8,0,5.8,2.8,5.8,6.3s-2,6.3-5.8,6.3s-5.8-2.8-5.8-6.3C339.8,53.8,341.9,51,345.7,51z M345.7,61.8
		c2.1,0,3.7-1.6,3.7-4.5s-1.7-4.6-3.7-4.6s-3.7,1.7-3.7,4.6S343.6,61.8,345.7,61.8z"/>
	<path class="st0" d="M353.9,51.3h1.9v1.9l0,0c0.8-1.5,2.2-2.2,3.9-2.2c3.2,0,4.1,1.8,4.1,4.4v7.9h-2v-8.1c0-1.5-0.9-2.4-2.4-2.4
		c-2.4,0-3.6,1.6-3.6,3.8v6.8h-2V51.3H353.9z"/>
</g>
<g>
	<path class="st0" d="M122.2,88.6c0.1,1.8,1.6,2.3,3.2,2.3c1.2,0,2.9-0.3,2.9-1.8c0-3.1-7.9-1-7.9-5.6c0-2.4,2.4-3.4,4.5-3.4
		c2.7,0,4.8,0.8,4.9,3.8h-2c-0.1-1.5-1.5-2-2.8-2c-1.2,0-2.6,0.3-2.6,1.5c0,1.4,2.1,1.7,3.9,2.1c2,0.4,3.9,1.1,3.9,3.4
		c0,2.9-2.7,3.8-5.1,3.8c-2.7,0-5-1.1-5.1-4.1C120,88.6,122.2,88.6,122.2,88.6z"/>
	<path class="st0" d="M132.6,75.8h2v6.4l0,0c0.6-1.5,2.4-2,3.8-2c3.2,0,4.1,1.8,4.1,4.4v7.9h-2v-8.1c0-1.5-0.9-2.4-2.4-2.4
		c-2.4,0-3.6,1.6-3.6,3.8v6.8h-2L132.6,75.8L132.6,75.8z"/>
	<path class="st0" d="M150.7,80.1c3.8,0,5.8,2.8,5.8,6.3s-2,6.3-5.8,6.3s-5.8-2.8-5.8-6.3S146.9,80.1,150.7,80.1z M150.7,90.9
		c2.1,0,3.7-1.6,3.7-4.5s-1.7-4.6-3.7-4.6c-2.1,0-3.7,1.7-3.7,4.6S148.7,90.9,150.7,90.9z"/>
	<path class="st0" d="M168.9,92.4H167v-1.9l0,0c-0.8,1.5-2.2,2.2-3.9,2.2c-3.2,0-4.1-1.8-4.1-4.4v-7.9h2v8.1c0,1.5,0.9,2.4,2.4,2.4
		c2.4,0,3.6-1.6,3.6-3.8v-6.8h2v12.1L168.9,92.4L168.9,92.4z"/>
	<path class="st0" d="M172,75.8h2v16.6h-2V75.8z"/>
	<path class="st0" d="M187.8,92.4h-2v-1.6l0,0c-0.7,1.3-2.2,1.9-3.8,1.9c-3.7,0-5.5-2.9-5.5-6.3s1.8-6.3,5.5-6.3
		c1.2,0,3,0.5,3.9,1.9l0,0v-6.2h2L187.8,92.4L187.8,92.4z M182.2,90.9c2.7,0,3.7-2.3,3.7-4.5c0-2.4-1.1-4.6-3.8-4.6
		s-3.6,2.3-3.6,4.7C178.5,88.8,179.6,90.9,182.2,90.9z"/>
	<path class="st0" d="M197.4,75.8h2V82l0,0c0.7-1.3,2.2-1.9,3.8-1.9c3.7,0,5.5,2.9,5.5,6.3s-1.8,6.3-5.5,6.3c-1.2,0-3-0.5-3.9-1.9
		l0,0v1.6h-2L197.4,75.8L197.4,75.8z M203,81.8c-2.7,0-3.7,2.3-3.7,4.5c0,2.4,1.1,4.6,3.8,4.6s3.6-2.3,3.6-4.7
		C206.7,84,205.5,81.8,203,81.8z"/>
	<path class="st0" d="M221.4,88.6c-0.5,2.7-2.4,4.1-5.1,4.1c-3.8,0-5.7-2.7-5.8-6.3c0-3.6,2.4-6.3,5.7-6.3c4.3,0,5.6,4,5.4,6.9h-9
		c-0.1,2.1,1.1,4,3.7,4c1.7,0,2.8-0.8,3.1-2.4C219.4,88.6,221.4,88.6,221.4,88.6z M219.5,85.2c-0.1-1.9-1.5-3.4-3.5-3.4
		s-3.3,1.5-3.4,3.4H219.5z"/>
	<path class="st0" d="M232.2,78.2h-2v-2.4h2V78.2z M230.2,80.4h2v12h-2V80.4z"/>
	<path class="st0" d="M235.3,80.4h1.9v1.9l0,0c0.8-1.5,2.2-2.2,3.9-2.2c3.2,0,4.1,1.8,4.1,4.4v7.9h-2v-8.1c0-1.5-0.9-2.4-2.4-2.4
		c-2.4,0-3.6,1.6-3.6,3.8v6.8h-2V80.4H235.3z"/>
	<path class="st0" d="M265.4,92.4c-0.3,0.2-0.8,0.3-1.4,0.3c-1,0-1.7-0.6-1.7-1.9c-1.1,1.3-2.6,1.9-4.2,1.9c-2.2,0-4-1-4-3.4
		c0-2.7,2-3.3,4.1-3.7c2.2-0.4,4.1-0.3,4.1-1.8c0-1.7-1.4-2-2.7-2c-1.7,0-2.9,0.5-3,2.3h-2c0.1-3,2.4-4,5.1-4c2.2,0,4.5,0.5,4.5,3.3
		v6.2c0,0.9,0,1.4,0.6,1.4c0.2,0,0.4,0,0.6-0.1V92.4z M262.1,86.2c-1.5,1.1-6,0-6,3c0,1.3,1.1,1.8,2.3,1.8c2.6,0,3.7-1.6,3.7-2.7
		V86.2z"/>
	<path class="st0" d="M273.7,80.4h2V82l0,0c0.7-1.3,2.2-1.9,3.8-1.9c3.7,0,5.5,2.9,5.5,6.3s-1.8,6.3-5.5,6.3c-1.2,0-3-0.5-3.9-1.9
		l0,0V97h-2V80.4H273.7z M279.3,81.8c-2.7,0-3.7,2.3-3.7,4.5c0,2.4,1.1,4.6,3.8,4.6c2.7,0,3.6-2.3,3.6-4.7
		C283,84,281.9,81.8,279.3,81.8z"/>
	<path class="st0" d="M292.7,80.1c3.8,0,5.8,2.8,5.8,6.3s-2,6.3-5.8,6.3s-5.8-2.8-5.8-6.3C286.8,82.9,288.8,80.1,292.7,80.1z
		 M292.7,90.9c2.1,0,3.7-1.6,3.7-4.5s-1.7-4.6-3.7-4.6s-3.7,1.7-3.7,4.6S290.6,90.9,292.7,90.9z"/>
	<path class="st0" d="M302,88.6c0.1,1.8,1.6,2.3,3.2,2.3c1.2,0,2.9-0.3,2.9-1.8c0-3.1-7.9-1-7.9-5.6c0-2.4,2.4-3.4,4.5-3.4
		c2.7,0,4.8,0.8,4.9,3.8h-2c-0.1-1.5-1.5-2-2.8-2c-1.2,0-2.6,0.3-2.6,1.5c0,1.4,2.1,1.7,3.9,2.1c2,0.4,3.9,1.1,3.9,3.4
		c0,2.9-2.7,3.8-5.1,3.8c-2.7,0-5-1.1-5.1-4.1C299.8,88.6,302,88.6,302,88.6z"/>
	<path class="st0" d="M314.6,78.2h-2v-2.4h2V78.2z M312.6,80.4h2v12h-2V80.4z"/>
	<path class="st0" d="M320.4,80.4h2.4v1.7h-2.4v7.5c0,0.9,0.3,1.1,1.5,1.1h0.9v1.7h-1.5c-2,0-2.9-0.4-2.9-2.6v-7.7h-2v-1.7h2v-3.6h2
		V80.4z"/>
	<path class="st0" d="M327.1,78.2h-2v-2.4h2V78.2z M325.1,80.4h2v12h-2V80.4z"/>
	<path class="st0" d="M335.3,80.1c3.8,0,5.8,2.8,5.8,6.3s-2,6.3-5.8,6.3s-5.8-2.8-5.8-6.3S331.5,80.1,335.3,80.1z M335.3,90.9
		c2.1,0,3.7-1.6,3.7-4.5s-1.7-4.6-3.7-4.6s-3.7,1.7-3.7,4.6S333.3,90.9,335.3,90.9z"/>
	<path class="st0" d="M343.5,80.4h1.9v1.9l0,0c0.8-1.5,2.2-2.2,3.9-2.2c3.2,0,4.1,1.8,4.1,4.4v7.9h-2v-8.1c0-1.5-0.9-2.4-2.4-2.4
		c-2.4,0-3.6,1.6-3.6,3.8v6.8h-2V80.4H343.5z"/>
	<path class="st0" d="M365.7,80.4h2.4v1.7h-2.4v7.5c0,0.9,0.3,1.1,1.5,1.1h0.9v1.7h-1.5c-2,0-2.9-0.4-2.9-2.6v-7.7h-2v-1.7h2v-3.6h2
		V80.4z"/>
	<path class="st0" d="M375.5,80.1c3.8,0,5.8,2.8,5.8,6.3s-2,6.3-5.8,6.3s-5.8-2.8-5.8-6.3C369.6,82.9,371.6,80.1,375.5,80.1z
		 M375.5,90.9c2.1,0,3.7-1.6,3.7-4.5s-1.7-4.6-3.7-4.6s-3.7,1.7-3.7,4.6S373.4,90.9,375.5,90.9z"/>
</g>
<g>
	<path class="st0" d="M131.6,121.5c-0.3,0.2-0.8,0.3-1.4,0.3c-1,0-1.7-0.6-1.7-1.9c-1.1,1.3-2.6,1.9-4.2,1.9c-2.2,0-4-1-4-3.4
		c0-2.7,2-3.3,4.1-3.7c2.2-0.4,4.1-0.3,4.1-1.8c0-1.7-1.4-2-2.7-2c-1.7,0-2.9,0.5-3,2.3h-2c0.1-3,2.4-4,5.1-4c2.2,0,4.5,0.5,4.5,3.3
		v6.2c0,0.9,0,1.4,0.6,1.4c0.2,0,0.4,0,0.6-0.1L131.6,121.5L131.6,121.5z M128.4,115.3c-1.5,1.1-6,0-6,3c0,1.3,1.1,1.8,2.3,1.8
		c2.6,0,3.7-1.6,3.7-2.7V115.3z"/>
	<path class="st0" d="M134.3,111.2h-2v-1.7h2v-1.8c0-2,1.2-3,3.3-3c0.4,0,0.9,0.1,1.3,0.2v1.7c-0.3-0.1-0.8-0.2-1.1-0.2
		c-1,0-1.5,0.3-1.5,1.4v1.7h2.3v1.7h-2.3v10.3h-2V111.2z"/>
	<path class="st0" d="M140.8,111.2h-2v-1.7h2v-1.8c0-2,1.2-3,3.3-3c0.4,0,0.9,0.1,1.3,0.2v1.7c-0.3-0.1-0.8-0.2-1.1-0.2
		c-1,0-1.5,0.3-1.5,1.4v1.7h2.3v1.7h-2.3v10.3h-2V111.2z"/>
	<path class="st0" d="M152.1,109.2c3.8,0,5.8,2.8,5.8,6.3s-2,6.3-5.8,6.3s-5.8-2.8-5.8-6.3C146.2,112,148.2,109.2,152.1,109.2z
		 M152.1,120.1c2.1,0,3.7-1.6,3.7-4.5s-1.7-4.6-3.7-4.6s-3.7,1.7-3.7,4.6S150,120.1,152.1,120.1z"/>
	<path class="st0" d="M160.2,109.5h1.9v2.5l0,0c1-2,2.3-2.9,4.4-2.8v2.1c-3.2,0-4.4,1.8-4.4,4.9v5.4h-2v-12.1H160.2z"/>
	<path class="st0" d="M178.3,121.5h-2v-1.6l0,0c-0.7,1.3-2.2,1.9-3.8,1.9c-3.7,0-5.5-2.9-5.5-6.3s1.8-6.3,5.5-6.3
		c1.2,0,3,0.5,3.9,1.9l0,0v-6.2h2L178.3,121.5L178.3,121.5z M172.8,120.1c2.7,0,3.7-2.3,3.7-4.5c0-2.4-1.1-4.6-3.8-4.6
		s-3.6,2.3-3.6,4.7C169,117.9,170.2,120.1,172.8,120.1z"/>
	<path class="st0" d="M187.9,109.5h1.9v1.8l0,0c0.9-1.4,2.2-2,3.9-2c1.5,0,2.8,0.6,3.3,2c0.8-1.3,2.2-2,3.8-2c2.4,0,4,1,4,3.5v8.8
		h-2v-7.9c0-1.5-0.4-2.7-2.3-2.7s-3.1,1.2-3.1,3.1v7.5h-2v-7.9c0-1.6-0.5-2.7-2.3-2.7c-2.3,0-3.2,2.1-3.2,3.1v7.5h-2L187.9,109.5
		L187.9,109.5z"/>
	<path class="st0" d="M212.9,109.2c3.8,0,5.8,2.8,5.8,6.3s-2,6.3-5.8,6.3s-5.8-2.8-5.8-6.3C207.1,112,209.1,109.2,212.9,109.2z
		 M212.9,120.1c2.1,0,3.7-1.6,3.7-4.5s-1.7-4.6-3.7-4.6s-3.7,1.7-3.7,4.6S210.8,120.1,212.9,120.1z"/>
	<path class="st0" d="M231.8,121.5h-2v-1.6l0,0c-0.7,1.3-2.2,1.9-3.8,1.9c-3.7,0-5.5-2.9-5.5-6.3s1.8-6.3,5.5-6.3
		c1.2,0,3,0.5,3.9,1.9l0,0v-6.2h2L231.8,121.5L231.8,121.5z M226.3,120.1c2.7,0,3.7-2.3,3.7-4.5c0-2.4-1.1-4.6-3.8-4.6
		s-3.6,2.3-3.6,4.7C222.5,117.9,223.7,120.1,226.3,120.1z"/>
	<path class="st0" d="M245.2,117.7c-0.5,2.7-2.4,4.1-5.1,4.1c-3.8,0-5.7-2.7-5.8-6.3c0-3.6,2.4-6.3,5.7-6.3c4.3,0,5.6,4,5.4,6.9h-9
		c-0.1,2.1,1.1,4,3.7,4c1.7,0,2.8-0.8,3.1-2.4C243.2,117.7,245.2,117.7,245.2,117.7z M243.3,114.3c-0.1-1.9-1.5-3.4-3.5-3.4
		s-3.3,1.5-3.4,3.4H243.3z"/>
	<path class="st0" d="M248.6,117.7c0.1,1.8,1.6,2.3,3.2,2.3c1.2,0,2.9-0.3,2.9-1.8c0-3.1-7.9-1-7.9-5.6c0-2.4,2.4-3.4,4.5-3.4
		c2.7,0,4.8,0.8,4.9,3.8h-2c-0.1-1.5-1.5-2-2.8-2c-1.2,0-2.6,0.3-2.6,1.5c0,1.4,2.1,1.7,3.9,2.1c2,0.4,3.9,1.1,3.9,3.4
		c0,2.9-2.7,3.8-5.1,3.8c-2.7,0-5-1.1-5.1-4.1C246.4,117.7,248.6,117.7,248.6,117.7z"/>
	<path class="st0" d="M261.8,109.5h2.4v1.7h-2.4v7.5c0,0.9,0.3,1.1,1.5,1.1h0.9v1.7h-1.5c-2,0-2.9-0.4-2.9-2.6v-7.7h-2v-1.7h2v-3.6
		h2V109.5z"/>
	<path class="st0" d="M283.1,117.7c-0.5,2.7-2.4,4.1-5.1,4.1c-3.8,0-5.7-2.7-5.8-6.3c0-3.6,2.4-6.3,5.7-6.3c4.3,0,5.6,4,5.4,6.9h-9
		c-0.1,2.1,1.1,4,3.7,4c1.7,0,2.8-0.8,3.1-2.4C281.1,117.7,283.1,117.7,283.1,117.7z M281.2,114.3c-0.1-1.9-1.5-3.4-3.5-3.4
		s-3.3,1.5-3.4,3.4H281.2z"/>
	<path class="st0" d="M290.8,121.5h-2.1l-4.5-12h2.2l3.4,10l0,0l3.3-10h2.1L290.8,121.5z"/>
	<path class="st0" d="M307.3,117.7c-0.5,2.7-2.4,4.1-5.1,4.1c-3.8,0-5.7-2.7-5.8-6.3c0-3.6,2.4-6.3,5.7-6.3c4.3,0,5.6,4,5.4,6.9h-9
		c-0.1,2.1,1.1,4,3.7,4c1.7,0,2.8-0.8,3.1-2.4C305.3,117.7,307.3,117.7,307.3,117.7z M305.4,114.3c-0.1-1.9-1.5-3.4-3.5-3.4
		s-3.3,1.5-3.4,3.4H305.4z"/>
	<path class="st0" d="M309.4,109.5h1.9v2.5l0,0c1-2,2.3-2.9,4.4-2.8v2.1c-3.2,0-4.4,1.8-4.4,4.9v5.4h-2v-12.1H309.4z"/>
	<path class="st0" d="M322,123.1c-0.9,2.3-1.7,3.2-3.5,3.2c-0.5,0-0.9,0-1.4-0.2v-1.8c0.4,0.1,0.8,0.3,1.2,0.3
		c0.8,0,1.3-0.4,1.6-1.1l0.8-2l-4.8-12h2.2l3.5,9.8l0,0l3.4-9.8h2.1L322,123.1z"/>
	<path class="st0" d="M339.6,121.5h-2v-1.6l0,0c-0.7,1.3-2.2,1.9-3.8,1.9c-3.7,0-5.5-2.9-5.5-6.3s1.8-6.3,5.5-6.3
		c1.2,0,3,0.5,3.9,1.9l0,0v-6.2h2v16.6H339.6z M334.1,120.1c2.7,0,3.7-2.3,3.7-4.5c0-2.4-1.1-4.6-3.8-4.6c-2.7,0-3.6,2.3-3.6,4.7
		C330.3,117.9,331.5,120.1,334.1,120.1z"/>
	<path class="st0" d="M353.4,121.5c-0.3,0.2-0.8,0.3-1.4,0.3c-1,0-1.7-0.6-1.7-1.9c-1.1,1.3-2.6,1.9-4.2,1.9c-2.2,0-4-1-4-3.4
		c0-2.7,2-3.3,4.1-3.7c2.2-0.4,4.1-0.3,4.1-1.8c0-1.7-1.4-2-2.7-2c-1.7,0-2.9,0.5-3,2.3h-2c0.1-3,2.4-4,5.1-4c2.2,0,4.5,0.5,4.5,3.3
		v6.2c0,0.9,0,1.4,0.6,1.4c0.2,0,0.4,0,0.6-0.1V121.5z M350.1,115.3c-1.5,1.1-6,0-6,3c0,1.3,1.1,1.8,2.3,1.8c2.6,0,3.7-1.6,3.7-2.7
		V115.3z"/>
	<path class="st0" d="M359.9,123.1c-0.9,2.3-1.7,3.2-3.5,3.2c-0.5,0-0.9,0-1.4-0.2v-1.8c0.4,0.1,0.8,0.3,1.2,0.3
		c0.8,0,1.3-0.4,1.6-1.1l0.8-2l-4.8-12h2.2l3.5,9.8l0,0l3.4-9.8h2.1L359.9,123.1z"/>
</g>
<g>
	<path class="st0" d="M131.2,146.8c-0.5,2.7-2.4,4.1-5.1,4.1c-3.8,0-5.7-2.7-5.8-6.3c0-3.6,2.4-6.3,5.7-6.3c4.3,0,5.6,4,5.4,6.9h-9
		c-0.1,2.1,1.1,4,3.7,4c1.7,0,2.8-0.8,3.1-2.4H131.2z M129.3,143.5c-0.1-1.9-1.5-3.4-3.5-3.4s-3.3,1.5-3.4,3.4H129.3z"/>
	<path class="st0" d="M136.7,144.3l-4.2-5.7h2.5l2.9,4.2l3-4.2h2.4l-4.1,5.5l4.7,6.5h-2.5l-3.4-5l-3.4,5h-2.4L136.7,144.3z"/>
	<path class="st0" d="M145.6,138.6h2v1.6l0,0c0.7-1.3,2.2-1.9,3.8-1.9c3.7,0,5.5,2.9,5.5,6.3c0,3.4-1.8,6.3-5.5,6.3
		c-1.2,0-3-0.5-3.9-1.9l0,0v6.2h-2L145.6,138.6L145.6,138.6z M151.2,140.1c-2.7,0-3.7,2.3-3.7,4.5c0,2.4,1.1,4.6,3.8,4.6
		s3.6-2.3,3.6-4.7C154.9,142.2,153.8,140.1,151.2,140.1z"/>
	<path class="st0" d="M169.6,146.8c-0.5,2.7-2.4,4.1-5.1,4.1c-3.8,0-5.7-2.7-5.8-6.3c0-3.6,2.4-6.3,5.7-6.3c4.3,0,5.6,4,5.4,6.9h-9
		c-0.1,2.1,1.1,4,3.7,4c1.7,0,2.8-0.8,3.1-2.4H169.6z M167.7,143.5c-0.1-1.9-1.5-3.4-3.5-3.4s-3.3,1.5-3.4,3.4H167.7z"/>
	<path class="st0" d="M171.8,138.6h1.9v2.5l0,0c1-2,2.3-2.9,4.4-2.8v2.1c-3.2,0-4.4,1.8-4.4,4.9v5.4h-2v-12.1L171.8,138.6
		L171.8,138.6z"/>
	<path class="st0" d="M181.7,136.4h-2V134h2V136.4z M179.7,138.6h2v12h-2V138.6z"/>
	<path class="st0" d="M195,146.8c-0.5,2.7-2.4,4.1-5.1,4.1c-3.8,0-5.7-2.7-5.8-6.3c0-3.6,2.4-6.3,5.7-6.3c4.3,0,5.6,4,5.4,6.9h-9
		c-0.1,2.1,1.1,4,3.7,4c1.7,0,2.8-0.8,3.1-2.4H195z M193.1,143.5c-0.1-1.9-1.5-3.4-3.5-3.4s-3.3,1.5-3.4,3.4H193.1z"/>
	<path class="st0" d="M197.3,138.6h1.9v1.9l0,0c0.8-1.5,2.2-2.2,3.9-2.2c3.2,0,4.1,1.8,4.1,4.4v7.9h-2v-8.1c0-1.5-0.9-2.4-2.4-2.4
		c-2.4,0-3.6,1.6-3.6,3.8v6.8h-2v-12.1L197.3,138.6L197.3,138.6z"/>
	<path class="st0" d="M218.4,142.5c-0.3-1.5-1.3-2.4-3-2.4c-2.9,0-3.7,2.3-3.7,4.7c0,2.2,1,4.4,3.5,4.4c1.9,0,3-1.1,3.3-2.9h2
		c-0.4,3-2.3,4.7-5.3,4.7c-3.7,0-5.6-2.5-5.6-6.1s1.9-6.5,5.7-6.5c2.7,0,4.9,1.3,5.2,4.1H218.4z"/>
	<path class="st0" d="M233,146.8c-0.5,2.7-2.4,4.1-5.1,4.1c-3.8,0-5.7-2.7-5.8-6.3c0-3.6,2.4-6.3,5.7-6.3c4.3,0,5.6,4,5.4,6.9h-9
		c-0.1,2.1,1.1,4,3.7,4c1.7,0,2.8-0.8,3.1-2.4H233z M231.1,143.5c-0.1-1.9-1.5-3.4-3.5-3.4s-3.3,1.5-3.4,3.4H231.1z"/>
	<path class="st0" d="M236.4,146.8c0.1,1.8,1.6,2.3,3.2,2.3c1.2,0,2.9-0.3,2.9-1.8c0-3.1-7.9-1-7.9-5.6c0-2.4,2.4-3.4,4.5-3.4
		c2.7,0,4.8,0.8,4.9,3.8h-2c-0.1-1.5-1.5-2-2.8-2c-1.2,0-2.6,0.3-2.6,1.5c0,1.4,2.1,1.7,3.9,2.1c2,0.4,3.9,1.1,3.9,3.4
		c0,2.9-2.7,3.8-5.1,3.8c-2.7,0-5-1.1-5.1-4.1H236.4z"/>
	<path class="st0" d="M265.3,150.6h-2.1l-2.4-9.6l0,0l-2.4,9.6h-2.1l-3.9-12h2.2l2.7,9.8l0,0l2.4-9.8h2.2l2.5,9.8l0,0l2.7-9.8h2
		L265.3,150.6z"/>
	<path class="st0" d="M271,134h2v6.4l0,0c0.6-1.5,2.4-2,3.8-2c3.2,0,4.1,1.8,4.1,4.4v7.9h-2v-8.1c0-1.5-0.9-2.4-2.4-2.4
		c-2.4,0-3.6,1.6-3.6,3.8v6.8h-2V134H271z"/>
	<path class="st0" d="M286,136.4h-2V134h2V136.4z M284,138.6h2v12h-2V138.6z"/>
	<path class="st0" d="M297.3,142.5c-0.3-1.5-1.3-2.4-3-2.4c-2.9,0-3.7,2.3-3.7,4.7c0,2.2,1,4.4,3.5,4.4c1.9,0,3-1.1,3.3-2.9h2
		c-0.4,3-2.3,4.7-5.3,4.7c-3.7,0-5.6-2.5-5.6-6.1s1.9-6.5,5.7-6.5c2.7,0,4.9,1.3,5.2,4.1H297.3z"/>
	<path class="st0" d="M301.6,134h2v6.4l0,0c0.6-1.5,2.4-2,3.8-2c3.2,0,4.1,1.8,4.1,4.4v7.9h-2v-8.1c0-1.5-0.9-2.4-2.4-2.4
		c-2.4,0-3.6,1.6-3.6,3.8v6.8h-2V134H301.6z"/>
	<path class="st0" d="M331.7,150.6c-0.3,0.2-0.8,0.3-1.4,0.3c-1,0-1.7-0.6-1.7-1.9c-1.1,1.3-2.6,1.9-4.2,1.9c-2.2,0-4-1-4-3.4
		c0-2.7,2-3.3,4.1-3.7c2.2-0.4,4.1-0.3,4.1-1.8c0-1.7-1.4-2-2.7-2c-1.7,0-2.9,0.5-3,2.3h-2c0.1-3,2.4-4,5.1-4c2.2,0,4.5,0.5,4.5,3.3
		v6.2c0,0.9,0,1.4,0.6,1.4c0.2,0,0.4,0,0.6-0.1V150.6z M328.5,144.4c-1.5,1.1-6,0-6,3c0,1.3,1.1,1.8,2.3,1.8c2.6,0,3.7-1.6,3.7-2.7
		V144.4z"/>
	<path class="st0" d="M344.3,150.6h-2V149l0,0c-0.7,1.3-2.2,1.9-3.8,1.9c-3.7,0-5.5-2.9-5.5-6.3c0-3.4,1.8-6.3,5.5-6.3
		c1.2,0,3,0.5,3.9,1.9l0,0V134h2v16.6H344.3z M338.7,149.2c2.7,0,3.7-2.3,3.7-4.5c0-2.4-1.1-4.6-3.8-4.6c-2.7,0-3.6,2.3-3.6,4.7
		C335,147,336.1,149.2,338.7,149.2z"/>
	<path class="st0" d="M358.1,150.6h-2V149l0,0c-0.7,1.3-2.2,1.9-3.8,1.9c-3.7,0-5.5-2.9-5.5-6.3c0-3.4,1.8-6.3,5.5-6.3
		c1.2,0,3,0.5,3.9,1.9l0,0V134h2v16.6H358.1z M352.5,149.2c2.7,0,3.7-2.3,3.7-4.5c0-2.4-1.1-4.6-3.8-4.6c-2.7,0-3.6,2.3-3.6,4.7
		C348.8,147,349.9,149.2,352.5,149.2z"/>
</g>
<g>
	<path class="st0" d="M123.7,167.7h2.4v1.7h-2.4v7.5c0,0.9,0.3,1.1,1.5,1.1h0.9v1.7h-1.5c-2,0-2.9-0.4-2.9-2.6v-7.7h-2v-1.7h2v-3.6
		h2V167.7z"/>
	<path class="st0" d="M133.5,167.4c3.8,0,5.8,2.8,5.8,6.3s-2,6.3-5.8,6.3s-5.8-2.8-5.8-6.3S129.7,167.4,133.5,167.4z M133.5,178.3
		c2.1,0,3.7-1.6,3.7-4.5s-1.7-4.6-3.7-4.6c-2.1,0-3.7,1.7-3.7,4.6S131.4,178.3,133.5,178.3z"/>
	<path class="st0" d="M150.9,167.7h2.4v1.7h-2.4v7.5c0,0.9,0.3,1.1,1.5,1.1h0.9v1.7h-1.5c-2,0-2.9-0.4-2.9-2.6v-7.7h-2v-1.7h2v-3.6
		h2V167.7z"/>
	<path class="st0" d="M155.5,163.1h2v6.4l0,0c0.6-1.5,2.4-2,3.8-2c3.2,0,4.1,1.8,4.1,4.4v7.9h-2v-8.1c0-1.5-0.9-2.4-2.4-2.4
		c-2.4,0-3.6,1.6-3.6,3.8v6.8h-2L155.5,163.1L155.5,163.1z"/>
	<path class="st0" d="M178.7,175.9c-0.5,2.7-2.4,4.1-5.1,4.1c-3.8,0-5.7-2.7-5.8-6.3c0-3.6,2.4-6.3,5.7-6.3c4.3,0,5.6,4,5.4,6.9h-9
		c-0.1,2.1,1.1,4,3.7,4c1.7,0,2.8-0.8,3.1-2.4H178.7z M176.8,172.6c-0.1-1.9-1.5-3.4-3.5-3.4s-3.3,1.5-3.4,3.4H176.8z"/>
	<path class="st0" d="M183,165.5h-2v-2.4h2V165.5z M181,167.7h2v12h-2V167.7z"/>
	<path class="st0" d="M186,167.7h1.9v2.5l0,0c1-2,2.3-2.9,4.4-2.8v2.1c-3.2,0-4.4,1.8-4.4,4.9v5.4h-2v-12.1L186,167.7L186,167.7z"/>
	<path class="st0" d="M200.3,167.7h1.9v1.8l0,0c0.9-1.4,2.2-2,3.9-2c1.5,0,2.8,0.6,3.3,2c0.8-1.3,2.2-2,3.8-2c2.4,0,4,1,4,3.5v8.8
		h-2v-7.9c0-1.5-0.4-2.7-2.3-2.7s-3.1,1.2-3.1,3.1v7.5h-2v-7.9c0-1.6-0.5-2.7-2.3-2.7c-2.3,0-3.2,2.1-3.2,3.1v7.5h-2L200.3,167.7
		L200.3,167.7z"/>
	<path class="st0" d="M230.4,175.9c-0.5,2.7-2.4,4.1-5.1,4.1c-3.8,0-5.7-2.7-5.8-6.3c0-3.6,2.4-6.3,5.7-6.3c4.3,0,5.6,4,5.4,6.9h-9
		c-0.1,2.1,1.1,4,3.7,4c1.7,0,2.8-0.8,3.1-2.4H230.4z M228.5,172.6c-0.1-1.9-1.5-3.4-3.5-3.4s-3.3,1.5-3.4,3.4H228.5z"/>
	<path class="st0" d="M232.7,167.7h1.9v1.9l0,0c0.8-1.5,2.2-2.2,3.9-2.2c3.2,0,4.1,1.8,4.1,4.4v7.9h-2v-8.1c0-1.5-0.9-2.4-2.4-2.4
		c-2.4,0-3.6,1.6-3.6,3.8v6.8h-2v-12.1L232.7,167.7L232.7,167.7z"/>
	<path class="st0" d="M248.4,167.7h2.4v1.7h-2.4v7.5c0,0.9,0.3,1.1,1.5,1.1h0.9v1.7h-1.5c-2,0-2.9-0.4-2.9-2.6v-7.7h-2v-1.7h2v-3.6
		h2V167.7z"/>
	<path class="st0" d="M263.6,179.7c-0.3,0.2-0.8,0.3-1.4,0.3c-1,0-1.7-0.6-1.7-1.9c-1.1,1.3-2.6,1.9-4.2,1.9c-2.2,0-4-1-4-3.4
		c0-2.7,2-3.3,4.1-3.7c2.2-0.4,4.1-0.3,4.1-1.8c0-1.7-1.4-2-2.7-2c-1.7,0-2.9,0.5-3,2.3h-2c0.1-3,2.4-4,5.1-4c2.2,0,4.5,0.5,4.5,3.3
		v6.2c0,0.9,0,1.4,0.6,1.4c0.2,0,0.4,0,0.6-0.1V179.7z M260.4,173.5c-1.5,1.1-6,0-6,3c0,1.3,1.1,1.8,2.3,1.8c2.6,0,3.7-1.6,3.7-2.7
		V173.5z"/>
	<path class="st0" d="M265.6,163.1h2v16.6h-2V163.1z"/>
	<path class="st0" d="M287.8,179.7c-0.3,0.2-0.8,0.3-1.4,0.3c-1,0-1.7-0.6-1.7-1.9c-1.1,1.3-2.6,1.9-4.2,1.9c-2.2,0-4-1-4-3.4
		c0-2.7,2-3.3,4.1-3.7c2.2-0.4,4.1-0.3,4.1-1.8c0-1.7-1.4-2-2.7-2c-1.7,0-2.9,0.5-3,2.3h-2c0.1-3,2.4-4,5.1-4c2.2,0,4.5,0.5,4.5,3.3
		v6.2c0,0.9,0,1.4,0.6,1.4c0.2,0,0.4,0,0.6-0.1V179.7z M284.6,173.5c-1.5,1.1-6,0-6,3c0,1.3,1.1,1.8,2.3,1.8c2.6,0,3.7-1.6,3.7-2.7
		V173.5z"/>
	<path class="st0" d="M289.6,167.7h1.9v1.9l0,0c0.8-1.5,2.2-2.2,3.9-2.2c3.2,0,4.1,1.8,4.1,4.4v7.9h-2v-8.1c0-1.5-0.9-2.4-2.4-2.4
		c-2.4,0-3.6,1.6-3.6,3.8v6.8h-2v-12.1L289.6,167.7L289.6,167.7z"/>
	<path class="st0" d="M313.3,179.7h-2v-1.6l0,0c-0.7,1.3-2.2,1.9-3.8,1.9c-3.7,0-5.5-2.9-5.5-6.3c0-3.4,1.8-6.3,5.5-6.3
		c1.2,0,3,0.5,3.9,1.9l0,0v-6.2h2v16.6L313.3,179.7L313.3,179.7z M307.7,178.3c2.7,0,3.7-2.3,3.7-4.5c0-2.4-1.1-4.6-3.8-4.6
		c-2.7,0-3.6,2.3-3.6,4.7C304,176.1,305.2,178.3,307.7,178.3z"/>
</g>
<g>
	<path class="st0" d="M121,196.8h2v1.6l0,0c0.7-1.3,2.2-1.9,3.8-1.9c3.7,0,5.5,2.9,5.5,6.3c0,3.4-1.8,6.3-5.5,6.3
		c-1.2,0-3-0.5-3.9-1.9l0,0v6.2h-2L121,196.8L121,196.8z M126.6,198.3c-2.7,0-3.7,2.3-3.7,4.5c0,2.4,1.1,4.6,3.8,4.6
		s3.6-2.3,3.6-4.7C130.4,200.5,129.2,198.3,126.6,198.3z"/>
	<path class="st0" d="M134.8,192.2h2v6.4l0,0c0.6-1.5,2.4-2,3.8-2c3.2,0,4.1,1.8,4.1,4.4v7.9h-2v-8.1c0-1.5-0.9-2.4-2.4-2.4
		c-2.4,0-3.6,1.6-3.6,3.8v6.8h-2L134.8,192.2L134.8,192.2z"/>
	<path class="st0" d="M152.4,210.4c-0.9,2.3-1.7,3.2-3.5,3.2c-0.5,0-0.9,0-1.4-0.2v-1.8c0.4,0.1,0.8,0.3,1.2,0.3
		c0.8,0,1.3-0.4,1.6-1.1l0.8-2l-4.8-12h2.2l3.5,9.8l0,0l3.4-9.8h2.1L152.4,210.4z"/>
	<path class="st0" d="M160.6,205c0.1,1.8,1.6,2.3,3.2,2.3c1.2,0,2.9-0.3,2.9-1.8c0-3.1-7.9-1-7.9-5.6c0-2.4,2.4-3.4,4.5-3.4
		c2.7,0,4.8,0.8,4.9,3.8h-2c-0.1-1.5-1.5-2-2.8-2c-1.2,0-2.6,0.3-2.6,1.5c0,1.4,2.1,1.7,3.9,2.1c2,0.4,3.9,1.1,3.9,3.4
		c0,2.9-2.7,3.8-5.1,3.8c-2.7,0-5-1.1-5.1-4.1H160.6z"/>
	<path class="st0" d="M173.1,194.6h-2v-2.4h2V194.6z M171.1,196.8h2v12h-2V196.8z"/>
	<path class="st0" d="M184.3,200.7c-0.3-1.5-1.3-2.4-3-2.4c-2.9,0-3.7,2.3-3.7,4.7c0,2.2,1,4.4,3.5,4.4c1.9,0,3.1-1.1,3.3-2.9h2
		c-0.4,3-2.3,4.7-5.3,4.7c-3.7,0-5.6-2.5-5.6-6.1s1.9-6.4,5.7-6.4c2.7,0,4.9,1.3,5.2,4.1h-2.1L184.3,200.7L184.3,200.7z"/>
	<path class="st0" d="M199.3,208.8c-0.3,0.2-0.8,0.3-1.4,0.3c-1,0-1.7-0.6-1.7-1.9c-1.1,1.3-2.6,1.9-4.2,1.9c-2.2,0-4-1-4-3.4
		c0-2.7,2-3.3,4.1-3.7c2.2-0.4,4.1-0.3,4.1-1.8c0-1.7-1.4-2-2.7-2c-1.7,0-2.9,0.5-3,2.3h-2c0.1-3,2.4-4,5.1-4c2.2,0,4.5,0.5,4.5,3.3
		v6.2c0,0.9,0,1.4,0.6,1.4c0.2,0,0.4,0,0.6-0.1L199.3,208.8L199.3,208.8z M196.1,202.6c-1.5,1.1-6,0-6,3c0,1.3,1.1,1.8,2.3,1.8
		c2.6,0,3.7-1.6,3.7-2.7V202.6z"/>
	<path class="st0" d="M201.3,192.2h2v16.6h-2V192.2z"/>
	<path class="st0" d="M224.7,208.8h-2.1l-2.4-9.6l0,0l-2.4,9.6h-2.1l-3.9-12h2.2l2.7,9.8l0,0l2.4-9.8h2.2l2.5,9.8l0,0l2.7-9.8h2
		L224.7,208.8z"/>
	<path class="st0" d="M240.7,205c-0.5,2.7-2.4,4.1-5.1,4.1c-3.8,0-5.7-2.7-5.8-6.3c0-3.6,2.4-6.3,5.7-6.3c4.3,0,5.6,4,5.4,6.9h-9
		c-0.1,2.1,1.1,4,3.7,4c1.7,0,2.8-0.8,3.1-2.4H240.7z M238.8,201.7c-0.1-1.9-1.5-3.4-3.5-3.4s-3.3,1.5-3.4,3.4H238.8z"/>
	<path class="st0" d="M243.1,192.2h2v16.6h-2V192.2z"/>
	<path class="st0" d="M248.3,192.2h2v16.6h-2V192.2z"/>
	<path class="st0" d="M253.4,192.2h2v6.2l0,0c0.7-1.3,2.2-1.9,3.8-1.9c3.7,0,5.5,2.9,5.5,6.3c0,3.4-1.8,6.3-5.5,6.3
		c-1.2,0-3-0.5-3.9-1.9l0,0v1.6h-2v-16.6L253.4,192.2L253.4,192.2z M259,198.3c-2.7,0-3.7,2.3-3.7,4.5c0,2.4,1.1,4.6,3.8,4.6
		s3.6-2.3,3.6-4.7C262.7,200.5,261.5,198.3,259,198.3z"/>
	<path class="st0" d="M277.4,205c-0.5,2.7-2.4,4.1-5.1,4.1c-3.8,0-5.7-2.7-5.8-6.3c0-3.6,2.4-6.3,5.7-6.3c4.3,0,5.6,4,5.4,6.9h-9
		c-0.1,2.1,1.1,4,3.7,4c1.7,0,2.8-0.8,3.1-2.4H277.4z M275.5,201.7c-0.1-1.9-1.5-3.4-3.5-3.4s-3.3,1.5-3.4,3.4H275.5z"/>
	<path class="st0" d="M281.7,194.6h-2v-2.4h2V194.6z M279.7,196.8h2v12h-2V196.8z"/>
	<path class="st0" d="M284.8,196.8h1.9v1.9l0,0c0.8-1.5,2.2-2.2,3.9-2.2c3.2,0,4.1,1.8,4.1,4.4v7.9h-2v-8.1c0-1.5-0.9-2.4-2.4-2.4
		c-2.4,0-3.6,1.6-3.6,3.8v6.8h-2v-12.1L284.8,196.8L284.8,196.8z"/>
	<path class="st0" d="M308.1,207.8c0,3.9-1.8,5.9-5.6,5.9c-2.3,0-4.9-0.9-5-3.5h2c0.1,1.4,1.8,2,3.1,2c2.6,0,3.6-1.9,3.6-4.6v-0.8
		l0,0c-0.7,1.5-2.2,2.2-3.7,2.2c-3.6,0-5.4-2.8-5.4-6.1c0-2.8,1.4-6.4,5.6-6.4c1.5,0,2.9,0.7,3.6,2l0,0v-1.7h1.9v11L308.1,207.8
		L308.1,207.8z M306.2,202.6c0-2.1-0.9-4.3-3.4-4.3s-3.6,2.1-3.6,4.4c0,2.2,0.8,4.6,3.4,4.6C305.2,207.2,306.2,204.8,306.2,202.6z"
		/>
	<path class="st0" d="M311.5,206.3h2.6v2.6h-2.6V206.3z"/>
	<path class="st0" d="M318,192.2h2.6v2.6c0,1.8-0.8,3.4-2.6,3.4V197c1,0,1.4-1.2,1.4-2.3H318V192.2z"/>
</g>
<line class="st1" x1="31" y1="108.4" x2="24" y2="108.4"/>
<path class="st2" d="M23.2,108.4L23.2,108.4 M32.6,108.4L32.6,108.4"/>
<polygon class="st3" points="23.1,77.2 10.2,77.2 10.2,112.5 23.1,108.6 "/>
<line class="st4" x1="82.2" y1="77.3" x2="76.8" y2="77.3"/>
<line class="st5" x1="88.9" y1="108.4" x2="76.7" y2="108.4"/>
<path class="st6" d="M76,108.4L76,108.4 M90.3,108.4L90.3,108.4"/>
<line class="st7" x1="32.7" y1="114.2" x2="32.7" y2="117.7"/>
<path class="st6" d="M32.7,118.4L32.7,118.4 M32.7,112.8L32.7,112.8"/>
<line class="st8" x1="53.9" y1="31.6" x2="53.9" y2="57.6"/>
<line class="st9" x1="75.3" y1="38.6" x2="75.3" y2="75.9"/>
<line class="st10" x1="80.1" y1="112.8" x2="63.6" y2="112.8"/>
<line class="st11" x1="19.9" y1="121.4" x2="19.9" y2="113.7"/>
<path class="st2" d="M19.9,113L19.9,113 M19.9,122.7L19.9,122.7"/>
<polygon class="st12" points="32.7,77.2 19.8,77.2 19.8,112.5 32.7,108.6 "/>
<polygon class="st12" points="32.7,77.2 53.9,58.7 40.7,58.7 40.7,58.7 19.8,77.2 "/>
<polygon class="st12" points="47.4,64.4 62.4,77.2 75.3,77.2 54,58.7 53.9,58.7 40.7,58.7 "/>
<polygon class="st12" points="32.7,108.6 19.8,112.5 62.3,112.5 75.3,108.6 "/>
<polygon class="st12" points="75.3,108.6 75.3,77.2 62.4,77.2 62.4,108.6 62.3,112.5 "/>
<line class="st13" x1="17.7" y1="112.8" x2="11" y2="112.8"/>
<line class="st9" x1="62.5" y1="38.6" x2="62.5" y2="75.9"/>
<polygon class="st3" points="95.1,108.6 95.1,77.3 82.3,77.3 82.2,108.6 82.2,112.6 "/>
<polygon class="st3" points="47.4,23.6 62.4,36.4 75.3,36.4 54,17.9 53.9,17.8 40.7,17.8 "/>
<line class="st14" x1="19.6" y1="57.7" x2="19.6" y2="76"/>
<polygon class="st3" points="75.4,119 62.5,123 19.8,123 32.7,119 "/>
<line class="st15" x1="32.4" y1="57.2" x2="32.4" y2="76"/>
<polygon class="st16" points="53.8,37 32.5,55.5 19.6,55.5 40.5,37 "/>
<line class="st17" x1="40.7" y1="20.5" x2="40.7" y2="57.6"/>
<line class="st13" x1="75.4" y1="116.9" x2="75.4" y2="110.1"/>
<path class="st6" d="M75.4,109.4L75.4,109.4 M75.4,118.4L75.4,118.4"/>
<line class="st18" x1="62.5" y1="114" x2="62.5" y2="122.1"/>
<path class="st6" d="M62.5,122.8L62.5,122.8 M62.5,112.5L62.5,112.5"/>
</svg>
