<?xml version="1.0" encoding="utf-8"?>
<!-- Generator: Adobe Illustrator 20.1.0, SVG Export Plug-In . SVG Version: 6.00 Build 0)  -->
<svg version="1.1" id="Layer_1" xmlns="http://www.w3.org/2000/svg" xmlns:xlink="http://www.w3.org/1999/xlink" x="0px" y="0px"
	 viewBox="0 0 400 400" enable-background="new 0 0 400 400" xml:space="preserve">
<g enable-background="new    ">
	<path fill="#1EB5BF" d="M48,84H20.6V72l28.2-37.8h11.8v39h8.6V84h-8.6v15H48V84z M48,50.7h-0.3L30.9,73.2H48V50.7z"/>
	<path fill="#1EB5BF" d="M91.8,60.4c5.7,0.5,13.8-0.6,13.8-8.1c0-5.6-4.4-8.6-9.2-8.6c-6.7,0-10.1,4.9-10,11.6H73.9
		c0.5-13.4,9-22.4,22.4-22.4c10.4,0,21.8,6.4,21.8,18c0,6.2-3.1,11.5-9.1,13.3v0.2c7.1,1.6,11.5,7.4,11.5,14.7
		c0,13.6-11.5,21.3-24.1,21.3c-14.6,0-24.4-8.7-24.1-23.6h12.5c0.3,7,3.8,12.8,11.4,12.8c5.9,0,10.6-4,10.6-10.2
		c0-9.8-8.6-9.6-15-9.6V60.4z"/>
</g>
<g enable-background="new    ">
	<path fill="#1EB5BF" d="M133.8,76c4,0,5.3,3,5.3,6.5c0,3.5-1.7,6.1-5.5,6.1c-4,0-5.3-2.6-5.3-6.2C128.3,78.9,130,76,133.8,76z
		 M133.6,86.2c2,0,2.1-2.3,2.1-3.7c0-1.3-0.1-4.1-2-4.1c-2.1,0-2.2,2.5-2.2,4C131.6,83.9,131.6,86.2,133.6,86.2z M147.4,75.8h2.7
		l-13.3,24h-2.8L147.4,75.8z M150.4,86.9c4,0,5.3,2.8,5.3,6.4c0,3.5-1.7,6.2-5.5,6.2c-4,0-5.3-2.8-5.3-6.4
		C144.9,89.7,146.6,86.9,150.4,86.9z M150.3,97.1c2,0,2.1-2.5,2.1-3.9c0-1.3-0.1-3.9-2-3.9c-2.1,0-2.2,2.4-2.2,3.8
		C148.2,94.6,148.2,97.1,150.3,97.1z"/>
</g>
<path fill="#656463" d="M265.9,7.3c-0.2,0.4-0.5,1-0.6,1.5c-0.2,0.9-0.8,1.3-1.5,1.6c-0.4,0.1-0.8,0.2-1.2,0.3
	c-0.1,0.5-0.5,1.3-0.3,1.6c1,1.1,1,1.8-0.3,2.5l-0.1,0.1c-0.6,0.6-1.2,1.1-2,1.9c0.1,1.3,0.2,3,0.3,4.6c-0.6,0.1-1.1,0.2-1.5,0.2
	c-0.6,0-1.1-0.2-1.7-0.6c-0.3,0.2-0.7,0.4-0.9,0.4H256c-0.4-0.2-0.7-0.6-1.1-1c-0.6,0.1-0.8,0.7-0.7,1.3c0.2,0.8,0.7,1.6,0.9,2.4
	c0.2,1.3,0.3,2.7,0.2,4c0,0.4-0.2,0.6-0.5,0.6c-0.2,0-0.4-0.1-0.6-0.2c-0.7-0.5-1.4-1-2.2-1.5c-0.5,0.3-0.8,0.7-0.7,1.5
	s-0.3,1.7-0.4,2.6c0.6,0.1,1.1,0.2,1.7,0.3l0.1,0.8c0.2,0,0.3,0,0.5,0c1.7,0,2.4,1.2,1.9,3.3c-0.3,0-0.6,0-1,0c-0.2,0-0.4,0-0.7-0.1
	l-0.7-0.6c-0.1-0.6-0.3-0.8-0.7-0.8c-0.2,0-0.5,0.1-0.8,0.2c0.5,1.1-0.7,1-1.1,1.4l0,0c-0.1,0-0.4-0.2-0.8-0.3c0,0.4,0,0.8,0.1,1.2
	c-0.1,0-0.1,0-0.2,0c-1.1,0-1.4-0.4-1.5-1.5c-0.1-0.5-0.5-0.9-0.8-1.3l0,0c-0.2,0-0.7,0.3-0.9,0.5l-0.5,0.6
	c-0.2,0.5-0.4,0.7-0.7,0.7s-0.5-0.1-0.9-0.3s-0.7-0.3-1.1-0.3c-0.5,0-1,0.2-1.2,0.7c-0.2,0.6-0.3,1.3-0.4,1.9
	c-0.2,0.9-0.5,1.9-0.7,3l0.4,0.3c1,0.1,0.8,0.5,0.3,1.1c-0.6,0.7-1,1.5-1.6,2.3c1.6,0.5,1.2,2,1.6,3.1c0.1,0.3-0.1,0.7-0.2,1.1
	c-0.3-0.2-0.7-0.4-1-0.6l-0.5-0.6c-0.2-0.3-0.5-0.5-0.7-0.5s-0.4,0.2-0.6,0.6c-0.5,1.4-0.9,2.9-1.3,4.3c-0.1,0.3,0.3,0.6,0.4,0.9
	l0.1,0.5c-0.1,0.6-0.3,1.1-0.4,1.7c0,0.4,0.1,0.9,0.3,1.2c0.3,0.4,0.6,0.6,1,0.6c0.3,0,0.6-0.1,0.9-0.4c0.3-0.2,0.8-0.4,1.2-0.4
	c0.1,0,0.2,0,0.3,0.1c0.4,0.2,0.5,0.9,0.9,1.6c-0.3,0-0.5-0.1-0.7-0.1c-1.4,0-2.1,0.9-2.6,2l-0.3,0.3c-1.3,0.2-2.6,0.3-4.1,0.5
	c0-0.8,0-1.7,0-2.5l-0.1-0.7c-1.5-0.5-0.7-1.7-0.8-2.6v-0.1c0-1.2-0.1-2.4,0.9-3.3c0.4-0.4,1-1,0.5-1.9l-0.8,0.4
	c-0.7,0.8-1.3,1.6-1.9,2.4c-0.2,0.3-0.5,0.5-0.8,0.5c-0.2,0-0.4-0.1-0.5-0.2c-0.1-0.1,0-0.7,0.1-1c0.2-0.5,0.5-1.1,0.7-1.6
	c0.3-1.2,0.6-2.5,0.8-3.8c0.1-0.5,0-1-0.2-1.5c-0.4-1-0.9-1.9-1.3-2.8c-0.3-0.7-0.5-1.4-0.8-2.1c-0.9,0.4-1.7,0.9-2.6,1.1
	c-0.9,0.3-0.9,0.8-0.9,1.5c0,1.1,0.8,2.2-0.3,3.2l-0.1,0.5c-0.4,0.3-0.9,0.6-1.4,0.8l-0.6-0.6l-0.7-0.8c-0.5-0.4-0.8-0.8-0.7-1.6
	c0.1-0.9-0.5-1.6-1.1-1.6l0,0c-0.2,0.5-0.4,1-0.5,1.5c-0.1,0.3,0,0.8,0.2,1c0.9,1.1,0.9,1.2-0.5,1.8c0,0.4,0.1,0.8,0,1.2l-0.6,0.3
	c-0.3-0.5-0.5-1-0.8-1.4l-0.6-0.8c-0.3,0.3-0.8,0.6-0.8,0.9c0,0.9-0.4,1.2-1.2,1.2h-0.1c0.1,0.4,0.1,0.9,0.3,1.1
	c0.6,0.4,0.5,0.9,0.5,1.5l0.1,0.7c1,1.2,1.9,2.6,3.7,2.8c0.6,0.1,1.2,0.3,1.9,0.4c-0.2,0.3-0.5,0.6-0.7,1c-0.2,0.3-0.4,0.8-0.3,1.1
	c0.4,1.3,0.9,2.6,1.4,3.9l0.4,0.6c0.3,0.5,0.5,0.9,0.8,1.5c0.3,0,0.9,0,1.6,0.1l-0.2,0.6l-0.1,0.8l0.7-0.1c0.4-0.2,0.6-0.6,1-0.8
	c0.3-0.2,0.7-0.3,1.1-0.5c0.1,0.4,0.1,0.7,0.2,1.1c0.1,0.4,0.3,0.7,0.4,1.1c0.3-0.2,0.6-0.4,0.8-0.7c0.2-0.5,0.6-0.7,0.9-0.7
	c0.1,0,0.3,0,0.4,0.1c0.6,0.2,1.1,0.5,1.8,0.8c-0.5,0.3-0.8,0.6-1.3,0.8c-0.7,0.3-1.2,0.6-1.3,1.4c0,0.4-0.3,1-0.6,1.2
	c-1,0.5-0.8,1.1-0.3,1.8c0.4,0,0.7-0.1,1.1-0.1c0.1,0,0.1,0,0.2,0c0.1,0,0.2,0,0.2,0c0.9,0,1.6-0.3,2-1.3c0.1-0.3,0.6-0.7,1-0.7
	c1-0.1,1.5-0.7,1.7-1.6l0.4-0.6c0.7-0.3,1.4-0.5,2-0.6c0.2,0.8,0.3,1.4,0.4,2.1l-0.4,0.6c-1.2,0-1.8,1-2.8,1.5
	c-0.5,0.3-0.7,0.8-0.2,1.3c0.2,0.3,0.4,0.6,0.7,1.1c-0.4,0-0.6,0-0.8-0.1c-0.1,0-0.2,0-0.4,0c-0.9,0-1.7,0.6-2.1,1.4
	c-0.5,1-1.1,1.8-1.7,2.8l-0.4,0.7c0.2,0.2,0.5,0.5,0.9,0.6c0.7,0.1,1.4,0.1,2.1,0.2c-0.1,0.6-0.1,1.1-0.2,1.7
	c-0.2-0.1-0.5-0.1-0.7-0.1c-1.1,0-1.9,0.8-2.6,1.7l-0.6,0.6c-0.3-0.1-0.5-0.4-0.6-0.5c-0.7,0-1.3,0-2,0c-0.4,0-0.8,0-1.2,0
	c-0.6,0-1.2-0.2-1.8-0.2c-0.2,0-0.3,0-0.5,0c-0.6,0.1-1.1,0.6-1.6,0.9c0,1.2,0.8,1.9,2.2,2.2c1,0.2,2,0.7,3,1.1
	c0.2,0.1,0.3,0.4,0.5,0.7c-0.5,0.1-0.8,0.1-0.9,0.1c-0.3,0.5-0.6,0.9-1,1.4c-0.3-0.4-0.4-0.6-0.6-0.8c-0.5-0.5-0.9-1.1-1.5-1.3
	c-0.3-0.1-0.6-0.2-0.9-0.2c-0.4,0-0.9,0.2-1.2,0.7c-0.2,0.3-0.7,0.4-1,0.4c-0.2,0-0.5,0-0.7,0c-0.4,0-0.7,0-0.9,0
	c-0.3,1-0.5,1.8-0.9,2.9c0.2,1,2.1,0.3,2.3,1.5c-0.5,0.3-0.9,0.5-1.2,0.8c0.2,0.3,0.5,0.7,0.7,1l0.7,0.7c1.1,0.8,1.2,1.6,0,2.4
	c-0.8,0.5-1.4,1.1-1.4,2.2c-0.8-0.1-1.5-0.2-2.2-0.4c-0.2,0-0.3-0.1-0.5-0.1c-0.4,0-0.8,0.2-0.7,0.8c0,0.6,0,1.3,0.2,1.8
	c0.1,0.4,0.3,0.7,0.6,0.7c0.2,0,0.4-0.1,0.6-0.2c0.2-0.1,0.6-0.2,0.9-0.2c0.1,0,0.1,0,0.2,0c1,0.1,2,0.1,2.9,0.3
	c0.2,0.1,0.4,0.1,0.6,0.1c0.9,0,1.7-0.7,2.6-0.8c0.2,0,0.5-0.3,0.8-0.3c0.1,0,0.1,0,0.2,0h0.8c0.2,0.3,0.3,0.6,0.4,0.8
	c0.5-0.1,1-0.3,1.4-0.3h0.1c0.1,0,0.3,0,0.4,0c1.9,0,4-1.7,4.2-3.7l-0.3-0.7c-0.2-0.3-0.4-0.7-0.6-1c0.6-0.3,1.1-0.7,1.7-0.9l1,0.1
	l0.1,0.7c0,0.3,0,0.7,0.1,1.1c0.7-0.3,1.2-0.6,1.7-0.8c0.2-0.1,0.3-0.1,0.5-0.1c0.3,0,0.4,0.2,0.4,0.7c0,1.6-0.2,2-1.8,2.6
	c-0.7,0.2-1.2,0.7-1.9,1.1c0.8,1.3,0.2,2.4-1,2.7c-0.6,0.1-1.2,0.4-2,0.7c1.5,1.1,0,1.6-0.1,2.3c-0.1,0.6-0.6,0.9-1.2,0.9
	c-0.2,0-0.3,0-0.5-0.1c-0.1,0.3-0.2,0.6-0.4,0.8c-0.5,0.5-0.7,0.9-0.5,1.6c0.1,0.3-0.4,0.8-0.7,1c-0.5,0.4-1.2,0.6-1.8,0.9
	c-0.4,0.2-0.7,0.5-1.1,0.6c-1.6,0.5-2.9,1.5-3.7,2.9c-0.6,1.2-1.7,1.9-2.7,2.8l-0.7,0.3c0-0.3,0-0.6-0.1-0.9c0-0.6-0.4-1-0.9-1
	c-0.2,0-0.4,0-0.6,0.2c-0.8,0.4-1.5,0.9-2.2,1.4c-0.3,0.2-0.7,0.3-1.1,0.5c-0.1-0.4-0.1-0.7-0.2-0.8c-1.2,0.3-2.3,0.6-3.5,1
	c-0.6,2.2-1.3,4.5-3,6.3c0.4,0.5,0.7,0.8,1,0.8c0.2,0,0.5-0.2,0.9-0.5c0.5-0.4,0.9-0.9,1.5-1.3c0.2-0.2,0.4-0.3,0.6-0.3
	c0.2,0,0.4,0.2,0.4,0.7l0.2,0.6c0.2,0.4,0.6,0.7,0.8,1.1c0.5,1.3-0.5,1.8-1.2,2.5c-0.6,0.5-1.2,1-0.4,1.8c0.3,0.3,0.6,0.4,0.9,0.4
	c0.4,0,0.8-0.2,1.2-0.7s0.7-0.8,1-0.8s0.6,0.2,1,0.5c0.6-0.2,1.1-0.4,1.7-0.6c0.8-0.3,1.9-1.6,2-2.4c0-1.2,0-2.4,0-3.8
	c0.4,0.1,1,0.1,1.4,0.3c0.2,0.1,0.4,0.2,0.5,0.2c0.3,0,0.5-0.2,0.7-0.5c0.3-0.4,0.4-0.9,0.6-1.3c0.2-0.3,0.5-0.8,0.6-0.8l0,0
	c0.1,0,0.2,0,0.3,0c0.7,0,1-0.7,1.2-1.1c1.1-2.7,3.3-4.6,5.1-6.8c0.6-0.8,1.7-1.4,1.3-2.7l0.3-0.6c0.4-0.5,0.9-0.8,1.5-0.8
	c0.3,0,0.7,0.1,1,0.3c-0.3,0.6-0.6,1.3-0.9,2c0.9,0.5,1.1,1.4,0.6,1.9c-1.2,1.3-2.3,2.7-3.6,3.9c-1.3,1.2-0.7,2.7-1,4
	c0.5,0.1,1,0.2,1.4,0.3c-0.2,0.4-0.3,0.8-0.5,1.2c-0.4,0.7-1.1,1.4-1.1,2.2c0,0.7,0.7,1.4,1,2.1l0.2,0.8c-0.6,1-1.4,2-2.5,2.2
	c-0.3,1-0.6,1.9-1,2.7c-0.5,1.2-1.3,2.2-1.2,3.6l-0.2,0.3c-0.2,0.5-0.4,0.9-0.6,1.4c-0.2,0.6-0.3,1.6-0.8,1.8
	c-1.7,1-2.4,2.5-2.7,4.3c-0.2,0.8,0.3,1.1,0.8,1.4c0.2,0.2,0.6,0.2,1,0.2c0.2,0,0.3,0,0.5,0c0.4,0,0.8-0.3,1.1-0.3
	c0.1,0,0.1,0,0.2,0c0.3,0.2,0.5,0.2,0.7,0.2c0.4,0,0.7-0.2,1.1-0.3c1.7-0.7,2-1.3,1.8-3.2c-0.1-0.7,0.2-1.5,0.4-2.2
	c0.2-0.6,0.7-1,1-1.6c0.5-0.9,0.7-2,1.3-2.6c0.9-0.8,0.7-1.7,0.8-2.7l0.1-0.5c0.4-0.9,0.9-1.7,1.3-2.6c0.4-0.8,1-1.4,2-1.5
	c1.8-0.3,2.1-1.1,1.5-2.8c-0.2-0.4-0.2-0.9-0.1-1.4l0.7-0.2c0.8,0.6,1.5,1.2,2.4,1.8l0.7-0.8c1.2,0.7,1.2,1.1,0,2.7l0.4,0.5
	c1,0.5,1.6,1.3,1.8,2.5c0.1,0.3,0.5,0.7,0.8,0.7c1.4,0.2,3.1,1.9,3.2,3.4c0.1,0.9,0.7,1.4,1.3,1.7c1.5,0.7,1.9,1.2,1.9,2.8
	c0,0.3-0.3,0.6-0.4,0.9c0.3,0.7,0.8,1.3,0.8,2c0,1.6-0.5,2.6-2.4,2.8c-0.7,0.1-1.5,1-2,1.8c-0.2,0.4-0.3,0.9-0.8,1.2
	c-0.4,0.2-0.8,0.6-1,1c-0.5,1.1-1,2.2-1.5,3.4c-0.1,0.3-0.2,0.7-0.5,0.9c-1,0.8-2.1,1.5-3.1,2.3c-0.4,0.3-1,0.9-1,1.3
	c0,0.8-0.4,1.2-0.9,1.8c-0.6,0.7-1,1.5-1.5,2.3l-0.2-0.1c-0.5-0.5-0.8-0.7-1.1-0.7s-0.5,0.3-1,1c-0.2,0.3-0.4,0.7-0.5,1.1
	c-0.4,1-0.4,2-0.2,3c0.2,0.6,0.1,1.3,0.3,1.9c0.5,1,1.4,1.8,1.8,2.9c0.5,1.2,0.7,2.5,1,3.7l-0.3,0.6c-0.1,0.4-0.3,0.9-0.1,1.2
	c0.5,0.7,1.2,1.2,1.9,1.8c0.3-0.9,0.5-1.5,0.7-1.8c-0.2-0.7-0.4-1.2-0.5-1.8c-0.2-0.9-0.2-1.9-0.3-2.8c-0.2-1.3-0.1-1.7,1.1-2.3
	c0.5-0.2,0.9-0.3,1.3-0.3c0.6,0,1.2,0.3,1.6,0.8c0.2,0.3,0.5,0.6,0.8,0.7c1.4,0.5,1.9,1.9,3,2.8l0.2,0.5c-0.2,0.9,0.4,1.5,1,2
	c1,0.9,2,1.7,3,2.5c1.8-0.6,1.2-2.4,1.9-3.5c0.3-0.5,0.3-1.2,0.4-1.9c-0.3-0.1-0.6-0.2-0.8-0.3c-0.8-0.6-0.4-1.4-0.5-2.2l0.3-0.7
	c0.3,0.3,0.7,0.5,1,0.9c1.1,1.5,3.3,2,3.8,4l0.1,0.1c0.7,0.7,1.4,1,2.4,1.3c0.6,0.2,1.2,0.3,1.8,0.3c0.6,0,1.1-0.1,1.7-0.4
	c1.1-0.5,2.2-0.6,3.2-1.5c0.6-0.6,1.7-0.9,2.7-1c0.1,0,0.2,0,0.3,0c0.7,0,1.4,0.3,2.1,0.4c1-0.5,1.1-1.3,1.1-2.3
	c-0.1-0.8,0.2-1.2,0.8-1.2c0.2,0,0.4,0,0.6,0.1s0.4,0.1,0.7,0.1c0.2,0,0.3,0,0.5,0s0.3,0,0.5,0h0.1c0.3,0,0.6,0,1,0.1
	c0.7,0.2,1.4,0.4,2.1,0.5c0.6,0.1,1.2,0.4,0.9,1c-0.4,0.7-0.9,1.6-1.6,1.9c-1.2,0.5-2,1.3-2.5,2.4c-0.1,0.3-0.3,0.5-0.5,0.8
	s-0.4,0.7-0.4,1c0.1,1.1-0.7,1.5-1.4,2.1c-0.9,0.7-1.6,1.7-2,2.7c-0.3,0.7-0.4,1.4-1,1.9c-0.5,0.5-1.1,1.1-1.3,1.8
	c-0.3,0.8-0.4,1.6-1.6,1.7c0.2,0.5,0.4,0.8,0.6,1.1c0.5,1,1.1,1.9,1.6,2.9c0.4,1,0.5,2.1,1.1,3c0.7,1.1,0.7,2.2,0.6,3.4
	c0,0.5,0.1,1,0.2,1.4c0.2,0.8,0.6,1.5,0.8,2.2c0.2,0.7,0.5,1.1,1.2,1.2c0.5,0.1,0.9,0.3,1.4,0.5c-2,2.1-1.4,4-0.1,6l0.7-0.4
	c0.4-0.5,0.7-1,1.1-1.5c1-1.2,2.1-2.4,3.2-3.7c0.2,0.4,0.4,0.8,0.5,1.2c0.2,0.6,0.6,0.9,1,0.9c0.3,0,0.6-0.2,0.9-0.5l0.4-0.5
	l0.6-0.4l0.6,0.6c0.2,0.6,0.4,1.2,0.5,1.8c0.3,1.2,0,1.9-1.1,2.4c-0.9,0.4-1.8,1.7-1.7,2.8c0,0.6,0.1,1.2,0.2,1.8
	c0,0.5-0.2,0.7-0.7,0.7h-0.1c-0.2,0-0.5,0-0.7,0c-0.6,0-1.2,0.1-1.8,0.2c-0.5,0.2-1.1,0.8-1.2,1.3c-0.4,1.5-0.7,3-0.9,4.5
	c-0.3,1.5,0.1,2.1,1.5,2.6c0.3,0.1,0.5,0.3,1,0.6c-0.7,0.6-1.3,1.2-1.8,1.7c-0.9,1-1.8,2-2.8,3c-0.7,0.7-0.9,1.4-0.7,2.4
	c0.3,1.3,0.5,2.6,0.8,4.1c-1.2,0.3-2.2,0.6-3.2,0.9c-0.7,0.2-1.4,0.9-1.2,1.5c0.3,0.8,0.6,1.6,1,2.3c0.6,1,0.6,1.9-0.4,2.7
	c-0.8-0.8-1.7-1.6-2.4-2.5c-0.5-0.6-0.8-1.3-1.1-2l-0.5-0.7c-0.1-0.1-0.4-0.1-0.6-0.1c-0.9,0-2.2,0.4-2.6,0.7s-0.9,0.6-1.5,0.6
	c-0.2,0-0.3,0-0.5-0.1c-0.4-0.1-0.8-0.1-1.3-0.1c-1,0-2.1,0-3.1-0.1l-0.7-0.5c-0.4-1.2-1.5-1.4-2.4-1.8c-0.3,0.5-0.5,1.2-0.9,1.3
	c-0.8,0.4-1.7,0.4-2.5,0.6l-0.8,0.2c-0.4,0.6-0.9,0.7-1.5,0.7c-0.2,0-0.5,0-0.7,0L242,235c0-0.3,0-0.7,0.2-1c0.4-0.6,1-1.2,1.5-1.9
	c-0.4-0.5-0.9-0.7-1.5-0.7c-0.2,0-0.4,0-0.7,0.1s-0.6,0.1-0.9,0.1c-0.8,0-1.1-0.4-1.1-1.4c0-0.5,0.2-1.2-0.6-1.4l-0.1-0.5
	c0.4-1.2-0.1-1.7-1.2-2.3c-1-0.5-2-0.9-3-0.9c-0.4,0-0.9,0.1-1.3,0.2c-0.7,0.2-1.6,0.5-1.8,1.6c-0.1,0.9-0.9,1.7-1.7,1.7
	c-0.1,0-0.3,0-0.4-0.1c-0.2-0.1-0.4-0.1-0.6-0.1c-0.6,0-1,0.5-1.1,1.4c0.9,0.2,1.6,0.6,1.6,1.7c0,0.3,0.6,0.8,0.9,0.8l0,0h0.1
	c0.8,0,1.1,0.5,1.1,1c-0.1,1.2,0.8,1.8,1.2,2.7c0.2,0.5,0.6,0.9,1,1.5c1.1,0.2,1.1,0.2,1,1.5v0.2c0.1,1.6-0.5,2.8-1.9,3.7
	c-0.8,0.5-1.6,0.8-2.4,1.3c-0.5,0.3-1,0.7-1.6,0.7c-0.2,0-0.4,0-0.7-0.1l-0.4,0.1c-1.5,0.3-2.5,1.5-3.5,2.5
	c-0.3,0.2-0.6,0.3-0.9,0.5c-0.3,0.4-0.6,0.7-0.9,1.1c-0.3,0.4-0.5,0.8-0.8,1.3l0.2,0.2c0.5-0.1,1.1-0.2,1.6-0.3
	c0.8-0.1,1.7-0.1,2.5-0.3c0.2-0.1,0.4-0.1,0.6-0.1c0.3,0,0.6,0.1,0.9,0.4c0.2,0.3,0.6,0.4,1,0.7c0.4-1.6,1.5-2.6,3-2.8
	c0.7-0.1,1.4,0,2-0.3c0.5-0.2,0.9-0.3,1.3-0.3c0.4,0,0.9,0.1,1.4,0.1c1.2,0.2,1.7,0.6,1.6,1.8l0.2,0.4c0.3,0.7,0.3,1.2-0.3,1.8
	c-0.3,0.3-0.5,0.8-0.4,1.2c0.1,0.6,0.5,1.2,0.7,1.8c0.7,1.8,1.3,3-1,4.2c-0.7,0.4-1,1.2-0.9,2.1c0.2,1.4,0.5,2.7,0.6,4.1
	c0.1,2-1.6,3.4-2.1,5.3c-0.1,0.4-0.4,0.8-0.6,1.2c-0.3,0.4-0.5,0.9-0.8,1.3c-0.5,0.7-1.6,0.8-1.9,1.7l-0.4,0.2
	c-0.9,0.4-1.9,0.9-2.8,1.3c-0.2,0.1-0.3,0.1-0.5,0.1c-0.1,0-0.3,0-0.4,0l-0.6-0.1c-1,0.5-2,0.9-2.9,1.6c-0.5,0.4-0.9,0.5-1.4,0.5
	c-0.3,0-0.6-0.1-0.9-0.2c-0.6-0.2-1.2-0.4-1.8-0.4c-0.5,0-1,0.1-1.5,0.5v0.8c-0.4-0.1-0.8-0.4-1.1-0.4c-0.2,0-0.4,0.1-0.7,0.4
	c-0.4,0.5-1,0.7-1.6,1.1l-0.7,0.2c-0.4,0.5-0.8,1-1.3,1c-0.2,0-0.5-0.1-0.8-0.3l-0.3,0.1c-0.3,0.2-0.6,0.4-0.9,0.4
	c-0.4,0-0.7-0.2-1.1-0.7c-0.5-0.5-0.9-0.7-1.2-0.7c-0.5,0-0.9,0.4-1.3,1.2c-0.2,0.3-0.3,0.8-0.6,0.9c-0.7,0.3-1.4,0.3-2.1,0.5
	c-1.4,0.4-2.8,0.8-4.3,1.2l0.4,0.3c-0.2,0.5-0.3,1-0.4,1.5c1.3,0.2,2.3,0.2,3.4,0.6c1.2,0.5,1.1,1,1.1,1.9c0,0.4,0,0.9,0,1.3
	c0,0.5-0.2,0.8-0.7,0.8c-0.1,0-0.1,0-0.2,0c-0.2,0-0.3,0-0.4,0c-1,0-1.7,0.5-2,1.4c0.2,0.8,0.4,1.5,0.6,2.3c0.2-0.2,0.4-0.3,0.6-0.3
	c0.3,0,0.5,0.2,0.8,0.5c0.2,0.3,0.6,0.4,0.8,0.7c0.2,0.4,0.6,0.8,0.5,1.2c-0.1,0.8,0.3,1.1,0.9,1.4c0.3,0.2,0.7,0.3,0.9,0.6
	c0.3,0.3,0.7,0.5,1,0.5c0.4,0,0.7-0.2,1.1-0.5c0.6-0.6,1.1-0.8,1.6-0.8c0.4,0,0.9,0.2,1.5,0.6c0.3-0.1,0.6-0.4,0.8-0.4
	c0,0,0,0,0.1,0s0.2,0,0.3,0c0.8,0,1.1-0.5,1.4-1.2c0.6-1.2,1-1.6,1.9-1.6c0.3,0,0.7,0.1,1.3,0.2c1,0.2,2,0.5,3.1,0.6
	c1.4,0.1,1.9,0.4,2.3,1.7c0.4,1.1,1.1,1.9,2.2,1.9c0.2,0,0.3,0,0.5-0.1c0.1,0,0.3,0,0.4,0c0.7,0,1.2,0.4,1.6,1.1
	c0.1,0.3,0.2,0.9,0,1s-0.4,0.2-0.7,0.2c-0.1,0-0.3,0-0.4-0.1c-0.4-0.2-0.8-0.6-1.1-0.8c-1.7,0.4-2.2,1.5-2.2,3l0.5,0.3
	c0.8,0.7,1.5,1.2,2.4,1.2c0.4,0,0.9-0.1,1.5-0.5c0.1-0.1,0.2-0.1,0.4-0.1s0.5,0.1,0.8,0.1c0.8,0.1,1.7,0.3,2.3,0.4
	c0.4-0.7,0.6-1.5,1-1.6c0.3-0.1,0.7-0.2,1-0.2c0.9,0,1.7,0.3,2.4,0.8c0.6,0.4,0.9,1.3,1.1,2.1c0.3,1.1,0.4,2.3,0.8,3.4
	c0.1,0.4,0.7,0.8,1,0.9c0.7,0.1,1.1,0.4,1.4,1c0.5,0.9,0.9,1.8,1.3,2.7c1.4,0.5,3,1.1,4.6,1.7v2.1h0.3c0.1-0.6,0.1-1.3,0.2-1.9h1.7
	c0,0.7,0.1,1.3,0.1,1.9h0.3c0.1-0.4,0.2-0.9,0.4-1.3c0.1-0.5,0.4-0.9,1-0.9h0.1c0.1,0,0.2,0,0.3,0c0.6,0,1.1-0.2,1.1-1.1l0.3-0.4
	c1-1,1.9-2.3,3.5-2.6c0.5-0.1,0.9-0.3,1.3-0.6c0.3-0.2,0.5-0.3,0.7-0.3s0.4,0.1,0.7,0.2c0.5,0.3,1,0.4,1.6,0.4
	c0.4,0,0.8-0.1,1.2-0.3c0.9-0.4,1.9-0.6,2.9-0.7c0.1,0,0.2,0,0.3,0c0.4,0,0.9,0.1,1.3,0.1c-0.1,0.4-0.2,0.8-0.2,1.2
	c0,1.5-0.7,2.1-2.2,2.1c-0.1,0-0.1,0-0.2,0H262c-0.7,0-1.8,0.3-2,0.8c-0.5,1.2-1.7,1.3-2.4,2.1c-0.5,0.5-1.3,0.7-1.8,1.2
	c-0.7,0.7-1.4,1.4-1.8,2.2c-0.4,1-0.4,2.1-0.6,3.2c-0.1,0.3-0.4,0.8-0.6,0.8c-0.1,0-0.3,0-0.4,0c-0.5,0-1.1-0.1-1.7-0.1
	c-0.3,0-0.6-0.2-0.9-0.2l0,0c-1.2,0.1-2.4,0.4-3.6,0.4c-0.2,0-0.4,0-0.6,0c-0.6,0-1.3-0.1-1.8-0.3c-0.9-0.5-1.8-1.2-2.5-1.9
	c-0.3-0.3-0.6-0.5-0.9-0.5c-0.1,0-0.2,0-0.4,0.1l-0.7-0.2l-0.7-0.4c-0.9-0.2-1.9-0.2-2.8-0.5c-1-0.3-1.9-0.9-3.1-0.9
	c-0.1,0-0.2,0-0.3,0c-0.4,0-0.8,0-1.1,0c-1.4,0-2.9-0.2-4.3-0.3l-1,0.2c-0.7-0.2-1.4-0.4-2-0.4c-0.9,0-1.8,0.2-2.7,0.5
	c0.5,0.8,0.5,1.4-0.5,1.7l-0.4,0.5c0,0.4,0.1,0.8,0.1,1.2c0,0.8,0.3,1.6-0.5,2.2c-0.6,0.4-1.1,0.9-1.7,1.3c-0.3,0.3-0.7,0.4-1.2,0.4
	c-1,0-2-0.5-2.4-1.2c-0.4,0-0.8,0-1.2,0s-0.7,0-1.1,0l-0.6,0.3c-0.4,1-0.7,1.9-1.1,2.9c-0.1,0.4-0.4,0.7-0.6,1.1
	c-0.3,1.1-0.4,2.4-0.6,3.6c-0.1,0.9-0.4,1.5-1.4,1.6c-0.6,0.1-1.2,0.6-1.7,1.1c-0.4,0.4-0.5,1-0.7,1.5c-0.2,0-0.3,0-0.5,0
	c-1.4,0-2.3,0.6-2.6,2.1c-0.1,0.4-0.6,1-1,1.1c-0.5,0.1-0.9,0.2-1.4,0.2c-0.4,0-0.8,0-1.2-0.2c-0.2-0.1-0.4-0.1-0.6-0.1
	c-0.4,0-0.6,0.2-0.9,0.6c-0.5,0.8-1.1,1.3-2,1.3c-0.2,0-0.3,0-0.5-0.1l-0.2,0.1c-0.2,0.9-0.4,1.8-0.7,2.7c-0.2,0.6-0.7,1.1-1.2,1.5
	c-0.4,0.3-1.1,0.3-1.6,0.4c-0.7,0.1-1,0.4-1,1.1c0,0.6-0.2,1.1-0.9,1.4c-0.6,0.3-1.2,0.7-1.7,1.1c-1,0.7-2,1.5-3,2.1
	c-0.1,0.1-0.2,0.1-0.3,0.1c-0.3,0-0.6-0.1-0.9-0.2l-0.4-0.1c-0.4,0.5-0.7,1-1,1.2l-1.1-0.1c-0.6-0.5-1.1-0.8-1.6-0.8
	c-0.3,0-0.7,0.1-1.2,0.3c-0.6,0.3-1.3,0.6-1.9,0.7c-1.9,0.3-2.5,0.9-2.6,2.8l-0.2,0.7c-0.7,0.6-0.3,1.2,0,1.7
	c0.2,0.3,0.8,0.4,1.2,0.4h0.1c0.5,0,1-0.1,1.4-0.2c1.3,0,1.7-0.4,1.9-1.7c0.1-0.5,0.3-0.8,0.7-0.8c0.1,0,0.2,0,0.3,0.1
	c0.5,0.2,1,0.5,1.5,0.8c0.3,0.2,0.6,0.4,0.9,0.6c0.8,0.5,2,0.9,2.4,1.7c0.5,0.9,1.1,2.2,0.3,3.2c0.2,0.3,0.2,0.6,0.4,0.8
	c0.4,0.4,0.7,0.9,1.2,1.3l0,0c0.1,0,0.5-0.5,0.8-0.7c0.4-0.3,0.9-0.7,1.4-0.7c1.3,0,2.3-1.1,2.2-2.4c0-0.6,0.1-1.2,0.1-1.8
	c0.1-0.8,0.5-1,1-1c0.2,0,0.3,0,0.5,0.1c0.2,0,0.4,0.1,0.6,0.1c0.7,0,1-0.3,1.3-1.1c0.2-0.3,0.6-0.6,1-0.7c0.4-0.2,0.8-0.2,1.2-0.3
	c0.5-0.2,0.9-0.4,1.3-0.4c0.4,0,0.8,0.2,1.1,0.6c1.1-0.7,1.1-0.8,1.1-1.9l0.3-0.8c0.2-0.4,0.5-0.7,0.9-1.2c0.5-0.1,0.8-0.1,1-0.1
	c0.5,0,0.6,0.2,0.9,0.7l0.6-0.4c0.5,0.2,0.9,0.3,1.2,0.4c0.1,0,0.2,0,0.2,0c0.1,0,0.1,0,0.2,0c0.1,0,0.1,0,0.2,0
	c0.1,0,0.3,0,0.4,0.1c0.5,0.3,0.9,0.4,1.4,0.4s1.1-0.2,1.6-0.3c0.6-0.2,1.2-0.3,1.8-0.3c0.4,0,0.8,0,1.2,0.1c1.7,0.1,2.6,0.9,3,2.3
	c0.9-0.4,1.7-0.8,2.5-1.3l0.2,0.4c-0.3,1.6,1.2,1.9,1.9,2.9l0.4,0.1c0.3-0.1,0.5-0.1,0.8-0.1c0.8,0,1.5,0.3,2.2,0.7
	c0.8,0.4,1.1,1.1,1,1.9s0.1,1.2,1,1.3c0.9,0.1,1.7,0.1,2.6,0.2c0.3,0,0.5,0,0.8,0c0.2,0,0.4,0,0.6-0.1l0.7-0.6
	c0.2-1.2,1-2.1,2.3-2.5c0.7-0.2,1.5-0.5,2.1-1c0.5-0.4,0.7-1.1,1.1-1.8c-0.3-0.1-0.7-0.2-1-0.4l-0.6-0.6c0-1,0.4-1.4,1.4-1.4h0.5
	c0-0.8,0-1.5,0-2.2c0.1-1.4,1.6-1.9,2.2-3c0.2-0.4,0.6-0.6,1-0.6c0.2,0,0.5,0.1,0.7,0.2l0.7,0.1c0.8-0.5,1.7-1,2.4-1.6
	c0.5-0.4,1-0.6,1.6-0.7c0.1,0,0.2,0,0.2,0c0.4,0,0.8,0.1,1.2,0.2s0.8,0.2,1.2,0.2s0.9-0.1,1.3-0.5h0.4c0.5,0.2,1,0.2,1.4,0.2
	c0.7,0,1.4-0.2,2.1-0.5c0.1-0.1,0.3-0.1,0.5-0.1c0.3,0,0.7,0.1,1,0.2c1.3,0.6,2.7,1.2,3.8,2.1c1.6,1.3,3.2,2.8,4.5,4.4
	c0.4,0.5,0.8,0.8,1.3,0.8c0.1,0,0.2,0,0.2,0c0.4-0.1,0.7-0.6,1-0.9l-0.1-0.4c0.9,0.2,1.7,0.4,2.6,0.6c1,0.3,2,0.7,3,1
	c0.4,0.1,0.8,0.1,1.1,0.3c1,0.6,1.9,1.2,2.9,1.8c0.1,0.1,0.3,0.1,0.6,0.1c0.7,0,1.5-0.4,1.8-0.8c0.5-0.4,1.1-0.8,1.6-1.2
	c-0.8-1.3-0.1-2.6,1.2-2.6c0.1,0,0.1,0,0.2,0c1.2,0,2.5,0.1,3.8,0.2l0.9-0.5c1.2,0.4,2.4,0.8,3.5,1.4c0.9,0.5,0.8,0.9,0.1,1.6
	l-0.5,0.6c0.3,0,0.4,0.1,0.6,0.1h0.1c0.2,0,0.3,0,0.4,0c0.8,0,1.4,0.4,2.1,1c1.4,1.4,2.8,3.1,4.9,3.1c0.3,0,0.7,0,1.1-0.1h0.1
	c0.2,0.1,0.3,0.1,0.4,0.1c0.4,0,0.5-0.3,0.6-0.7c0.2-1,0.7-1.6,1.8-1.6c0,0,0,0,0.1,0l0,0c0.5,0,1.1-0.2,0.9-1
	c-0.4-1.4-1.4-2.2-2.6-2.6c-1-0.3-1.8-0.8-2.5-1.5c-0.6-0.6-0.8-1.1-0.2-1.8c0.4-0.4,0.7-0.5,1-0.5s0.6,0.2,1,0.5s0.6,0.8,1,1
	c0.5,0.4,1.1,0.8,1.7,1c1,0.2,2,0.2,3.1,0.4c0.5,0.1,0.9,0.4,1.3,0.4h0.1c0.1,0,0.2,0,0.3,0c0.5,0,0.8,0.2,1.1,0.6
	c0.8,0.9,1.7,1.7,2.6,2.6c0.3-0.4,0.4-0.6,0.6-0.8c0.4-0.4,0.8-1,1.3-1c1.7-0.3,3.4-0.4,5.1-0.5c0.2,0,0.3,0,0.5,0
	c1.3,0,2.6,0.1,3.9,0.2l0,0c1,0,1.9-0.2,2.9-0.2h0.1c0.7,0,1.3,0.2,1.6,1c0.3,0.5,0.8,1,1.3,1.3h0.1c0.3,0,0.7-0.3,1.1-0.4l0.5-0.1
	c1.8,0.2,3.3,0.9,4.7,2l0.7,0.4c0.6,0.3,1.2,0.5,1.7,0.9c0.3,0.3,0.6,0.4,0.9,0.4s0.6-0.1,0.9-0.4c0.7-0.7,1.4-1.4,2.2-2
	c0.4-0.3,0.8-0.7,1.3-0.7c1.4-0.2,2.9-0.4,4.4-0.4c1.8,0,3.4-0.4,4.6-1.9c0.4-0.5,1-0.9,1.7-0.9c0.2,0,0.4,0,0.6,0.1
	c1.1,0.4,2.1,0.8,3.2,1.2c0.3,0.1,0.6,0.2,0.9,0.2c0.1,0,0.3,0,0.4-0.1c0.2-0.2,0.1-0.8,0.2-1.3c0-0.3-0.1-0.6,0-1
	c0.4-2.1,2.4-3.7,4.6-3.7c0.1,0,0.2,0,0.3,0c0.1,0,0.2,0,0.3,0c0.4,0,0.8,0,1-0.2c0.7-0.7,1.4-0.6,2.3-0.6h0.1c0.1,0,0.3,0,0.4,0
	s0.3,0,0.4,0c0.4,0,0.8,0,1-0.2c1.3-0.9,2.3-2.2,2.3-4c0-1,0-2,0-3c0-0.9-0.1-1.7,0.9-2.1c0.3-0.1,0.4-0.6,0.6-1
	c0.1-0.3,0.3-0.8,0.2-1.1c-0.2-0.4-0.6-0.6-1.1-0.6c-0.1,0-0.3,0-0.4,0c-0.6,0.1-1.3,0.2-1.9,0.2c-0.5,0-1,0-1.5-0.1
	c-1-0.2-2-0.3-3-0.3c-1.1,0-2.2,0.2-3.2,0.5c-0.2,0.1-0.4,0.1-0.6,0.1c-0.5,0-0.8-0.3-0.9-1c-0.1-0.3-0.3-0.6-0.5-0.9
	c-0.2-0.4-0.5-0.8-0.6-1c-1.5-0.7-3.1-1.2-4.3-2.2c-1.1-0.9-2.1-1.5-3.4-1.8l-0.6-0.6c0.7-0.2,1.2-0.3,1.5-0.6
	c0.5-0.4,1-0.6,1.6-0.6c0.3,0,0.6,0.1,1,0.2c0.5,0.2,1,0.4,1.5,0.4s1-0.2,1.5-0.7c0.9-0.8,2-1.2,3-2c0.3-0.2,0.4-0.7,0.4-1.1
	c0.1-0.5-0.1-1.1,0.1-1.6c0.5-1.2,0.5-2.3,0.4-3.5c-0.4-0.1-0.7-0.1-1.2-0.2l0.3-0.6c0.8-0.3,1.6-0.6,2.5-0.8l0.8,0.4
	c0.4,0.5,0.8,0.8,1.4,0.8c0.1,0,0.2,0,0.4,0c0.5-0.1,0.9-0.3,1.4-0.4c1.8-0.5,3-1.9,4.1-3.2l-0.1-0.3c-0.6-0.4-0.8-1.1-0.5-1.6
	c0.3-0.4,0.9-0.7,1.5-0.9l0.6-0.1c1-0.9,2-1.8,3-2.8c0.8-0.8,1.4-1.8,2.8-1.8c0.4,0,1.1-0.4,1.3-0.7c0.7-1.2,1.2-2.4,1.8-3.7v-0.6
	c0.3-1.4,0.1-2.9,1.1-4.1c1.3-1.7,2.5-3.5,2.8-5.7c0.1-0.5,0.3-1,0.7-1.4c0.7-0.8,0.5-1.6,0.3-2.4c-0.1-0.7-0.2-1.3-0.2-2
	c0-0.9,0.4-1.8-0.6-2.5l-0.4-0.8c-0.1-1-0.1-1.9-0.2-2.9l-0.7-0.5c-0.4-0.4-0.7-0.9-1.1-1.3c-0.2-0.3-0.6-0.5-0.7-0.8
	c-0.1-0.4-0.5-0.5-0.6-0.7c-0.5-0.8-1-1.4-1.9-1.8l-0.1-0.3c-0.3-0.9-0.8-1.6-1.8-1.7l-0.5-0.5c-0.3-0.5-0.4-1.3-0.8-1.3
	c-1.1-0.2-0.9-0.8-0.6-1.6c-1.2-0.4-2.3-0.7-3.4-1.1c-1.6-0.7-3.3-1.4-5-1.4c-0.3,0-0.5,0-0.8,0l-0.4-0.1c-0.3-0.2-0.5-0.3-0.7-0.3
	c-0.4,0-0.5,0.4-0.6,1c-0.7-0.1-1.4-0.3-2.1-0.4c-0.7,0-1.3-0.1-1.4-0.7c-0.4,0.1-0.8,0.4-1.2,0.4l0,0c-0.7,0-1.3-0.2-2-0.2
	c-0.2,0-0.5-0.1-0.7-0.1s-0.3,0-0.4,0.1c-0.5,0.2-0.8,0.7-1.4,1.2c-0.5,1-1.2,2.2-1.9,3.5l0.5,0.3c-0.5,0.3-0.9,0.6-1.3,0.8
	l-0.3-0.6c-0.3,0.3-0.5,0.4-0.8,0.4s-0.6-0.2-0.9-0.5l-0.7-0.2c-1.4,0-1.6-0.2-2-1.6c-0.2-0.6-0.6-1.3-1-1.7
	c-0.4-0.4-1.1-0.6-1.7-0.8c-0.6-0.2-1-0.9-0.7-1c0.9-0.1,0.8-1,1.3-1.4c0.9-0.7,1.6-1.7,2.4-2.4c1.2-0.9,2.5-1.6,3.7-2.4
	c0.4-0.3,0.8-0.5,1.1-0.9c1.1-1.8,0.9-3.8,0.8-5.8c0-0.6-0.3-1.1-0.4-1.6c-0.4,0.2-0.7,0.4-0.9,0.4c0,0,0,0-0.1,0l-0.5-0.6
	c-0.3-1.1-0.6-2.1-1-3.2c-0.1-0.4-0.4-1-0.2-1.3c0.6-1.3,0.6-2.6,0.1-3.9c-0.3,0-0.7,0-1-0.1c-1.4-0.2-1.6-0.4-1.9-1.7l-0.2-0.4
	c-0.2-0.3-0.5-0.6-0.7-0.9c-0.5-0.7-0.8-1.8-1.4-2c-1.4-0.3-1.7-1.5-2.6-2.3c-0.5-0.4-0.8-1.1-1-1.7c-0.1-0.4,0.1-0.9,0.2-1.3
	c0.4,0.2,0.8,0.3,1.1,0.6c0.6,0.7,1.1,1.4,1.8,2.1c0.4,0.4,0.8,0.7,1.3,0.7c0.2,0,0.4-0.1,0.7-0.2c0.3-0.1,0.7-0.2,1-0.2
	c0.4,0,0.8,0.1,1.1,0.4c0.6,0.6,1.3,1.1,2.1,1.7c-0.2-1-0.2-2-0.6-2.9c-0.4-1-1.2-1.8-1.8-2.8c-0.6-1.2-1.1-2.5-1.7-3.7
	c-0.9-1.8-2-3.6-2.1-5.7c0-0.7-0.2-1.5-0.3-2.2c-0.1-1.6-0.2-3.1,1.3-4.2c0.2-0.2,0.4-0.4,0.7-0.7c-0.8-0.5-1.5-1-2.3-1.3
	c-0.8-0.4-1-1-0.4-1.7l0.2-0.5c0.3-1.1-0.3-1.8-1.1-2.5c-0.5-0.4-1-1-1.2-1.6c-0.4-1.4-0.5-2.9-0.9-4.3c-0.2-0.7-0.8-1.4-1.2-2
	l-0.3-0.6c0.1-1.3-0.7-2.2-1.6-2.9c-0.8-0.7-1.5-1.4-2.3-2.1c-1.2-1.1-2.4-2.2-4.1-2.7c-1.2-0.4-2.4-1.2-3.4-2
	c-0.6-0.5-1.7-0.6-1.8-1.7l-0.3-0.1c-1-0.4-1.2-1.3-0.5-2c-0.5-0.6-1.1-1.2-1.5-1.8c-1.1-1.6-0.8-3.6-1.1-5.4c-0.2-1.5,0-3,0.1-4.5
	l-0.1-0.4c-0.2-0.7-0.5-1.5-0.5-2.2c0-0.8,0.1-1.6,0.2-2.4c-0.4-0.1-0.7-0.1-0.9-0.3c-0.7-0.4-1.3-3.6-0.9-4.3
	c0.2-0.3,0.5-0.7,0.7-1h-0.3c-0.1-0.4-0.2-0.8-0.3-1.2l-0.1-0.5c-0.6-1.3-1-2.5,0.3-3.6c-1-1.3-1.2-2.5-0.3-3.8
	c0.3-0.4,0.4-0.9,0.4-1.4c0-1.2-0.2-2.3-0.3-3.5c-0.1-1.5-0.3-3.1-1.8-4c-1-0.6-1.4-1.6-1.2-2.8c0.1-0.5-0.1-1-0.7-1h-0.1
	c-0.1,0-0.2,0-0.3,0c-0.8,0-1.1-0.5-1.5-1.2c-0.2-0.4-0.6-0.6-0.8-1c-0.3-0.5-0.6-1-0.8-1.5c-0.2-0.6-0.3-1.2-0.4-1.8
	c-0.3-1-0.6-1.9-0.9-2.8l-0.3-0.5c-0.4-0.7-0.7-1.3-1-1.8c-0.6-0.3-1.1-0.6-1.5-0.9l-0.7-0.3c-0.1,0-0.2,0-0.3,0
	c-0.9,0-1.5-0.4-2.1-1c-1-1-2.2-1.8-3.2-2.8c-0.5-0.5-1.3-0.5-1.7-1.3c-0.6-1.1-1.4-2.3-3-2.3H296c0,0,0,0-0.1,0
	c-0.6,0-1.1-0.3-1.8-0.5c-0.4,0.4-1.1,0.8-1.3,1.4c-0.8,1.7-2,2.1-3.4,2.1c-0.5,0-1,0-1.6-0.1c-0.4,0-0.9-0.3-1.3-0.6
	c-0.6-0.3-1.2-0.8-1.8-1c-0.6-0.2-1.3-0.1-1.9-0.2c-1-0.1-2.1-1.4-1.9-2.3c0.4,0,0.8,0,1.2-0.1c1-0.2,2-0.4,3-0.5
	c0.9-0.1,1.3-0.7,1.7-1.4c0.1-0.3,0.3-0.7,0.6-0.9c1-0.7,2.2-1.3,3.2-2.1c0.5-0.4,1.1-0.6,1.6-0.6c0.6,0,1.1,0.2,1.6,0.7
	c0.3,0.3,0.7,0.6,1.1,0.6c0.2,0,0.4-0.1,0.6-0.2c0.5-0.3,1.1-0.5,1.6-0.5c1.6-0.1,2.6-1.3,3.8-2.2c-0.6-0.6-1-1.3-1.6-1.8
	c-0.4-0.4-1-0.7-1.5-0.8c-1.5-0.4-2-2.2-1-3.3c0.7-0.8,0.4-1.7-0.6-2c-0.3-0.1-0.5-0.3-0.9-0.6c0.6-0.4,1.2-0.6,1.8-0.6
	c0.4,0,0.7,0.1,1.1,0.3c0.2,0.1,0.4,0.2,0.5,0.2c0.2,0,0.4-0.2,0.7-0.4c0.9-0.8,1.8-1.8,2.8-2.1c1.2-0.3,1.9-1,2.7-1.8
	c0.3-0.4,0.4-1,0.6-1.6c0.2-0.5,0.4-1,0.7-1.4c0.4-0.5,1-0.9,1.1-1.7c0.2-1.2,0.7-2.3,2.2-2.4l0.5-0.3c1.2-1.1,2.4-2.1,3.4-3.2
	c0.6-0.7,1.2-1.6,1.2-2.5c0.1-1.6,1.2-2.6,1.9-3.8c0.8-1.3,1.8-2.4,2.5-3.2c0-1.2-0.3-2.1,0-2.8c0.9-2.1,1.9-4.2,3.6-5.8
	c1.7-1.6,3.4-3.3,5.1-4.9l-0.2-0.1c0-0.5,0.1-1.1,0.1-1.6c-0.3-0.3-0.5-0.7-0.5-1.1c-0.1-0.7,0-1.3,0-2l-0.3-0.6
	c-0.6-0.8-1.7-1.4-2-2.5c-0.1-0.3-0.6-0.6-0.9-0.6c-1-0.1-1-1-1.4-1.6l-0.4-0.8c-0.1,0-0.2,0-0.4,0c-0.3,0-0.6,0.1-0.7,0.2
	c-0.4,0.4-0.8,0.6-1.2,0.6c-0.3,0-0.7-0.1-1.1-0.4c-0.5-0.3-1-0.5-1.3-0.7c-0.6,0.2-1.1,0.4-1.6,0.4c-0.1,0-0.1,0-0.2,0
	c-1.4-0.2-2.8-0.6-4.2-1c-0.9-0.3-1.8-0.7-2.7-1c-1.1-0.3-2.2-0.5-3.2-1c-0.4-0.2-0.7-0.3-1.1-0.3c-0.2,0-0.5,0.1-0.8,0.2
	c-0.7,0.3-1.3,0.6-2,0.9c-0.1,0-0.3,0.1-0.4,0.1c-0.7,0-1.3-0.6-1.9-0.8c-1.3-0.5-2.3-1.2-3.2-2.3c-0.2-0.3-0.7-0.5-1.1-0.5
	c-0.6,0-1.3-0.1-1.9-0.1s-1.1,0-1.7,0l-0.7,0.7c0,0.6-0.3,0.8-0.8,0.8c-0.1,0-0.1,0-0.2,0c-0.5,0-1-0.1-1.5-0.1c-0.4,0-0.9,0-1.3,0
	c-0.8,0-1.6,0.1-2.4,0.8c-0.6,0.6-1.8,0.8-2.7,0.9c-0.1,0-0.2,0-0.2,0c-0.7,0-1.4-0.2-2.1-0.4s-1.4-0.4-2.1-0.4c-0.2,0-0.3,0-0.5,0
	l-0.2-0.2l0.5-0.8c2.7-2.6,5.5-5.3,8.2-7.9c0.3-0.3,0.5-0.9,0.7-1.3l-0.3-0.2c-0.4,0.4-0.8,0.7-1.1,1.1c-0.4,0.4-0.9,0.7-1.3,0.7
	s-0.8-0.2-1.2-0.6c-0.3-0.3-0.6-0.5-0.9-0.5c-0.2,0-0.3,0-0.5,0.1c-0.3,0.1-0.6,0.2-0.9,0.2c-0.1,0-0.3,0-0.4-0.1
	c-0.4-0.2-0.7-0.7-1-1c0.4-0.2,0.7-0.5,1.1-0.5c0.1,0,0.2,0,0.3,0c0.3,0,0.6,0.1,1,0.1c0.2-0.7,0.4-1.4,0.5-2.1
	c0.3-1.3,0.8-2.2,2.4-2.4c0.8-0.1,1.8-0.5,2.2-1.6c0.1-0.4,0.7-0.6,1.1-0.9l0.7-0.3c0.9-0.5,1.8-1.2,2.8-1.6c2.3-1,4.3-2.4,6-4.3
	c0.3-0.3,0.6-0.6,0.9-0.9c0.3-0.2,0.7-0.5,1-0.5c1.8-0.1,3.3-0.8,4.6-1.9c0.5-0.4,1.1-0.7,1.5-1.2c0.7-1,1.3-2,1.9-3
	c0.2-0.4,0.4-1-0.4-1.1c-1.2-0.2-1.5-1.3-0.7-2.2c0.3-0.4,0.8-0.7,1.1-1.1c0.8-1,1.7-2,1.9-3.6c-0.7-0.1-1.4-0.2-2.1-0.3l-0.8-0.3
	l-0.7-0.4c-0.5,0-1,0-1.5,0s-1.1,0-1.6,0c-0.2-0.5-0.3-1-0.5-1.4c-1.3,1-1.3,1-0.4,2.1c0.2,0.2,0.2,0.5,0.4,1
	c-0.6-0.1-1.3-0.1-1.4-0.3c-0.4-0.9-1.1-0.6-1.7-0.7l-0.5-0.2c-0.5-0.5-1.4-0.7-2.2-0.7c-0.5,0-1,0.1-1.4,0.4c-1,0.7-2,1-3.1,1
	c-0.4,0-0.7,0-1.1-0.1c-1.2-0.3-2.7-0.2-3.1-1.9c-0.9,0.6-1.1,0.7-1.8,0.7c-0.2,0-0.4,0-0.8,0l-0.3,0.1c-0.4,0.4-0.8,0.6-1.2,0.6
	c-0.2,0-0.4,0-0.6-0.1c-0.2,0-0.4,0-0.6,0l0,0h-0.1c-0.3,0-0.6,0-0.8-0.1c-0.4-0.2-0.8-0.6-1.2-1L279,14c-0.3,0.3-0.6,0.5-0.8,0.5
	c-0.3,0-0.5-0.2-0.8-0.6c-0.3-0.4-0.8-0.8-1.2-1.2c-0.5-0.6-1-0.8-1.4-0.8c-0.5,0-0.9,0.5-1.2,1.5l-0.8,0.3c-0.6-0.7-1-1.5-1.6-2.2
	c-0.4-0.6-0.8-1.3-1.4-1.6C268.8,8.2,267.5,7.8,265.9,7.3"/>
<g enable-background="new    ">
	<path fill="#1EB5BF" d="M27.1,131.4c4.3,0,7.1,2.9,7.1,7.3c0,4.4-2.8,7.2-7.1,7.2c-4.3,0-7.1-2.9-7.1-7.2
		C20,134.3,22.8,131.4,27.1,131.4z M27.1,143.1c2.6,0,3.4-2.2,3.4-4.4c0-2.2-0.8-4.4-3.4-4.4c-2.6,0-3.3,2.2-3.3,4.4
		C23.8,140.9,24.5,143.1,27.1,143.1z"/>
	<path fill="#1EB5BF" d="M37.5,134.3h-2.3v-2.5h2.3v-1.1c0-2.4,1.5-4.2,4.6-4.2c0.7,0,1.4,0.1,2,0.1v2.8c-0.5-0.1-0.9-0.1-1.4-0.1
		c-1,0-1.4,0.4-1.4,1.6v0.8h2.6v2.5h-2.6v11.2h-3.8V134.3z"/>
	<path fill="#1EB5BF" d="M52.9,131.8h3.6v1.8h0.1c0.9-1.5,2.4-2.1,4.1-2.1c4.3,0,6.2,3.5,6.2,7.4c0,3.7-2,7.1-6,7.1
		c-1.7,0-3.2-0.7-4.1-2.1h-0.1v6.5h-3.8V131.8z M63.1,138.7c0-2.2-0.9-4.4-3.3-4.4c-2.5,0-3.3,2.2-3.3,4.4c0,2.2,0.9,4.4,3.3,4.4
		C62.3,143.1,63.1,140.9,63.1,138.7z"/>
	<path fill="#1EB5BF" d="M72.3,139.6c0.1,2.4,1.2,3.5,3.4,3.5c1.5,0,2.7-0.9,3-1.8H82c-1.1,3.3-3.3,4.6-6.4,4.6c-4.3,0-7-3-7-7.2
		c0-4.1,2.8-7.3,7-7.3c4.7,0,7,3.9,6.7,8.2H72.3z M78.4,137.2c-0.3-1.9-1.2-2.9-3-2.9c-2.4,0-3.1,1.9-3.1,2.9H78.4z"/>
	<path fill="#1EB5BF" d="M91.1,131.4c4.3,0,7.1,2.9,7.1,7.3c0,4.4-2.8,7.2-7.1,7.2c-4.3,0-7.1-2.9-7.1-7.2
		C84,134.3,86.8,131.4,91.1,131.4z M91.1,143.1c2.6,0,3.4-2.2,3.4-4.4c0-2.2-0.8-4.4-3.4-4.4c-2.6,0-3.3,2.2-3.3,4.4
		C87.8,140.9,88.6,143.1,91.1,143.1z"/>
	<path fill="#1EB5BF" d="M100.7,131.8h3.6v1.8h0.1c0.9-1.5,2.4-2.1,4.1-2.1c4.3,0,6.2,3.5,6.2,7.4c0,3.7-2,7.1-6,7.1
		c-1.7,0-3.2-0.7-4.1-2.1h-0.1v6.5h-3.8V131.8z M110.9,138.7c0-2.2-0.9-4.4-3.3-4.4c-2.5,0-3.3,2.2-3.3,4.4c0,2.2,0.9,4.4,3.3,4.4
		C110.1,143.1,110.9,140.9,110.9,138.7z"/>
	<path fill="#1EB5BF" d="M117,126.6h3.8v19H117V126.6z"/>
	<path fill="#1EB5BF" d="M126.9,139.6c0.1,2.4,1.2,3.5,3.4,3.5c1.5,0,2.7-0.9,3-1.8h3.3c-1.1,3.3-3.3,4.6-6.4,4.6c-4.3,0-7-3-7-7.2
		c0-4.1,2.8-7.3,7-7.3c4.7,0,7,3.9,6.7,8.2H126.9z M133,137.2c-0.3-1.9-1.2-2.9-3-2.9c-2.4,0-3.1,1.9-3.1,2.9H133z"/>
	<path fill="#1EB5BF" d="M150.3,129.7h-3.8v-3.1h3.8V129.7z M146.6,131.8h3.8v13.8h-3.8V131.8z"/>
	<path fill="#1EB5BF" d="M153.3,131.8h3.6v1.9h0.1c1-1.6,2.6-2.3,4.2-2.3c4,0,5,2.3,5,5.7v8.5h-3.8v-7.8c0-2.3-0.6-3.4-2.4-3.4
		c-2,0-2.9,1.1-2.9,3.9v7.2h-3.8V131.8z"/>
	<path fill="#1EB5BF" d="M176.9,126.6h8.9c3.6,0,6.1,1.2,6.1,4.7c0,1.9-0.9,3.1-2.6,4c2.3,0.7,3.5,2.4,3.5,4.8
		c0,3.9-3.3,5.5-6.7,5.5h-9.2V126.6z M181.1,134.2h4.2c1.5,0,2.6-0.7,2.6-2.3c0-1.8-1.4-2.2-2.9-2.2h-3.9V134.2z M181.1,142.3h4.5
		c1.6,0,3.1-0.5,3.1-2.5c0-1.9-1.2-2.7-3-2.7h-4.5V142.3z"/>
	<path fill="#1EB5BF" d="M195.2,131.8h3.6v2.6h0.1c0.7-1.7,2.5-2.9,4.4-2.9c0.3,0,0.6,0.1,0.8,0.1v3.5c-0.3-0.1-0.9-0.1-1.4-0.1
		c-2.8,0-3.7,2-3.7,4.4v6.2h-3.8V131.8z"/>
	<path fill="#1EB5BF" d="M209.4,129.7h-3.8v-3.1h3.8V129.7z M205.7,131.8h3.8v13.8h-3.8V131.8z"/>
	<path fill="#1EB5BF" d="M217.2,131.8h2.8v2.5h-2.8v6.8c0,1.3,0.3,1.6,1.6,1.6c0.4,0,0.8,0,1.2-0.1v3c-0.6,0.1-1.5,0.1-2.2,0.1
		c-2.3,0-4.3-0.5-4.3-3.3v-8.1h-2.3v-2.5h2.3v-4.1h3.8V131.8z"/>
	<path fill="#1EB5BF" d="M221.6,136c0.2-3.5,3.4-4.6,6.5-4.6c2.7,0,6,0.6,6,3.9v7.2c0,1.2,0.1,2.5,0.5,3.1h-3.8
		c-0.1-0.4-0.2-0.9-0.3-1.3c-1.2,1.2-2.9,1.7-4.6,1.7c-2.6,0-4.7-1.3-4.7-4.1c0.1-6.2,9.3-2.9,9.1-6c0-1.6-1.1-1.9-2.4-1.9
		c-1.5,0-2.4,0.6-2.5,2.1H221.6z M230.3,138.8c-0.6,0.6-2,0.6-3.1,0.8c-1.2,0.2-2.2,0.6-2.2,2c0,1.4,1.1,1.8,2.3,1.8
		c3,0,3.1-2.3,3.1-3.2V138.8z"/>
	<path fill="#1EB5BF" d="M240.9,129.7h-3.8v-3.1h3.8V129.7z M237.1,131.8h3.8v13.8h-3.8V131.8z"/>
	<path fill="#1EB5BF" d="M243.9,131.8h3.6v1.9h0.1c1-1.6,2.6-2.3,4.2-2.3c4,0,5,2.3,5,5.7v8.5H253v-7.8c0-2.3-0.6-3.4-2.4-3.4
		c-2,0-2.9,1.1-2.9,3.9v7.2h-3.8V131.8z"/>
</g>
<g enable-background="new    ">
	<path fill="#1EB5BF" d="M20.5,159.8h3.8v19h-3.8V159.8z"/>
	<path fill="#1EB5BF" d="M31.2,162.9h-3.8v-3.1h3.8V162.9z M27.4,165h3.8v13.8h-3.8V165z"/>
	<path fill="#1EB5BF" d="M41.7,178.8h-4.2L32.8,165h4l2.9,9.4h0.1l2.9-9.4h3.8L41.7,178.8z"/>
	<path fill="#1EB5BF" d="M51.1,172.8c0.1,2.4,1.2,3.5,3.4,3.5c1.5,0,2.7-0.9,3-1.8h3.3c-1.1,3.3-3.3,4.6-6.4,4.6c-4.3,0-7-3-7-7.2
		c0-4.1,2.8-7.3,7-7.3c4.7,0,7,3.9,6.7,8.2H51.1z M57.2,170.4c-0.3-1.9-1.2-2.9-3-2.9c-2.4,0-3.1,1.9-3.1,2.9H57.2z"/>
	<path fill="#1EB5BF" d="M74.5,162.9h-3.8v-3.1h3.8V162.9z M70.7,165h3.8v13.8h-3.8V165z"/>
	<path fill="#1EB5BF" d="M77.5,165h3.6v1.9h0.1c1-1.6,2.6-2.3,4.2-2.3c4,0,5,2.3,5,5.7v8.5h-3.8V171c0-2.3-0.6-3.4-2.4-3.4
		c-2,0-2.9,1.1-2.9,3.9v7.2h-3.8V165z"/>
	<path fill="#1EB5BF" d="M100.7,159.8h3.8v7.2h0.1c1-1.6,2.6-2.3,4-2.3c4,0,5,2.3,5,5.7v8.5h-3.8V171c0-2.3-0.6-3.4-2.4-3.4
		c-2,0-2.9,1.1-2.9,3.9v7.2h-3.8V159.8z"/>
	<path fill="#1EB5BF" d="M123.1,164.7c4.3,0,7.1,2.9,7.1,7.3c0,4.4-2.8,7.2-7.1,7.2c-4.3,0-7.1-2.9-7.1-7.2
		C116,167.5,118.8,164.7,123.1,164.7z M123.1,176.3c2.6,0,3.4-2.2,3.4-4.4c0-2.2-0.8-4.4-3.4-4.4c-2.6,0-3.3,2.2-3.3,4.4
		C119.8,174.1,120.5,176.3,123.1,176.3z"/>
	<path fill="#1EB5BF" d="M132.8,165h3.6v1.9h0.1c1-1.4,2.4-2.2,4.2-2.2c1.7,0,3.3,0.6,4,2.3c0.8-1.2,2.2-2.3,4.1-2.3
		c2.9,0,5,1.4,5,4.9v9.2H150V171c0-1.8-0.2-3.4-2.3-3.4c-2.1,0-2.5,1.8-2.5,3.5v7.7h-3.8v-7.7c0-1.6,0.1-3.4-2.3-3.4
		c-0.7,0-2.6,0.5-2.6,3.2v8h-3.8V165z"/>
	<path fill="#1EB5BF" d="M159.9,172.8c0.1,2.4,1.2,3.5,3.4,3.5c1.5,0,2.7-0.9,3-1.8h3.3c-1.1,3.3-3.3,4.6-6.4,4.6c-4.3,0-7-3-7-7.2
		c0-4.1,2.8-7.3,7-7.3c4.7,0,7,3.9,6.7,8.2H159.9z M166,170.4c-0.3-1.9-1.2-2.9-3-2.9c-2.4,0-3.1,1.9-3.1,2.9H166z"/>
	<path fill="#1EB5BF" d="M175,174.3c0,1.6,1.4,2.3,2.9,2.3c1.1,0,2.5-0.4,2.5-1.8c0-1.1-1.6-1.6-4.3-2.1c-2.2-0.5-4.4-1.2-4.4-3.7
		c0-3.5,3-4.4,6-4.4c3,0,5.8,1,6.1,4.4h-3.6c-0.1-1.5-1.2-1.9-2.6-1.9c-0.9,0-2.1,0.1-2.1,1.3c0,1.4,2.2,1.5,4.3,2
		c2.2,0.5,4.4,1.3,4.4,3.9c0,3.6-3.2,4.8-6.3,4.8c-3.2,0-6.3-1.2-6.5-4.8H175z"/>
	<path fill="#1EB5BF" d="M198.5,165h2.8v2.5h-2.8v6.8c0,1.3,0.3,1.6,1.6,1.6c0.4,0,0.8,0,1.2-0.1v3c-0.6,0.1-1.5,0.1-2.2,0.1
		c-2.3,0-4.3-0.5-4.3-3.3v-8.1h-2.3V165h2.3v-4.1h3.8V165z"/>
	<path fill="#1EB5BF" d="M203.1,159.8h3.8v7.2h0.1c1-1.6,2.6-2.3,4-2.3c4,0,5,2.3,5,5.7v8.5h-3.8V171c0-2.3-0.6-3.4-2.4-3.4
		c-2,0-2.9,1.1-2.9,3.9v7.2h-3.8V159.8z"/>
	<path fill="#1EB5BF" d="M218.7,169.3c0.2-3.5,3.4-4.6,6.5-4.6c2.7,0,6,0.6,6,3.9v7.2c0,1.2,0.1,2.5,0.5,3.1h-3.8
		c-0.1-0.4-0.2-0.9-0.3-1.3c-1.2,1.2-2.9,1.7-4.6,1.7c-2.6,0-4.7-1.3-4.7-4.1c0.1-6.2,9.3-2.9,9.1-6c0-1.6-1.1-1.9-2.4-1.9
		c-1.5,0-2.4,0.6-2.5,2.1H218.7z M227.4,172.1c-0.6,0.6-2,0.6-3.1,0.8c-1.2,0.2-2.2,0.6-2.2,2c0,1.4,1.1,1.8,2.3,1.8
		c3,0,3.1-2.3,3.1-3.2V172.1z"/>
	<path fill="#1EB5BF" d="M238.9,165h2.8v2.5h-2.8v6.8c0,1.3,0.3,1.6,1.6,1.6c0.4,0,0.8,0,1.2-0.1v3c-0.6,0.1-1.5,0.1-2.2,0.1
		c-2.3,0-4.3-0.5-4.3-3.3v-8.1h-2.3V165h2.3v-4.1h3.8V165z"/>
	<path fill="#1EB5BF" d="M260.7,177L260.7,177c-0.9,1.5-2.4,2.1-4.2,2.1c-4.1,0-6.2-3.5-6.2-7.4c0-3.7,2-7.1,6.1-7.1
		c1.6,0,3.2,0.7,4.1,2h0.1v-6.9h3.8v19h-3.6V177z M257.4,167.5c-2.5,0-3.3,2.2-3.3,4.4c0,2.2,1,4.4,3.3,4.4c2.5,0,3.2-2.2,3.2-4.4
		C260.6,169.6,259.8,167.5,257.4,167.5z"/>
	<path fill="#1EB5BF" d="M273.8,164.7c4.3,0,7.1,2.9,7.1,7.3c0,4.4-2.8,7.2-7.1,7.2c-4.3,0-7.1-2.9-7.1-7.2
		C266.7,167.5,269.5,164.7,273.8,164.7z M273.8,176.3c2.6,0,3.4-2.2,3.4-4.4c0-2.2-0.8-4.4-3.4-4.4c-2.6,0-3.3,2.2-3.3,4.4
		C270.5,174.1,271.2,176.3,273.8,176.3z"/>
</g>
<g enable-background="new    ">
	<path fill="#1EB5BF" d="M20.4,198.3H24v1.9h0.1c1-1.6,2.6-2.3,4.2-2.3c4,0,5,2.3,5,5.7v8.5h-3.8v-7.8c0-2.3-0.6-3.4-2.4-3.4
		c-2,0-2.9,1.1-2.9,3.9v7.2h-3.8V198.3z"/>
	<path fill="#1EB5BF" d="M42.9,197.9c4.3,0,7.1,2.9,7.1,7.3c0,4.4-2.8,7.2-7.1,7.2c-4.3,0-7.1-2.9-7.1-7.2
		C35.8,200.8,38.5,197.9,42.9,197.9z M42.9,209.6c2.6,0,3.4-2.2,3.4-4.4c0-2.2-0.8-4.4-3.4-4.4c-2.6,0-3.3,2.2-3.3,4.4
		C39.5,207.4,40.3,209.6,42.9,209.6z"/>
	<path fill="#1EB5BF" d="M57.2,198.3H60v2.5h-2.8v6.8c0,1.3,0.3,1.6,1.6,1.6c0.4,0,0.8,0,1.2-0.1v3c-0.6,0.1-1.5,0.1-2.2,0.1
		c-2.3,0-4.3-0.5-4.3-3.3v-8.1h-2.3v-2.5h2.3v-4.1h3.8V198.3z"/>
	<path fill="#1EB5BF" d="M69.3,198.3h3.6v1.9h0.1c1-1.4,2.4-2.2,4.2-2.2c1.7,0,3.3,0.6,4,2.3c0.8-1.2,2.2-2.3,4.1-2.3
		c2.9,0,5,1.4,5,4.9v9.2h-3.8v-7.8c0-1.8-0.2-3.4-2.3-3.4c-2.1,0-2.5,1.8-2.5,3.5v7.7h-3.8v-7.7c0-1.6,0.1-3.4-2.3-3.4
		c-0.7,0-2.6,0.5-2.6,3.2v8h-3.8V198.3z"/>
	<path fill="#1EB5BF" d="M96.4,206.1c0.1,2.4,1.2,3.5,3.4,3.5c1.5,0,2.7-0.9,3-1.8h3.3c-1.1,3.3-3.3,4.6-6.4,4.6c-4.3,0-7-3-7-7.2
		c0-4.1,2.8-7.3,7-7.3c4.7,0,7,3.9,6.7,8.2H96.4z M102.5,203.7c-0.3-1.9-1.2-2.9-3-2.9c-2.4,0-3.1,1.9-3.1,2.9H102.5z"/>
	<path fill="#1EB5BF" d="M111.7,206.1c0.1,2.4,1.2,3.5,3.4,3.5c1.5,0,2.7-0.9,3-1.8h3.3c-1.1,3.3-3.3,4.6-6.4,4.6c-4.3,0-7-3-7-7.2
		c0-4.1,2.8-7.3,7-7.3c4.7,0,7,3.9,6.7,8.2H111.7z M117.8,203.7c-0.3-1.9-1.2-2.9-3-2.9c-2.4,0-3.1,1.9-3.1,2.9H117.8z"/>
	<path fill="#1EB5BF" d="M128.6,198.3h2.8v2.5h-2.8v6.8c0,1.3,0.3,1.6,1.6,1.6c0.4,0,0.8,0,1.2-0.1v3c-0.6,0.1-1.5,0.1-2.2,0.1
		c-2.3,0-4.3-0.5-4.3-3.3v-8.1h-2.3v-2.5h2.3v-4.1h3.8V198.3z"/>
	<path fill="#1EB5BF" d="M145.4,198.3h2.8v2.5h-2.8v6.8c0,1.3,0.3,1.6,1.6,1.6c0.4,0,0.8,0,1.2-0.1v3c-0.6,0.1-1.5,0.1-2.2,0.1
		c-2.3,0-4.3-0.5-4.3-3.3v-8.1h-2.3v-2.5h2.3v-4.1h3.8V198.3z"/>
	<path fill="#1EB5BF" d="M149.9,193h3.8v7.2h0.1c1-1.6,2.6-2.3,4-2.3c4,0,5,2.3,5,5.7v8.5h-3.8v-7.8c0-2.3-0.6-3.4-2.4-3.4
		c-2,0-2.9,1.1-2.9,3.9v7.2h-3.8V193z"/>
	<path fill="#1EB5BF" d="M168.8,206.1c0.1,2.4,1.2,3.5,3.4,3.5c1.5,0,2.7-0.9,3-1.8h3.3c-1.1,3.3-3.3,4.6-6.4,4.6c-4.3,0-7-3-7-7.2
		c0-4.1,2.8-7.3,7-7.3c4.7,0,7,3.9,6.7,8.2H168.8z M175,203.7c-0.3-1.9-1.2-2.9-3-2.9c-2.4,0-3.1,1.9-3.1,2.9H175z"/>
	<path fill="#1EB5BF" d="M188.8,193h4.2v15.5h9.3v3.5h-13.4V193z"/>
	<path fill="#1EB5BF" d="M208,196.2h-3.8V193h3.8V196.2z M204.2,198.3h3.8V212h-3.8V198.3z"/>
	<path fill="#1EB5BF" d="M218.6,212h-4.2l-4.7-13.8h4l2.9,9.4h0.1l2.9-9.4h3.8L218.6,212z"/>
	<path fill="#1EB5BF" d="M228.7,196.2h-3.8V193h3.8V196.2z M224.9,198.3h3.8V212h-3.8V198.3z"/>
	<path fill="#1EB5BF" d="M231.7,198.3h3.6v1.9h0.1c1-1.6,2.6-2.3,4.2-2.3c4,0,5,2.3,5,5.7v8.5h-3.8v-7.8c0-2.3-0.6-3.4-2.4-3.4
		c-2,0-2.9,1.1-2.9,3.9v7.2h-3.8V198.3z"/>
	<path fill="#1EB5BF" d="M260.7,211.2c0,2.3-0.8,6.1-7.1,6.1c-2.7,0-5.9-1.3-6.1-4.4h3.8c0.3,1.4,1.5,1.9,2.8,1.9
		c2.1,0,3.1-1.4,3-3.4v-1.8H257c-0.8,1.5-2.4,2.1-4.1,2.1c-4.1,0-5.9-3.1-5.9-6.9c0-3.6,2.1-6.8,5.9-6.8c1.8,0,3.2,0.6,4.1,2.2h0.1
		v-1.8h3.6V211.2z M257.1,205c0-2.2-0.8-4.2-3.2-4.2c-2.1,0-3.1,1.9-3.1,3.9c0,2,0.7,4.1,3.1,4.1C256,208.8,257.1,207,257.1,205z"/>
</g>
<g enable-background="new    ">
	<path fill="#1EB5BF" d="M20.8,226.3H25v7.3h7.7v-7.3h4.2v19h-4.2v-8.2H25v8.2h-4.2V226.3z"/>
	<path fill="#1EB5BF" d="M46.8,231.2c4.3,0,7.1,2.9,7.1,7.3c0,4.4-2.8,7.2-7.1,7.2c-4.3,0-7.1-2.9-7.1-7.2
		C39.7,234,42.5,231.2,46.8,231.2z M46.8,242.8c2.6,0,3.4-2.2,3.4-4.4c0-2.2-0.8-4.4-3.4-4.4c-2.6,0-3.3,2.2-3.3,4.4
		C43.5,240.6,44.2,242.8,46.8,242.8z"/>
	<path fill="#1EB5BF" d="M56.5,231.5H60v1.9h0.1c1-1.4,2.4-2.2,4.2-2.2c1.7,0,3.3,0.6,4,2.3c0.8-1.2,2.2-2.3,4.1-2.3
		c2.9,0,5,1.4,5,4.9v9.2h-3.8v-7.8c0-1.8-0.2-3.4-2.3-3.4c-2.1,0-2.5,1.8-2.5,3.5v7.7h-3.8v-7.7c0-1.6,0.1-3.4-2.3-3.4
		c-0.7,0-2.6,0.5-2.6,3.2v8h-3.8V231.5z"/>
	<path fill="#1EB5BF" d="M83.6,239.3c0.1,2.4,1.2,3.5,3.4,3.5c1.5,0,2.7-0.9,3-1.8h3.3c-1.1,3.3-3.3,4.6-6.4,4.6c-4.3,0-7-3-7-7.2
		c0-4.1,2.8-7.3,7-7.3c4.7,0,7,3.9,6.7,8.2H83.6z M89.7,236.9c-0.3-1.9-1.2-2.9-3-2.9c-2.4,0-3.1,1.9-3.1,2.9H89.7z"/>
	<path fill="#1EB5BF" d="M106.4,239c0,2.5,2,3.5,4.2,3.5c1.5,0,3.7-0.4,3.7-2.4c0-2.1-2.9-2.4-5.6-3.1c-2.8-0.7-5.7-1.9-5.7-5.4
		c0-3.9,3.7-5.7,7.1-5.7c4,0,7.6,1.7,7.6,6.1h-4c-0.1-2.3-1.7-2.9-3.8-2.9c-1.3,0-2.9,0.6-2.9,2.2c0,1.5,0.9,1.7,5.7,2.9
		c1.4,0.3,5.6,1.2,5.6,5.5c0,3.5-2.7,6.1-7.9,6.1c-4.2,0-8.2-2.1-8.1-6.8H106.4z"/>
	<path fill="#1EB5BF" d="M125.2,231.5h2.8v2.5h-2.8v6.8c0,1.3,0.3,1.6,1.6,1.6c0.4,0,0.8,0,1.2-0.1v3c-0.6,0.1-1.5,0.1-2.2,0.1
		c-2.3,0-4.3-0.5-4.3-3.3v-8.1h-2.3v-2.5h2.3v-4.1h3.8V231.5z"/>
	<path fill="#1EB5BF" d="M129.6,235.8c0.2-3.5,3.4-4.6,6.5-4.6c2.7,0,6,0.6,6,3.9v7.2c0,1.2,0.1,2.5,0.5,3.1h-3.8
		c-0.1-0.4-0.2-0.9-0.3-1.3c-1.2,1.2-2.9,1.7-4.6,1.7c-2.6,0-4.7-1.3-4.7-4.1c0.1-6.2,9.3-2.9,9.1-6c0-1.6-1.1-1.9-2.4-1.9
		c-1.5,0-2.4,0.6-2.5,2.1H129.6z M138.3,238.6c-0.6,0.6-2,0.6-3.1,0.8s-2.2,0.6-2.2,2c0,1.4,1.1,1.8,2.3,1.8c3,0,3.1-2.3,3.1-3.2
		V238.6z"/>
	<path fill="#1EB5BF" d="M145,231.5h3.6v1.9h0.1c1-1.6,2.6-2.3,4.2-2.3c4,0,5,2.3,5,5.7v8.5h-3.8v-7.8c0-2.3-0.6-3.4-2.4-3.4
		c-2,0-2.9,1.1-2.9,3.9v7.2H145V231.5z"/>
	<path fill="#1EB5BF" d="M170.6,243.5L170.6,243.5c-0.9,1.5-2.4,2.1-4.2,2.1c-4.1,0-6.2-3.5-6.2-7.4c0-3.7,2-7.1,6.1-7.1
		c1.6,0,3.2,0.7,4.1,2h0.1v-6.9h3.8v19h-3.6V243.5z M167.3,234c-2.5,0-3.3,2.2-3.3,4.4c0,2.2,1,4.4,3.3,4.4c2.5,0,3.2-2.2,3.2-4.4
		C170.5,236.1,169.8,234,167.3,234z"/>
	<path fill="#1EB5BF" d="M176.9,235.8c0.2-3.5,3.4-4.6,6.5-4.6c2.7,0,6,0.6,6,3.9v7.2c0,1.2,0.1,2.5,0.5,3.1H186
		c-0.1-0.4-0.2-0.9-0.3-1.3c-1.2,1.2-2.9,1.7-4.6,1.7c-2.6,0-4.7-1.3-4.7-4.1c0.1-6.2,9.3-2.9,9.1-6c0-1.6-1.1-1.9-2.4-1.9
		c-1.5,0-2.4,0.6-2.5,2.1H176.9z M185.6,238.6c-0.6,0.6-2,0.6-3.1,0.8s-2.2,0.6-2.2,2c0,1.4,1.1,1.8,2.3,1.8c3,0,3.1-2.3,3.1-3.2
		V238.6z"/>
</g>
<g enable-background="new    ">
	<path fill="#1EB5BF" d="M192.3,231.5h3.6v2.6h0.1c0.7-1.7,2.5-2.9,4.4-2.9c0.3,0,0.6,0.1,0.8,0.1v3.5c-0.3-0.1-0.9-0.1-1.4-0.1
		c-2.8,0-3.7,2-3.7,4.4v6.2h-3.8V231.5z"/>
</g>
<g enable-background="new    ">
	<path fill="#1EB5BF" d="M212,243.5L212,243.5c-0.9,1.5-2.4,2.1-4.2,2.1c-4.1,0-6.2-3.5-6.2-7.4c0-3.7,2-7.1,6.1-7.1
		c1.6,0,3.2,0.7,4.1,2h0.1v-6.9h3.8v19H212V243.5z M208.7,234c-2.5,0-3.3,2.2-3.3,4.4c0,2.2,1,4.4,3.3,4.4c2.5,0,3.2-2.2,3.2-4.4
		C212,236.1,211.2,234,208.7,234z"/>
</g>
</svg>
