<?xml version="1.0" encoding="utf-8"?>
<!-- Generator: Adobe Illustrator 20.1.0, SVG Export Plug-In . SVG Version: 6.00 Build 0)  -->
<svg version="1.1" id="Layer_1" xmlns="http://www.w3.org/2000/svg" xmlns:xlink="http://www.w3.org/1999/xlink" x="0px" y="0px"
	 viewBox="0 0 400 400" enable-background="new 0 0 400 400" xml:space="preserve">
<g>
	<g enable-background="new    ">
		<path fill="#F6F6F6" d="M9.3,22.5h6.8c2.3,0,3.7,1.6,3.7,3.5c0,1.5-0.6,2.6-2,3.2v0c1.4,0.4,1.7,1.7,1.8,2.9c0.1,0.8,0,2.3,0.5,3
			h-2.8c-0.3-0.8-0.3-2-0.4-3c-0.2-1.3-0.7-1.9-2.1-1.9h-2.8v4.9H9.3V22.5z M12.1,28.2h3c1.3,0,1.9-0.5,1.9-1.8
			c0-1.2-0.7-1.7-1.9-1.7h-3V28.2z"/>
		<path fill="#F6F6F6" d="M23.1,22.5h9.4v2.3h-6.7v2.7H32v2.2h-6.1v3.1h6.8v2.3h-9.6V22.5z"/>
		<path fill="#F6F6F6" d="M38.9,22.5h2.8l4.7,12.6h-2.9l-1-2.8H38l-1,2.8h-2.8L38.9,22.5z M38.7,30.2h3.3l-1.6-4.6h0L38.7,30.2z"/>
		<path fill="#F6F6F6" d="M50.5,30.9c0,1.7,1.3,2.3,2.8,2.3c1,0,2.5-0.3,2.5-1.6c0-1.4-1.9-1.6-3.7-2.1c-1.9-0.5-3.8-1.3-3.8-3.6
			c0-2.6,2.4-3.8,4.7-3.8c2.6,0,5,1.1,5,4.1h-2.7c-0.1-1.5-1.1-1.9-2.5-1.9c-0.9,0-1.9,0.4-1.9,1.4c0,1,0.6,1.1,3.8,1.9
			c0.9,0.2,3.7,0.8,3.7,3.7c0,2.3-1.8,4-5.2,4c-2.8,0-5.4-1.4-5.4-4.5H50.5z"/>
		<path fill="#F6F6F6" d="M66.7,22.2c3.9,0,6.2,2.9,6.2,6.7c0,3.6-2.3,6.5-6.2,6.5c-3.9,0-6.2-2.9-6.2-6.5
			C60.5,25.1,62.8,22.2,66.7,22.2z M66.7,33.1c2.5,0,3.4-2.1,3.4-4.2c0-2.2-0.9-4.3-3.4-4.3s-3.4,2.1-3.4,4.3
			C63.3,30.9,64.2,33.1,66.7,33.1z"/>
		<path fill="#F6F6F6" d="M75.8,22.5h2.8l5.3,8.5h0v-8.5h2.6v12.6h-2.8l-5.2-8.4h0v8.4h-2.6V22.5z"/>
	</g>
	<g enable-background="new    ">
		<path fill="#F6F6F6" d="M101.1,22.5h8.9v2.3h-6.1v2.9h5.3v2.2h-5.3v5.2h-2.8V22.5z"/>
		<path fill="#F6F6F6" d="M118.2,22.2c3.9,0,6.2,2.9,6.2,6.7c0,3.6-2.3,6.5-6.2,6.5c-3.9,0-6.2-2.9-6.2-6.5
			C112,25.1,114.4,22.2,118.2,22.2z M118.2,33.1c2.5,0,3.4-2.1,3.4-4.2c0-2.2-0.9-4.3-3.4-4.3s-3.4,2.1-3.4,4.3
			C114.8,30.9,115.8,33.1,118.2,33.1z"/>
		<path fill="#F6F6F6" d="M127.3,22.5h6.8c2.3,0,3.7,1.6,3.7,3.5c0,1.5-0.6,2.6-2,3.2v0c1.4,0.4,1.7,1.7,1.8,2.9
			c0.1,0.8,0,2.3,0.5,3h-2.8c-0.3-0.8-0.3-2-0.4-3c-0.2-1.3-0.7-1.9-2.1-1.9h-2.8v4.9h-2.8V22.5z M130.1,28.2h3
			c1.3,0,1.9-0.5,1.9-1.8c0-1.2-0.7-1.7-1.9-1.7h-3V28.2z"/>
	</g>
	<g enable-background="new    ">
		<path fill="#F6F6F6" d="M150,22.5h8.9v2.3h-6.1v2.9h5.3v2.2h-5.3v5.2H150V22.5z"/>
	</g>
	<g enable-background="new    ">
		<path fill="#F6F6F6" d="M164.8,22.5h2.8l4.7,12.6h-2.9l-1-2.8h-4.7l-1,2.8H160L164.8,22.5z M164.5,30.2h3.3l-1.6-4.6h0L164.5,30.2
			z"/>
	</g>
	<g enable-background="new    ">
		<path fill="#F6F6F6" d="M175.1,22.5h2.8v12.6h-2.8V22.5z"/>
	</g>
	<g enable-background="new    ">
		<path fill="#F6F6F6" d="M182.1,22.5h2.8v10.3h6.1v2.3h-8.9V22.5z"/>
	</g>
	<g enable-background="new    ">
		<path fill="#F6F6F6" d="M194.3,22.5h2.8v12.6h-2.8V22.5z"/>
	</g>
	<g enable-background="new    ">
		<path fill="#F6F6F6" d="M201.3,22.5h2.8l5.3,8.5h0v-8.5h2.6v12.6h-2.8l-5.2-8.4h0v8.4h-2.6V22.5z"/>
		<path fill="#F6F6F6" d="M224.5,33.7c-1,1.3-2.2,1.7-3.5,1.7c-3.9,0-6.2-2.9-6.2-6.5c0-3.7,2.3-6.7,6.2-6.7c2.6,0,5,1.6,5.3,4.4
			h-2.6c-0.3-1.4-1.3-2.1-2.7-2.1c-2.5,0-3.4,2.1-3.4,4.3c0,2.1,0.9,4.2,3.4,4.2c1.8,0,2.8-1,3-2.7h-2.8v-2.1h5.3v6.8h-1.8
			L224.5,33.7z"/>
	</g>
	<g enable-background="new    ">
		<path fill="#F6F6F6" d="M234,28.8h-2.8v-2.7h2.8V28.8z M231.2,32.4h2.8v2.7h-2.8V32.4z"/>
	</g>
	<g enable-background="new    ">
		<path fill="#F6F6F6" d="M63,59.4h1.9L69.8,72H68l-1.4-3.8h-5.3L59.8,72h-1.7L63,59.4z M61.8,66.8H66l-2.1-5.9h0L61.8,66.8z"/>
	</g>
	<g enable-background="new    ">
		<path fill="#F6F6F6" d="M71.4,64.2h-1.5v-1.3h1.5v-1.4c0-1.5,0.9-2.3,2.5-2.3c0.3,0,0.7,0.1,1,0.1v1.3c-0.3-0.1-0.6-0.1-0.8-0.1
			c-0.7,0-1.1,0.2-1.1,1v1.3h1.8v1.3h-1.8V72h-1.5V64.2z"/>
	</g>
	<g enable-background="new    ">
		<path fill="#F6F6F6" d="M76.4,64.2h-1.5v-1.3h1.5v-1.4c0-1.5,0.9-2.3,2.5-2.3c0.3,0,0.7,0.1,1,0.1v1.3c-0.3-0.1-0.6-0.1-0.8-0.1
			c-0.7,0-1.1,0.2-1.1,1v1.3h1.8v1.3h-1.8V72h-1.5V64.2z"/>
		<path fill="#F6F6F6" d="M84.9,62.6c2.9,0,4.4,2.1,4.4,4.8c0,2.7-1.5,4.8-4.4,4.8c-2.9,0-4.4-2.1-4.4-4.8
			C80.5,64.7,82,62.6,84.9,62.6z M84.9,70.9c1.6,0,2.8-1.2,2.8-3.4S86.5,64,84.9,64s-2.8,1.3-2.8,3.5S83.3,70.9,84.9,70.9z"/>
	</g>
	<g enable-background="new    ">
		<path fill="#F6F6F6" d="M91,62.9h1.4v1.9h0c0.7-1.5,1.7-2.2,3.4-2.1v1.6c-2.4,0-3.3,1.4-3.3,3.7V72H91V62.9z"/>
	</g>
	<g enable-background="new    ">
		<path fill="#F6F6F6" d="M104.8,72h-1.5v-1.2h0c-0.5,1-1.6,1.4-2.9,1.4c-2.8,0-4.2-2.2-4.2-4.8c0-2.6,1.4-4.7,4.2-4.7
			c0.9,0,2.3,0.4,2.9,1.4h0v-4.7h1.5V72z M100.6,70.9c2,0,2.8-1.7,2.8-3.4c0-1.8-0.8-3.5-2.9-3.5c-2,0-2.7,1.7-2.7,3.5
			C97.8,69.2,98.6,70.9,100.6,70.9z"/>
		<path fill="#F6F6F6" d="M115.2,72c-0.3,0.2-0.6,0.2-1.1,0.2c-0.8,0-1.3-0.4-1.3-1.4c-0.8,1-1.9,1.4-3.2,1.4c-1.7,0-3-0.7-3-2.6
			c0-2.1,1.5-2.5,3.1-2.8c1.6-0.3,3.1-0.2,3.1-1.3c0-1.3-1.1-1.5-2-1.5c-1.3,0-2.2,0.4-2.3,1.7H107c0.1-2.3,1.8-3.1,3.9-3.1
			c1.6,0,3.4,0.4,3.4,2.5v4.7c0,0.7,0,1,0.5,1c0.1,0,0.3,0,0.5-0.1V72z M112.8,67.3c-1.2,0.9-4.6,0-4.6,2.3c0,1,0.8,1.3,1.8,1.3
			c2,0,2.8-1.2,2.8-2.1V67.3z"/>
		<path fill="#F6F6F6" d="M116.7,59.4h1.5v4.7h0c0.5-1,1.6-1.4,2.9-1.4c2.8,0,4.2,2.2,4.2,4.8c0,2.6-1.4,4.7-4.2,4.7
			c-0.9,0-2.3-0.4-2.9-1.4h0V72h-1.5V59.4z M120.9,64c-2,0-2.8,1.7-2.8,3.4c0,1.8,0.8,3.5,2.9,3.5c2,0,2.7-1.7,2.7-3.5
			C123.7,65.6,122.8,64,120.9,64z"/>
		<path fill="#F6F6F6" d="M128.7,61.2h-1.5v-1.8h1.5V61.2z M127.2,62.9h1.5V72h-1.5V62.9z"/>
		<path fill="#F6F6F6" d="M131.1,59.4h1.5V72h-1.5V59.4z"/>
		<path fill="#F6F6F6" d="M136.5,61.2H135v-1.8h1.5V61.2z M135,62.9h1.5V72H135V62.9z"/>
		<path fill="#F6F6F6" d="M140.9,62.9h1.8v1.3h-1.8v5.7c0,0.7,0.2,0.8,1.1,0.8h0.7V72h-1.1c-1.6,0-2.2-0.3-2.2-2v-5.8h-1.6v-1.3h1.6
			v-2.7h1.5V62.9z"/>
		<path fill="#F6F6F6" d="M148,73.2c-0.7,1.8-1.3,2.4-2.6,2.4c-0.4,0-0.7,0-1-0.2v-1.4c0.3,0.1,0.6,0.2,0.9,0.2c0.6,0,1-0.3,1.2-0.8
			l0.6-1.6l-3.6-9.1h1.7l2.7,7.5h0l2.6-7.5h1.6L148,73.2z"/>
	</g>
	<g enable-background="new    ">
		<path fill="#F6F6F6" d="M10.2,81.3h4.3c3.9,0,6.1,2,6.1,6c0,4.2-1.9,6.6-6.1,6.6h-4.3V81.3z M11.9,92.5h2.8c1.1,0,4.2-0.3,4.2-5
			c0-3-1.1-4.8-4.2-4.8h-2.8V92.5z"/>
		<path fill="#F6F6F6" d="M30.2,91c-0.4,2-1.8,3.1-3.9,3.1c-2.9,0-4.3-2-4.4-4.8c0-2.8,1.8-4.7,4.3-4.7c3.2,0,4.2,3,4.1,5.2h-6.8
			c-0.1,1.6,0.8,3,2.8,3c1.3,0,2.1-0.6,2.4-1.8H30.2z M28.7,88.4c-0.1-1.4-1.1-2.6-2.6-2.6c-1.6,0-2.5,1.2-2.6,2.6H28.7z"/>
		<path fill="#F6F6F6" d="M38.1,87.7c-0.2-1.1-1-1.8-2.3-1.8c-2.2,0-2.8,1.7-2.8,3.6c0,1.7,0.8,3.3,2.7,3.3c1.5,0,2.3-0.8,2.5-2.2
			h1.5c-0.3,2.2-1.7,3.5-4,3.5c-2.8,0-4.3-1.9-4.3-4.7s1.4-4.9,4.3-4.9c2.1,0,3.7,1,3.9,3.1H38.1z"/>
		<path fill="#F6F6F6" d="M49.1,91c-0.4,2-1.8,3.1-3.9,3.1c-2.9,0-4.3-2-4.4-4.8c0-2.8,1.8-4.7,4.3-4.7c3.2,0,4.2,3,4.1,5.2h-6.8
			c-0.1,1.6,0.8,3,2.8,3c1.3,0,2.1-0.6,2.4-1.8H49.1z M47.7,88.4c-0.1-1.4-1.1-2.6-2.6-2.6c-1.6,0-2.5,1.2-2.6,2.6H47.7z"/>
		<path fill="#F6F6F6" d="M50.8,84.8h1.4v1.4h0c0.6-1.1,1.6-1.7,3-1.7c2.4,0,3.1,1.4,3.1,3.3v6h-1.5v-6.2c0-1.1-0.7-1.8-1.9-1.8
			c-1.8,0-2.7,1.2-2.7,2.9v5.2h-1.5V84.8z"/>
		<path fill="#F6F6F6" d="M62.7,84.8h1.8v1.3h-1.8v5.7c0,0.7,0.2,0.8,1.1,0.8h0.7v1.3h-1.1c-1.6,0-2.2-0.3-2.2-2v-5.8h-1.6v-1.3h1.6
			V82h1.5V84.8z"/>
		<path fill="#F6F6F6" d="M77.3,87.7c-0.2-1.1-1-1.8-2.3-1.8c-2.2,0-2.8,1.7-2.8,3.6c0,1.7,0.8,3.3,2.7,3.3c1.5,0,2.3-0.8,2.5-2.2
			h1.5c-0.3,2.2-1.7,3.5-4,3.5c-2.8,0-4.3-1.9-4.3-4.7s1.4-4.9,4.3-4.9c2.1,0,3.7,1,3.9,3.1H77.3z"/>
		<path fill="#F6F6F6" d="M84.5,84.5c2.9,0,4.4,2.1,4.4,4.8c0,2.7-1.5,4.8-4.4,4.8c-2.9,0-4.4-2.1-4.4-4.8
			C80.1,86.6,81.6,84.5,84.5,84.5z M84.5,92.8c1.6,0,2.8-1.2,2.8-3.4s-1.3-3.5-2.8-3.5s-2.8,1.3-2.8,3.5S83,92.8,84.5,92.8z"/>
		<path fill="#F6F6F6" d="M90.7,84.8h1.4v1.4h0c0.6-1.1,1.6-1.7,3-1.7c2.4,0,3.1,1.4,3.1,3.3v6h-1.5v-6.2c0-1.1-0.7-1.8-1.9-1.8
			c-1.8,0-2.7,1.2-2.7,2.9v5.2h-1.5V84.8z"/>
		<path fill="#F6F6F6" d="M108.7,93.9h-1.5v-1.2h0c-0.5,1-1.6,1.4-2.9,1.4c-2.8,0-4.2-2.2-4.2-4.8c0-2.6,1.4-4.7,4.2-4.7
			c0.9,0,2.3,0.4,2.9,1.4h0v-4.7h1.5V93.9z M104.5,92.8c2,0,2.8-1.7,2.8-3.4c0-1.8-0.8-3.5-2.9-3.5c-2,0-2.7,1.7-2.7,3.5
			C101.6,91.1,102.5,92.8,104.5,92.8z"/>
		<path fill="#F6F6F6" d="M112.6,83.1h-1.5v-1.8h1.5V83.1z M111.1,84.8h1.5v9.1h-1.5V84.8z"/>
		<path fill="#F6F6F6" d="M117,84.8h1.8v1.3H117v5.7c0,0.7,0.2,0.8,1.1,0.8h0.7v1.3h-1.1c-1.6,0-2.2-0.3-2.2-2v-5.8H114v-1.3h1.6V82
			h1.5V84.8z"/>
		<path fill="#F6F6F6" d="M122.1,83.1h-1.5v-1.8h1.5V83.1z M120.6,84.8h1.5v9.1h-1.5V84.8z"/>
		<path fill="#F6F6F6" d="M128.3,84.5c2.9,0,4.4,2.1,4.4,4.8c0,2.7-1.5,4.8-4.4,4.8c-2.9,0-4.4-2.1-4.4-4.8
			C123.9,86.6,125.4,84.5,128.3,84.5z M128.3,92.8c1.6,0,2.8-1.2,2.8-3.4s-1.3-3.5-2.8-3.5s-2.8,1.3-2.8,3.5S126.8,92.8,128.3,92.8z
			"/>
		<path fill="#F6F6F6" d="M134.5,84.8h1.4v1.4h0c0.6-1.1,1.6-1.7,3-1.7c2.4,0,3.1,1.4,3.1,3.3v6h-1.5v-6.2c0-1.1-0.7-1.8-1.9-1.8
			c-1.8,0-2.7,1.2-2.7,2.9v5.2h-1.5V84.8z"/>
		<path fill="#F6F6F6" d="M145.3,91c0.1,1.3,1.2,1.8,2.5,1.8c0.9,0,2.2-0.2,2.2-1.4c0-2.3-6-0.8-6-4.3c0-1.8,1.8-2.6,3.4-2.6
			c2,0,3.6,0.6,3.7,2.9h-1.5c-0.1-1.2-1.1-1.5-2.1-1.5c-0.9,0-1.9,0.2-1.9,1.2c0,1.1,1.6,1.3,3,1.6c1.5,0.3,3,0.8,3,2.6
			c0,2.2-2,2.9-3.9,2.9c-2,0-3.8-0.8-3.9-3.1H145.3z"/>
	</g>
	<g enable-background="new    ">
		<path fill="#F6F6F6" d="M110.4,106.9c-0.2-1.8-1.4-2.6-3.1-2.6c-1.4,0-2.8,0.5-2.8,2.2c0,3.1,8.1,0.9,8.1,5.9
			c0,2.7-2.6,3.8-4.9,3.8c-2.8,0-5.2-1.4-5.2-4.4h1.6c0,2.1,1.8,3,3.7,3c1.5,0,3.2-0.5,3.2-2.3c0-3.5-8.1-1.2-8.1-5.8
			c0-2.5,2.3-3.7,4.6-3.7c2.6,0,4.6,1.2,4.6,4H110.4z"/>
		<path fill="#F6F6F6" d="M114.3,106.6h1.5v1.2h0c0.5-1,1.6-1.4,2.9-1.4c2.8,0,4.2,2.2,4.2,4.8c0,2.6-1.4,4.7-4.2,4.7
			c-0.9,0-2.3-0.4-2.9-1.4h0v4.7h-1.5V106.6z M118.6,107.8c-2,0-2.8,1.7-2.8,3.4c0,1.8,0.8,3.5,2.9,3.5c2,0,2.7-1.7,2.7-3.5
			C121.4,109.4,120.5,107.8,118.6,107.8z"/>
		<path fill="#F6F6F6" d="M132.8,115.7c-0.3,0.2-0.6,0.2-1.1,0.2c-0.8,0-1.3-0.4-1.3-1.4c-0.8,1-1.9,1.4-3.2,1.4c-1.7,0-3-0.7-3-2.6
			c0-2.1,1.5-2.5,3.1-2.8c1.6-0.3,3.1-0.2,3.1-1.3c0-1.3-1.1-1.5-2-1.5c-1.3,0-2.2,0.4-2.3,1.7h-1.5c0.1-2.3,1.8-3.1,3.9-3.1
			c1.6,0,3.4,0.4,3.4,2.5v4.7c0,0.7,0,1,0.5,1c0.1,0,0.3,0,0.5-0.1V115.7z M130.4,111.1c-1.2,0.9-4.6,0-4.6,2.3c0,1,0.8,1.3,1.8,1.3
			c2,0,2.8-1.2,2.8-2.1V111.1z"/>
		<path fill="#F6F6F6" d="M140.4,109.6c-0.2-1.1-1-1.8-2.3-1.8c-2.2,0-2.8,1.7-2.8,3.6c0,1.7,0.8,3.3,2.7,3.3c1.5,0,2.3-0.8,2.5-2.2
			h1.5c-0.3,2.2-1.7,3.5-4,3.5c-2.8,0-4.3-1.9-4.3-4.7s1.4-4.9,4.3-4.9c2.1,0,3.7,1,3.9,3.1H140.4z"/>
		<path fill="#F6F6F6" d="M151.5,112.9c-0.4,2-1.8,3.1-3.9,3.1c-2.9,0-4.3-2-4.4-4.8c0-2.8,1.8-4.7,4.3-4.7c3.2,0,4.2,3,4.1,5.2
			h-6.8c-0.1,1.6,0.8,3,2.8,3c1.3,0,2.1-0.6,2.4-1.8H151.5z M150,110.3c-0.1-1.4-1.1-2.6-2.6-2.6c-1.6,0-2.5,1.2-2.6,2.6H150z"/>
	</g>
	<g enable-background="new    ">
		<path fill="#F6F6F6" d="M97.6,128.7c-0.2-1.8-1.4-2.6-3.1-2.6c-1.4,0-2.8,0.5-2.8,2.2c0,3.1,8.1,0.9,8.1,5.9
			c0,2.7-2.6,3.8-4.9,3.8c-2.8,0-5.2-1.4-5.2-4.4h1.6c0,2.1,1.8,3,3.7,3c1.5,0,3.2-0.5,3.2-2.3c0-3.5-8.1-1.2-8.1-5.8
			c0-2.5,2.3-3.7,4.6-3.7c2.6,0,4.6,1.2,4.6,4H97.6z"/>
		<path fill="#F6F6F6" d="M103.6,128.5h1.8v1.3h-1.8v5.7c0,0.7,0.2,0.8,1.1,0.8h0.7v1.3h-1.1c-1.6,0-2.2-0.3-2.2-2v-5.8h-1.6v-1.3
			h1.6v-2.7h1.5V128.5z"/>
		<path fill="#F6F6F6" d="M115.2,137.6c-0.3,0.2-0.6,0.2-1.1,0.2c-0.8,0-1.3-0.4-1.3-1.4c-0.8,1-1.9,1.4-3.2,1.4c-1.7,0-3-0.7-3-2.6
			c0-2.1,1.5-2.5,3.1-2.8c1.6-0.3,3.1-0.2,3.1-1.3c0-1.3-1.1-1.5-2-1.5c-1.3,0-2.2,0.4-2.3,1.7H107c0.1-2.3,1.8-3.1,3.9-3.1
			c1.6,0,3.4,0.4,3.4,2.5v4.7c0,0.7,0,1,0.5,1c0.1,0,0.3,0,0.5-0.1V137.6z M112.7,132.9c-1.2,0.9-4.6,0-4.6,2.3c0,1,0.8,1.3,1.8,1.3
			c2,0,2.8-1.2,2.8-2.1V132.9z"/>
		<path fill="#F6F6F6" d="M116.6,125.1h1.5v4.7h0c0.5-1,1.6-1.4,2.9-1.4c2.8,0,4.2,2.2,4.2,4.8c0,2.6-1.4,4.7-4.2,4.7
			c-0.9,0-2.3-0.4-2.9-1.4h0v1.2h-1.5V125.1z M120.9,129.6c-2,0-2.8,1.7-2.8,3.4c0,1.8,0.8,3.5,2.9,3.5c2,0,2.7-1.7,2.7-3.5
			C123.7,131.3,122.8,129.6,120.9,129.6z"/>
		<path fill="#F6F6F6" d="M128.6,126.9h-1.5v-1.8h1.5V126.9z M127.1,128.5h1.5v9.1h-1.5V128.5z"/>
		<path fill="#F6F6F6" d="M131,125.1h1.5v12.6H131V125.1z"/>
		<path fill="#F6F6F6" d="M136.5,126.9H135v-1.8h1.5V126.9z M135,128.5h1.5v9.1H135V128.5z"/>
		<path fill="#F6F6F6" d="M140.9,128.5h1.8v1.3h-1.8v5.7c0,0.7,0.2,0.8,1.1,0.8h0.7v1.3h-1.1c-1.6,0-2.2-0.3-2.2-2v-5.8h-1.6v-1.3
			h1.6v-2.7h1.5V128.5z"/>
		<path fill="#F6F6F6" d="M147.9,138.9c-0.7,1.8-1.3,2.4-2.6,2.4c-0.4,0-0.7,0-1-0.2v-1.4c0.3,0.1,0.6,0.2,0.9,0.2
			c0.6,0,1-0.3,1.2-0.8l0.6-1.6l-3.6-9.1h1.7l2.7,7.5h0l2.6-7.5h1.6L147.9,138.9z"/>
	</g>
	<g enable-background="new    ">
		<path fill="#F6F6F6" d="M30.5,146.9h1.8l6.6,10.2h0v-10.2h1.6v12.6h-1.8l-6.6-10.1h0v10.1h-1.6V146.9z"/>
		<path fill="#F6F6F6" d="M50.8,156.7c-0.4,2-1.8,3.1-3.9,3.1c-2.9,0-4.3-2-4.4-4.8c0-2.8,1.8-4.7,4.3-4.7c3.2,0,4.2,3,4.1,5.2h-6.8
			c-0.1,1.6,0.8,3,2.8,3c1.3,0,2.1-0.6,2.4-1.8H50.8z M49.3,154.1c-0.1-1.4-1.1-2.6-2.6-2.6c-1.6,0-2.5,1.2-2.6,2.6H49.3z"/>
		<path fill="#F6F6F6" d="M54.1,148.8h-1.5v-1.8h1.5V148.8z M52.6,150.4h1.5v9.1h-1.5V150.4z"/>
		<path fill="#F6F6F6" d="M64.3,158.8c0,3-1.3,4.5-4.2,4.5c-1.7,0-3.7-0.7-3.8-2.7h1.5c0.1,1.1,1.4,1.5,2.4,1.5c2,0,2.7-1.4,2.7-3.5
			V158h0c-0.5,1.1-1.7,1.7-2.8,1.7c-2.7,0-4.1-2.1-4.1-4.6c0-2.2,1-4.8,4.2-4.8c1.1,0,2.2,0.5,2.7,1.5h0v-1.3h1.4V158.8z
			 M62.8,154.8c0-1.6-0.7-3.3-2.6-3.3c-1.9,0-2.7,1.6-2.7,3.3c0,1.6,0.6,3.5,2.6,3.5C62,158.3,62.8,156.5,62.8,154.8z"/>
		<path fill="#F6F6F6" d="M66.5,146.9H68v4.8h0c0.5-1.1,1.8-1.6,2.9-1.6c2.4,0,3.1,1.4,3.1,3.3v6h-1.5v-6.2c0-1.1-0.7-1.8-1.9-1.8
			c-1.8,0-2.7,1.2-2.7,2.9v5.2h-1.5V146.9z"/>
		<path fill="#F6F6F6" d="M76.4,146.9h1.5v4.7h0c0.5-1,1.6-1.4,2.9-1.4c2.8,0,4.2,2.2,4.2,4.8c0,2.6-1.4,4.7-4.2,4.7
			c-0.9,0-2.3-0.4-2.9-1.4h0v1.2h-1.5V146.9z M80.6,151.5c-2,0-2.8,1.7-2.8,3.4c0,1.8,0.8,3.5,2.9,3.5c2,0,2.7-1.7,2.7-3.5
			C83.5,153.2,82.6,151.5,80.6,151.5z"/>
		<path fill="#F6F6F6" d="M90.7,150.2c2.9,0,4.4,2.1,4.4,4.8c0,2.7-1.5,4.8-4.4,4.8c-2.9,0-4.4-2.1-4.4-4.8
			C86.3,152.3,87.8,150.2,90.7,150.2z M90.7,158.4c1.6,0,2.8-1.2,2.8-3.4s-1.3-3.5-2.8-3.5s-2.8,1.3-2.8,3.5S89.2,158.4,90.7,158.4z
			"/>
		<path fill="#F6F6F6" d="M104.5,159.5h-1.4v-1.4h0c-0.6,1.1-1.6,1.7-3,1.7c-2.4,0-3.1-1.4-3.1-3.3v-6h1.5v6.2
			c0,1.1,0.7,1.8,1.9,1.8c1.8,0,2.7-1.2,2.7-2.9v-5.2h1.5V159.5z"/>
		<path fill="#F6F6F6" d="M106.7,150.4h1.4v1.9h0c0.7-1.5,1.7-2.2,3.4-2.1v1.6c-2.4,0-3.3,1.4-3.3,3.7v4.1h-1.5V150.4z"/>
		<path fill="#F6F6F6" d="M112.6,146.9h1.5v4.8h0c0.5-1.1,1.8-1.6,2.9-1.6c2.4,0,3.1,1.4,3.1,3.3v6h-1.5v-6.2c0-1.1-0.7-1.8-1.9-1.8
			c-1.8,0-2.7,1.2-2.7,2.9v5.2h-1.5V146.9z"/>
		<path fill="#F6F6F6" d="M126.4,150.2c2.9,0,4.4,2.1,4.4,4.8c0,2.7-1.5,4.8-4.4,4.8c-2.9,0-4.4-2.1-4.4-4.8
			C122,152.3,123.5,150.2,126.4,150.2z M126.4,158.4c1.6,0,2.8-1.2,2.8-3.4s-1.3-3.5-2.8-3.5s-2.8,1.3-2.8,3.5
			S124.8,158.4,126.4,158.4z"/>
		<path fill="#F6F6F6" d="M136.5,150.2c2.9,0,4.4,2.1,4.4,4.8c0,2.7-1.5,4.8-4.4,4.8c-2.9,0-4.4-2.1-4.4-4.8
			C132.1,152.3,133.6,150.2,136.5,150.2z M136.5,158.4c1.6,0,2.8-1.2,2.8-3.4s-1.3-3.5-2.8-3.5s-2.8,1.3-2.8,3.5
			S134.9,158.4,136.5,158.4z"/>
		<path fill="#F6F6F6" d="M150.9,159.5h-1.5v-1.2h0c-0.5,1-1.6,1.4-2.9,1.4c-2.8,0-4.2-2.2-4.2-4.8c0-2.6,1.4-4.7,4.2-4.7
			c0.9,0,2.3,0.4,2.9,1.4h0v-4.7h1.5V159.5z M146.6,158.4c2,0,2.8-1.7,2.8-3.4c0-1.8-0.8-3.5-2.9-3.5c-2,0-2.7,1.7-2.7,3.5
			C143.8,156.8,144.7,158.4,146.6,158.4z"/>
	</g>
	<g enable-background="new    ">
		<path fill="#F6F6F6" d="M347.7,64.4c-0.1-2.8,1.5-5,4.5-5c2.3,0,4.2,1.4,4.2,3.9c0,3.7-4,4-5.8,6.6h5.8V72h-9.1
			c0-2.9,1.8-4.1,3.9-5.5c1.1-0.8,2.6-1.5,2.6-3c0-1.2-0.8-1.9-1.9-1.9c-1.5,0-2,1.5-2,2.8H347.7z"/>
		<path fill="#F6F6F6" d="M366,61.8c-2.6,2.3-4,6.9-4,10.2h-2.7c0.3-3.7,1.8-7.2,4.1-10h-5.9v-2.3h8.4V61.8z"/>
		<path fill="#F6F6F6" d="M371,59.4c2.2,0,2.9,1.6,2.9,3.6c0,1.9-0.9,3.3-3,3.3c-2.2,0-2.9-1.4-2.9-3.4C368,60.9,369,59.4,371,59.4z
			 M371,64.9c1.1,0,1.2-1.3,1.2-2c0-0.7-0.1-2.2-1.1-2.2c-1.1,0-1.2,1.4-1.2,2.2C369.8,63.7,369.8,64.9,371,64.9z M378.5,59.2h1.5
			l-7.3,13.1h-1.5L378.5,59.2z M380.1,65.3c2.2,0,2.9,1.6,2.9,3.5c0,1.9-0.9,3.4-3,3.4c-2.2,0-2.9-1.6-2.9-3.5
			C377.1,66.8,378.1,65.3,380.1,65.3z M380.1,70.9c1.1,0,1.2-1.4,1.2-2.1c0-0.7-0.1-2.1-1.1-2.1c-1.1,0-1.2,1.3-1.2,2.1
			C378.9,69.5,378.9,70.9,380.1,70.9z"/>
	</g>
	<rect x="165.7" y="59.4" fill="#1EB5BF" width="168.9" height="12.5"/>
	<rect x="165.7" y="81.3" fill="#1EB5BF" width="112.6" height="12.5"/>
	<rect x="165.7" y="103.2" fill="#1EB5BF" width="68.8" height="12.5"/>
	<rect x="165.7" y="125.1" fill="#1EB5BF" width="62.6" height="12.5"/>
	<rect x="165.7" y="147" fill="#1EB5BF" width="31.3" height="12.5"/>
	<g enable-background="new    ">
		<path fill="#F6F6F6" d="M297.7,93.9h-2.5v-8h-3.1V84c1.7,0.1,3.3-0.6,3.6-2.5h2V93.9z"/>
		<path fill="#F6F6F6" d="M305.5,81.3c3.1,0,4.1,2.1,4.1,3.3c0,1.2-0.6,2.2-1.8,2.6v0c1.5,0.3,2.3,1.5,2.3,3c0,2.6-2.3,3.9-4.6,3.9
			c-2.4,0-4.7-1.2-4.7-3.9c0-1.6,0.9-2.7,2.3-3v0c-1.2-0.3-1.8-1.3-1.8-2.5C301.3,82.4,303.5,81.3,305.5,81.3z M305.5,92.2
			c1.2,0,2.1-0.8,2.1-2.1c0-1.2-1-2-2.1-2c-1.2,0-2.2,0.7-2.2,2C303.3,91.4,304.3,92.2,305.5,92.2z M305.5,86.5c1,0,1.9-0.6,1.9-1.6
			c0-0.6-0.3-1.7-1.9-1.7c-1,0-1.9,0.6-1.9,1.7C303.6,85.9,304.5,86.5,305.5,86.5z"/>
		<path fill="#F6F6F6" d="M314.7,81.3c2.2,0,2.9,1.6,2.9,3.6c0,1.9-0.9,3.3-3,3.3c-2.2,0-2.9-1.4-2.9-3.4
			C311.7,82.9,312.7,81.3,314.7,81.3z M314.7,86.8c1.1,0,1.2-1.3,1.2-2c0-0.7-0.1-2.2-1.1-2.2c-1.1,0-1.2,1.4-1.2,2.2
			C313.5,85.6,313.5,86.8,314.7,86.8z M322.2,81.1h1.5l-7.3,13.1h-1.5L322.2,81.1z M323.8,87.2c2.2,0,2.9,1.6,2.9,3.5
			c0,1.9-0.9,3.4-3,3.4c-2.2,0-2.9-1.6-2.9-3.5C320.8,88.7,321.8,87.2,323.8,87.2z M323.8,92.8c1.1,0,1.2-1.4,1.2-2.1
			c0-0.7-0.1-2.1-1.1-2.1c-1.1,0-1.2,1.3-1.2,2.1C322.6,91.4,322.6,92.8,323.8,92.8z"/>
	</g>
	<g enable-background="new    ">
		<path fill="#F6F6F6" d="M253.9,115.8h-2.5v-8h-3.1v-1.9c1.7,0.1,3.3-0.6,3.6-2.5h2V115.8z"/>
		<path fill="#F6F6F6" d="M263.7,115.8h-2.5v-8h-3.1v-1.9c1.7,0.1,3.3-0.6,3.6-2.5h2V115.8z"/>
		<path fill="#F6F6F6" d="M270.9,103.2c2.2,0,2.9,1.6,2.9,3.6c0,1.9-0.9,3.3-3,3.3c-2.2,0-2.9-1.4-2.9-3.4
			C267.9,104.7,268.9,103.2,270.9,103.2z M270.9,108.7c1.1,0,1.2-1.3,1.2-2c0-0.7-0.1-2.2-1.1-2.2c-1.1,0-1.2,1.4-1.2,2.2
			C269.7,107.5,269.7,108.7,270.9,108.7z M278.4,103h1.5l-7.3,13.1h-1.5L278.4,103z M280.1,109.1c2.2,0,2.9,1.6,2.9,3.5
			c0,1.9-0.9,3.4-3,3.4c-2.2,0-2.9-1.6-2.9-3.5C277.1,110.6,278,109.1,280.1,109.1z M280,114.7c1.1,0,1.2-1.4,1.2-2.1
			c0-0.7-0.1-2.1-1.1-2.1c-1.1,0-1.2,1.3-1.2,2.1C278.9,113.3,278.9,114.7,280,114.7z"/>
	</g>
	<g enable-background="new    ">
		<path fill="#F6F6F6" d="M247.4,137.7h-2.5v-8h-3.1v-1.9c1.7,0.1,3.3-0.6,3.6-2.5h2V137.7z"/>
		<path fill="#F6F6F6" d="M255.2,125.1c2.5,0,4.6,1.6,4.6,6.4c0,4.9-2.1,6.5-4.6,6.5c-2.5,0-4.5-1.6-4.5-6.5
			C250.7,126.6,252.8,125.1,255.2,125.1z M255.2,135.8c2,0,2-3,2-4.4c0-1.3,0-4.3-2-4.3c-2,0-2,3-2,4.3
			C253.2,132.8,253.2,135.8,255.2,135.8z"/>
		<path fill="#F6F6F6" d="M264.5,125.1c2.2,0,2.9,1.6,2.9,3.6c0,1.9-0.9,3.3-3,3.3c-2.2,0-2.9-1.4-2.9-3.4
			C261.5,126.6,262.4,125.1,264.5,125.1z M264.4,130.6c1.1,0,1.2-1.3,1.2-2c0-0.7-0.1-2.2-1.1-2.2c-1.1,0-1.2,1.4-1.2,2.2
			C263.3,129.4,263.3,130.6,264.4,130.6z M271.9,124.9h1.5l-7.3,13.1h-1.5L271.9,124.9z M273.6,131c2.2,0,2.9,1.6,2.9,3.5
			c0,1.9-0.9,3.4-3,3.4c-2.2,0-2.9-1.6-2.9-3.5C270.6,132.5,271.5,131,273.6,131z M273.5,136.6c1.1,0,1.2-1.4,1.2-2.1
			c0-0.7-0.1-2.1-1.1-2.1c-1.1,0-1.2,1.3-1.2,2.1C272.4,135.2,272.4,136.6,273.5,136.6z"/>
	</g>
	<g enable-background="new    ">
		<path fill="#F6F6F6" d="M218.3,149.3h-5.1l-0.5,2.8l0,0c0.7-0.7,1.4-1,2.4-1c2.4,0,3.8,1.9,3.8,4.2c0,2.5-2.1,4.5-4.6,4.4
			c-2.4,0-4.5-1.3-4.6-3.9h2.5c0.1,1.1,0.9,1.9,2,1.9c1.3,0,2.1-1.1,2.1-2.4c0-1.3-0.8-2.3-2.1-2.3c-0.9,0-1.4,0.3-1.9,1h-2.3
			l1.2-6.8h6.9V149.3z"/>
		<path fill="#F6F6F6" d="M223.6,147c2.2,0,2.9,1.6,2.9,3.6c0,1.9-0.9,3.3-3,3.3c-2.2,0-2.9-1.4-2.9-3.4
			C220.6,148.5,221.5,147,223.6,147z M223.5,152.5c1.1,0,1.2-1.3,1.2-2c0-0.7-0.1-2.2-1.1-2.2c-1.1,0-1.2,1.4-1.2,2.2
			C222.4,151.2,222.4,152.5,223.5,152.5z M231.1,146.8h1.5l-7.3,13.1h-1.5L231.1,146.8z M232.7,152.9c2.2,0,2.9,1.6,2.9,3.5
			c0,1.9-0.9,3.4-3,3.4c-2.2,0-2.9-1.6-2.9-3.5C229.7,154.4,230.6,152.9,232.7,152.9z M232.6,158.5c1.1,0,1.2-1.4,1.2-2.1
			c0-0.7-0.1-2.1-1.1-2.1c-1.1,0-1.2,1.3-1.2,2.1C231.5,157.1,231.5,158.5,232.6,158.5z"/>
	</g>
	<g enable-background="new    ">
		<path fill="#F6F6F6" d="M8.2,221.1h2.8l5.3,8.5h0v-8.5h2.6v12.6h-2.8l-5.2-8.4h0v8.4H8.2V221.1z"/>
	</g>
	<g enable-background="new    ">
		<path fill="#F6F6F6" d="M33.7,228.9c0,3.4-2,5.1-5.4,5.1c-3.4,0-5.4-1.6-5.4-5.1v-7.8h2.8v7.8c0,1.4,0.4,2.7,2.6,2.7
			c2,0,2.6-0.8,2.6-2.7v-7.8h2.8V228.9z"/>
	</g>
	<g enable-background="new    ">
		<path fill="#F6F6F6" d="M37.9,221.1h3.9l2.9,8.7h0l2.8-8.7h3.9v12.6h-2.6v-8.9h0l-3.1,8.9h-2.1l-3.1-8.8h0v8.8h-2.6V221.1z"/>
	</g>
	<g enable-background="new    ">
		<path fill="#F6F6F6" d="M55.6,221.1h5.9c2.4,0,4,0.8,4,3.1c0,1.3-0.6,2.1-1.7,2.6c1.6,0.4,2.3,1.6,2.3,3.2c0,2.6-2.2,3.7-4.4,3.7
			h-6.1V221.1z M58.4,226.2h2.8c1,0,1.7-0.4,1.7-1.5c0-1.2-0.9-1.4-1.9-1.4h-2.6V226.2z M58.4,231.5h3c1.1,0,2-0.4,2-1.7
			c0-1.3-0.8-1.8-2-1.8h-3V231.5z"/>
	</g>
	<g enable-background="new    ">
		<path fill="#F6F6F6" d="M69.8,221.1h9.4v2.3h-6.7v2.7h6.1v2.2h-6.1v3.1h6.8v2.3h-9.6V221.1z"/>
	</g>
	<g enable-background="new    ">
		<path fill="#F6F6F6" d="M83,221.1h6.8c2.3,0,3.7,1.6,3.7,3.5c0,1.5-0.6,2.6-2,3.2v0c1.4,0.4,1.7,1.7,1.8,2.9c0.1,0.8,0,2.3,0.5,3
			h-2.8c-0.3-0.8-0.3-2-0.4-3c-0.2-1.3-0.7-1.9-2.1-1.9h-2.8v4.9H83V221.1z M85.8,226.8h3c1.3,0,1.9-0.5,1.9-1.8
			c0-1.2-0.7-1.7-1.9-1.7h-3V226.8z"/>
	</g>
	<g enable-background="new    ">
		<path fill="#F6F6F6" d="M109.8,220.8c3.9,0,6.2,2.9,6.2,6.7c0,3.6-2.3,6.5-6.2,6.5c-3.9,0-6.2-2.9-6.2-6.5
			C103.6,223.7,106,220.8,109.8,220.8z M109.8,231.7c2.5,0,3.4-2.1,3.4-4.2c0-2.2-0.9-4.3-3.4-4.3s-3.4,2.1-3.4,4.3
			C106.4,229.5,107.3,231.7,109.8,231.7z"/>
	</g>
	<g enable-background="new    ">
		<path fill="#F6F6F6" d="M119.7,221.1h8.9v2.3h-6.1v2.9h5.3v2.2h-5.3v5.2h-2.8V221.1z"/>
	</g>
	<g enable-background="new    ">
		<path fill="#F6F6F6" d="M138.6,221.1h5.4c3.3,0,5.7,2.1,5.7,6.2c0,3.7-1.9,6.4-5.7,6.4h-5.4V221.1z M141.4,231.4h2.5
			c1.6,0,3.1-1,3.1-3.8c0-2.5-0.9-4.2-3.6-4.2h-2V231.4z"/>
	</g>
	<g enable-background="new    ">
		<path fill="#F6F6F6" d="M153.4,221.1h2.8v12.6h-2.8V221.1z"/>
	</g>
	<g enable-background="new    ">
		<path fill="#F6F6F6" d="M160.4,221.1h3.9l2.9,8.7h0l2.8-8.7h3.9v12.6h-2.6v-8.9h0l-3.1,8.9h-2.1l-3.1-8.8h0v8.8h-2.6V221.1z"/>
	</g>
	<g enable-background="new    ">
		<path fill="#F6F6F6" d="M178.2,221.1h9.4v2.3H181v2.7h6.1v2.2H181v3.1h6.8v2.3h-9.6V221.1z"/>
	</g>
	<g enable-background="new    ">
		<path fill="#F6F6F6" d="M191.4,221.1h2.8l5.3,8.5h0v-8.5h2.6v12.6h-2.8l-5.2-8.4h0v8.4h-2.6V221.1z"/>
	</g>
	<g enable-background="new    ">
		<path fill="#F6F6F6" d="M208.1,229.5c0,1.7,1.3,2.3,2.8,2.3c1,0,2.5-0.3,2.5-1.6c0-1.4-1.9-1.6-3.7-2.1c-1.9-0.5-3.8-1.3-3.8-3.6
			c0-2.6,2.4-3.8,4.7-3.8c2.6,0,5,1.1,5,4.1h-2.7c-0.1-1.5-1.1-1.9-2.5-1.9c-0.9,0-1.9,0.4-1.9,1.4c0,1,0.6,1.1,3.8,1.9
			c0.9,0.2,3.7,0.8,3.7,3.7c0,2.3-1.8,4-5.2,4c-2.8,0-5.4-1.4-5.4-4.5H208.1z"/>
	</g>
	<g enable-background="new    ">
		<path fill="#F6F6F6" d="M219.4,221.1h2.8v12.6h-2.8V221.1z"/>
	</g>
	<g enable-background="new    ">
		<path fill="#F6F6F6" d="M232,220.8c3.9,0,6.2,2.9,6.2,6.7c0,3.6-2.3,6.5-6.2,6.5s-6.2-2.9-6.2-6.5
			C225.8,223.7,228.2,220.8,232,220.8z M232,231.7c2.5,0,3.4-2.1,3.4-4.2c0-2.2-0.9-4.3-3.4-4.3s-3.4,2.1-3.4,4.3
			C228.6,229.5,229.5,231.7,232,231.7z"/>
	</g>
	<g enable-background="new    ">
		<path fill="#F6F6F6" d="M241.9,221.1h2.8l5.3,8.5h0v-8.5h2.6v12.6h-2.8l-5.2-8.4h0v8.4h-2.6V221.1z"/>
	</g>
	<g enable-background="new    ">
		<path fill="#F6F6F6" d="M258.6,229.5c0,1.7,1.3,2.3,2.8,2.3c1,0,2.5-0.3,2.5-1.6c0-1.4-1.9-1.6-3.7-2.1c-1.9-0.5-3.8-1.3-3.8-3.6
			c0-2.6,2.4-3.8,4.7-3.8c2.6,0,5,1.1,5,4.1h-2.7c-0.1-1.5-1.1-1.9-2.5-1.9c-0.9,0-1.9,0.4-1.9,1.4c0,1,0.6,1.1,3.8,1.9
			c0.9,0.2,3.7,0.8,3.7,3.7c0,2.3-1.8,4-5.2,4c-2.8,0-5.4-1.4-5.4-4.5H258.6z"/>
	</g>
	<g enable-background="new    ">
		<path fill="#F6F6F6" d="M276.6,221.1h8.9v2.3h-6.1v2.9h5.3v2.2h-5.3v5.2h-2.8V221.1z"/>
	</g>
	<g enable-background="new    ">
		<path fill="#F6F6F6" d="M291.2,221.1h2.8l4.7,12.6h-2.9l-1-2.8h-4.7l-1,2.8h-2.8L291.2,221.1z M291,228.8h3.3l-1.6-4.6h0
			L291,228.8z"/>
	</g>
	<g enable-background="new    ">
		<path fill="#F6F6F6" d="M301.7,221.1h2.8v12.6h-2.8V221.1z"/>
		<path fill="#F6F6F6" d="M307.9,221.1h2.8v10.3h6.1v2.3h-8.9V221.1z"/>
	</g>
	<g enable-background="new    ">
		<path fill="#F6F6F6" d="M320.9,221.1h9.4v2.3h-6.7v2.7h6.1v2.2h-6.1v3.1h6.8v2.3h-9.6V221.1z"/>
		<path fill="#F6F6F6" d="M333.3,221.1h5.4c3.3,0,5.7,2.1,5.7,6.2c0,3.7-1.9,6.4-5.7,6.4h-5.4V221.1z M336.1,231.4h2.5
			c1.6,0,3.1-1,3.1-3.8c0-2.5-0.9-4.2-3.6-4.2h-2V231.4z"/>
	</g>
	<g enable-background="new    ">
		<path fill="#F6F6F6" d="M351.5,227.4h-2.8v-2.7h2.8V227.4z M348.7,231h2.8v2.7h-2.8V231z"/>
	</g>
	<g enable-background="new    ">
		<path fill="#F6F6F6" d="M24.5,258h8.3v1.4h-6.6v4h5.8v1.4h-5.8v5.8h-1.7V258z"/>
		<path fill="#F6F6F6" d="M42.4,270.5c-0.3,0.2-0.6,0.2-1.1,0.2c-0.8,0-1.3-0.4-1.3-1.4c-0.8,1-1.9,1.4-3.2,1.4c-1.7,0-3-0.7-3-2.6
			c0-2.1,1.5-2.5,3.1-2.8c1.6-0.3,3.1-0.2,3.1-1.3c0-1.3-1.1-1.5-2-1.5c-1.3,0-2.2,0.4-2.3,1.7h-1.5c0.1-2.3,1.8-3.1,3.9-3.1
			c1.6,0,3.4,0.4,3.4,2.5v4.7c0,0.7,0,1,0.5,1c0.1,0,0.3,0,0.5-0.1V270.5z M40,265.9c-1.2,0.9-4.6,0-4.6,2.3c0,1,0.8,1.3,1.8,1.3
			c2,0,2.8-1.2,2.8-2.1V265.9z"/>
		<path fill="#F6F6F6" d="M45.4,259.8h-1.5V258h1.5V259.8z M43.9,261.5h1.5v9.1h-1.5V261.5z"/>
		<path fill="#F6F6F6" d="M47.8,258h1.5v12.6h-1.5V258z"/>
		<path fill="#F6F6F6" d="M61.7,270.6h-1.5v-9H57v-1.2c1.7,0,3.3-0.4,3.6-2.3h1.1V270.6z"/>
		<path fill="#F6F6F6" d="M79.5,270.6H78v-1.2h0c-0.5,1-1.6,1.4-2.9,1.4c-2.8,0-4.2-2.2-4.2-4.8c0-2.6,1.4-4.7,4.2-4.7
			c0.9,0,2.3,0.4,2.9,1.4h0V258h1.5V270.6z M75.2,269.5c2,0,2.8-1.7,2.8-3.4c0-1.8-0.8-3.5-2.9-3.5c-2,0-2.7,1.7-2.7,3.5
			C72.4,267.8,73.3,269.5,75.2,269.5z"/>
		<path fill="#F6F6F6" d="M83.4,259.8h-1.5V258h1.5V259.8z M81.9,261.5h1.5v9.1h-1.5V261.5z"/>
		<path fill="#F6F6F6" d="M85.7,261.5h1.4v1.3h0c0.7-1,1.7-1.6,2.9-1.6c1.1,0,2.1,0.4,2.5,1.6c0.6-1,1.7-1.6,2.9-1.6
			c1.8,0,3,0.8,3,2.6v6.7H97v-6c0-1.1-0.3-2-1.8-2s-2.4,0.9-2.4,2.3v5.7h-1.5v-6c0-1.2-0.4-2-1.7-2c-1.8,0-2.4,1.6-2.4,2.3v5.7h-1.5
			V261.5z"/>
		<path fill="#F6F6F6" d="M108.5,267.7c-0.4,2-1.8,3.1-3.9,3.1c-2.9,0-4.3-2-4.4-4.8c0-2.8,1.8-4.7,4.3-4.7c3.2,0,4.2,3,4.1,5.2
			h-6.8c-0.1,1.6,0.8,3,2.8,3c1.3,0,2.1-0.6,2.4-1.8H108.5z M107.1,265.1c-0.1-1.4-1.1-2.6-2.6-2.6c-1.6,0-2.5,1.2-2.6,2.6H107.1z"
			/>
		<path fill="#F6F6F6" d="M110.2,261.5h1.4v1.4h0c0.6-1.1,1.6-1.7,3-1.7c2.4,0,3.1,1.4,3.1,3.3v6h-1.5v-6.2c0-1.1-0.7-1.8-1.9-1.8
			c-1.8,0-2.7,1.2-2.7,2.9v5.2h-1.5V261.5z"/>
		<path fill="#F6F6F6" d="M121,267.7c0.1,1.3,1.2,1.8,2.5,1.8c0.9,0,2.2-0.2,2.2-1.4c0-2.3-6-0.8-6-4.3c0-1.8,1.8-2.6,3.4-2.6
			c2,0,3.6,0.6,3.7,2.9h-1.5c-0.1-1.2-1.1-1.5-2.1-1.5c-0.9,0-1.9,0.2-1.9,1.2c0,1.1,1.6,1.3,3,1.6c1.5,0.3,3,0.8,3,2.6
			c0,2.2-2,2.9-3.9,2.9c-2,0-3.8-0.8-3.9-3.1H121z"/>
		<path fill="#F6F6F6" d="M130.5,259.8H129V258h1.5V259.8z M129,261.5h1.5v9.1H129V261.5z"/>
		<path fill="#F6F6F6" d="M136.7,261.2c2.9,0,4.4,2.1,4.4,4.8c0,2.7-1.5,4.8-4.4,4.8c-2.9,0-4.4-2.1-4.4-4.8
			C132.3,263.3,133.8,261.2,136.7,261.2z M136.7,269.5c1.6,0,2.8-1.2,2.8-3.4s-1.3-3.5-2.8-3.5s-2.8,1.3-2.8,3.5
			S135.2,269.5,136.7,269.5z"/>
		<path fill="#F6F6F6" d="M142.9,261.5h1.4v1.4h0c0.6-1.1,1.6-1.7,3-1.7c2.4,0,3.1,1.4,3.1,3.3v6H149v-6.2c0-1.1-0.7-1.8-1.9-1.8
			c-1.8,0-2.7,1.2-2.7,2.9v5.2h-1.5V261.5z"/>
	</g>
	<g enable-background="new    ">
		<path fill="#F6F6F6" d="M15.6,279.9h8.3v1.4h-6.6v4h5.8v1.4h-5.8v5.8h-1.7V279.9z"/>
		<path fill="#F6F6F6" d="M33.6,292.4c-0.3,0.2-0.6,0.2-1.1,0.2c-0.8,0-1.3-0.4-1.3-1.4c-0.8,1-1.9,1.4-3.2,1.4c-1.7,0-3-0.7-3-2.6
			c0-2.1,1.5-2.5,3.1-2.8c1.6-0.3,3.1-0.2,3.1-1.3c0-1.3-1.1-1.5-2-1.5c-1.3,0-2.2,0.4-2.3,1.7h-1.5c0.1-2.3,1.8-3.1,3.9-3.1
			c1.6,0,3.4,0.4,3.4,2.5v4.7c0,0.7,0,1,0.5,1c0.1,0,0.3,0,0.5-0.1V292.4z M31.2,287.8c-1.2,0.9-4.6,0-4.6,2.3c0,1,0.8,1.3,1.8,1.3
			c2,0,2.8-1.2,2.8-2.1V287.8z"/>
		<path fill="#F6F6F6" d="M36.6,281.7h-1.5v-1.8h1.5V281.7z M35.1,283.3h1.5v9.1h-1.5V283.3z"/>
		<path fill="#F6F6F6" d="M39,279.9h1.5v12.6H39V279.9z"/>
		<path fill="#F6F6F6" d="M47.4,284.4c-0.1-2.5,1.4-4.4,4-4.4c2.2,0,3.9,1.3,3.9,3.6c0,2.2-1.5,3.3-3,4.3c-1.6,0.9-3.2,1.8-3.5,3.3
			h6.4v1.3H47c0.2-2.9,1.7-4.1,3.5-5.1c2.1-1.3,3.2-2.1,3.2-3.8c0-1.4-1.1-2.3-2.4-2.3c-1.7,0-2.5,1.6-2.4,3.1H47.4z"/>
		<path fill="#F6F6F6" d="M70.6,292.5h-1.5v-1.2h0c-0.5,1-1.6,1.4-2.9,1.4c-2.8,0-4.2-2.2-4.2-4.8c0-2.6,1.4-4.7,4.2-4.7
			c0.9,0,2.3,0.4,2.9,1.4h0v-4.7h1.5V292.5z M66.4,291.4c2,0,2.8-1.7,2.8-3.4c0-1.8-0.8-3.5-2.9-3.5c-2,0-2.7,1.7-2.7,3.5
			C63.6,289.7,64.5,291.4,66.4,291.4z"/>
		<path fill="#F6F6F6" d="M74.5,281.7H73v-1.8h1.5V281.7z M73,283.3h1.5v9.1H73V283.3z"/>
		<path fill="#F6F6F6" d="M76.9,283.3h1.4v1.3h0c0.7-1,1.7-1.6,2.9-1.6c1.1,0,2.1,0.4,2.5,1.6c0.6-1,1.7-1.6,2.9-1.6
			c1.8,0,3,0.8,3,2.6v6.7h-1.5v-6c0-1.1-0.3-2-1.8-2s-2.4,0.9-2.4,2.3v5.7h-1.5v-6c0-1.2-0.4-2-1.7-2c-1.8,0-2.4,1.6-2.4,2.3v5.7
			h-1.5V283.3z"/>
		<path fill="#F6F6F6" d="M99.7,289.6c-0.4,2-1.8,3.1-3.9,3.1c-2.9,0-4.3-2-4.4-4.8c0-2.8,1.8-4.7,4.3-4.7c3.2,0,4.2,3,4.1,5.2H93
			c-0.1,1.6,0.8,3,2.8,3c1.3,0,2.1-0.6,2.4-1.8H99.7z M98.3,287c-0.1-1.4-1.1-2.6-2.6-2.6c-1.6,0-2.5,1.2-2.6,2.6H98.3z"/>
		<path fill="#F6F6F6" d="M101.4,283.3h1.4v1.4h0c0.6-1.1,1.6-1.7,3-1.7c2.4,0,3.1,1.4,3.1,3.3v6h-1.5v-6.2c0-1.1-0.7-1.8-1.9-1.8
			c-1.8,0-2.7,1.2-2.7,2.9v5.2h-1.5V283.3z"/>
		<path fill="#F6F6F6" d="M112.1,289.6c0.1,1.3,1.2,1.8,2.5,1.8c0.9,0,2.2-0.2,2.2-1.4c0-2.3-6-0.8-6-4.3c0-1.8,1.8-2.6,3.4-2.6
			c2,0,3.6,0.6,3.7,2.9h-1.5c-0.1-1.2-1.1-1.5-2.1-1.5c-0.9,0-1.9,0.2-1.9,1.2c0,1.1,1.6,1.3,3,1.6c1.5,0.3,3,0.8,3,2.6
			c0,2.2-2,2.9-3.9,2.9c-2,0-3.8-0.8-3.9-3.1H112.1z"/>
		<path fill="#F6F6F6" d="M121.6,281.7h-1.5v-1.8h1.5V281.7z M120.1,283.3h1.5v9.1h-1.5V283.3z"/>
		<path fill="#F6F6F6" d="M127.9,283.1c2.9,0,4.4,2.1,4.4,4.8c0,2.7-1.5,4.8-4.4,4.8c-2.9,0-4.4-2.1-4.4-4.8
			C123.5,285.2,125,283.1,127.9,283.1z M127.9,291.4c1.6,0,2.8-1.2,2.8-3.4s-1.3-3.5-2.8-3.5s-2.8,1.3-2.8,3.5
			S126.3,291.4,127.9,291.4z"/>
		<path fill="#F6F6F6" d="M134.1,283.3h1.4v1.4h0c0.6-1.1,1.6-1.7,3-1.7c2.4,0,3.1,1.4,3.1,3.3v6h-1.5v-6.2c0-1.1-0.7-1.8-1.9-1.8
			c-1.8,0-2.7,1.2-2.7,2.9v5.2h-1.5V283.3z"/>
		<path fill="#F6F6F6" d="M144.8,289.6c0.1,1.3,1.2,1.8,2.5,1.8c0.9,0,2.2-0.2,2.2-1.4c0-2.3-6-0.8-6-4.3c0-1.8,1.8-2.6,3.4-2.6
			c2,0,3.6,0.6,3.7,2.9h-1.5c-0.1-1.2-1.1-1.5-2.1-1.5c-0.9,0-1.9,0.2-1.9,1.2c0,1.1,1.6,1.3,3,1.6c1.5,0.3,3,0.8,3,2.6
			c0,2.2-2,2.9-3.9,2.9c-2,0-3.8-0.8-3.9-3.1H144.8z"/>
	</g>
	<g enable-background="new    ">
		<path fill="#F6F6F6" d="M15.6,301.8h8.3v1.4h-6.6v4h5.8v1.4h-5.8v5.8h-1.7V301.8z"/>
		<path fill="#F6F6F6" d="M33.6,314.3c-0.3,0.2-0.6,0.2-1.1,0.2c-0.8,0-1.3-0.4-1.3-1.4c-0.8,1-1.9,1.4-3.2,1.4c-1.7,0-3-0.7-3-2.6
			c0-2.1,1.5-2.5,3.1-2.8c1.6-0.3,3.1-0.2,3.1-1.3c0-1.3-1.1-1.5-2-1.5c-1.3,0-2.2,0.4-2.3,1.7h-1.5c0.1-2.3,1.8-3.1,3.9-3.1
			c1.6,0,3.4,0.4,3.4,2.5v4.7c0,0.7,0,1,0.5,1c0.1,0,0.3,0,0.5-0.1V314.3z M31.2,309.7c-1.2,0.9-4.6,0-4.6,2.3c0,1,0.8,1.3,1.8,1.3
			c2,0,2.8-1.2,2.8-2.1V309.7z"/>
		<path fill="#F6F6F6" d="M36.6,303.6h-1.5v-1.8h1.5V303.6z M35.1,305.2h1.5v9.1h-1.5V305.2z"/>
		<path fill="#F6F6F6" d="M39,301.8h1.5v12.6H39V301.8z"/>
		<path fill="#F6F6F6" d="M50.5,307.2c0.1,0,0.2,0,0.3,0h0.3c1.3,0,2.4-0.7,2.4-2c0-1.3-1-2-2.2-2c-1.6,0-2.4,1.3-2.4,2.7h-1.5
			c0.1-2.4,1.4-4,3.9-4c2.2,0,3.8,1,3.8,3.4c0,1.1-0.8,2-1.7,2.5v0c1.5,0.3,2.3,1.5,2.3,3c0,2.5-2,3.8-4.3,3.8
			c-2.5,0-4.2-1.5-4.2-4.1h1.5c0.1,1.6,1,2.8,2.7,2.8c1.5,0,2.7-0.9,2.7-2.4c0-1.6-1.2-2.4-2.7-2.4c-0.3,0-0.6,0-0.9,0.1V307.2z"/>
		<path fill="#F6F6F6" d="M70.6,314.4h-1.5v-1.2h0c-0.5,1-1.6,1.4-2.9,1.4c-2.8,0-4.2-2.2-4.2-4.8c0-2.6,1.4-4.7,4.2-4.7
			c0.9,0,2.3,0.4,2.9,1.4h0v-4.7h1.5V314.4z M66.4,313.3c2,0,2.8-1.7,2.8-3.4c0-1.8-0.8-3.5-2.9-3.5c-2,0-2.7,1.7-2.7,3.5
			C63.6,311.6,64.5,313.3,66.4,313.3z"/>
		<path fill="#F6F6F6" d="M74.5,303.6H73v-1.8h1.5V303.6z M73,305.2h1.5v9.1H73V305.2z"/>
		<path fill="#F6F6F6" d="M76.9,305.2h1.4v1.3h0c0.7-1,1.7-1.6,2.9-1.6c1.1,0,2.1,0.4,2.5,1.6c0.6-1,1.7-1.6,2.9-1.6
			c1.8,0,3,0.8,3,2.6v6.7h-1.5v-6c0-1.1-0.3-2-1.8-2s-2.4,0.9-2.4,2.3v5.7h-1.5v-6c0-1.2-0.4-2-1.7-2c-1.8,0-2.4,1.6-2.4,2.3v5.7
			h-1.5V305.2z"/>
		<path fill="#F6F6F6" d="M99.7,311.5c-0.4,2-1.8,3.1-3.9,3.1c-2.9,0-4.3-2-4.4-4.8c0-2.8,1.8-4.7,4.3-4.7c3.2,0,4.2,3,4.1,5.2H93
			c-0.1,1.6,0.8,3,2.8,3c1.3,0,2.1-0.6,2.4-1.8H99.7z M98.3,308.9c-0.1-1.4-1.1-2.6-2.6-2.6c-1.6,0-2.5,1.2-2.6,2.6H98.3z"/>
		<path fill="#F6F6F6" d="M101.4,305.2h1.4v1.4h0c0.6-1.1,1.6-1.7,3-1.7c2.4,0,3.1,1.4,3.1,3.3v6h-1.5v-6.2c0-1.1-0.7-1.8-1.9-1.8
			c-1.8,0-2.7,1.2-2.7,2.9v5.2h-1.5V305.2z"/>
		<path fill="#F6F6F6" d="M112.1,311.5c0.1,1.3,1.2,1.8,2.5,1.8c0.9,0,2.2-0.2,2.2-1.4c0-2.3-6-0.8-6-4.3c0-1.8,1.8-2.6,3.4-2.6
			c2,0,3.6,0.6,3.7,2.9h-1.5c-0.1-1.2-1.1-1.5-2.1-1.5c-0.9,0-1.9,0.2-1.9,1.2c0,1.1,1.6,1.3,3,1.6c1.5,0.3,3,0.8,3,2.6
			c0,2.2-2,2.9-3.9,2.9c-2,0-3.8-0.8-3.9-3.1H112.1z"/>
		<path fill="#F6F6F6" d="M121.6,303.6h-1.5v-1.8h1.5V303.6z M120.1,305.2h1.5v9.1h-1.5V305.2z"/>
		<path fill="#F6F6F6" d="M127.9,305c2.9,0,4.4,2.1,4.4,4.8c0,2.7-1.5,4.8-4.4,4.8c-2.9,0-4.4-2.1-4.4-4.8
			C123.5,307.1,125,305,127.9,305z M127.9,313.3c1.6,0,2.8-1.2,2.8-3.4s-1.3-3.5-2.8-3.5s-2.8,1.3-2.8,3.5S126.3,313.3,127.9,313.3z
			"/>
		<path fill="#F6F6F6" d="M134.1,305.2h1.4v1.4h0c0.6-1.1,1.6-1.7,3-1.7c2.4,0,3.1,1.4,3.1,3.3v6h-1.5v-6.2c0-1.1-0.7-1.8-1.9-1.8
			c-1.8,0-2.7,1.2-2.7,2.9v5.2h-1.5V305.2z"/>
		<path fill="#F6F6F6" d="M144.8,311.5c0.1,1.3,1.2,1.8,2.5,1.8c0.9,0,2.2-0.2,2.2-1.4c0-2.3-6-0.8-6-4.3c0-1.8,1.8-2.6,3.4-2.6
			c2,0,3.6,0.6,3.7,2.9h-1.5c-0.1-1.2-1.1-1.5-2.1-1.5c-0.9,0-1.9,0.2-1.9,1.2c0,1.1,1.6,1.3,3,1.6c1.5,0.3,3,0.8,3,2.6
			c0,2.2-2,2.9-3.9,2.9c-2,0-3.8-0.8-3.9-3.1H144.8z"/>
	</g>
	<g enable-background="new    ">
		<path fill="#F6F6F6" d="M15.6,323.7h8.3v1.4h-6.6v4h5.8v1.4h-5.8v5.8h-1.7V323.7z"/>
		<path fill="#F6F6F6" d="M33.6,336.2c-0.3,0.2-0.6,0.2-1.1,0.2c-0.8,0-1.3-0.4-1.3-1.4c-0.8,1-1.9,1.4-3.2,1.4c-1.7,0-3-0.7-3-2.6
			c0-2.1,1.5-2.5,3.1-2.8c1.6-0.3,3.1-0.2,3.1-1.3c0-1.3-1.1-1.5-2-1.5c-1.3,0-2.2,0.4-2.3,1.7h-1.5c0.1-2.3,1.8-3.1,3.9-3.1
			c1.6,0,3.4,0.4,3.4,2.5v4.7c0,0.7,0,1,0.5,1c0.1,0,0.3,0,0.5-0.1V336.2z M31.2,331.5c-1.2,0.9-4.6,0-4.6,2.3c0,1,0.8,1.3,1.8,1.3
			c2,0,2.8-1.2,2.8-2.1V331.5z"/>
		<path fill="#F6F6F6" d="M36.6,325.5h-1.5v-1.8h1.5V325.5z M35.1,327.1h1.5v9.1h-1.5V327.1z"/>
		<path fill="#F6F6F6" d="M39,323.7h1.5v12.6H39V323.7z"/>
		<path fill="#F6F6F6" d="M54,332h1.7v1.3H54v2.9h-1.4v-2.9h-5.5v-1.4l5.7-8.1H54V332z M52.6,332v-6.1h0l-4.2,6.1H52.6z"/>
		<path fill="#F6F6F6" d="M70.6,336.3h-1.5V335h0c-0.5,1-1.6,1.4-2.9,1.4c-2.8,0-4.2-2.2-4.2-4.8c0-2.6,1.4-4.7,4.2-4.7
			c0.9,0,2.3,0.4,2.9,1.4h0v-4.7h1.5V336.3z M66.4,335.1c2,0,2.8-1.7,2.8-3.4c0-1.8-0.8-3.5-2.9-3.5c-2,0-2.7,1.7-2.7,3.5
			C63.6,333.5,64.5,335.1,66.4,335.1z"/>
		<path fill="#F6F6F6" d="M74.5,325.5H73v-1.8h1.5V325.5z M73,327.1h1.5v9.1H73V327.1z"/>
		<path fill="#F6F6F6" d="M76.9,327.1h1.4v1.3h0c0.7-1,1.7-1.6,2.9-1.6c1.1,0,2.1,0.4,2.5,1.6c0.6-1,1.7-1.6,2.9-1.6
			c1.8,0,3,0.8,3,2.6v6.7h-1.5v-6c0-1.1-0.3-2-1.8-2s-2.4,0.9-2.4,2.3v5.7h-1.5v-6c0-1.2-0.4-2-1.7-2c-1.8,0-2.4,1.6-2.4,2.3v5.7
			h-1.5V327.1z"/>
		<path fill="#F6F6F6" d="M99.7,333.4c-0.4,2-1.8,3.1-3.9,3.1c-2.9,0-4.3-2-4.4-4.8c0-2.8,1.8-4.7,4.3-4.7c3.2,0,4.2,3,4.1,5.2H93
			c-0.1,1.6,0.8,3,2.8,3c1.3,0,2.1-0.6,2.4-1.8H99.7z M98.3,330.8c-0.1-1.4-1.1-2.6-2.6-2.6c-1.6,0-2.5,1.2-2.6,2.6H98.3z"/>
		<path fill="#F6F6F6" d="M101.4,327.1h1.4v1.4h0c0.6-1.1,1.6-1.7,3-1.7c2.4,0,3.1,1.4,3.1,3.3v6h-1.5v-6.2c0-1.1-0.7-1.8-1.9-1.8
			c-1.8,0-2.7,1.2-2.7,2.9v5.2h-1.5V327.1z"/>
		<path fill="#F6F6F6" d="M112.1,333.4c0.1,1.3,1.2,1.8,2.5,1.8c0.9,0,2.2-0.2,2.2-1.4c0-2.3-6-0.8-6-4.3c0-1.8,1.8-2.6,3.4-2.6
			c2,0,3.6,0.6,3.7,2.9h-1.5c-0.1-1.2-1.1-1.5-2.1-1.5c-0.9,0-1.9,0.2-1.9,1.2c0,1.1,1.6,1.3,3,1.6c1.5,0.3,3,0.8,3,2.6
			c0,2.2-2,2.9-3.9,2.9c-2,0-3.8-0.8-3.9-3.1H112.1z"/>
		<path fill="#F6F6F6" d="M121.6,325.5h-1.5v-1.8h1.5V325.5z M120.1,327.1h1.5v9.1h-1.5V327.1z"/>
		<path fill="#F6F6F6" d="M127.9,326.9c2.9,0,4.4,2.1,4.4,4.8c0,2.7-1.5,4.8-4.4,4.8c-2.9,0-4.4-2.1-4.4-4.8
			C123.5,329,125,326.9,127.9,326.9z M127.9,335.1c1.6,0,2.8-1.2,2.8-3.4s-1.3-3.5-2.8-3.5s-2.8,1.3-2.8,3.5
			S126.3,335.1,127.9,335.1z"/>
		<path fill="#F6F6F6" d="M134.1,327.1h1.4v1.4h0c0.6-1.1,1.6-1.7,3-1.7c2.4,0,3.1,1.4,3.1,3.3v6h-1.5v-6.2c0-1.1-0.7-1.8-1.9-1.8
			c-1.8,0-2.7,1.2-2.7,2.9v5.2h-1.5V327.1z"/>
		<path fill="#F6F6F6" d="M144.8,333.4c0.1,1.3,1.2,1.8,2.5,1.8c0.9,0,2.2-0.2,2.2-1.4c0-2.3-6-0.8-6-4.3c0-1.8,1.8-2.6,3.4-2.6
			c2,0,3.6,0.6,3.7,2.9h-1.5c-0.1-1.2-1.1-1.5-2.1-1.5c-0.9,0-1.9,0.2-1.9,1.2c0,1.1,1.6,1.3,3,1.6c1.5,0.3,3,0.8,3,2.6
			c0,2.2-2,2.9-3.9,2.9c-2,0-3.8-0.8-3.9-3.1H144.8z"/>
	</g>
	<g enable-background="new    ">
		<path fill="#F6F6F6" d="M15.6,345.5h8.3v1.4h-6.6v4h5.8v1.4h-5.8v5.8h-1.7V345.5z"/>
		<path fill="#F6F6F6" d="M33.6,358.1c-0.3,0.2-0.6,0.2-1.1,0.2c-0.8,0-1.3-0.4-1.3-1.4c-0.8,1-1.9,1.4-3.2,1.4c-1.7,0-3-0.7-3-2.6
			c0-2.1,1.5-2.5,3.1-2.8c1.6-0.3,3.1-0.2,3.1-1.3c0-1.3-1.1-1.5-2-1.5c-1.3,0-2.2,0.4-2.3,1.7h-1.5c0.1-2.3,1.8-3.1,3.9-3.1
			c1.6,0,3.4,0.4,3.4,2.5v4.7c0,0.7,0,1,0.5,1c0.1,0,0.3,0,0.5-0.1V358.1z M31.2,353.4c-1.2,0.9-4.6,0-4.6,2.3c0,1,0.8,1.3,1.8,1.3
			c2,0,2.8-1.2,2.8-2.1V353.4z"/>
		<path fill="#F6F6F6" d="M36.6,347.4h-1.5v-1.8h1.5V347.4z M35.1,349h1.5v9.1h-1.5V349z"/>
		<path fill="#F6F6F6" d="M39,345.5h1.5v12.6H39V345.5z"/>
		<path fill="#F6F6F6" d="M54.9,347.2h-5l-0.7,3.6l0,0c0.5-0.6,1.5-0.9,2.3-0.9c2.2,0,4,1.4,4,4.3c0,2.1-1.5,4.2-4.4,4.2
			c-2.2,0-3.9-1.3-4-3.6h1.5c0.1,1.3,1.1,2.3,2.6,2.3c1.4,0,2.6-1,2.6-3c0-1.6-1.1-2.8-2.8-2.8c-1,0-1.7,0.5-2.3,1.2l-1.3-0.1
			l1.2-6.5h6.2V347.2z"/>
		<path fill="#F6F6F6" d="M70.6,358.1h-1.5v-1.2h0c-0.5,1-1.6,1.4-2.9,1.4c-2.8,0-4.2-2.2-4.2-4.8c0-2.6,1.4-4.7,4.2-4.7
			c0.9,0,2.3,0.4,2.9,1.4h0v-4.7h1.5V358.1z M66.4,357c2,0,2.8-1.7,2.8-3.4c0-1.8-0.8-3.5-2.9-3.5c-2,0-2.7,1.7-2.7,3.5
			C63.6,355.4,64.5,357,66.4,357z"/>
		<path fill="#F6F6F6" d="M74.5,347.4H73v-1.8h1.5V347.4z M73,349h1.5v9.1H73V349z"/>
		<path fill="#F6F6F6" d="M76.9,349h1.4v1.3h0c0.7-1,1.7-1.6,2.9-1.6c1.1,0,2.1,0.4,2.5,1.6c0.6-1,1.7-1.6,2.9-1.6
			c1.8,0,3,0.8,3,2.6v6.7h-1.5v-6c0-1.1-0.3-2-1.8-2S84,351,84,352.5v5.7h-1.5v-6c0-1.2-0.4-2-1.7-2c-1.8,0-2.4,1.6-2.4,2.3v5.7
			h-1.5V349z"/>
		<path fill="#F6F6F6" d="M99.7,355.3c-0.4,2-1.8,3.1-3.9,3.1c-2.9,0-4.3-2-4.4-4.8c0-2.8,1.8-4.7,4.3-4.7c3.2,0,4.2,3,4.1,5.2H93
			c-0.1,1.6,0.8,3,2.8,3c1.3,0,2.1-0.6,2.4-1.8H99.7z M98.3,352.7c-0.1-1.4-1.1-2.6-2.6-2.6c-1.6,0-2.5,1.2-2.6,2.6H98.3z"/>
		<path fill="#F6F6F6" d="M101.4,349h1.4v1.4h0c0.6-1.1,1.6-1.7,3-1.7c2.4,0,3.1,1.4,3.1,3.3v6h-1.5V352c0-1.1-0.7-1.8-1.9-1.8
			c-1.8,0-2.7,1.2-2.7,2.9v5.2h-1.5V349z"/>
		<path fill="#F6F6F6" d="M112.1,355.3c0.1,1.3,1.2,1.8,2.5,1.8c0.9,0,2.2-0.2,2.2-1.4c0-2.3-6-0.8-6-4.3c0-1.8,1.8-2.6,3.4-2.6
			c2,0,3.6,0.6,3.7,2.9h-1.5c-0.1-1.2-1.1-1.5-2.1-1.5c-0.9,0-1.9,0.2-1.9,1.2c0,1.1,1.6,1.3,3,1.6c1.5,0.3,3,0.8,3,2.6
			c0,2.2-2,2.9-3.9,2.9c-2,0-3.8-0.8-3.9-3.1H112.1z"/>
		<path fill="#F6F6F6" d="M121.6,347.4h-1.5v-1.8h1.5V347.4z M120.1,349h1.5v9.1h-1.5V349z"/>
		<path fill="#F6F6F6" d="M127.9,348.8c2.9,0,4.4,2.1,4.4,4.8c0,2.7-1.5,4.8-4.4,4.8c-2.9,0-4.4-2.1-4.4-4.8
			C123.5,350.9,125,348.8,127.9,348.8z M127.9,357c1.6,0,2.8-1.2,2.8-3.4s-1.3-3.5-2.8-3.5s-2.8,1.3-2.8,3.5S126.3,357,127.9,357z"
			/>
		<path fill="#F6F6F6" d="M134.1,349h1.4v1.4h0c0.6-1.1,1.6-1.7,3-1.7c2.4,0,3.1,1.4,3.1,3.3v6h-1.5V352c0-1.1-0.7-1.8-1.9-1.8
			c-1.8,0-2.7,1.2-2.7,2.9v5.2h-1.5V349z"/>
		<path fill="#F6F6F6" d="M144.8,355.3c0.1,1.3,1.2,1.8,2.5,1.8c0.9,0,2.2-0.2,2.2-1.4c0-2.3-6-0.8-6-4.3c0-1.8,1.8-2.6,3.4-2.6
			c2,0,3.6,0.6,3.7,2.9h-1.5c-0.1-1.2-1.1-1.5-2.1-1.5c-0.9,0-1.9,0.2-1.9,1.2c0,1.1,1.6,1.3,3,1.6c1.5,0.3,3,0.8,3,2.6
			c0,2.2-2,2.9-3.9,2.9c-2,0-3.8-0.8-3.9-3.1H144.8z"/>
	</g>
	<g enable-background="new    ">
		<path fill="#F6F6F6" d="M341,263c-0.1-2.8,1.5-5,4.5-5c2.3,0,4.2,1.4,4.2,3.9c0,3.7-4,4-5.8,6.6h5.8v2.2h-9.1
			c0-2.9,1.8-4.1,3.9-5.5c1.1-0.8,2.6-1.5,2.6-3c0-1.2-0.8-1.9-1.9-1.9c-1.5,0-2,1.5-2,2.8H341z"/>
		<path fill="#F6F6F6" d="M357,261.4c-0.2-0.8-0.8-1.5-1.7-1.5c-1.8,0-2.3,2.4-2.4,3.8l0,0c0.7-1,1.6-1.4,2.8-1.4
			c1.1,0,2.1,0.5,2.8,1.3c0.7,0.8,1,1.8,1,2.8c0,2.5-1.7,4.5-4.3,4.5c-3.7,0-4.8-3.3-4.8-6.4c0-3,1.3-6.5,4.9-6.5
			c2.1,0,3.7,1.2,4,3.4H357z M353.2,266.5c0,1.1,0.7,2.3,2,2.3c1.2,0,1.9-1.1,1.9-2.3c0-1.2-0.6-2.3-1.9-2.3
			C353.9,264.2,353.2,265.2,353.2,266.5z"/>
		<path fill="#F6F6F6" d="M364.3,258c2.2,0,2.9,1.6,2.9,3.6c0,1.9-0.9,3.3-3,3.3c-2.2,0-2.9-1.4-2.9-3.4
			C361.3,259.5,362.3,258,364.3,258z M364.3,263.5c1.1,0,1.2-1.3,1.2-2c0-0.7-0.1-2.2-1.1-2.2c-1.1,0-1.2,1.4-1.2,2.2
			C363.1,262.2,363.1,263.5,364.3,263.5z M371.8,257.8h1.5L366,271h-1.5L371.8,257.8z M373.4,263.9c2.2,0,2.9,1.6,2.9,3.5
			c0,1.9-0.9,3.4-3,3.4c-2.2,0-2.9-1.6-2.9-3.5C370.4,265.4,371.4,263.9,373.4,263.9z M373.4,269.5c1.1,0,1.2-1.4,1.2-2.1
			c0-0.7-0.1-2.1-1.1-2.1c-1.1,0-1.2,1.3-1.2,2.1C372.2,268.1,372.2,269.5,373.4,269.5z"/>
	</g>
	<rect x="165.2" y="258" fill="#1EB5BF" width="162.6" height="12.5"/>
	<rect x="165.2" y="279.9" fill="#1EB5BF" width="62.6" height="12.5"/>
	<rect x="165.2" y="301.8" fill="#1EB5BF" width="31.3" height="12.5"/>
	<rect x="165.2" y="323.7" fill="#1EB5BF" width="12.5" height="12.5"/>
	<rect x="165.2" y="345.6" fill="#1EB5BF" width="6.3" height="12.5"/>
	<g enable-background="new    ">
		<path fill="#F6F6F6" d="M247.2,292.5h-2.5v-8h-3.1v-1.9c1.7,0.1,3.3-0.6,3.6-2.5h2V292.5z"/>
		<path fill="#F6F6F6" d="M255,279.9c2.5,0,4.6,1.6,4.6,6.4c0,4.9-2.1,6.5-4.6,6.5c-2.5,0-4.5-1.6-4.5-6.5
			C250.5,281.4,252.5,279.9,255,279.9z M255,290.7c2,0,2-3,2-4.4c0-1.3,0-4.3-2-4.3c-2,0-2,3-2,4.3C253,287.7,253,290.7,255,290.7z"
			/>
		<path fill="#F6F6F6" d="M264.2,279.9c2.2,0,2.9,1.6,2.9,3.6c0,1.9-0.9,3.3-3,3.3c-2.2,0-2.9-1.4-2.9-3.4
			C261.2,281.5,262.2,279.9,264.2,279.9z M264.2,285.4c1.1,0,1.2-1.3,1.2-2c0-0.7-0.1-2.2-1.1-2.2c-1.1,0-1.2,1.4-1.2,2.2
			C263,284.2,263,285.4,264.2,285.4z M271.7,279.7h1.5l-7.3,13.1h-1.5L271.7,279.7z M273.3,285.9c2.2,0,2.9,1.6,2.9,3.5
			c0,1.9-0.9,3.4-3,3.4c-2.2,0-2.9-1.6-2.9-3.5C270.3,287.4,271.3,285.9,273.3,285.9z M273.3,291.4c1.1,0,1.2-1.4,1.2-2.1
			c0-0.7-0.1-2.1-1.1-2.1c-1.1,0-1.2,1.3-1.2,2.1C272.1,290,272.1,291.4,273.3,291.4z"/>
	</g>
	<g enable-background="new    ">
		<path fill="#F6F6F6" d="M217.8,304.1h-5.1l-0.5,2.8l0,0c0.7-0.7,1.4-1,2.4-1c2.4,0,3.8,1.9,3.8,4.2c0,2.5-2.1,4.5-4.6,4.4
			c-2.4,0-4.5-1.3-4.6-3.9h2.5c0.1,1.1,0.9,1.9,2,1.9c1.3,0,2.1-1.1,2.1-2.4c0-1.3-0.8-2.3-2.1-2.3c-0.9,0-1.4,0.3-1.9,1h-2.3
			l1.2-6.8h6.9V304.1z"/>
		<path fill="#F6F6F6" d="M223.1,301.8c2.2,0,2.9,1.6,2.9,3.6c0,1.9-0.9,3.3-3,3.3c-2.2,0-2.9-1.4-2.9-3.4
			C220.1,303.3,221.1,301.8,223.1,301.8z M223.1,307.3c1.1,0,1.2-1.3,1.2-2c0-0.7-0.1-2.2-1.1-2.2c-1.1,0-1.2,1.4-1.2,2.2
			C221.9,306.1,221.9,307.3,223.1,307.3z M230.6,301.6h1.5l-7.3,13.1h-1.5L230.6,301.6z M232.3,307.7c2.2,0,2.9,1.6,2.9,3.5
			c0,1.9-0.9,3.4-3,3.4c-2.2,0-2.9-1.6-2.9-3.5C229.3,309.2,230.2,307.7,232.3,307.7z M232.2,313.3c1.1,0,1.2-1.4,1.2-2.1
			c0-0.7-0.1-2.1-1.1-2.1c-1.1,0-1.2,1.3-1.2,2.1C231.1,311.9,231.1,313.3,232.2,313.3z"/>
	</g>
	<g enable-background="new    ">
		<path fill="#F6F6F6" d="M190.9,328.7c-0.1-2.8,1.5-5,4.5-5c2.3,0,4.2,1.4,4.2,3.9c0,3.7-4,4-5.8,6.6h5.8v2.2h-9.1
			c0-2.9,1.8-4.1,3.9-5.5c1.1-0.8,2.6-1.5,2.6-3c0-1.2-0.8-1.9-1.9-1.9c-1.5,0-2,1.5-2,2.8H190.9z"/>
		<path fill="#F6F6F6" d="M204.4,323.7c2.2,0,2.9,1.6,2.9,3.6c0,1.9-0.9,3.3-3,3.3c-2.2,0-2.9-1.4-2.9-3.4
			C201.4,325.2,202.3,323.7,204.4,323.7z M204.3,329.2c1.1,0,1.2-1.3,1.2-2c0-0.7-0.1-2.2-1.1-2.2c-1.1,0-1.2,1.4-1.2,2.2
			C203.2,328,203.2,329.2,204.3,329.2z M211.8,323.5h1.5l-7.3,13.1h-1.5L211.8,323.5z M213.5,329.6c2.2,0,2.9,1.6,2.9,3.5
			c0,1.9-0.9,3.4-3,3.4c-2.2,0-2.9-1.6-2.9-3.5C210.5,331.1,211.4,329.6,213.5,329.6z M213.4,335.2c1.1,0,1.2-1.4,1.2-2.1
			c0-0.7-0.1-2.1-1.1-2.1c-1.1,0-1.2,1.3-1.2,2.1C212.3,333.8,212.3,335.2,213.4,335.2z"/>
	</g>
	<g enable-background="new    ">
		<path fill="#F6F6F6" d="M190.9,358.2h-2.5v-8h-3.1v-1.9c1.7,0.1,3.3-0.6,3.6-2.5h2V358.2z"/>
		<path fill="#F6F6F6" d="M198.1,345.6c2.2,0,2.9,1.6,2.9,3.6c0,1.9-0.9,3.3-3,3.3c-2.2,0-2.9-1.4-2.9-3.4
			C195.1,347.1,196.1,345.6,198.1,345.6z M198.1,351.1c1.1,0,1.2-1.3,1.2-2c0-0.7-0.1-2.2-1.1-2.2c-1.1,0-1.2,1.4-1.2,2.2
			C196.9,349.8,196.9,351.1,198.1,351.1z M205.6,345.4h1.5l-7.3,13.1h-1.5L205.6,345.4z M207.2,351.5c2.2,0,2.9,1.6,2.9,3.5
			c0,1.9-0.9,3.4-3,3.4c-2.2,0-2.9-1.6-2.9-3.5C204.2,353,205.2,351.5,207.2,351.5z M207.2,357.1c1.1,0,1.2-1.4,1.2-2.1
			c0-0.7-0.1-2.1-1.1-2.1c-1.1,0-1.2,1.3-1.2,2.1C206,355.7,206,357.1,207.2,357.1z"/>
	</g>
	<line fill="none" stroke="#878786" stroke-width="0.5" x1="10.6" y1="50" x2="393.1" y2="50"/>
	<line fill="none" stroke="#878786" stroke-width="0.5" x1="7.2" y1="248.6" x2="393" y2="248.6"/>
	
		<line fill="none" stroke="#656463" stroke-width="0.75" stroke-linecap="round" stroke-linejoin="round" stroke-dasharray="0,2.258" x1="15.6" y1="7" x2="390.6" y2="7"/>
	
		<path fill="none" stroke="#656463" stroke-width="0.75" stroke-linecap="round" stroke-linejoin="round" stroke-dasharray="0,2.258" d="
		M393.1,7L393.1,7 M10.6,7L10.6,7"/>
	
		<line fill="none" stroke="#656463" stroke-width="0.75" stroke-linecap="round" stroke-linejoin="round" stroke-dasharray="0,2.258" x1="12.6" y1="205.6" x2="390.3" y2="205.6"/>
	
		<path fill="none" stroke="#656463" stroke-width="0.75" stroke-linecap="round" stroke-linejoin="round" stroke-dasharray="0,2.258" d="
		M390.3,205.6L390.3,205.6 M7.2,205.6L7.2,205.6"/>
</g>
</svg>
