<?xml version="1.0" encoding="utf-8"?>
<!-- Generator: Adobe Illustrator 20.1.0, SVG Export Plug-In . SVG Version: 6.00 Build 0)  -->
<svg version="1.1" id="Layer_1" xmlns="http://www.w3.org/2000/svg" xmlns:xlink="http://www.w3.org/1999/xlink" x="0px" y="0px"
	 viewBox="0 0 22 22" enable-background="new 0 0 22 22" xml:space="preserve">
<g>
	<path fill="#C3C632" d="M20.5,0.5h-5c-0.6,0-1,0.4-1,1s0.4,1,1,1h2.6l-5.3,5.3c-0.2,0.2-0.3,0.4-0.3,0.7s0.1,0.5,0.3,0.7
		s0.4,0.3,0.7,0.3s0.5-0.1,0.7-0.3l5.3-5.3v2.6c0,0.6,0.4,1,1,1s1-0.4,1-1v-5C21.5,0.9,21.1,0.5,20.5,0.5z"/>
	<path fill="#C3C632" d="M7.8,12.8l-5.3,5.3v-2.6c0-0.6-0.4-1-1-1s-1,0.4-1,1v5c0,0.6,0.4,1,1,1h5c0.6,0,1-0.4,1-1s-0.4-1-1-1H3.9
		l5.3-5.3c0.2-0.2,0.3-0.4,0.3-0.7S9.4,13,9.2,12.8C8.8,12.4,8.2,12.4,7.8,12.8z"/>
</g>
</svg>
