<?xml version="1.0" encoding="utf-8"?>
<!-- Generator: Adobe Illustrator 20.1.0, SVG Export Plug-In . SVG Version: 6.00 Build 0)  -->
<svg version="1.1" id="Layer_1" xmlns="http://www.w3.org/2000/svg" xmlns:xlink="http://www.w3.org/1999/xlink" x="0px" y="0px"
	 viewBox="0 0 22 22" enable-background="new 0 0 22 22" xml:space="preserve">
<g transform="translate(40 2160)" display="none">
	<g display="inline">
		<path fill="#2C2C2B" d="M-23.6-2149.9c-0.2-0.2-0.5-0.2-0.7,0l-4.1,4.1v-11.3c0-0.3-0.2-0.5-0.5-0.5s-0.5,0.2-0.5,0.5v11.3
			l-4.1-4.1c-0.2-0.2-0.5-0.2-0.7,0s-0.2,0.5,0,0.7l5,5c0.1,0.1,0.2,0.1,0.4,0.1c0.1,0,0.3,0,0.4-0.1l5-5
			C-23.5-2149.3-23.5-2149.7-23.6-2149.9L-23.6-2149.9z"/>
		<path fill="#2C2C2B" d="M-29-2143.5c-0.3,0-0.5-0.1-0.7-0.3l-5-5c-0.2-0.2-0.3-0.4-0.3-0.7s0.1-0.5,0.3-0.7c0.4-0.4,1-0.4,1.4,0
			l3.3,3.3v-10.1c0-0.6,0.4-1,1-1s1,0.4,1,1v10.1l3.3-3.3c0.4-0.4,1-0.4,1.4,0c0.2,0.2,0.3,0.4,0.3,0.7s-0.1,0.5-0.3,0.7l-5,5
			C-28.5-2143.6-28.7-2143.5-29-2143.5z M-29.8-2145.3l0.8,0.8l3.1-3.1l-2.3,2.3c-0.1,0.1-0.4,0.2-0.5,0.1c-0.2-0.1-0.3-0.3-0.3-0.5
			c0,0.2-0.1,0.4-0.3,0.5C-29.5-2145.2-29.7-2145.2-29.8-2145.3z M-23.6-2149.9l-0.4,0.4l0,0l0,0L-23.6-2149.9z"/>
	</g>
	<g display="inline">
		<path fill="#2C2C2B" d="M-21-2140.5h-16c-0.8,0-1.5-0.7-1.5-1.5v-2c0-0.3,0.2-0.5,0.5-0.5s0.5,0.2,0.5,0.5v2
			c0,0.3,0.2,0.5,0.5,0.5h16c0.3,0,0.5-0.2,0.5-0.5v-2c0-0.3,0.2-0.5,0.5-0.5s0.5,0.2,0.5,0.5v2C-19.5-2141.2-20.2-2140.5-21-2140.5
			z"/>
		<path fill="#2C2C2B" d="M-21-2140h-16c-1.1,0-2-0.9-2-2v-2c0-0.6,0.4-1,1-1s1,0.4,1,1v2h16v-2c0-0.6,0.4-1,1-1s1,0.4,1,1v2
			C-19-2140.9-19.9-2140-21-2140z M-38-2142c0,0.6,0.4,1,1,1h16h-16C-37.6-2141-38-2141.4-38-2142z"/>
	</g>
</g>
<g transform="translate(520 2280)" display="none">
	<g display="inline">
		<path fill="#2C2C2B" d="M-501.5-2273.5h-15c-0.3,0-0.5-0.2-0.5-0.5s0.2-0.5,0.5-0.5h15c0.3,0,0.5,0.2,0.5,0.5
			S-501.2-2273.5-501.5-2273.5z"/>
		<path fill="#2C2C2B" d="M-501.5-2273h-15c-0.6,0-1-0.4-1-1s0.4-1,1-1h15c0.6,0,1,0.4,1,1S-500.9-2273-501.5-2273z M-501.5-2274
			v0.5V-2274L-501.5-2274z"/>
	</g>
	<g display="inline">
		<path fill="#2C2C2B" d="M-501.5-2268.5h-15c-0.3,0-0.5-0.2-0.5-0.5s0.2-0.5,0.5-0.5h15c0.3,0,0.5,0.2,0.5,0.5
			S-501.2-2268.5-501.5-2268.5z"/>
		<path fill="#2C2C2B" d="M-501.5-2268h-15c-0.6,0-1-0.4-1-1s0.4-1,1-1h15c0.6,0,1,0.4,1,1S-500.9-2268-501.5-2268z M-501.5-2269
			v0.5V-2269L-501.5-2269z"/>
	</g>
	<g display="inline">
		<path fill="#2C2C2B" d="M-501.5-2263.5h-15c-0.3,0-0.5-0.2-0.5-0.5s0.2-0.5,0.5-0.5h15c0.3,0,0.5,0.2,0.5,0.5
			S-501.2-2263.5-501.5-2263.5z"/>
		<path fill="#2C2C2B" d="M-501.5-2263h-15c-0.6,0-1-0.4-1-1s0.4-1,1-1h15c0.6,0,1,0.4,1,1S-500.9-2263-501.5-2263z M-501.5-2264
			v0.5V-2264L-501.5-2264z"/>
	</g>
</g>
<g transform="translate(360 2320)" display="none">
	<g display="inline">
		<path fill="#2C2C2B" d="M-348.3-2309l8.6-8.6c0.2-0.2,0.2-0.5,0-0.7s-0.5-0.2-0.7,0l-8.6,8.6l-8.6-8.6c-0.2-0.2-0.5-0.2-0.7,0
			s-0.2,0.5,0,0.7l8.6,8.6l-8.6,8.6c-0.2,0.2-0.2,0.5,0,0.7c0.1,0.1,0.2,0.1,0.4,0.1c0.1,0,0.3,0,0.4-0.1l8.6-8.6l8.6,8.6
			c0.1,0.1,0.2,0.1,0.4,0.1c0.1,0,0.3,0,0.4-0.1c0.2-0.2,0.2-0.5,0-0.7L-348.3-2309L-348.3-2309z"/>
		<path fill="#2C2C2B" d="M-340-2299c-0.3,0-0.5-0.1-0.7-0.3l-8.3-8.3l-8.3,8.3c-0.4,0.4-1,0.4-1.4,0c-0.2-0.2-0.3-0.4-0.3-0.7
			s0.1-0.5,0.3-0.7l8.3-8.3l-8.3-8.3c-0.2-0.2-0.3-0.4-0.3-0.7s0.1-0.5,0.3-0.7c0.4-0.4,1-0.4,1.4,0l8.3,8.3l8.3-8.3
			c0.4-0.4,1-0.4,1.4,0c0.2,0.2,0.3,0.4,0.3,0.7s-0.1,0.5-0.3,0.7l-8.3,8.3l8.3,8.3c0.4,0.4,0.4,1,0,1.4
			C-339.5-2299.1-339.7-2299-340-2299z M-349.3-2309.3c0.2,0.2,0.2,0.5,0,0.7l-8.6,8.6l8.6-8.6c0.2-0.2,0.5-0.2,0.7,0l8.6,8.6
			l-8.6-8.6c-0.2-0.2-0.2-0.5,0-0.7C-348.8-2309.2-349.2-2309.2-349.3-2309.3z"/>
	</g>
</g>
<g transform="translate(520 2320)" display="none">
	<g display="inline">
		<path fill="#2C2C2B" d="M-518.5-2304.5c0,0.1,0,0.3,0.1,0.4c0.2,0.2,0.5,0.2,0.7,0l8.6-8.6l8.6,8.6c0.2,0.2,0.5,0.2,0.7,0
			s0.2-0.5,0-0.7l-9-9c-0.2-0.2-0.5-0.2-0.7,0l-9,9C-518.5-2304.8-518.5-2304.6-518.5-2304.5L-518.5-2304.5z"/>
		<path fill="#2C2C2B" d="M-500-2303.5c-0.3,0-0.5-0.1-0.7-0.3l-8.3-8.3l-8.3,8.3c-0.4,0.4-1,0.4-1.4,0c-0.2-0.2-0.3-0.4-0.3-0.7
			s0.1-0.5,0.3-0.7l9-9c0.4-0.4,1-0.4,1.4,0l9,9c0.2,0.2,0.3,0.4,0.3,0.7s-0.1,0.5-0.3,0.7S-499.7-2303.5-500-2303.5L-500-2303.5z
			 M-509-2313.5l-9,9h-0.5h0.5l0,0l8.6-8.6c0.2-0.2,0.5-0.2,0.7,0L-509-2313.5z"/>
	</g>
</g>
<g transform="translate(0 2360)" display="none">
	<g display="inline">
		<path fill="#2C2C2B" d="M1.5-2353.5c0-0.1,0-0.3,0.1-0.4c0.2-0.2,0.5-0.2,0.7,0l8.6,8.6l8.6-8.6c0.2-0.2,0.5-0.2,0.7,0
			s0.2,0.5,0,0.7l-9,9c-0.2,0.2-0.5,0.2-0.7,0l-9-9C1.5-2353.2,1.5-2353.4,1.5-2353.5L1.5-2353.5z"/>
		<path fill="#2C2C2B" d="M11-2343.5c-0.3,0-0.5-0.1-0.7-0.3l-9-9c-0.2-0.2-0.3-0.4-0.3-0.7l0,0c0-0.3,0.1-0.5,0.3-0.7
			c0.4-0.4,1-0.4,1.4,0l8.3,8.3l8.3-8.3c0.2-0.2,0.4-0.3,0.7-0.3l0,0c0.3,0,0.5,0.1,0.7,0.3c0.4,0.4,0.4,1,0,1.4l-9,9
			C11.5-2343.6,11.3-2343.5,11-2343.5z M2-2353.5l9,9l9-9l-8.6,8.6c-0.2,0.2-0.5,0.2-0.7,0L2-2353.5L2-2353.5z M2-2353.5L2-2353.5
			L2-2353.5z"/>
	</g>
</g>
<g transform="translate(80 2360)" display="none">
	<g display="inline">
		<path fill="#2C2C2B" d="M-73.5-2339.5c-0.1,0-0.3,0-0.4-0.1c-0.2-0.2-0.2-0.5,0-0.7l8.6-8.6l-8.6-8.6c-0.2-0.2-0.2-0.5,0-0.7
			s0.5-0.2,0.7,0l9,9c0.2,0.2,0.2,0.5,0,0.7l-9,9C-73.2-2339.5-73.4-2339.5-73.5-2339.5L-73.5-2339.5z"/>
		<path fill="#2C2C2B" d="M-73.5-2339L-73.5-2339c-0.3,0-0.5-0.1-0.7-0.3s-0.3-0.4-0.3-0.7s0.1-0.5,0.3-0.7l8.3-8.3l-8.3-8.3
			c-0.2-0.2-0.3-0.4-0.3-0.7s0.1-0.5,0.3-0.7c0.4-0.4,1-0.4,1.4,0l9,9c0.2,0.2,0.3,0.4,0.3,0.7s-0.1,0.5-0.3,0.7l-9,9
			C-73-2339.1-73.2-2339-73.5-2339z M-64.9-2349.3c0.2,0.2,0.2,0.5,0,0.7l-8.6,8.6l0,0l9-9L-64.9-2349.3z"/>
	</g>
</g>
<g>
	<path fill="#A1D6D8" d="M20.5,0.5h-5c-0.6,0-1,0.4-1,1s0.4,1,1,1h2.6l-5.3,5.3c-0.2,0.2-0.3,0.4-0.3,0.7s0.1,0.5,0.3,0.7
		s0.4,0.3,0.7,0.3s0.5-0.1,0.7-0.3l5.3-5.3v2.6c0,0.6,0.4,1,1,1s1-0.4,1-1v-5C21.5,0.9,21.1,0.5,20.5,0.5z"/>
	<path fill="#A1D6D8" d="M7.8,12.8l-5.3,5.3v-2.6c0-0.6-0.4-1-1-1s-1,0.4-1,1v5c0,0.6,0.4,1,1,1h5c0.6,0,1-0.4,1-1s-0.4-1-1-1H3.9
		l5.3-5.3c0.2-0.2,0.3-0.4,0.3-0.7S9.4,13,9.2,12.8C8.8,12.4,8.2,12.4,7.8,12.8z"/>
</g>
</svg>
