<?xml version="1.0" encoding="utf-8"?>
<!-- Generator: Adobe Illustrator 20.1.0, SVG Export Plug-In . SVG Version: 6.00 Build 0)  -->
<svg version="1.1" id="Layer_1" xmlns="http://www.w3.org/2000/svg" xmlns:xlink="http://www.w3.org/1999/xlink" x="0px" y="0px"
	 viewBox="0 0 22 22" enable-background="new 0 0 22 22" xml:space="preserve">
<g>
	<path fill="#FFFFFF" stroke="#FFFFFF" stroke-miterlimit="10" d="M10.3,16.2c0.2,0.2,0.4,0.3,0.7,0.3s0.5-0.1,0.7-0.3l5-5
		c0.2-0.2,0.3-0.4,0.3-0.7s-0.1-0.5-0.3-0.7c-0.4-0.4-1-0.4-1.4,0L12,13.1V3c0-0.6-0.4-1-1-1s-1,0.4-1,1v10.1L6.7,9.8
		c-0.4-0.4-1-0.4-1.4,0C5.1,10,5,10.2,5,10.5s0.1,0.5,0.3,0.7L10.3,16.2z"/>
	<path fill="#FFFFFF" stroke="#FFFFFF" stroke-miterlimit="10" d="M20,15c-0.6,0-1,0.4-1,1v2H3v-2c0-0.6-0.4-1-1-1s-1,0.4-1,1v2
		c0,1.1,0.9,2,2,2h16c1.1,0,2-0.9,2-2v-2C21,15.4,20.6,15,20,15z"/>
</g>
</svg>
