<?xml version="1.0" encoding="utf-8"?>
<!-- Generator: Adobe Illustrator 20.1.0, SVG Export Plug-In . SVG Version: 6.00 Build 0)  -->
<svg version="1.1" id="Layer_1" xmlns="http://www.w3.org/2000/svg" xmlns:xlink="http://www.w3.org/1999/xlink" x="0px" y="0px"
	 viewBox="0 0 400 400" enable-background="new 0 0 400 400" xml:space="preserve">
<path fill="#282727" d="M363.1,325.3c-22.9,7-45.9,13.9-68.8,20.9c-3,0.9-5.7,0.7-9.8,0.7h-28.7H78.7h-22c0.1,0.9,0.2,1.8,0.4,2.8
	c23-7,45.9-14,68.9-21c2.7-0.8,6-0.6,9.8-0.6c9.7,0,19.4,0,29.1,0c59.1,0,118.2,0,177.2,0c7.1,0,14.3,0,21.4,0c1.8,0,1.8-2.8,0-2.8
	c-46.7,0-93.4,0-140.1,0c-26.8,0-53.5,0-80.3,0c-5,0-10.1,0-15.1,0c-1.9,0-4.2,1.2-6,1.7c-6.3,1.9-12.6,3.8-18.9,5.8
	c-15.6,4.8-31.2,9.5-46.8,14.3c-1.5,0.5-1.2,2.8,0.4,2.8h139.9h80.2h15.1c1.9,0,4.1-1.1,5.9-1.7c6.2-1.9,12.5-3.8,18.7-5.7
	c15.8-4.8,31.6-9.6,47.4-14.4C365.6,327.5,364.9,324.8,363.1,325.3"/>
<path fill="#282727" d="M363.1,325.3c-23.8,7.2-47.6,14.5-71.4,21.7c0.6,0.5,1.2,0.9,1.8,1.4c0.1-49.3,0.2-98.7,0.2-148
	c0-15.7,0.1-31.4,0.1-47.1c-0.5,0.5-0.9,0.9-1.4,1.4c23.7,0,47.4,0,71.1,0c-0.5-0.5-0.9-0.9-1.4-1.4v148.9v24.5c0,1.8,2.8,1.8,2.8,0
	V177.8v-24.5c0-0.8-0.6-1.4-1.4-1.4c-23.7,0-47.4,0-71.1,0c-0.8,0-1.4,0.6-1.4,1.4c-0.1,49.3-0.2,98.7-0.2,148
	c0,15.7,0,31.4-0.1,47.1c0,0.9,0.9,1.6,1.8,1.4c23.8-7.2,47.6-14.5,71.4-21.7C365.6,327.5,364.9,324.8,363.1,325.3"/>
<path fill="#282727" d="M127.4,325.1c-23.7,7.2-47.4,14.5-71.1,21.7c0.6,0.5,1.2,0.9,1.8,1.4c0-49.3,0-98.6,0-147.9
	c0-15.7,0-31.4,0-47c-0.5,0.5-0.9,0.9-1.4,1.4h71.1c-0.5-0.5-0.9-0.9-1.4-1.4v149.3v24c0,1.8,2.8,1.8,2.8,0V177.2v-24
	c0-0.8-0.6-1.4-1.4-1.4h-71c-0.8,0-1.4,0.6-1.4,1.4c0,49.3,0,98.6,0,147.9c0,15.7,0,31.4,0,47c0,0.9,0.9,1.6,1.8,1.4
	c23.7-7.2,47.4-14.5,71.1-21.7C129.9,327.3,129.2,324.6,127.4,325.1"/>
<path fill="#282727" d="M244.5,49.9C207.6,82,170.8,114,133.9,146.1c-1.7,1.5-3.4,3-5.1,4.4c-0.5,0.4-1,0.8-1.5,1.3
	c-0.8,0.7-0.4,0,0.5,0h-19.3H56.7c0.3,0.8,0.7,1.6,1,2.4c36.4-32.3,72.9-64.6,109.3-96.9c2.1-1.9,4.2-3.7,6.3-5.6
	c1.4-1.2-0.6-3.2-2-2C134.9,82,98.4,114.3,62,146.6c-2.1,1.9-4.2,3.7-6.3,5.6c-0.9,0.8-0.2,2.4,1,2.4h70c3.9,0-0.2,1.7,2.4-0.7
	c9.7-8.5,27.8-24.2,37.5-32.7c26.6-23.1,53.2-46.3,79.8-69.4C247.9,50.7,245.9,48.7,244.5,49.9"/>
<path fill="#282727" d="M172.4,52.2h73.1c1.8,0,1.8-2.8,0-2.8h-73.1C170.5,49.4,170.5,52.2,172.4,52.2"/>
<path fill="#282727" d="M363.5,151.8c-23.3,0-46.7,0-70,0c-1.7,0-0.5,0.1-0.3,0.3c-0.6-0.5-1.2-1-1.8-1.5c-2.8-2.4-5.6-4.8-8.4-7.2
	c-10.1-8.6-20.2-17.3-30.3-25.9c-26.5-22.6-52.9-45.2-79.4-67.7c-0.3,0.8-0.7,1.6-1,2.4h71.1c1.6,0,2.1,0.5,1-0.4
	c0.4,0.4,0.9,0.8,1.3,1.2c2.6,2.2,5.1,4.4,7.7,6.6c9.8,8.5,19.6,17,29.4,25.5c26.5,23,53.1,46.1,79.6,69.1c1.4,1.2,3.2-1,1.8-2.2
	c-36.9-32-73.5-63.8-110.4-95.8c-2.4-2.1-4.9-5-7.7-6.6c-1.3-0.7-4-0.2-5.3-0.2h-13.5h-55c-1.2,0-2,1.6-1,2.4
	c37.3,31.8,74.5,63.6,111.8,95.4c2.7,2.3,5.5,4.7,8.2,7c1,0.8,3.1,0.4,4.3,0.4c4.2,0,8.4,0,12.6,0c18.4,0,36.8,0,55.3,0
	C365.3,154.7,365.3,151.8,363.5,151.8"/>
<line fill="none" stroke="#282727" stroke-width="1.898" stroke-linecap="round" stroke-linejoin="round" stroke-miterlimit="10" stroke-dasharray="0,3.1633" x1="127.9" y1="356.3" x2="127.9" y2="327.8"/>
<line fill="none" stroke="#282727" stroke-width="1.898" stroke-linecap="round" stroke-linejoin="round" stroke-miterlimit="10" stroke-dasharray="0,3.1633" x1="56.8" y1="376.4" x2="56.8" y2="350.4"/>
<polygon fill="#C4C732" points="56.7,378.9 292.1,378.9 363.5,357.2 127.9,357.2 "/>
<line fill="none" stroke="#282727" stroke-width="1.898" stroke-linecap="round" stroke-linejoin="round" stroke-miterlimit="10" stroke-dasharray="0,3.1633" x1="291.9" y1="377.7" x2="292" y2="349.7"/>
<line fill="none" stroke="#282727" stroke-width="1.898" stroke-linecap="round" stroke-linejoin="round" stroke-miterlimit="10" stroke-dasharray="0,3.1633" x1="362.9" y1="355.7" x2="363" y2="327.7"/>
<g enable-background="new    ">
	<path fill="#C3C632" d="M170,226.7h-8.5v-27.2h-10.6V193c5.9,0.2,11.3-1.9,12.3-8.3h6.8V226.7z"/>
	<path fill="#C3C632" d="M196.4,183.9c8.4,0,15.5,5.3,15.5,21.7c0,16.7-7.1,22-15.5,22c-8.3,0-15.4-5.3-15.4-22
		C181.1,189.1,188.1,183.9,196.4,183.9z M196.4,220.5c7,0,7-10.3,7-15c0-4.4,0-14.6-7-14.6c-6.9,0-6.8,10.3-6.8,14.6
		C189.6,210.3,189.6,220.5,196.4,220.5z"/>
	<path fill="#C3C632" d="M227.9,183.9c7.4,0,9.8,5.5,9.8,12.1c0,6.5-3.1,11.3-10.1,11.3c-7.4,0-9.9-4.9-9.9-11.5
		C217.7,189.2,220.9,183.9,227.9,183.9z M227.6,202.8c3.7,0,4-4.3,4-6.8c0-2.4-0.2-7.6-3.7-7.6c-3.8,0-4.1,4.7-4.1,7.5
		C223.8,198.4,223.8,202.8,227.6,202.8z M253.3,183.4h5.1L233.6,228h-5.2L253.3,183.4z M258.8,204.1c7.4,0,9.8,5.3,9.8,11.8
		c0,6.5-3.1,11.6-10.1,11.6c-7.4,0-9.9-5.3-9.9-11.8C248.6,209.2,251.8,204.1,258.8,204.1z M258.6,223c3.7,0,4-4.7,4-7.2
		c0-2.3-0.2-7.2-3.7-7.2c-3.8,0-4.1,4.4-4.1,7.1C254.8,218.4,254.8,223,258.6,223z"/>
</g>
<g enable-background="new    ">
	<path fill="#020203" d="M150.7,243.3c2.3,0,3.8,1.5,3.8,3.8c0,2.3-1.5,3.8-3.8,3.8c-2.3,0-3.7-1.5-3.7-3.8
		C147,244.8,148.5,243.3,150.7,243.3z M150.7,249.4c1.4,0,1.8-1.1,1.8-2.3s-0.4-2.3-1.8-2.3c-1.3,0-1.8,1.2-1.8,2.3
		S149.4,249.4,150.7,249.4z"/>
	<path fill="#020203" d="M156.2,244.8H155v-1.3h1.2v-0.6c0-1.3,0.8-2.2,2.4-2.2c0.4,0,0.7,0,1.1,0.1v1.5c-0.2,0-0.5,0-0.7,0
		c-0.5,0-0.8,0.2-0.8,0.8v0.4h1.4v1.3h-1.4v5.9h-2V244.8z"/>
	<path fill="#020203" d="M164.2,245.7c0.1-1.8,1.8-2.4,3.4-2.4c1.4,0,3.2,0.3,3.2,2.1v3.8c0,0.7,0.1,1.3,0.3,1.6h-2
		c-0.1-0.2-0.1-0.5-0.1-0.7c-0.6,0.7-1.5,0.9-2.4,0.9c-1.4,0-2.5-0.7-2.5-2.2c0-3.3,4.9-1.5,4.8-3.2c0-0.8-0.6-1-1.3-1
		c-0.8,0-1.2,0.3-1.3,1.1H164.2z M168.8,247.2c-0.3,0.3-1,0.3-1.7,0.4c-0.6,0.1-1.2,0.3-1.2,1.1s0.6,0.9,1.2,0.9
		c1.6,0,1.6-1.2,1.6-1.7V247.2z"/>
	<path fill="#020203" d="M172.4,240.7h2v10h-2V240.7z"/>
	<path fill="#020203" d="M176,240.7h2v10h-2V240.7z"/>
	<path fill="#020203" d="M183.5,240.7h2v3.8h0c0.5-0.8,1.4-1.2,2.1-1.2c2.1,0,2.6,1.2,2.6,3v4.5h-2v-4.1c0-1.2-0.3-1.8-1.3-1.8
		c-1.1,0-1.5,0.6-1.5,2.1v3.8h-2V240.7z"/>
	<path fill="#020203" d="M195.3,243.3c2.3,0,3.8,1.5,3.8,3.8c0,2.3-1.5,3.8-3.8,3.8c-2.3,0-3.7-1.5-3.7-3.8
		C191.5,244.8,193,243.3,195.3,243.3z M195.3,249.4c1.4,0,1.8-1.1,1.8-2.3s-0.4-2.3-1.8-2.3c-1.3,0-1.8,1.2-1.8,2.3
		S193.9,249.4,195.3,249.4z"/>
	<path fill="#020203" d="M200.4,243.5h1.9v1h0c0.5-0.7,1.3-1.2,2.2-1.2c0.9,0,1.7,0.3,2.1,1.2c0.4-0.6,1.2-1.2,2.2-1.2
		c1.5,0,2.6,0.7,2.6,2.6v4.8h-2v-4.1c0-1-0.1-1.8-1.2-1.8c-1.1,0-1.3,0.9-1.3,1.8v4h-2v-4.1c0-0.8,0.1-1.8-1.2-1.8
		c-0.4,0-1.3,0.3-1.3,1.7v4.2h-2V243.5z"/>
	<path fill="#020203" d="M214.7,247.6c0.1,1.3,0.7,1.8,1.8,1.8c0.8,0,1.4-0.5,1.6-0.9h1.8c-0.6,1.7-1.8,2.4-3.4,2.4
		c-2.3,0-3.7-1.6-3.7-3.8c0-2.2,1.5-3.8,3.7-3.8c2.5,0,3.7,2.1,3.5,4.3H214.7z M217.9,246.3c-0.2-1-0.6-1.5-1.6-1.5
		c-1.3,0-1.6,1-1.7,1.5H217.9z"/>
	<path fill="#020203" d="M222.6,248.3c0,0.9,0.8,1.2,1.5,1.2c0.6,0,1.3-0.2,1.3-0.9c0-0.6-0.8-0.8-2.3-1.1c-1.2-0.3-2.3-0.6-2.3-1.9
		c0-1.8,1.6-2.3,3.2-2.3c1.6,0,3,0.5,3.2,2.3h-1.9c-0.1-0.8-0.6-1-1.4-1c-0.4,0-1.1,0.1-1.1,0.7c0,0.7,1.1,0.8,2.3,1.1
		c1.2,0.3,2.3,0.7,2.3,2c0,1.9-1.7,2.5-3.3,2.5c-1.7,0-3.3-0.6-3.4-2.6H222.6z"/>
	<path fill="#020203" d="M237.6,249.8L237.6,249.8c-0.5,0.8-1.3,1.1-2.2,1.1c-2.2,0-3.2-1.9-3.2-3.9c0-1.9,1.1-3.8,3.2-3.8
		c0.9,0,1.7,0.4,2.1,1.1h0v-3.6h2v10h-1.9V249.8z M235.9,244.8c-1.3,0-1.8,1.1-1.8,2.3c0,1.1,0.5,2.3,1.8,2.3c1.3,0,1.7-1.1,1.7-2.3
		C237.6,245.9,237.2,244.8,235.9,244.8z"/>
	<path fill="#020203" d="M244.5,243.3c2.3,0,3.8,1.5,3.8,3.8c0,2.3-1.5,3.8-3.8,3.8c-2.3,0-3.7-1.5-3.7-3.8
		C240.8,244.8,242.3,243.3,244.5,243.3z M244.5,249.4c1.4,0,1.8-1.1,1.8-2.3s-0.4-2.3-1.8-2.3c-1.3,0-1.8,1.2-1.8,2.3
		S243.2,249.4,244.5,249.4z"/>
	<path fill="#020203" d="M253.5,243.5h1.9v1h0c0.5-0.8,1.4-1.2,2.2-1.2c2.1,0,2.6,1.2,2.6,3v4.5h-2v-4.1c0-1.2-0.3-1.8-1.3-1.8
		c-1.1,0-1.5,0.6-1.5,2.1v3.8h-2V243.5z"/>
	<path fill="#020203" d="M265.3,243.3c2.3,0,3.8,1.5,3.8,3.8c0,2.3-1.5,3.8-3.8,3.8c-2.3,0-3.7-1.5-3.7-3.8
		C261.5,244.8,263,243.3,265.3,243.3z M265.3,249.4c1.4,0,1.8-1.1,1.8-2.3s-0.4-2.3-1.8-2.3c-1.3,0-1.8,1.2-1.8,2.3
		S263.9,249.4,265.3,249.4z"/>
	<path fill="#020203" d="M272.8,243.5h1.5v1.3h-1.5v3.6c0,0.7,0.2,0.8,0.8,0.8c0.2,0,0.4,0,0.6-0.1v1.6c-0.3,0.1-0.8,0.1-1.2,0.1
		c-1.2,0-2.3-0.3-2.3-1.7v-4.3h-1.2v-1.3h1.2v-2.2h2V243.5z"/>
</g>
<g enable-background="new    ">
	<path fill="#020203" d="M147.3,260.3h1.9v1h0c0.5-0.7,1.3-1.2,2.2-1.2c0.9,0,1.7,0.3,2.1,1.2c0.4-0.6,1.2-1.2,2.2-1.2
		c1.5,0,2.6,0.7,2.6,2.6v4.8h-2v-4.1c0-1-0.1-1.8-1.2-1.8c-1.1,0-1.3,0.9-1.3,1.8v4h-2v-4.1c0-0.8,0.1-1.8-1.2-1.8
		c-0.4,0-1.3,0.3-1.3,1.7v4.2h-2V260.3z"/>
	<path fill="#020203" d="M161.5,264.4c0.1,1.3,0.7,1.8,1.8,1.8c0.8,0,1.4-0.5,1.6-0.9h1.8c-0.6,1.7-1.8,2.4-3.4,2.4
		c-2.3,0-3.7-1.6-3.7-3.8c0-2.2,1.5-3.8,3.7-3.8c2.5,0,3.7,2.1,3.5,4.3H161.5z M164.8,263.1c-0.2-1-0.6-1.5-1.6-1.5
		c-1.3,0-1.6,1-1.7,1.5H164.8z"/>
	<path fill="#020203" d="M169.6,264.4c0.1,1.3,0.7,1.8,1.8,1.8c0.8,0,1.4-0.5,1.6-0.9h1.8c-0.6,1.7-1.8,2.4-3.4,2.4
		c-2.3,0-3.7-1.6-3.7-3.8c0-2.2,1.5-3.8,3.7-3.8c2.5,0,3.7,2.1,3.5,4.3H169.6z M172.8,263.1c-0.2-1-0.6-1.5-1.6-1.5
		c-1.3,0-1.6,1-1.7,1.5H172.8z"/>
	<path fill="#020203" d="M178.5,260.3h1.5v1.3h-1.5v3.6c0,0.7,0.2,0.8,0.8,0.8c0.2,0,0.4,0,0.6-0.1v1.6c-0.3,0.1-0.8,0.1-1.2,0.1
		c-1.2,0-2.3-0.3-2.3-1.7v-4.3h-1.2v-1.3h1.2v-2.2h2V260.3z"/>
	<path fill="#020203" d="M187.3,260.3h1.5v1.3h-1.5v3.6c0,0.7,0.2,0.8,0.8,0.8c0.2,0,0.4,0,0.6-0.1v1.6c-0.3,0.1-0.8,0.1-1.2,0.1
		c-1.2,0-2.3-0.3-2.3-1.7v-4.3h-1.2v-1.3h1.2v-2.2h2V260.3z"/>
	<path fill="#020203" d="M189.7,257.5h2v3.8h0c0.5-0.8,1.4-1.2,2.1-1.2c2.1,0,2.6,1.2,2.6,3v4.5h-2v-4.1c0-1.2-0.3-1.8-1.3-1.8
		c-1.1,0-1.5,0.6-1.5,2.1v3.8h-2V257.5z"/>
	<path fill="#020203" d="M199.7,264.4c0.1,1.3,0.7,1.8,1.8,1.8c0.8,0,1.4-0.5,1.6-0.9h1.8c-0.6,1.7-1.8,2.4-3.4,2.4
		c-2.3,0-3.7-1.6-3.7-3.8c0-2.2,1.5-3.8,3.7-3.8c2.5,0,3.7,2.1,3.5,4.3H199.7z M202.9,263.1c-0.2-1-0.6-1.5-1.6-1.5
		c-1.3,0-1.6,1-1.7,1.5H202.9z"/>
	<path fill="#020203" d="M211.5,265.1c0,0.9,0.8,1.2,1.5,1.2c0.6,0,1.3-0.2,1.3-0.9c0-0.6-0.8-0.8-2.3-1.1c-1.2-0.3-2.3-0.6-2.3-1.9
		c0-1.8,1.6-2.3,3.2-2.3c1.6,0,3,0.5,3.2,2.3h-1.9c-0.1-0.8-0.6-1-1.4-1c-0.4,0-1.1,0.1-1.1,0.7c0,0.7,1.1,0.8,2.3,1.1
		c1.2,0.3,2.3,0.7,2.3,2c0,1.9-1.7,2.5-3.3,2.5c-1.7,0-3.3-0.6-3.4-2.5H211.5z"/>
	<path fill="#020203" d="M220,260.3h1.5v1.3H220v3.6c0,0.7,0.2,0.8,0.8,0.8c0.2,0,0.4,0,0.6-0.1v1.6c-0.3,0.1-0.8,0.1-1.2,0.1
		c-1.2,0-2.3-0.3-2.3-1.7v-4.3h-1.2v-1.3h1.2v-2.2h2V260.3z"/>
	<path fill="#020203" d="M222.3,262.5c0.1-1.8,1.8-2.4,3.4-2.4c1.4,0,3.2,0.3,3.2,2.1v3.8c0,0.7,0.1,1.3,0.3,1.6h-2
		c-0.1-0.2-0.1-0.5-0.1-0.7c-0.6,0.7-1.5,0.9-2.4,0.9c-1.4,0-2.5-0.7-2.5-2.2c0-3.3,4.9-1.5,4.8-3.2c0-0.8-0.6-1-1.3-1
		c-0.8,0-1.2,0.3-1.3,1.1H222.3z M226.9,264c-0.3,0.3-1,0.3-1.7,0.4c-0.6,0.1-1.2,0.3-1.2,1.1c0,0.7,0.6,0.9,1.2,0.9
		c1.6,0,1.6-1.2,1.6-1.7V264z"/>
	<path fill="#020203" d="M230.4,257.5h2v3.6h0c0.5-0.7,1.4-1.1,2.3-1.1c1.4,0,3,1.2,3,3.8s-1.6,3.8-3,3.8c-1.1,0-1.9-0.3-2.4-1.1h0
		v0.9h-1.9V257.5z M234,261.6c-1.2,0-1.7,1.1-1.7,2.3c0,1.2,0.5,2.3,1.7,2.3s1.7-1.1,1.7-2.3C235.7,262.6,235.2,261.6,234,261.6z"/>
	<path fill="#020203" d="M241,259.1h-2v-1.6h2V259.1z M239,260.3h2v7.2h-2V260.3z"/>
	<path fill="#020203" d="M242.6,257.5h2v10h-2V257.5z"/>
	<path fill="#020203" d="M248.2,259.1h-2v-1.6h2V259.1z M246.3,260.3h2v7.2h-2V260.3z"/>
	<path fill="#020203" d="M252.3,260.3h1.5v1.3h-1.5v3.6c0,0.7,0.2,0.8,0.8,0.8c0.2,0,0.4,0,0.6-0.1v1.6c-0.3,0.1-0.8,0.1-1.2,0.1
		c-1.2,0-2.3-0.3-2.3-1.7v-4.3h-1.2v-1.3h1.2v-2.2h2V260.3z"/>
	<path fill="#020203" d="M258.3,268.4c-0.4,1.2-1.1,1.6-2.5,1.6c-0.4,0-0.8,0-1.2-0.1v-1.6c0.4,0,0.8,0.1,1.2,0.1
		c0.5-0.1,0.8-0.5,0.8-0.9c0-0.2,0-0.3-0.1-0.4l-2.5-6.8h2.1l1.6,5h0l1.6-5h2.1L258.3,268.4z"/>
	<path fill="#020203" d="M147.4,274.3h2.2v8.2h4.9v1.8h-7.1V274.3z"/>
	<path fill="#020203" d="M157.6,275.9h-2v-1.6h2V275.9z M155.6,277.1h2v7.2h-2V277.1z"/>
	<path fill="#020203" d="M163.1,284.3h-2.2l-2.5-7.2h2.1l1.5,4.9h0l1.5-4.9h2L163.1,284.3z"/>
	<path fill="#020203" d="M168.5,275.9h-2v-1.6h2V275.9z M166.5,277.1h2v7.2h-2V277.1z"/>
	<path fill="#020203" d="M170,277.1h1.9v1h0c0.5-0.8,1.4-1.2,2.2-1.2c2.1,0,2.6,1.2,2.6,3v4.5h-2v-4.1c0-1.2-0.3-1.8-1.3-1.8
		c-1.1,0-1.5,0.6-1.5,2.1v3.8h-2V277.1z"/>
	<path fill="#020203" d="M185.3,283.8c0,1.2-0.4,3.2-3.8,3.2c-1.4,0-3.1-0.7-3.2-2.3h2c0.2,0.7,0.8,1,1.5,1c1.1,0,1.6-0.7,1.6-1.8
		v-1h0c-0.4,0.8-1.3,1.1-2.2,1.1c-2.2,0-3.1-1.7-3.1-3.6c0-1.9,1.1-3.6,3.1-3.6c1,0,1.7,0.3,2.2,1.2h0v-1h1.9V283.8z M183.4,280.6
		c0-1.2-0.4-2.2-1.7-2.2c-1.1,0-1.6,1-1.6,2.1c0,1,0.4,2.2,1.6,2.2C182.8,282.6,183.4,281.6,183.4,280.6z"/>
	<path fill="#020203" d="M191,274.3h2.2v3.8h4v-3.8h2.2v10h-2.2V280h-4v4.3H191V274.3z"/>
	<path fill="#020203" d="M204.7,276.9c2.3,0,3.8,1.5,3.8,3.8c0,2.3-1.5,3.8-3.8,3.8c-2.3,0-3.7-1.5-3.7-3.8
		C200.9,278.4,202.4,276.9,204.7,276.9z M204.7,283c1.4,0,1.8-1.1,1.8-2.3c0-1.2-0.4-2.3-1.8-2.3c-1.3,0-1.8,1.2-1.8,2.3
		C202.9,281.8,203.3,283,204.7,283z"/>
	<path fill="#020203" d="M209.8,277.1h1.9v1h0c0.5-0.7,1.3-1.2,2.2-1.2c0.9,0,1.7,0.3,2.1,1.2c0.4-0.6,1.2-1.2,2.2-1.2
		c1.5,0,2.6,0.7,2.6,2.6v4.8h-2v-4.1c0-1-0.1-1.8-1.2-1.8c-1.1,0-1.3,0.9-1.3,1.8v4h-2v-4.1c0-0.8,0.1-1.8-1.2-1.8
		c-0.4,0-1.3,0.3-1.3,1.7v4.2h-2V277.1z"/>
	<path fill="#020203" d="M224,281.2c0.1,1.3,0.7,1.8,1.8,1.8c0.8,0,1.4-0.5,1.6-0.9h1.8c-0.6,1.7-1.8,2.4-3.4,2.4
		c-2.3,0-3.7-1.6-3.7-3.8c0-2.2,1.5-3.8,3.7-3.8c2.5,0,3.7,2.1,3.5,4.3H224z M227.3,279.9c-0.2-1-0.6-1.5-1.6-1.5
		c-1.3,0-1.6,1-1.7,1.5H227.3z"/>
	<path fill="#020203" d="M148.9,297.8c0,1.3,1,1.8,2.2,1.8c0.8,0,1.9-0.2,1.9-1.2c0-1.1-1.5-1.2-3-1.7c-1.5-0.4-3-1-3-2.8
		c0-2.1,1.9-3,3.7-3c2.1,0,4,0.9,4,3.2h-2.1c-0.1-1.2-0.9-1.5-2-1.5c-0.7,0-1.5,0.3-1.5,1.1c0,0.8,0.5,0.9,3,1.5
		c0.7,0.2,3,0.7,3,2.9c0,1.8-1.4,3.2-4.2,3.2c-2.2,0-4.3-1.1-4.3-3.6H148.9z"/>
	<path fill="#020203" d="M158.8,293.9h1.5v1.3h-1.5v3.6c0,0.7,0.2,0.8,0.8,0.8c0.2,0,0.4,0,0.6-0.1v1.6c-0.3,0.1-0.8,0.1-1.2,0.1
		c-1.2,0-2.3-0.3-2.3-1.7v-4.3h-1.2v-1.3h1.2v-2.2h2V293.9z"/>
	<path fill="#020203" d="M161.1,296.1c0.1-1.8,1.8-2.4,3.4-2.4c1.4,0,3.2,0.3,3.2,2.1v3.8c0,0.7,0.1,1.3,0.3,1.6h-2
		c-0.1-0.2-0.1-0.5-0.1-0.7c-0.6,0.7-1.5,0.9-2.4,0.9c-1.4,0-2.5-0.7-2.5-2.2c0-3.3,4.9-1.5,4.8-3.2c0-0.8-0.6-1-1.3-1
		c-0.8,0-1.2,0.3-1.3,1.1H161.1z M165.7,297.6c-0.3,0.3-1,0.3-1.7,0.4c-0.6,0.1-1.2,0.3-1.2,1.1c0,0.7,0.6,0.9,1.2,0.9
		c1.6,0,1.6-1.2,1.6-1.7V297.6z"/>
	<path fill="#020203" d="M169.3,293.9h1.9v1h0c0.5-0.8,1.4-1.2,2.2-1.2c2.1,0,2.6,1.2,2.6,3v4.5h-2V297c0-1.2-0.3-1.8-1.3-1.8
		c-1.1,0-1.5,0.6-1.5,2.1v3.8h-2V293.9z"/>
	<path fill="#020203" d="M182.7,300.2L182.7,300.2c-0.5,0.8-1.3,1.1-2.2,1.1c-2.2,0-3.2-1.9-3.2-3.9c0-1.9,1.1-3.8,3.2-3.8
		c0.9,0,1.7,0.4,2.1,1.1h0v-3.6h2v10h-1.9V300.2z M181,295.2c-1.3,0-1.8,1.1-1.8,2.3c0,1.1,0.5,2.3,1.8,2.3c1.3,0,1.7-1.1,1.7-2.3
		C182.7,296.3,182.3,295.2,181,295.2z"/>
	<path fill="#020203" d="M186,296.1c0.1-1.8,1.8-2.4,3.4-2.4c1.4,0,3.2,0.3,3.2,2.1v3.8c0,0.7,0.1,1.3,0.3,1.6h-2
		c-0.1-0.2-0.1-0.5-0.1-0.7c-0.6,0.7-1.5,0.9-2.4,0.9c-1.4,0-2.5-0.7-2.5-2.2c0-3.3,4.9-1.5,4.8-3.2c0-0.8-0.6-1-1.3-1
		c-0.8,0-1.2,0.3-1.3,1.1H186z M190.6,297.6c-0.3,0.3-1,0.3-1.7,0.4c-0.6,0.1-1.2,0.3-1.2,1.1c0,0.7,0.6,0.9,1.2,0.9
		c1.6,0,1.6-1.2,1.6-1.7V297.6z"/>
	<path fill="#020203" d="M194.2,293.9h1.9v1.3h0c0.4-0.9,1.3-1.5,2.3-1.5c0.2,0,0.3,0,0.4,0.1v1.8c-0.2,0-0.5-0.1-0.7-0.1
		c-1.5,0-2,1-2,2.3v3.3h-2V293.9z"/>
	<path fill="#020203" d="M204.5,300.2L204.5,300.2c-0.5,0.8-1.3,1.1-2.2,1.1c-2.2,0-3.2-1.9-3.2-3.9c0-1.9,1.1-3.8,3.2-3.8
		c0.9,0,1.7,0.4,2.1,1.1h0v-3.6h2v10h-1.9V300.2z M202.8,295.2c-1.3,0-1.8,1.1-1.8,2.3c0,1.1,0.5,2.3,1.8,2.3c1.3,0,1.7-1.1,1.7-2.3
		C204.5,296.3,204.1,295.2,202.8,295.2z"/>
</g>
</svg>
