<?xml version="1.0" encoding="utf-8"?>
<!-- Generator: Adobe Illustrator 20.1.0, SVG Export Plug-In . SVG Version: 6.00 Build 0)  -->
<svg version="1.1" id="Layer_1" xmlns="http://www.w3.org/2000/svg" xmlns:xlink="http://www.w3.org/1999/xlink" x="0px" y="0px"
	 viewBox="0 0 400 400" preserveAspectRatio="xMinYMid" enable-background="new 0 0 400 400" xml:space="preserve">
<polygon fill="#C7C5B1" points="91.3,349 20.2,370.7 20.2,175.8 91.3,175.8 "/>
<polygon fill="#E30613" points="5.9,119.1 77,119.1 194.6,16.7 121.5,16.6 "/>
<path fill="#282727" d="M363.1,325.3c-22.9,7-45.9,13.9-68.8,20.9c-3,0.9-5.7,0.7-9.8,0.7h-28.7H78.7h-22c0.1,0.9,0.2,1.8,0.4,2.8
	c23-7,45.9-14,68.9-21c2.7-0.8,6-0.6,9.8-0.6c9.7,0,19.4,0,29.1,0c59.1,0,118.2,0,177.2,0c7.1,0,14.3,0,21.4,0c1.8,0,1.8-2.8,0-2.8
	c-46.7,0-93.4,0-140.1,0c-26.8,0-53.5,0-80.3,0c-5,0-10.1,0-15.1,0c-1.9,0-4.2,1.2-6,1.7c-6.3,1.9-12.6,3.8-18.9,5.8
	c-15.6,4.8-31.2,9.5-46.8,14.3c-1.5,0.5-1.2,2.8,0.4,2.8h139.9h80.2h15.1c1.9,0,4.1-1.1,5.9-1.7c6.2-1.9,12.5-3.8,18.7-5.7
	c15.8-4.8,31.6-9.6,47.4-14.4C365.6,327.5,364.9,324.8,363.1,325.3"/>
<path fill="#282727" d="M363.1,325.3c-23.8,7.2-47.6,14.5-71.4,21.7c0.6,0.5,1.2,0.9,1.8,1.4c0.1-49.3,0.2-98.7,0.2-148
	c0-15.7,0.1-31.4,0.1-47.1c-0.5,0.5-0.9,0.9-1.4,1.4c23.7,0,47.4,0,71.1,0c-0.5-0.5-0.9-0.9-1.4-1.4v148.9v24.5c0,1.8,2.8,1.8,2.8,0
	V177.8v-24.5c0-0.8-0.6-1.4-1.4-1.4c-23.7,0-47.4,0-71.1,0c-0.8,0-1.4,0.6-1.4,1.4c-0.1,49.3-0.2,98.7-0.2,148
	c0,15.7,0,31.4-0.1,47.1c0,0.9,0.9,1.6,1.8,1.4c23.8-7.2,47.6-14.5,71.4-21.7C365.6,327.5,364.9,324.8,363.1,325.3"/>
<path fill="#282727" d="M127.4,325.1c-23.7,7.2-47.4,14.5-71.1,21.7c0.6,0.5,1.2,0.9,1.8,1.4c0-49.3,0-98.6,0-147.9
	c0-15.7,0-31.4,0-47c-0.5,0.5-0.9,0.9-1.4,1.4h71.1c-0.5-0.5-0.9-0.9-1.4-1.4v149.3v24c0,1.8,2.8,1.8,2.8,0V177.2v-24
	c0-0.8-0.6-1.4-1.4-1.4H56.8c-0.8,0-1.4,0.6-1.4,1.4c0,49.3,0,98.6,0,147.9c0,15.7,0,31.4,0,47c0,0.9,0.9,1.6,1.8,1.4
	c23.7-7.2,47.4-14.5,71.1-21.7C129.9,327.3,129.2,324.6,127.4,325.1"/>
<path fill="#282727" d="M244.5,49.9C207.6,82,170.8,114,133.9,146.1c-1.7,1.5-3.4,3-5.1,4.4c-0.5,0.4-1,0.8-1.5,1.3
	c-0.8,0.7-0.4,0,0.5,0h-19.3H56.7c0.3,0.8,0.7,1.6,1,2.4c36.4-32.3,72.9-64.6,109.3-96.9c2.1-1.9,4.2-3.7,6.3-5.6
	c1.4-1.2-0.6-3.2-2-2c-36.4,32.3-72.9,64.6-109.3,96.9c-2.1,1.9-4.2,3.7-6.3,5.6c-0.9,0.8-0.2,2.4,1,2.4h70c3.9,0-0.2,1.7,2.4-0.7
	c9.7-8.5,27.8-24.2,37.5-32.7c26.6-23.1,53.2-46.3,79.8-69.4C247.9,50.7,245.9,48.7,244.5,49.9"/>
<path fill="#282727" d="M172.4,52.2h73.1c1.8,0,1.8-2.8,0-2.8h-73.1C170.5,49.4,170.5,52.2,172.4,52.2"/>
<path fill="#282727" d="M363.5,151.8c-23.3,0-46.7,0-70,0c-1.7,0-0.5,0.1-0.3,0.3c-0.6-0.5-1.2-1-1.8-1.5c-2.8-2.4-5.6-4.8-8.4-7.2
	c-10.1-8.6-20.2-17.3-30.3-25.9c-26.5-22.6-52.9-45.2-79.4-67.7c-0.3,0.8-0.7,1.6-1,2.4h71.1c1.6,0,2.1,0.5,1-0.4
	c0.4,0.4,0.9,0.8,1.3,1.2c2.6,2.2,5.1,4.4,7.7,6.6c9.8,8.5,19.6,17,29.4,25.5c26.5,23,53.1,46.1,79.6,69.1c1.4,1.2,3.2-1,1.8-2.2
	c-36.9-32-73.5-63.8-110.4-95.8c-2.4-2.1-4.9-5-7.7-6.6c-1.3-0.7-4-0.2-5.3-0.2h-13.5h-55c-1.2,0-2,1.6-1,2.4
	c37.3,31.8,74.5,63.6,111.8,95.4c2.7,2.3,5.5,4.7,8.2,7c1,0.8,3.1,0.4,4.3,0.4c4.2,0,8.4,0,12.6,0c18.4,0,36.8,0,55.3,0
	C365.3,154.7,365.3,151.8,363.5,151.8"/>
<line fill="none" stroke="#282727" stroke-width="1.956" stroke-linecap="round" stroke-linejoin="round" stroke-miterlimit="10" stroke-dasharray="0,3.26" x1="172.3" y1="47.3" x2="172.3" y2="5.8"/>
<polygon fill="#A2D6D9" points="363.5,107.8 292.4,107.8 172.4,5.3 245.5,5.3 "/>
<line fill="none" stroke="#282727" stroke-width="1.898" stroke-linecap="round" stroke-linejoin="round" stroke-miterlimit="10" stroke-dasharray="0,3.1633" x1="363.5" y1="150.9" x2="362.9" y2="109"/>
<line fill="none" stroke="#282727" stroke-width="1.898" stroke-linecap="round" stroke-linejoin="round" stroke-miterlimit="10" stroke-dasharray="0,3.1633" x1="170.4" y1="49.5" x2="122.4" y2="17.2"/>
<line fill="none" stroke="#282727" stroke-width="1.898" stroke-linecap="round" stroke-linejoin="round" stroke-miterlimit="10" stroke-dasharray="0,3.1633" x1="126.6" y1="150.7" x2="77.7" y2="118.6"/>
<g>
	
		<line fill="none" stroke="#282727" stroke-width="1.898" stroke-linecap="round" stroke-linejoin="round" stroke-miterlimit="10" stroke-dasharray="0,3.1633" x1="54.7" y1="151.6" x2="7.9" y2="119.9"/>
	
		<path fill="none" stroke="#282727" stroke-width="1.898" stroke-linecap="round" stroke-linejoin="round" stroke-miterlimit="10" stroke-dasharray="0,3.1633" d="
		M56.7,152.9L56.7,152.9"/>
</g>
<line fill="none" stroke="#282727" stroke-width="1.898" stroke-linecap="round" stroke-linejoin="round" stroke-miterlimit="10" stroke-dasharray="0,3.1633" x1="23.2" y1="174.4" x2="55.7" y2="153.8"/>
<line fill="none" stroke="#282727" stroke-width="1.898" stroke-linecap="round" stroke-linejoin="round" stroke-miterlimit="10" stroke-dasharray="0,3.1633" x1="93.5" y1="174.4" x2="125.6" y2="155.2"/>
<line fill="none" stroke="#282727" stroke-width="1.898" stroke-linecap="round" stroke-linejoin="round" stroke-miterlimit="10" stroke-dasharray="0,3.1633" x1="21.7" y1="368.6" x2="54.6" y2="349.6"/>
<line fill="none" stroke="#282727" stroke-width="1.898" stroke-linecap="round" stroke-linejoin="round" stroke-miterlimit="10" stroke-dasharray="0,3.1633" x1="93.6" y1="346.8" x2="120.5" y2="331.1"/>
<line fill="none" stroke="#282727" stroke-width="1.898" stroke-linecap="round" stroke-linejoin="round" stroke-miterlimit="10" stroke-dasharray="0,3.1633" x1="127.9" y1="356.3" x2="127.9" y2="327.8"/>
<line fill="none" stroke="#282727" stroke-width="1.898" stroke-linecap="round" stroke-linejoin="round" stroke-miterlimit="10" stroke-dasharray="0,3.1633" x1="56.8" y1="376.4" x2="56.8" y2="350.4"/>
<polygon fill="#C4C732" points="56.7,378.9 292.1,378.9 363.5,357.2 127.9,357.2 "/>
<line fill="none" stroke="#282727" stroke-width="1.898" stroke-linecap="round" stroke-linejoin="round" stroke-miterlimit="10" stroke-dasharray="0,3.1633" x1="291.9" y1="377.7" x2="292" y2="349.7"/>
<line fill="none" stroke="#282727" stroke-width="1.898" stroke-linecap="round" stroke-linejoin="round" stroke-miterlimit="10" stroke-dasharray="0,3.1633" x1="320.6" y1="373.8" x2="294.8" y2="350.9"/>
<line fill="none" stroke="#282727" stroke-width="1.898" stroke-linecap="round" stroke-linejoin="round" stroke-miterlimit="10" stroke-dasharray="0,3.1633" x1="322.6" y1="180.1" x2="293.8" y2="155.2"/>
<polygon fill="#29B5BF" points="393.5,353 322.1,374.7 321.9,179.5 393.5,179.6 "/>
<line fill="none" stroke="#282727" stroke-width="1.898" stroke-linecap="round" stroke-linejoin="round" stroke-miterlimit="10" stroke-dasharray="0,3.1633" x1="392.5" y1="179.1" x2="365.8" y2="155.1"/>
<line fill="none" stroke="#282727" stroke-width="1.898" stroke-linecap="round" stroke-linejoin="round" stroke-miterlimit="10" stroke-dasharray="0,3.1633" x1="292.4" y1="148.4" x2="292.7" y2="109"/>
</svg>
