<?xml version="1.0" encoding="utf-8"?>
<!-- Generator: Adobe Illustrator 20.1.0, SVG Export Plug-In . SVG Version: 6.00 Build 0)  -->
<svg version="1.1" id="Layer_1" xmlns="http://www.w3.org/2000/svg" xmlns:xlink="http://www.w3.org/1999/xlink" x="0px" y="0px"
	 viewBox="0 0 400 400" enable-background="new 0 0 400 400" xml:space="preserve">
<polygon fill="#E30613" points="5.9,119.1 77,119.1 194.6,16.7 121.5,16.6 "/>
<path fill="#282727" d="M363.1,325.3c-22.9,7-45.9,13.9-68.8,20.9c-3,0.9-5.7,0.7-9.8,0.7h-28.7H78.7h-22c0.1,0.9,0.2,1.8,0.4,2.8
	c23-7,45.9-14,68.9-21c2.7-0.8,6-0.6,9.8-0.6c9.7,0,19.4,0,29.1,0c59.1,0,118.2,0,177.2,0c7.1,0,14.3,0,21.4,0c1.8,0,1.8-2.8,0-2.8
	c-46.7,0-93.4,0-140.1,0c-26.8,0-53.5,0-80.3,0c-5,0-10.1,0-15.1,0c-1.9,0-4.2,1.2-6,1.7c-6.3,1.9-12.6,3.8-18.9,5.8
	c-15.6,4.8-31.2,9.5-46.8,14.3c-1.5,0.5-1.2,2.8,0.4,2.8h139.9h80.2h15.1c1.9,0,4.1-1.1,5.9-1.7c6.2-1.9,12.5-3.8,18.7-5.7
	c15.8-4.8,31.6-9.6,47.4-14.4C365.6,327.5,364.9,324.8,363.1,325.3"/>
<path fill="#282727" d="M363.1,325.3c-23.8,7.2-47.6,14.5-71.4,21.7c0.6,0.5,1.2,0.9,1.8,1.4c0.1-49.3,0.2-98.7,0.2-148
	c0-15.7,0.1-31.4,0.1-47.1c-0.5,0.5-0.9,0.9-1.4,1.4c23.7,0,47.4,0,71.1,0c-0.5-0.5-0.9-0.9-1.4-1.4v148.9v24.5c0,1.8,2.8,1.8,2.8,0
	V177.8v-24.5c0-0.8-0.6-1.4-1.4-1.4c-23.7,0-47.4,0-71.1,0c-0.8,0-1.4,0.6-1.4,1.4c-0.1,49.3-0.2,98.7-0.2,148
	c0,15.7,0,31.4-0.1,47.1c0,0.9,0.9,1.6,1.8,1.4c23.8-7.2,47.6-14.5,71.4-21.7C365.6,327.5,364.9,324.8,363.1,325.3"/>
<path fill="#282727" d="M127.4,325.1c-23.7,7.2-47.4,14.5-71.1,21.7c0.6,0.5,1.2,0.9,1.8,1.4c0-49.3,0-98.6,0-147.9
	c0-15.7,0-31.4,0-47c-0.5,0.5-0.9,0.9-1.4,1.4h71.1c-0.5-0.5-0.9-0.9-1.4-1.4v149.3v24c0,1.8,2.8,1.8,2.8,0V177.2v-24
	c0-0.8-0.6-1.4-1.4-1.4h-71c-0.8,0-1.4,0.6-1.4,1.4c0,49.3,0,98.6,0,147.9c0,15.7,0,31.4,0,47c0,0.9,0.9,1.6,1.8,1.4
	c23.7-7.2,47.4-14.5,71.1-21.7C129.9,327.3,129.2,324.6,127.4,325.1"/>
<path fill="#282727" d="M244.5,49.9C207.6,82,170.8,114,133.9,146.1c-1.7,1.5-3.4,3-5.1,4.4c-0.5,0.4-1,0.8-1.5,1.3
	c-0.8,0.7-0.4,0,0.5,0h-19.3H56.7c0.3,0.8,0.7,1.6,1,2.4c36.4-32.3,72.9-64.6,109.3-96.9c2.1-1.9,4.2-3.7,6.3-5.6
	c1.4-1.2-0.6-3.2-2-2C134.9,82,98.4,114.3,62,146.6c-2.1,1.9-4.2,3.7-6.3,5.6c-0.9,0.8-0.2,2.4,1,2.4h70c3.9,0-0.2,1.7,2.4-0.7
	c9.7-8.5,27.8-24.2,37.5-32.7c26.6-23.1,53.2-46.3,79.8-69.4C247.9,50.7,245.9,48.7,244.5,49.9"/>
<path fill="#282727" d="M172.4,52.2h73.1c1.8,0,1.8-2.8,0-2.8h-73.1C170.5,49.4,170.5,52.2,172.4,52.2"/>
<path fill="#282727" d="M363.5,151.8c-23.3,0-46.7,0-70,0c-1.7,0-0.5,0.1-0.3,0.3c-0.6-0.5-1.2-1-1.8-1.5c-2.8-2.4-5.6-4.8-8.4-7.2
	c-10.1-8.6-20.2-17.3-30.3-25.9c-26.5-22.6-52.9-45.2-79.4-67.7c-0.3,0.8-0.7,1.6-1,2.4h71.1c1.6,0,2.1,0.5,1-0.4
	c0.4,0.4,0.9,0.8,1.3,1.2c2.6,2.2,5.1,4.4,7.7,6.6c9.8,8.5,19.6,17,29.4,25.5c26.5,23,53.1,46.1,79.6,69.1c1.4,1.2,3.2-1,1.8-2.2
	c-36.9-32-73.5-63.8-110.4-95.8c-2.4-2.1-4.9-5-7.7-6.6c-1.3-0.7-4-0.2-5.3-0.2h-13.5h-55c-1.2,0-2,1.6-1,2.4
	c37.3,31.8,74.5,63.6,111.8,95.4c2.7,2.3,5.5,4.7,8.2,7c1,0.8,3.1,0.4,4.3,0.4c4.2,0,8.4,0,12.6,0c18.4,0,36.8,0,55.3,0
	C365.3,154.7,365.3,151.8,363.5,151.8"/>
<line fill="none" stroke="#282727" stroke-width="1.898" stroke-linecap="round" stroke-linejoin="round" stroke-miterlimit="10" stroke-dasharray="0,3.1633" x1="170.4" y1="49.5" x2="122.4" y2="17.2"/>
<line fill="none" stroke="#282727" stroke-width="1.898" stroke-linecap="round" stroke-linejoin="round" stroke-miterlimit="10" stroke-dasharray="0,3.1633" x1="242.4" y1="49.5" x2="194.4" y2="17.2"/>
<line fill="none" stroke="#282727" stroke-width="1.898" stroke-linecap="round" stroke-linejoin="round" stroke-miterlimit="10" stroke-dasharray="0,3.1633" x1="126.6" y1="150.7" x2="77.7" y2="118.6"/>
<g>
	
		<line fill="none" stroke="#282727" stroke-width="1.898" stroke-linecap="round" stroke-linejoin="round" stroke-miterlimit="10" stroke-dasharray="0,3.1633" x1="54.7" y1="151.6" x2="7.9" y2="119.9"/>
	
		<path fill="none" stroke="#282727" stroke-width="1.898" stroke-linecap="round" stroke-linejoin="round" stroke-miterlimit="10" stroke-dasharray="0,3.1633" d="
		M56.7,152.9L56.7,152.9"/>
</g>
<g enable-background="new    ">
	<path fill="#E30613" d="M148.7,200.8c-0.3-9.6,5.2-17,15.2-17c7.7,0,14.4,4.9,14.4,13.1c0,12.7-13.5,13.7-19.6,22.4h19.9v7.3h-30.8
		c0-9.8,6-13.8,13.3-18.8c3.7-2.6,8.8-5.1,8.8-10.3c0-4-2.6-6.5-6.3-6.5c-5,0-6.7,5.2-6.7,9.7H148.7z"/>
	<path fill="#E30613" d="M210.8,192c-8.8,7.7-13.6,23.5-13.7,34.7H188c1-12.5,6.1-24.4,14.1-34.1h-19.9v-7.9h28.7V192z"/>
	<path fill="#E30613" d="M227.9,183.9c7.4,0,9.8,5.5,9.8,12.1c0,6.5-3.1,11.3-10.1,11.3c-7.4,0-9.9-4.9-9.9-11.5
		C217.7,189.2,220.9,183.9,227.9,183.9z M227.6,202.8c3.7,0,4-4.3,4-6.8c0-2.4-0.2-7.6-3.7-7.6c-3.8,0-4.1,4.7-4.1,7.5
		C223.8,198.4,223.8,202.8,227.6,202.8z M253.3,183.4h5.1L233.6,228h-5.2L253.3,183.4z M258.8,204.1c7.4,0,9.8,5.3,9.8,11.8
		c0,6.5-3.1,11.6-10.1,11.6c-7.4,0-9.9-5.3-9.9-11.8C248.6,209.2,251.8,204.1,258.8,204.1z M258.6,223c3.7,0,4-4.7,4-7.2
		c0-2.3-0.2-7.2-3.7-7.2c-3.8,0-4.1,4.4-4.1,7.1C254.8,218.4,254.8,223,258.6,223z"/>
</g>
<g enable-background="new    ">
	<path fill="#020203" d="M150.7,243.3c2.3,0,3.8,1.5,3.8,3.8c0,2.3-1.5,3.8-3.8,3.8c-2.3,0-3.7-1.5-3.7-3.8
		C147,244.8,148.5,243.3,150.7,243.3z M150.7,249.4c1.4,0,1.8-1.1,1.8-2.3s-0.4-2.3-1.8-2.3c-1.3,0-1.8,1.2-1.8,2.3
		S149.4,249.4,150.7,249.4z"/>
	<path fill="#020203" d="M156.2,244.8H155v-1.3h1.2v-0.6c0-1.3,0.8-2.2,2.4-2.2c0.4,0,0.7,0,1.1,0.1v1.5c-0.2,0-0.5,0-0.7,0
		c-0.5,0-0.8,0.2-0.8,0.8v0.4h1.4v1.3h-1.4v5.9h-2V244.8z"/>
	<path fill="#020203" d="M164.2,245.7c0.1-1.8,1.8-2.4,3.4-2.4c1.4,0,3.2,0.3,3.2,2.1v3.8c0,0.7,0.1,1.3,0.3,1.6h-2
		c-0.1-0.2-0.1-0.5-0.1-0.7c-0.6,0.7-1.5,0.9-2.4,0.9c-1.4,0-2.5-0.7-2.5-2.2c0-3.3,4.9-1.5,4.8-3.2c0-0.8-0.6-1-1.3-1
		c-0.8,0-1.2,0.3-1.3,1.1H164.2z M168.8,247.2c-0.3,0.3-1,0.3-1.7,0.4c-0.6,0.1-1.2,0.3-1.2,1.1s0.6,0.9,1.2,0.9
		c1.6,0,1.6-1.2,1.6-1.7V247.2z"/>
	<path fill="#020203" d="M172.4,240.7h2v10h-2V240.7z"/>
	<path fill="#020203" d="M176,240.7h2v10h-2V240.7z"/>
	<path fill="#020203" d="M183.5,240.7h2v3.8h0c0.5-0.8,1.4-1.2,2.1-1.2c2.1,0,2.6,1.2,2.6,3v4.5h-2v-4.1c0-1.2-0.3-1.8-1.3-1.8
		c-1.1,0-1.5,0.6-1.5,2.1v3.8h-2V240.7z"/>
	<path fill="#020203" d="M195.3,243.3c2.3,0,3.8,1.5,3.8,3.8c0,2.3-1.5,3.8-3.8,3.8c-2.3,0-3.7-1.5-3.7-3.8
		C191.5,244.8,193,243.3,195.3,243.3z M195.3,249.4c1.4,0,1.8-1.1,1.8-2.3s-0.4-2.3-1.8-2.3c-1.3,0-1.8,1.2-1.8,2.3
		S193.9,249.4,195.3,249.4z"/>
	<path fill="#020203" d="M200.4,243.5h1.9v1h0c0.5-0.7,1.3-1.2,2.2-1.2c0.9,0,1.7,0.3,2.1,1.2c0.4-0.6,1.2-1.2,2.2-1.2
		c1.5,0,2.6,0.7,2.6,2.6v4.8h-2v-4.1c0-1-0.1-1.8-1.2-1.8c-1.1,0-1.3,0.9-1.3,1.8v4h-2v-4.1c0-0.8,0.1-1.8-1.2-1.8
		c-0.4,0-1.3,0.3-1.3,1.7v4.2h-2V243.5z"/>
	<path fill="#020203" d="M214.7,247.6c0.1,1.3,0.7,1.8,1.8,1.8c0.8,0,1.4-0.5,1.6-0.9h1.8c-0.6,1.7-1.8,2.4-3.4,2.4
		c-2.3,0-3.7-1.6-3.7-3.8c0-2.2,1.5-3.8,3.7-3.8c2.5,0,3.7,2.1,3.5,4.3H214.7z M217.9,246.3c-0.2-1-0.6-1.5-1.6-1.5
		c-1.3,0-1.6,1-1.7,1.5H217.9z"/>
	<path fill="#020203" d="M222.6,248.3c0,0.9,0.8,1.2,1.5,1.2c0.6,0,1.3-0.2,1.3-0.9c0-0.6-0.8-0.8-2.3-1.1c-1.2-0.3-2.3-0.6-2.3-1.9
		c0-1.8,1.6-2.3,3.2-2.3c1.6,0,3,0.5,3.2,2.3h-1.9c-0.1-0.8-0.6-1-1.4-1c-0.4,0-1.1,0.1-1.1,0.7c0,0.7,1.1,0.8,2.3,1.1
		c1.2,0.3,2.3,0.7,2.3,2c0,1.9-1.7,2.5-3.3,2.5c-1.7,0-3.3-0.6-3.4-2.6H222.6z"/>
	<path fill="#020203" d="M237.6,249.8L237.6,249.8c-0.5,0.8-1.3,1.1-2.2,1.1c-2.2,0-3.2-1.9-3.2-3.9c0-1.9,1.1-3.8,3.2-3.8
		c0.9,0,1.7,0.4,2.1,1.1h0v-3.6h2v10h-1.9V249.8z M235.9,244.8c-1.3,0-1.8,1.1-1.8,2.3c0,1.1,0.5,2.3,1.8,2.3c1.3,0,1.7-1.1,1.7-2.3
		C237.6,245.9,237.2,244.8,235.9,244.8z"/>
	<path fill="#020203" d="M244.5,243.3c2.3,0,3.8,1.5,3.8,3.8c0,2.3-1.5,3.8-3.8,3.8c-2.3,0-3.7-1.5-3.7-3.8
		C240.8,244.8,242.3,243.3,244.5,243.3z M244.5,249.4c1.4,0,1.8-1.1,1.8-2.3s-0.4-2.3-1.8-2.3c-1.3,0-1.8,1.2-1.8,2.3
		S243.2,249.4,244.5,249.4z"/>
	<path fill="#020203" d="M253.5,243.5h1.9v1h0c0.5-0.8,1.4-1.2,2.2-1.2c2.1,0,2.6,1.2,2.6,3v4.5h-2v-4.1c0-1.2-0.3-1.8-1.3-1.8
		c-1.1,0-1.5,0.6-1.5,2.1v3.8h-2V243.5z"/>
	<path fill="#020203" d="M265.3,243.3c2.3,0,3.8,1.5,3.8,3.8c0,2.3-1.5,3.8-3.8,3.8c-2.3,0-3.7-1.5-3.7-3.8
		C261.5,244.8,263,243.3,265.3,243.3z M265.3,249.4c1.4,0,1.8-1.1,1.8-2.3s-0.4-2.3-1.8-2.3c-1.3,0-1.8,1.2-1.8,2.3
		S263.9,249.4,265.3,249.4z"/>
	<path fill="#020203" d="M272.8,243.5h1.5v1.3h-1.5v3.6c0,0.7,0.2,0.8,0.8,0.8c0.2,0,0.4,0,0.6-0.1v1.6c-0.3,0.1-0.8,0.1-1.2,0.1
		c-1.2,0-2.3-0.3-2.3-1.7v-4.3h-1.2v-1.3h1.2v-2.2h2V243.5z"/>
</g>
<g enable-background="new    ">
	<path fill="#020203" d="M147.3,260.3h1.9v1h0c0.5-0.7,1.3-1.2,2.2-1.2c0.9,0,1.7,0.3,2.1,1.2c0.4-0.6,1.2-1.2,2.2-1.2
		c1.5,0,2.6,0.7,2.6,2.6v4.8h-2v-4.1c0-1-0.1-1.8-1.2-1.8c-1.1,0-1.3,0.9-1.3,1.8v4h-2v-4.1c0-0.8,0.1-1.8-1.2-1.8
		c-0.4,0-1.3,0.3-1.3,1.7v4.2h-2V260.3z"/>
	<path fill="#020203" d="M161.5,264.4c0.1,1.3,0.7,1.8,1.8,1.8c0.8,0,1.4-0.5,1.6-0.9h1.8c-0.6,1.7-1.8,2.4-3.4,2.4
		c-2.3,0-3.7-1.6-3.7-3.8c0-2.2,1.5-3.8,3.7-3.8c2.5,0,3.7,2.1,3.5,4.3H161.5z M164.8,263.1c-0.2-1-0.6-1.5-1.6-1.5
		c-1.3,0-1.6,1-1.7,1.5H164.8z"/>
	<path fill="#020203" d="M169.6,264.4c0.1,1.3,0.7,1.8,1.8,1.8c0.8,0,1.4-0.5,1.6-0.9h1.8c-0.6,1.7-1.8,2.4-3.4,2.4
		c-2.3,0-3.7-1.6-3.7-3.8c0-2.2,1.5-3.8,3.7-3.8c2.5,0,3.7,2.1,3.5,4.3H169.6z M172.8,263.1c-0.2-1-0.6-1.5-1.6-1.5
		c-1.3,0-1.6,1-1.7,1.5H172.8z"/>
	<path fill="#020203" d="M178.5,260.3h1.5v1.3h-1.5v3.6c0,0.7,0.2,0.8,0.8,0.8c0.2,0,0.4,0,0.6-0.1v1.6c-0.3,0.1-0.8,0.1-1.2,0.1
		c-1.2,0-2.3-0.3-2.3-1.7v-4.3h-1.2v-1.3h1.2v-2.2h2V260.3z"/>
	<path fill="#020203" d="M187.3,260.3h1.5v1.3h-1.5v3.6c0,0.7,0.2,0.8,0.8,0.8c0.2,0,0.4,0,0.6-0.1v1.6c-0.3,0.1-0.8,0.1-1.2,0.1
		c-1.2,0-2.3-0.3-2.3-1.7v-4.3h-1.2v-1.3h1.2v-2.2h2V260.3z"/>
	<path fill="#020203" d="M189.7,257.5h2v3.8h0c0.5-0.8,1.4-1.2,2.1-1.2c2.1,0,2.6,1.2,2.6,3v4.5h-2v-4.1c0-1.2-0.3-1.8-1.3-1.8
		c-1.1,0-1.5,0.6-1.5,2.1v3.8h-2V257.5z"/>
	<path fill="#020203" d="M199.7,264.4c0.1,1.3,0.7,1.8,1.8,1.8c0.8,0,1.4-0.5,1.6-0.9h1.8c-0.6,1.7-1.8,2.4-3.4,2.4
		c-2.3,0-3.7-1.6-3.7-3.8c0-2.2,1.5-3.8,3.7-3.8c2.5,0,3.7,2.1,3.5,4.3H199.7z M202.9,263.1c-0.2-1-0.6-1.5-1.6-1.5
		c-1.3,0-1.6,1-1.7,1.5H202.9z"/>
	<path fill="#020203" d="M147.1,279.3c0.1-1.8,1.8-2.4,3.4-2.4c1.4,0,3.2,0.3,3.2,2.1v3.8c0,0.7,0.1,1.3,0.3,1.6h-2
		c-0.1-0.2-0.1-0.5-0.1-0.7c-0.6,0.7-1.5,0.9-2.4,0.9c-1.4,0-2.5-0.7-2.5-2.2c0-3.3,4.9-1.5,4.8-3.2c0-0.8-0.6-1-1.3-1
		c-0.8,0-1.2,0.3-1.3,1.1H147.1z M151.7,280.8c-0.3,0.3-1,0.3-1.7,0.4c-0.6,0.1-1.2,0.3-1.2,1.1c0,0.7,0.6,0.9,1.2,0.9
		c1.6,0,1.6-1.2,1.6-1.7V280.8z"/>
	<path fill="#020203" d="M155.7,278.4h-1.2v-1.3h1.2v-0.6c0-1.3,0.8-2.2,2.4-2.2c0.4,0,0.7,0,1.1,0.1v1.5c-0.2,0-0.5,0-0.7,0
		c-0.5,0-0.8,0.2-0.8,0.8v0.4h1.4v1.3h-1.4v5.9h-2V278.4z"/>
	<path fill="#020203" d="M160.1,278.4h-1.2v-1.3h1.2v-0.6c0-1.3,0.8-2.2,2.4-2.2c0.4,0,0.7,0,1.1,0.1v1.5c-0.2,0-0.5,0-0.7,0
		c-0.5,0-0.8,0.2-0.8,0.8v0.4h1.4v1.3h-1.4v5.9h-2V278.4z"/>
	<path fill="#020203" d="M167.8,276.9c2.3,0,3.8,1.5,3.8,3.8c0,2.3-1.5,3.8-3.8,3.8c-2.3,0-3.7-1.5-3.7-3.8
		C164.1,278.4,165.6,276.9,167.8,276.9z M167.8,283c1.4,0,1.8-1.1,1.8-2.3c0-1.2-0.4-2.3-1.8-2.3c-1.3,0-1.8,1.2-1.8,2.3
		C166.1,281.8,166.5,283,167.8,283z"/>
	<path fill="#020203" d="M172.9,277.1h1.9v1.3h0c0.4-0.9,1.3-1.5,2.3-1.5c0.2,0,0.3,0,0.4,0.1v1.8c-0.2,0-0.5-0.1-0.7-0.1
		c-1.5,0-2,1-2,2.3v3.3h-2V277.1z"/>
	<path fill="#020203" d="M183.2,283.4L183.2,283.4c-0.5,0.8-1.3,1.1-2.2,1.1c-2.2,0-3.2-1.9-3.2-3.9c0-1.9,1.1-3.8,3.2-3.8
		c0.9,0,1.7,0.4,2.1,1.1h0v-3.6h2v10h-1.9V283.4z M181.5,278.4c-1.3,0-1.8,1.1-1.8,2.3c0,1.1,0.5,2.3,1.8,2.3c1.3,0,1.7-1.1,1.7-2.3
		C183.2,279.5,182.8,278.4,181.5,278.4z"/>
	<path fill="#020203" d="M186.5,279.3c0.1-1.8,1.8-2.4,3.4-2.4c1.4,0,3.2,0.3,3.2,2.1v3.8c0,0.7,0.1,1.3,0.3,1.6h-2
		c-0.1-0.2-0.1-0.5-0.1-0.7c-0.6,0.7-1.5,0.9-2.4,0.9c-1.4,0-2.5-0.7-2.5-2.2c0-3.3,4.9-1.5,4.8-3.2c0-0.8-0.6-1-1.3-1
		c-0.8,0-1.2,0.3-1.3,1.1H186.5z M191.1,280.8c-0.3,0.3-1,0.3-1.7,0.4c-0.6,0.1-1.2,0.3-1.2,1.1c0,0.7,0.6,0.9,1.2,0.9
		c1.6,0,1.6-1.2,1.6-1.7V280.8z"/>
	<path fill="#020203" d="M194.7,274.3h2v3.6h0c0.5-0.7,1.4-1.1,2.3-1.1c1.4,0,3,1.2,3,3.8s-1.6,3.8-3,3.8c-1.1,0-1.9-0.3-2.4-1.1h0
		v0.9h-1.9V274.3z M198.3,278.4c-1.2,0-1.7,1.1-1.7,2.3c0,1.2,0.5,2.3,1.7,2.3c1.2,0,1.7-1.1,1.7-2.3
		C200,279.4,199.4,278.4,198.3,278.4z"/>
	<path fill="#020203" d="M205.3,275.9h-2v-1.6h2V275.9z M203.3,277.1h2v7.2h-2V277.1z"/>
	<path fill="#020203" d="M206.9,274.3h2v10h-2V274.3z"/>
	<path fill="#020203" d="M212.5,275.9h-2v-1.6h2V275.9z M210.5,277.1h2v7.2h-2V277.1z"/>
	<path fill="#020203" d="M216.6,277.1h1.5v1.3h-1.5v3.6c0,0.7,0.2,0.8,0.8,0.8c0.2,0,0.4,0,0.6-0.1v1.6c-0.3,0.1-0.8,0.1-1.2,0.1
		c-1.2,0-2.3-0.3-2.3-1.7v-4.3h-1.2v-1.3h1.2v-2.2h2V277.1z"/>
	<path fill="#020203" d="M222.5,285.2c-0.4,1.2-1.1,1.6-2.5,1.6c-0.4,0-0.8,0-1.2-0.1v-1.6c0.4,0,0.8,0.1,1.2,0.1
		c0.5-0.1,0.8-0.5,0.8-0.9c0-0.2,0-0.3-0.1-0.4l-2.5-6.8h2.1l1.6,5h0l1.6-5h2.1L222.5,285.2z"/>
	<path fill="#020203" d="M230.3,274.3h2.2v8.2h4.9v1.8h-7.1V274.3z"/>
	<path fill="#020203" d="M240.5,275.9h-2v-1.6h2V275.9z M238.5,277.1h2v7.2h-2V277.1z"/>
	<path fill="#020203" d="M246.1,284.3h-2.2l-2.5-7.2h2.1l1.5,4.9h0l1.5-4.9h2L246.1,284.3z"/>
	<path fill="#020203" d="M251.4,275.9h-2v-1.6h2V275.9z M249.4,277.1h2v7.2h-2V277.1z"/>
	<path fill="#020203" d="M252.9,277.1h1.9v1h0c0.5-0.8,1.4-1.2,2.2-1.2c2.1,0,2.6,1.2,2.6,3v4.5h-2v-4.1c0-1.2-0.3-1.8-1.3-1.8
		c-1.1,0-1.5,0.6-1.5,2.1v3.8h-2V277.1z"/>
	<path fill="#020203" d="M268.2,283.8c0,1.2-0.4,3.2-3.8,3.2c-1.4,0-3.1-0.7-3.2-2.3h2c0.2,0.7,0.8,1,1.5,1c1.1,0,1.6-0.7,1.6-1.8
		v-1h0c-0.4,0.8-1.3,1.1-2.2,1.1c-2.2,0-3.1-1.7-3.1-3.6c0-1.9,1.1-3.6,3.1-3.6c1,0,1.7,0.3,2.2,1.2h0v-1h1.9V283.8z M266.3,280.6
		c0-1.2-0.4-2.2-1.7-2.2c-1.1,0-1.6,1-1.6,2.1c0,1,0.4,2.2,1.6,2.2C265.8,282.6,266.3,281.6,266.3,280.6z"/>
	<path fill="#020203" d="M147.4,291.1h2.2v3.8h4v-3.8h2.2v10h-2.2v-4.3h-4v4.3h-2.2V291.1z"/>
	<path fill="#020203" d="M161.1,293.7c2.3,0,3.8,1.5,3.8,3.8c0,2.3-1.5,3.8-3.8,3.8c-2.3,0-3.7-1.5-3.7-3.8
		C157.4,295.2,158.8,293.7,161.1,293.7z M161.1,299.8c1.4,0,1.8-1.1,1.8-2.3c0-1.2-0.4-2.3-1.8-2.3c-1.3,0-1.8,1.2-1.8,2.3
		C159.4,298.6,159.8,299.8,161.1,299.8z"/>
	<path fill="#020203" d="M166.2,293.9h1.9v1h0c0.5-0.7,1.3-1.2,2.2-1.2c0.9,0,1.7,0.3,2.1,1.2c0.4-0.6,1.2-1.2,2.2-1.2
		c1.5,0,2.6,0.7,2.6,2.6v4.8h-2V297c0-1-0.1-1.8-1.2-1.8c-1.1,0-1.3,0.9-1.3,1.8v4h-2V297c0-0.8,0.1-1.8-1.2-1.8
		c-0.4,0-1.3,0.3-1.3,1.7v4.2h-2V293.9z"/>
	<path fill="#020203" d="M180.5,298c0.1,1.3,0.7,1.8,1.8,1.8c0.8,0,1.4-0.5,1.6-0.9h1.8c-0.6,1.7-1.8,2.4-3.4,2.4
		c-2.3,0-3.7-1.6-3.7-3.8c0-2.2,1.5-3.8,3.7-3.8c2.5,0,3.7,2.1,3.5,4.3H180.5z M183.7,296.7c-0.2-1-0.6-1.5-1.6-1.5
		c-1.3,0-1.6,1-1.7,1.5H183.7z"/>
	<path fill="#020203" d="M192.5,297.8c0,1.3,1,1.8,2.2,1.8c0.8,0,1.9-0.2,1.9-1.2c0-1.1-1.5-1.2-3-1.7c-1.5-0.4-3-1-3-2.8
		c0-2.1,1.9-3,3.7-3c2.1,0,4,0.9,4,3.2h-2.1c-0.1-1.2-0.9-1.5-2-1.5c-0.7,0-1.5,0.3-1.5,1.1c0,0.8,0.5,0.9,3,1.5
		c0.7,0.2,3,0.7,3,2.9c0,1.8-1.4,3.2-4.2,3.2c-2.2,0-4.3-1.1-4.3-3.6H192.5z"/>
	<path fill="#020203" d="M202.4,293.9h1.5v1.3h-1.5v3.6c0,0.7,0.2,0.8,0.8,0.8c0.2,0,0.4,0,0.6-0.1v1.6c-0.3,0.1-0.8,0.1-1.2,0.1
		c-1.2,0-2.3-0.3-2.3-1.7v-4.3h-1.2v-1.3h1.2v-2.2h2V293.9z"/>
	<path fill="#020203" d="M204.7,296.1c0.1-1.8,1.8-2.4,3.4-2.4c1.4,0,3.2,0.3,3.2,2.1v3.8c0,0.7,0.1,1.3,0.3,1.6h-2
		c-0.1-0.2-0.1-0.5-0.1-0.7c-0.6,0.7-1.5,0.9-2.4,0.9c-1.4,0-2.5-0.7-2.5-2.2c0-3.3,4.9-1.5,4.8-3.2c0-0.8-0.6-1-1.3-1
		c-0.8,0-1.2,0.3-1.3,1.1H204.7z M209.3,297.6c-0.3,0.3-1,0.3-1.7,0.4c-0.6,0.1-1.2,0.3-1.2,1.1c0,0.7,0.6,0.9,1.2,0.9
		c1.6,0,1.6-1.2,1.6-1.7V297.6z"/>
	<path fill="#020203" d="M212.8,293.9h1.9v1h0c0.5-0.8,1.4-1.2,2.2-1.2c2.1,0,2.6,1.2,2.6,3v4.5h-2V297c0-1.2-0.3-1.8-1.3-1.8
		c-1.1,0-1.5,0.6-1.5,2.1v3.8h-2V293.9z"/>
	<path fill="#020203" d="M226.3,300.2L226.3,300.2c-0.5,0.8-1.3,1.1-2.2,1.1c-2.2,0-3.2-1.9-3.2-3.9c0-1.9,1.1-3.8,3.2-3.8
		c0.9,0,1.7,0.4,2.1,1.1h0v-3.6h2v10h-1.9V300.2z M224.5,295.2c-1.3,0-1.8,1.1-1.8,2.3c0,1.1,0.5,2.3,1.8,2.3c1.3,0,1.7-1.1,1.7-2.3
		C226.2,296.3,225.8,295.2,224.5,295.2z"/>
	<path fill="#020203" d="M229.6,296.1c0.1-1.8,1.8-2.4,3.4-2.4c1.4,0,3.2,0.3,3.2,2.1v3.8c0,0.7,0.1,1.3,0.3,1.6h-2
		c-0.1-0.2-0.1-0.5-0.1-0.7c-0.6,0.7-1.5,0.9-2.4,0.9c-1.4,0-2.5-0.7-2.5-2.2c0-3.3,4.9-1.5,4.8-3.2c0-0.8-0.6-1-1.3-1
		c-0.8,0-1.2,0.3-1.3,1.1H229.6z M234.2,297.6c-0.3,0.3-1,0.3-1.7,0.4c-0.6,0.1-1.2,0.3-1.2,1.1c0,0.7,0.6,0.9,1.2,0.9
		c1.6,0,1.6-1.2,1.6-1.7V297.6z"/>
	<path fill="#020203" d="M237.7,293.9h1.9v1.3h0c0.4-0.9,1.3-1.5,2.3-1.5c0.2,0,0.3,0,0.4,0.1v1.8c-0.2,0-0.5-0.1-0.7-0.1
		c-1.5,0-2,1-2,2.3v3.3h-2V293.9z"/>
	<path fill="#020203" d="M248.1,300.2L248.1,300.2c-0.5,0.8-1.3,1.1-2.2,1.1c-2.2,0-3.2-1.9-3.2-3.9c0-1.9,1.1-3.8,3.2-3.8
		c0.9,0,1.7,0.4,2.1,1.1h0v-3.6h2v10h-1.9V300.2z M246.3,295.2c-1.3,0-1.8,1.1-1.8,2.3c0,1.1,0.5,2.3,1.8,2.3c1.3,0,1.7-1.1,1.7-2.3
		C248,296.3,247.6,295.2,246.3,295.2z"/>
</g>
</svg>
