<?xml version="1.0" encoding="utf-8"?>
<!-- Generator: Adobe Illustrator 20.1.0, SVG Export Plug-In . SVG Version: 6.00 Build 0)  -->
<svg version="1.1" id="Layer_1" xmlns="http://www.w3.org/2000/svg" xmlns:xlink="http://www.w3.org/1999/xlink" x="0px" y="0px"
	 viewBox="0 0 400 400" style="enable-background:new 0 0 400 400;" xml:space="preserve">
<style type="text/css">
	.st0{fill:#C7C5B1;}
	.st1{fill:#E30613;}
	.st2{fill:#282727;}
	
		.st3{fill:none;stroke:#282727;stroke-width:1.956;stroke-linecap:round;stroke-linejoin:round;stroke-miterlimit:10;stroke-dasharray:0,3.26;}
	.st4{fill:#A2D6D9;}
	
		.st5{fill:none;stroke:#282727;stroke-width:1.898;stroke-linecap:round;stroke-linejoin:round;stroke-miterlimit:10;stroke-dasharray:0,3.1633;}
	.st6{fill:#C4C732;}
	.st7{fill:#29B5BF;}
	.st8{fill:#20B5BF;}
</style>
<polygon class="st0" points="91.3,349 20.2,370.7 20.2,175.8 91.3,175.8 "/>
<polygon class="st1" points="5.9,119.1 77,119.1 194.6,16.7 121.5,16.6 "/>
<path class="st2" d="M363.1,325.3c-22.9,7-45.9,13.9-68.8,20.9c-3,0.9-5.7,0.7-9.8,0.7h-28.7H78.7h-22c0.1,0.9,0.2,1.8,0.4,2.8
	c23-7,45.9-14,68.9-21c2.7-0.8,6-0.6,9.8-0.6c9.7,0,19.4,0,29.1,0c59.1,0,118.2,0,177.2,0c7.1,0,14.3,0,21.4,0c1.8,0,1.8-2.8,0-2.8
	c-46.7,0-93.4,0-140.1,0c-26.8,0-53.5,0-80.3,0c-5,0-10.1,0-15.1,0c-1.9,0-4.2,1.2-6,1.7c-6.3,1.9-12.6,3.8-18.9,5.8
	c-15.6,4.8-31.2,9.5-46.8,14.3c-1.5,0.5-1.2,2.8,0.4,2.8h139.9h80.2h15.1c1.9,0,4.1-1.1,5.9-1.7c6.2-1.9,12.5-3.8,18.7-5.7
	c15.8-4.8,31.6-9.6,47.4-14.4C365.6,327.5,364.9,324.8,363.1,325.3"/>
<path class="st2" d="M363.1,325.3c-23.8,7.2-47.6,14.5-71.4,21.7c0.6,0.5,1.2,0.9,1.8,1.4c0.1-49.3,0.2-98.7,0.2-148
	c0-15.7,0.1-31.4,0.1-47.1c-0.5,0.5-0.9,0.9-1.4,1.4c23.7,0,47.4,0,71.1,0c-0.5-0.5-0.9-0.9-1.4-1.4v148.9v24.5c0,1.8,2.8,1.8,2.8,0
	V177.8v-24.5c0-0.8-0.6-1.4-1.4-1.4c-23.7,0-47.4,0-71.1,0c-0.8,0-1.4,0.6-1.4,1.4c-0.1,49.3-0.2,98.7-0.2,148
	c0,15.7,0,31.4-0.1,47.1c0,0.9,0.9,1.6,1.8,1.4c23.8-7.2,47.6-14.5,71.4-21.7C365.6,327.5,364.9,324.8,363.1,325.3"/>
<path class="st2" d="M127.4,325.1c-23.7,7.2-47.4,14.5-71.1,21.7c0.6,0.5,1.2,0.9,1.8,1.4c0-49.3,0-98.6,0-147.9c0-15.7,0-31.4,0-47
	c-0.5,0.5-0.9,0.9-1.4,1.4h71.1c-0.5-0.5-0.9-0.9-1.4-1.4v149.3v24c0,1.8,2.8,1.8,2.8,0V177.2v-24c0-0.8-0.6-1.4-1.4-1.4h-71
	c-0.8,0-1.4,0.6-1.4,1.4c0,49.3,0,98.6,0,147.9c0,15.7,0,31.4,0,47c0,0.9,0.9,1.6,1.8,1.4c23.7-7.2,47.4-14.5,71.1-21.7
	C129.9,327.3,129.2,324.6,127.4,325.1"/>
<path class="st2" d="M244.5,49.9C207.6,82,170.8,114,133.9,146.1c-1.7,1.5-3.4,3-5.1,4.4c-0.5,0.4-1,0.8-1.5,1.3
	c-0.8,0.7-0.4,0,0.5,0h-19.3H56.7c0.3,0.8,0.7,1.6,1,2.4c36.4-32.3,72.9-64.6,109.3-96.9c2.1-1.9,4.2-3.7,6.3-5.6
	c1.4-1.2-0.6-3.2-2-2C134.9,82,98.4,114.3,62,146.6c-2.1,1.9-4.2,3.7-6.3,5.6c-0.9,0.8-0.2,2.4,1,2.4h70c3.9,0-0.2,1.7,2.4-0.7
	c9.7-8.5,27.8-24.2,37.5-32.7c26.6-23.1,53.2-46.3,79.8-69.4C247.9,50.7,245.9,48.7,244.5,49.9"/>
<path class="st2" d="M172.4,52.2h73.1c1.8,0,1.8-2.8,0-2.8h-73.1C170.5,49.4,170.5,52.2,172.4,52.2"/>
<path class="st2" d="M363.5,151.8c-23.3,0-46.7,0-70,0c-1.7,0-0.5,0.1-0.3,0.3c-0.6-0.5-1.2-1-1.8-1.5c-2.8-2.4-5.6-4.8-8.4-7.2
	c-10.1-8.6-20.2-17.3-30.3-25.9c-26.5-22.6-52.9-45.2-79.4-67.7c-0.3,0.8-0.7,1.6-1,2.4h71.1c1.6,0,2.1,0.5,1-0.4
	c0.4,0.4,0.9,0.8,1.3,1.2c2.6,2.2,5.1,4.4,7.7,6.6c9.8,8.5,19.6,17,29.4,25.5c26.5,23,53.1,46.1,79.6,69.1c1.4,1.2,3.2-1,1.8-2.2
	c-36.9-32-73.5-63.8-110.4-95.8c-2.4-2.1-4.9-5-7.7-6.6c-1.3-0.7-4-0.2-5.3-0.2h-13.5h-55c-1.2,0-2,1.6-1,2.4
	c37.3,31.8,74.5,63.6,111.8,95.4c2.7,2.3,5.5,4.7,8.2,7c1,0.8,3.1,0.4,4.3,0.4c4.2,0,8.4,0,12.6,0c18.4,0,36.8,0,55.3,0
	C365.3,154.7,365.3,151.8,363.5,151.8"/>
<line class="st3" x1="172.3" y1="47.3" x2="172.3" y2="5.8"/>
<polygon class="st4" points="363.5,107.8 292.4,107.8 172.4,5.3 245.5,5.3 "/>
<line class="st5" x1="363.5" y1="150.9" x2="362.9" y2="109"/>
<line class="st5" x1="170.4" y1="49.5" x2="122.4" y2="17.2"/>
<line class="st5" x1="126.6" y1="150.7" x2="77.7" y2="118.6"/>
<g>
	<line class="st5" x1="54.7" y1="151.6" x2="7.9" y2="119.9"/>
	<path class="st5" d="M56.7,152.9L56.7,152.9"/>
</g>
<line class="st5" x1="23.2" y1="174.4" x2="55.7" y2="153.8"/>
<line class="st5" x1="93.5" y1="174.4" x2="125.6" y2="155.2"/>
<line class="st5" x1="21.7" y1="368.6" x2="54.6" y2="349.6"/>
<line class="st5" x1="93.6" y1="346.8" x2="120.5" y2="331.1"/>
<line class="st5" x1="127.9" y1="356.3" x2="127.9" y2="327.8"/>
<line class="st5" x1="56.8" y1="376.4" x2="56.8" y2="350.4"/>
<polygon class="st6" points="56.7,378.9 292.1,378.9 363.5,357.2 127.9,357.2 "/>
<line class="st5" x1="291.9" y1="377.7" x2="292" y2="349.7"/>
<line class="st5" x1="320.6" y1="373.8" x2="294.8" y2="350.9"/>
<line class="st5" x1="322.6" y1="180.1" x2="293.8" y2="155.2"/>
<polygon class="st7" points="393.5,353 322.1,374.7 321.9,179.5 393.5,179.6 "/>
<line class="st5" x1="392.5" y1="179.1" x2="365.8" y2="155.1"/>
<line class="st5" x1="292.4" y1="148.4" x2="292.7" y2="109"/>
<g>
	<path class="st8" d="M163.7,242.8H145v-8.2l19.2-25.7h8v26.5h5.9v7.4h-5.9V253h-8.5V242.8z M163.7,220.1h-0.2l-11.4,15.3h11.6
		V220.1z"/>
	<path class="st8" d="M193.4,226.7c3.8,0.3,9.4-0.4,9.4-5.5c0-3.8-3-5.9-6.2-5.9c-4.5,0-6.9,3.3-6.8,7.9h-8.5
		c0.3-9.1,6.1-15.2,15.2-15.2c7.1,0,14.8,4.3,14.8,12.2c0,4.2-2.1,7.8-6.2,9v0.1c4.9,1.1,7.8,5,7.8,10c0,9.3-7.8,14.5-16.4,14.5
		c-9.9,0-16.6-5.9-16.4-16.1h8.5c0.2,4.8,2.6,8.7,7.7,8.7c4,0,7.2-2.7,7.2-6.9c0-6.7-5.9-6.6-10.2-6.6V226.7z"/>
	<path class="st8" d="M229.5,208c7.8,0,10.3,5.8,10.3,12.7c0,6.9-3.3,11.8-10.6,11.8c-7.7,0-10.4-5.2-10.4-12.1
		C218.8,213.6,222.1,208,229.5,208z M229.2,227.9c3.9,0,4.2-4.5,4.2-7.2c0-2.5-0.2-7.9-3.9-7.9c-4,0-4.3,5-4.3,7.9
		C225.2,223.3,225.2,227.9,229.2,227.9z M256.1,207.5h5.4l-26,46.9h-5.5L256.1,207.5z M262,229.3c7.8,0,10.3,5.5,10.3,12.4
		c0,6.8-3.3,12.2-10.6,12.2c-7.8,0-10.4-5.5-10.4-12.4C251.3,234.7,254.6,229.3,262,229.3z M261.8,249.2c3.9,0,4.2-4.9,4.2-7.6
		c0-2.5-0.2-7.6-3.9-7.6c-4,0-4.3,4.6-4.3,7.5C257.7,244.2,257.7,249.2,261.8,249.2z"/>
</g>
</svg>
