<?xml version="1.0" encoding="utf-8"?>
<!-- Generator: Adobe Illustrator 20.1.0, SVG Export Plug-In . SVG Version: 6.00 Build 0)  -->
<svg version="1.1" id="Layer_1" xmlns="http://www.w3.org/2000/svg" xmlns:xlink="http://www.w3.org/1999/xlink" x="0px" y="0px"
	 viewBox="0 0 400 400" style="enable-background:new 0 0 400 400;" xml:space="preserve">
<style type="text/css">
	.st0{fill:#E30613;}
	.st1{fill:#282727;}
	
		.st2{fill:none;stroke:#282727;stroke-width:1.898;stroke-linecap:round;stroke-linejoin:round;stroke-miterlimit:10;stroke-dasharray:0,3.1633;}
</style>
<polygon class="st0" points="5.9,119.1 77,119.1 194.6,16.7 121.5,16.6 "/>
<path class="st1" d="M363.1,325.3c-22.9,7-45.9,13.9-68.8,20.9c-3,0.9-5.7,0.7-9.8,0.7h-28.7H78.7h-22c0.1,0.9,0.2,1.8,0.4,2.8
	c23-7,45.9-14,68.9-21c2.7-0.8,6-0.6,9.8-0.6c9.7,0,19.4,0,29.1,0c59.1,0,118.2,0,177.2,0c7.1,0,14.3,0,21.4,0c1.8,0,1.8-2.8,0-2.8
	c-46.7,0-93.4,0-140.1,0c-26.8,0-53.5,0-80.3,0c-5,0-10.1,0-15.1,0c-1.9,0-4.2,1.2-6,1.7c-6.3,1.9-12.6,3.8-18.9,5.8
	c-15.6,4.8-31.2,9.5-46.8,14.3c-1.5,0.5-1.2,2.8,0.4,2.8h139.9h80.2h15.1c1.9,0,4.1-1.1,5.9-1.7c6.2-1.9,12.5-3.8,18.7-5.7
	c15.8-4.8,31.6-9.6,47.4-14.4C365.6,327.5,364.9,324.8,363.1,325.3"/>
<path class="st1" d="M363.1,325.3c-23.8,7.2-47.6,14.5-71.4,21.7c0.6,0.5,1.2,0.9,1.8,1.4c0.1-49.3,0.2-98.7,0.2-148
	c0-15.7,0.1-31.4,0.1-47.1c-0.5,0.5-0.9,0.9-1.4,1.4c23.7,0,47.4,0,71.1,0c-0.5-0.5-0.9-0.9-1.4-1.4v148.9v24.5c0,1.8,2.8,1.8,2.8,0
	V177.8v-24.5c0-0.8-0.6-1.4-1.4-1.4c-23.7,0-47.4,0-71.1,0c-0.8,0-1.4,0.6-1.4,1.4c-0.1,49.3-0.2,98.7-0.2,148
	c0,15.7,0,31.4-0.1,47.1c0,0.9,0.9,1.6,1.8,1.4c23.8-7.2,47.6-14.5,71.4-21.7C365.6,327.5,364.9,324.8,363.1,325.3"/>
<path class="st1" d="M127.4,325.1c-23.7,7.2-47.4,14.5-71.1,21.7c0.6,0.5,1.2,0.9,1.8,1.4c0-49.3,0-98.6,0-147.9c0-15.7,0-31.4,0-47
	c-0.5,0.5-0.9,0.9-1.4,1.4h71.1c-0.5-0.5-0.9-0.9-1.4-1.4v149.3v24c0,1.8,2.8,1.8,2.8,0V177.2v-24c0-0.8-0.6-1.4-1.4-1.4h-71
	c-0.8,0-1.4,0.6-1.4,1.4c0,49.3,0,98.6,0,147.9c0,15.7,0,31.4,0,47c0,0.9,0.9,1.6,1.8,1.4c23.7-7.2,47.4-14.5,71.1-21.7
	C129.9,327.3,129.2,324.6,127.4,325.1"/>
<path class="st1" d="M244.5,49.9C207.6,82,170.8,114,133.9,146.1c-1.7,1.5-3.4,3-5.1,4.4c-0.5,0.4-1,0.8-1.5,1.3
	c-0.8,0.7-0.4,0,0.5,0h-19.3H56.7c0.3,0.8,0.7,1.6,1,2.4c36.4-32.3,72.9-64.6,109.3-96.9c2.1-1.9,4.2-3.7,6.3-5.6
	c1.4-1.2-0.6-3.2-2-2C134.9,82,98.4,114.3,62,146.6c-2.1,1.9-4.2,3.7-6.3,5.6c-0.9,0.8-0.2,2.4,1,2.4h70c3.9,0-0.2,1.7,2.4-0.7
	c9.7-8.5,27.8-24.2,37.5-32.7c26.6-23.1,53.2-46.3,79.8-69.4C247.9,50.7,245.9,48.7,244.5,49.9"/>
<path class="st1" d="M172.4,52.2h73.1c1.8,0,1.8-2.8,0-2.8h-73.1C170.5,49.4,170.5,52.2,172.4,52.2"/>
<path class="st1" d="M363.5,151.8c-23.3,0-46.7,0-70,0c-1.7,0-0.5,0.1-0.3,0.3c-0.6-0.5-1.2-1-1.8-1.5c-2.8-2.4-5.6-4.8-8.4-7.2
	c-10.1-8.6-20.2-17.3-30.3-25.9c-26.5-22.6-52.9-45.2-79.4-67.7c-0.3,0.8-0.7,1.6-1,2.4h71.1c1.6,0,2.1,0.5,1-0.4
	c0.4,0.4,0.9,0.8,1.3,1.2c2.6,2.2,5.1,4.4,7.7,6.6c9.8,8.5,19.6,17,29.4,25.5c26.5,23,53.1,46.1,79.6,69.1c1.4,1.2,3.2-1,1.8-2.2
	c-36.9-32-73.5-63.8-110.4-95.8c-2.4-2.1-4.9-5-7.7-6.6c-1.3-0.7-4-0.2-5.3-0.2h-13.5h-55c-1.2,0-2,1.6-1,2.4
	c37.3,31.8,74.5,63.6,111.8,95.4c2.7,2.3,5.5,4.7,8.2,7c1,0.8,3.1,0.4,4.3,0.4c4.2,0,8.4,0,12.6,0c18.4,0,36.8,0,55.3,0
	C365.3,154.7,365.3,151.8,363.5,151.8"/>
<line class="st2" x1="170.4" y1="49.5" x2="122.4" y2="17.2"/>
<line class="st2" x1="242.4" y1="49.5" x2="194.4" y2="17.2"/>
<line class="st2" x1="126.6" y1="150.7" x2="77.7" y2="118.6"/>
<g>
	<line class="st2" x1="54.7" y1="151.6" x2="7.9" y2="119.9"/>
	<path class="st2" d="M56.7,152.9L56.7,152.9"/>
</g>
<g>
	<path class="st0" d="M146.3,225.8c-0.3-10.1,5.4-17.8,16-17.8c8.1,0,15.1,5.2,15.1,13.8c0,13.4-14.2,14.4-20.6,23.5h20.9v7.7h-32.4
		c0-10.3,6.3-14.5,13.9-19.7c3.8-2.7,9.3-5.4,9.3-10.8c0-4.2-2.8-6.8-6.6-6.8c-5.3,0-7,5.5-7,10.1H146.3z"/>
	<path class="st0" d="M211.6,216.6c-9.3,8.1-14.2,24.6-14.4,36.4h-9.6c1-13.1,6.4-25.6,14.8-35.8h-20.9v-8.3h30.1V216.6z"/>
	<path class="st0" d="M229.5,208c7.8,0,10.3,5.8,10.3,12.7c0,6.9-3.3,11.8-10.6,11.8c-7.7,0-10.4-5.2-10.4-12.1
		C218.8,213.6,222.1,208,229.5,208z M229.2,227.9c3.9,0,4.2-4.5,4.2-7.2c0-2.5-0.2-7.9-3.9-7.9c-4,0-4.3,5-4.3,7.9
		C225.2,223.3,225.2,227.9,229.2,227.9z M256.1,207.5h5.4l-26,46.9h-5.5L256.1,207.5z M262,229.3c7.8,0,10.3,5.5,10.3,12.4
		c0,6.8-3.3,12.2-10.6,12.2c-7.8,0-10.4-5.5-10.4-12.4C251.3,234.7,254.6,229.3,262,229.3z M261.8,249.2c3.9,0,4.2-4.9,4.2-7.6
		c0-2.5-0.2-7.6-3.9-7.6c-4,0-4.3,4.6-4.3,7.5C257.7,244.2,257.7,249.2,261.8,249.2z"/>
</g>
</svg>
