<?xml version="1.0" encoding="utf-8"?>
<!-- Generator: Adobe Illustrator 20.1.0, SVG Export Plug-In . SVG Version: 6.00 Build 0)  -->
<svg version="1.1" id="Layer_1" xmlns="http://www.w3.org/2000/svg" xmlns:xlink="http://www.w3.org/1999/xlink" x="0px" y="0px"
	 viewBox="0 0 400 400" enable-background="new 0 0 400 400" xml:space="preserve">
<polygon fill="#C7C5B1" points="91.3,349 20.2,370.7 20.2,175.8 91.3,175.8 "/>
<polygon fill="#E30613" points="5.9,119.1 77,119.1 194.6,16.7 121.5,16.6 "/>
<path fill="#282727" d="M363.1,325.3c-22.9,7-45.9,13.9-68.8,20.9c-3,0.9-5.7,0.7-9.8,0.7h-28.7H78.7h-22c0.1,0.9,0.2,1.8,0.4,2.8
	c23-7,45.9-14,68.9-21c2.7-0.8,6-0.6,9.8-0.6c9.7,0,19.4,0,29.1,0c59.1,0,118.2,0,177.2,0c7.1,0,14.3,0,21.4,0c1.8,0,1.8-2.8,0-2.8
	c-46.7,0-93.4,0-140.1,0c-26.8,0-53.5,0-80.3,0c-5,0-10.1,0-15.1,0c-1.9,0-4.2,1.2-6,1.7c-6.3,1.9-12.6,3.8-18.9,5.8
	c-15.6,4.8-31.2,9.5-46.8,14.3c-1.5,0.5-1.2,2.8,0.4,2.8h139.9h80.2h15.1c1.9,0,4.1-1.1,5.9-1.7c6.2-1.9,12.5-3.8,18.7-5.7
	c15.8-4.8,31.6-9.6,47.4-14.4C365.6,327.5,364.9,324.8,363.1,325.3"/>
<path fill="#282727" d="M363.1,325.3c-23.8,7.2-47.6,14.5-71.4,21.7c0.6,0.5,1.2,0.9,1.8,1.4c0.1-49.3,0.2-98.7,0.2-148
	c0-15.7,0.1-31.4,0.1-47.1c-0.5,0.5-0.9,0.9-1.4,1.4c23.7,0,47.4,0,71.1,0c-0.5-0.5-0.9-0.9-1.4-1.4v148.9v24.5c0,1.8,2.8,1.8,2.8,0
	V177.8v-24.5c0-0.8-0.6-1.4-1.4-1.4c-23.7,0-47.4,0-71.1,0c-0.8,0-1.4,0.6-1.4,1.4c-0.1,49.3-0.2,98.7-0.2,148
	c0,15.7,0,31.4-0.1,47.1c0,0.9,0.9,1.6,1.8,1.4c23.8-7.2,47.6-14.5,71.4-21.7C365.6,327.5,364.9,324.8,363.1,325.3"/>
<path fill="#282727" d="M127.4,325.1c-23.7,7.2-47.4,14.5-71.1,21.7c0.6,0.5,1.2,0.9,1.8,1.4c0-49.3,0-98.6,0-147.9
	c0-15.7,0-31.4,0-47c-0.5,0.5-0.9,0.9-1.4,1.4h71.1c-0.5-0.5-0.9-0.9-1.4-1.4v149.3v24c0,1.8,2.8,1.8,2.8,0V177.2v-24
	c0-0.8-0.6-1.4-1.4-1.4h-71c-0.8,0-1.4,0.6-1.4,1.4c0,49.3,0,98.6,0,147.9c0,15.7,0,31.4,0,47c0,0.9,0.9,1.6,1.8,1.4
	c23.7-7.2,47.4-14.5,71.1-21.7C129.9,327.3,129.2,324.6,127.4,325.1"/>
<path fill="#282727" d="M244.5,49.9C207.6,82,170.8,114,133.9,146.1c-1.7,1.5-3.4,3-5.1,4.4c-0.5,0.4-1,0.8-1.5,1.3
	c-0.8,0.7-0.4,0,0.5,0h-19.3H56.7c0.3,0.8,0.7,1.6,1,2.4c36.4-32.3,72.9-64.6,109.3-96.9c2.1-1.9,4.2-3.7,6.3-5.6
	c1.4-1.2-0.6-3.2-2-2C134.9,82,98.4,114.3,62,146.6c-2.1,1.9-4.2,3.7-6.3,5.6c-0.9,0.8-0.2,2.4,1,2.4h70c3.9,0-0.2,1.7,2.4-0.7
	c9.7-8.5,27.8-24.2,37.5-32.7c26.6-23.1,53.2-46.3,79.8-69.4C247.9,50.7,245.9,48.7,244.5,49.9"/>
<path fill="#282727" d="M172.4,52.2h73.1c1.8,0,1.8-2.8,0-2.8h-73.1C170.5,49.4,170.5,52.2,172.4,52.2"/>
<path fill="#282727" d="M363.5,151.8c-23.3,0-46.7,0-70,0c-1.7,0-0.5,0.1-0.3,0.3c-0.6-0.5-1.2-1-1.8-1.5c-2.8-2.4-5.6-4.8-8.4-7.2
	c-10.1-8.6-20.2-17.3-30.3-25.9c-26.5-22.6-52.9-45.2-79.4-67.7c-0.3,0.8-0.7,1.6-1,2.4h71.1c1.6,0,2.1,0.5,1-0.4
	c0.4,0.4,0.9,0.8,1.3,1.2c2.6,2.2,5.1,4.4,7.7,6.6c9.8,8.5,19.6,17,29.4,25.5c26.5,23,53.1,46.1,79.6,69.1c1.4,1.2,3.2-1,1.8-2.2
	c-36.9-32-73.5-63.8-110.4-95.8c-2.4-2.1-4.9-5-7.7-6.6c-1.3-0.7-4-0.2-5.3-0.2h-13.5h-55c-1.2,0-2,1.6-1,2.4
	c37.3,31.8,74.5,63.6,111.8,95.4c2.7,2.3,5.5,4.7,8.2,7c1,0.8,3.1,0.4,4.3,0.4c4.2,0,8.4,0,12.6,0c18.4,0,36.8,0,55.3,0
	C365.3,154.7,365.3,151.8,363.5,151.8"/>
<line fill="none" stroke="#282727" stroke-width="1.956" stroke-linecap="round" stroke-linejoin="round" stroke-miterlimit="10" stroke-dasharray="0,3.26" x1="172.3" y1="47.3" x2="172.3" y2="5.8"/>
<polygon fill="#A2D6D9" points="363.5,107.8 292.4,107.8 172.4,5.3 245.5,5.3 "/>
<line fill="none" stroke="#282727" stroke-width="1.898" stroke-linecap="round" stroke-linejoin="round" stroke-miterlimit="10" stroke-dasharray="0,3.1633" x1="363.5" y1="150.9" x2="362.9" y2="109"/>
<line fill="none" stroke="#282727" stroke-width="1.898" stroke-linecap="round" stroke-linejoin="round" stroke-miterlimit="10" stroke-dasharray="0,3.1633" x1="170.4" y1="49.5" x2="122.4" y2="17.2"/>
<line fill="none" stroke="#282727" stroke-width="1.898" stroke-linecap="round" stroke-linejoin="round" stroke-miterlimit="10" stroke-dasharray="0,3.1633" x1="126.6" y1="150.7" x2="77.7" y2="118.6"/>
<g>
	
		<line fill="none" stroke="#282727" stroke-width="1.898" stroke-linecap="round" stroke-linejoin="round" stroke-miterlimit="10" stroke-dasharray="0,3.1633" x1="54.7" y1="151.6" x2="7.9" y2="119.9"/>
	
		<path fill="none" stroke="#282727" stroke-width="1.898" stroke-linecap="round" stroke-linejoin="round" stroke-miterlimit="10" stroke-dasharray="0,3.1633" d="
		M56.7,152.9L56.7,152.9"/>
</g>
<line fill="none" stroke="#282727" stroke-width="1.898" stroke-linecap="round" stroke-linejoin="round" stroke-miterlimit="10" stroke-dasharray="0,3.1633" x1="23.2" y1="174.4" x2="55.7" y2="153.8"/>
<line fill="none" stroke="#282727" stroke-width="1.898" stroke-linecap="round" stroke-linejoin="round" stroke-miterlimit="10" stroke-dasharray="0,3.1633" x1="93.5" y1="174.4" x2="125.6" y2="155.2"/>
<line fill="none" stroke="#282727" stroke-width="1.898" stroke-linecap="round" stroke-linejoin="round" stroke-miterlimit="10" stroke-dasharray="0,3.1633" x1="21.7" y1="368.6" x2="54.6" y2="349.6"/>
<line fill="none" stroke="#282727" stroke-width="1.898" stroke-linecap="round" stroke-linejoin="round" stroke-miterlimit="10" stroke-dasharray="0,3.1633" x1="93.6" y1="346.8" x2="120.5" y2="331.1"/>
<line fill="none" stroke="#282727" stroke-width="1.898" stroke-linecap="round" stroke-linejoin="round" stroke-miterlimit="10" stroke-dasharray="0,3.1633" x1="127.9" y1="356.3" x2="127.9" y2="327.8"/>
<line fill="none" stroke="#282727" stroke-width="1.898" stroke-linecap="round" stroke-linejoin="round" stroke-miterlimit="10" stroke-dasharray="0,3.1633" x1="56.8" y1="376.4" x2="56.8" y2="350.4"/>
<polygon fill="#C4C732" points="56.7,378.9 292.1,378.9 363.5,357.2 127.9,357.2 "/>
<line fill="none" stroke="#282727" stroke-width="1.898" stroke-linecap="round" stroke-linejoin="round" stroke-miterlimit="10" stroke-dasharray="0,3.1633" x1="291.9" y1="377.7" x2="292" y2="349.7"/>
<line fill="none" stroke="#282727" stroke-width="1.898" stroke-linecap="round" stroke-linejoin="round" stroke-miterlimit="10" stroke-dasharray="0,3.1633" x1="320.6" y1="373.8" x2="294.8" y2="350.9"/>
<line fill="none" stroke="#282727" stroke-width="1.898" stroke-linecap="round" stroke-linejoin="round" stroke-miterlimit="10" stroke-dasharray="0,3.1633" x1="322.6" y1="180.1" x2="293.8" y2="155.2"/>
<polygon fill="#29B5BF" points="393.5,353 322.1,374.7 321.9,179.5 393.5,179.6 "/>
<line fill="none" stroke="#282727" stroke-width="1.898" stroke-linecap="round" stroke-linejoin="round" stroke-miterlimit="10" stroke-dasharray="0,3.1633" x1="392.5" y1="179.1" x2="365.8" y2="155.1"/>
<line fill="none" stroke="#282727" stroke-width="1.898" stroke-linecap="round" stroke-linejoin="round" stroke-miterlimit="10" stroke-dasharray="0,3.1633" x1="292.4" y1="148.4" x2="292.7" y2="109"/>
<g enable-background="new    ">
	<path fill="#1EB5BF" d="M165.2,227h-17.8v-7.8l18.2-24.5h7.6V220h5.6v7h-5.6v9.7h-8.1V227z M165.2,205.4H165L154.1,220h11V205.4z"
		/>
	<path fill="#1EB5BF" d="M193.5,211.7c3.7,0.3,8.9-0.4,8.9-5.2c0-3.6-2.8-5.6-5.9-5.6c-4.3,0-6.5,3.2-6.5,7.5h-8.1
		c0.3-8.6,5.8-14.5,14.5-14.5c6.7,0,14.1,4.1,14.1,11.6c0,4-2,7.4-5.9,8.6v0.1c4.6,1,7.4,4.8,7.4,9.5c0,8.8-7.4,13.8-15.6,13.8
		c-9.4,0-15.8-5.6-15.6-15.3h8.1c0.2,4.6,2.5,8.3,7.4,8.3c3.8,0,6.8-2.6,6.8-6.6c0-6.4-5.6-6.2-9.7-6.2V211.7z"/>
	<path fill="#1EB5BF" d="M227.9,193.9c7.4,0,9.8,5.5,9.8,12.1c0,6.5-3.1,11.3-10.1,11.3c-7.4,0-9.9-4.9-9.9-11.5
		C217.7,199.2,220.9,193.9,227.9,193.9z M227.6,212.8c3.7,0,4-4.3,4-6.8c0-2.4-0.2-7.6-3.7-7.6c-3.8,0-4.1,4.7-4.1,7.5
		C223.8,208.4,223.8,212.8,227.6,212.8z M253.3,193.4h5.1L233.6,238h-5.2L253.3,193.4z M258.8,214.1c7.4,0,9.8,5.3,9.8,11.8
		c0,6.5-3.1,11.6-10.1,11.6c-7.4,0-9.9-5.3-9.9-11.8C248.6,219.2,251.8,214.1,258.8,214.1z M258.6,233c3.7,0,4-4.7,4-7.2
		c0-2.3-0.2-7.2-3.7-7.2c-3.8,0-4.1,4.4-4.1,7.1C254.8,228.4,254.8,233,258.6,233z"/>
</g>
<g enable-background="new    ">
	<path d="M150.7,253.3c2.3,0,3.8,1.5,3.8,3.8c0,2.3-1.5,3.8-3.8,3.8c-2.3,0-3.7-1.5-3.7-3.8C147,254.8,148.5,253.3,150.7,253.3z
		 M150.7,259.4c1.4,0,1.8-1.1,1.8-2.3s-0.4-2.3-1.8-2.3c-1.3,0-1.8,1.2-1.8,2.3S149.4,259.4,150.7,259.4z"/>
	<path d="M156.2,254.8H155v-1.3h1.2v-0.6c0-1.3,0.8-2.2,2.4-2.2c0.4,0,0.7,0,1.1,0.1v1.5c-0.2,0-0.5,0-0.7,0c-0.5,0-0.8,0.2-0.8,0.8
		v0.4h1.4v1.3h-1.4v5.9h-2V254.8z"/>
	<path d="M164.2,255.7c0.1-1.8,1.8-2.4,3.4-2.4c1.4,0,3.2,0.3,3.2,2.1v3.8c0,0.7,0.1,1.3,0.3,1.6h-2c-0.1-0.2-0.1-0.5-0.1-0.7
		c-0.6,0.7-1.5,0.9-2.4,0.9c-1.4,0-2.5-0.7-2.5-2.2c0-3.3,4.9-1.5,4.8-3.2c0-0.8-0.6-1-1.3-1c-0.8,0-1.2,0.3-1.3,1.1H164.2z
		 M168.8,257.2c-0.3,0.3-1,0.3-1.7,0.4c-0.6,0.1-1.2,0.3-1.2,1.1s0.6,0.9,1.2,0.9c1.6,0,1.6-1.2,1.6-1.7V257.2z"/>
	<path d="M172.4,250.7h2v10h-2V250.7z"/>
	<path d="M176,250.7h2v10h-2V250.7z"/>
	<path d="M183.5,250.7h2v3.8h0c0.5-0.8,1.4-1.2,2.1-1.2c2.1,0,2.6,1.2,2.6,3v4.5h-2v-4.1c0-1.2-0.3-1.8-1.3-1.8
		c-1.1,0-1.5,0.6-1.5,2.1v3.8h-2V250.7z"/>
	<path d="M195.3,253.3c2.3,0,3.8,1.5,3.8,3.8c0,2.3-1.5,3.8-3.8,3.8c-2.3,0-3.7-1.5-3.7-3.8C191.5,254.8,193,253.3,195.3,253.3z
		 M195.3,259.4c1.4,0,1.8-1.1,1.8-2.3s-0.4-2.3-1.8-2.3c-1.3,0-1.8,1.2-1.8,2.3S193.9,259.4,195.3,259.4z"/>
	<path d="M200.4,253.5h1.9v1h0c0.5-0.7,1.3-1.2,2.2-1.2c0.9,0,1.7,0.3,2.1,1.2c0.4-0.6,1.2-1.2,2.2-1.2c1.5,0,2.6,0.7,2.6,2.6v4.8
		h-2v-4.1c0-1-0.1-1.8-1.2-1.8c-1.1,0-1.3,0.9-1.3,1.8v4h-2v-4.1c0-0.8,0.1-1.8-1.2-1.8c-0.4,0-1.3,0.3-1.3,1.7v4.2h-2V253.5z"/>
	<path d="M214.7,257.6c0.1,1.3,0.7,1.8,1.8,1.8c0.8,0,1.4-0.5,1.6-0.9h1.8c-0.6,1.7-1.8,2.4-3.4,2.4c-2.3,0-3.7-1.6-3.7-3.8
		c0-2.2,1.5-3.8,3.7-3.8c2.5,0,3.7,2.1,3.5,4.3H214.7z M217.9,256.3c-0.2-1-0.6-1.5-1.6-1.5c-1.3,0-1.6,1-1.7,1.5H217.9z"/>
	<path d="M222.6,258.3c0,0.9,0.8,1.2,1.5,1.2c0.6,0,1.3-0.2,1.3-0.9c0-0.6-0.8-0.8-2.3-1.1c-1.2-0.3-2.3-0.6-2.3-1.9
		c0-1.8,1.6-2.3,3.2-2.3c1.6,0,3,0.5,3.2,2.3h-1.9c-0.1-0.8-0.6-1-1.4-1c-0.4,0-1.1,0.1-1.1,0.7c0,0.7,1.1,0.8,2.3,1.1
		c1.2,0.3,2.3,0.7,2.3,2c0,1.9-1.7,2.5-3.3,2.5c-1.7,0-3.3-0.6-3.4-2.6H222.6z"/>
	<path d="M237.6,259.8L237.6,259.8c-0.5,0.8-1.3,1.1-2.2,1.1c-2.2,0-3.2-1.9-3.2-3.9c0-1.9,1.1-3.8,3.2-3.8c0.9,0,1.7,0.4,2.1,1.1h0
		v-3.6h2v10h-1.9V259.8z M235.9,254.8c-1.3,0-1.8,1.1-1.8,2.3c0,1.1,0.5,2.3,1.8,2.3c1.3,0,1.7-1.1,1.7-2.3
		C237.6,255.9,237.2,254.8,235.9,254.8z"/>
	<path d="M244.5,253.3c2.3,0,3.8,1.5,3.8,3.8c0,2.3-1.5,3.8-3.8,3.8c-2.3,0-3.7-1.5-3.7-3.8C240.8,254.8,242.3,253.3,244.5,253.3z
		 M244.5,259.4c1.4,0,1.8-1.1,1.8-2.3s-0.4-2.3-1.8-2.3c-1.3,0-1.8,1.2-1.8,2.3S243.2,259.4,244.5,259.4z"/>
	<path d="M253.5,253.5h1.9v1h0c0.5-0.8,1.4-1.2,2.2-1.2c2.1,0,2.6,1.2,2.6,3v4.5h-2v-4.1c0-1.2-0.3-1.8-1.3-1.8
		c-1.1,0-1.5,0.6-1.5,2.1v3.8h-2V253.5z"/>
	<path d="M265.3,253.3c2.3,0,3.8,1.5,3.8,3.8c0,2.3-1.5,3.8-3.8,3.8c-2.3,0-3.7-1.5-3.7-3.8C261.5,254.8,263,253.3,265.3,253.3z
		 M265.3,259.4c1.4,0,1.8-1.1,1.8-2.3s-0.4-2.3-1.8-2.3c-1.3,0-1.8,1.2-1.8,2.3S263.9,259.4,265.3,259.4z"/>
	<path d="M272.8,253.5h1.5v1.3h-1.5v3.6c0,0.7,0.2,0.8,0.8,0.8c0.2,0,0.4,0,0.6-0.1v1.6c-0.3,0.1-0.8,0.1-1.2,0.1
		c-1.2,0-2.3-0.3-2.3-1.7v-4.3h-1.2v-1.3h1.2v-2.2h2V253.5z"/>
</g>
<g enable-background="new    ">
	<path d="M147.3,270.3h1.9v1h0c0.5-0.7,1.3-1.2,2.2-1.2c0.9,0,1.7,0.3,2.1,1.2c0.4-0.6,1.2-1.2,2.2-1.2c1.5,0,2.6,0.7,2.6,2.6v4.8
		h-2v-4.1c0-1-0.1-1.8-1.2-1.8c-1.1,0-1.3,0.9-1.3,1.8v4h-2v-4.1c0-0.8,0.1-1.8-1.2-1.8c-0.4,0-1.3,0.3-1.3,1.7v4.2h-2V270.3z"/>
	<path d="M161.5,274.4c0.1,1.3,0.7,1.8,1.8,1.8c0.8,0,1.4-0.5,1.6-0.9h1.8c-0.6,1.7-1.8,2.4-3.4,2.4c-2.3,0-3.7-1.6-3.7-3.8
		c0-2.2,1.5-3.8,3.7-3.8c2.5,0,3.7,2.1,3.5,4.3H161.5z M164.8,273.1c-0.2-1-0.6-1.5-1.6-1.5c-1.3,0-1.6,1-1.7,1.5H164.8z"/>
	<path d="M169.6,274.4c0.1,1.3,0.7,1.8,1.8,1.8c0.8,0,1.4-0.5,1.6-0.9h1.8c-0.6,1.7-1.8,2.4-3.4,2.4c-2.3,0-3.7-1.6-3.7-3.8
		c0-2.2,1.5-3.8,3.7-3.8c2.5,0,3.7,2.1,3.5,4.3H169.6z M172.8,273.1c-0.2-1-0.6-1.5-1.6-1.5c-1.3,0-1.6,1-1.7,1.5H172.8z"/>
	<path d="M178.5,270.3h1.5v1.3h-1.5v3.6c0,0.7,0.2,0.8,0.8,0.8c0.2,0,0.4,0,0.6-0.1v1.6c-0.3,0.1-0.8,0.1-1.2,0.1
		c-1.2,0-2.3-0.3-2.3-1.7v-4.3h-1.2v-1.3h1.2v-2.2h2V270.3z"/>
	<path d="M187.3,270.3h1.5v1.3h-1.5v3.6c0,0.7,0.2,0.8,0.8,0.8c0.2,0,0.4,0,0.6-0.1v1.6c-0.3,0.1-0.8,0.1-1.2,0.1
		c-1.2,0-2.3-0.3-2.3-1.7v-4.3h-1.2v-1.3h1.2v-2.2h2V270.3z"/>
	<path d="M189.7,267.5h2v3.8h0c0.5-0.8,1.4-1.2,2.1-1.2c2.1,0,2.6,1.2,2.6,3v4.5h-2v-4.1c0-1.2-0.3-1.8-1.3-1.8
		c-1.1,0-1.5,0.6-1.5,2.1v3.8h-2V267.5z"/>
	<path d="M199.7,274.4c0.1,1.3,0.7,1.8,1.8,1.8c0.8,0,1.4-0.5,1.6-0.9h1.8c-0.6,1.7-1.8,2.4-3.4,2.4c-2.3,0-3.7-1.6-3.7-3.8
		c0-2.2,1.5-3.8,3.7-3.8c2.5,0,3.7,2.1,3.5,4.3H199.7z M202.9,273.1c-0.2-1-0.6-1.5-1.6-1.5c-1.3,0-1.6,1-1.7,1.5H202.9z"/>
	<path d="M210.2,267.5h2.2v8.2h4.9v1.8h-7.1V267.5z"/>
	<path d="M220.3,269.1h-2v-1.6h2V269.1z M218.3,270.3h2v7.2h-2V270.3z"/>
	<path d="M225.9,277.5h-2.2l-2.5-7.2h2.1l1.5,4.9h0l1.5-4.9h2L225.9,277.5z"/>
	<path d="M231.2,269.1h-2v-1.6h2V269.1z M229.2,270.3h2v7.2h-2V270.3z"/>
	<path d="M232.8,270.3h1.9v1h0c0.5-0.8,1.4-1.2,2.2-1.2c2.1,0,2.6,1.2,2.6,3v4.5h-2v-4.1c0-1.2-0.3-1.8-1.3-1.8
		c-1.1,0-1.5,0.6-1.5,2.1v3.8h-2V270.3z"/>
	<path d="M248,277c0,1.2-0.4,3.2-3.8,3.2c-1.4,0-3.1-0.7-3.2-2.3h2c0.2,0.7,0.8,1,1.5,1c1.1,0,1.6-0.7,1.6-1.8v-1h0
		c-0.4,0.8-1.3,1.1-2.2,1.1c-2.2,0-3.1-1.7-3.1-3.6c0-1.9,1.1-3.6,3.1-3.6c1,0,1.7,0.3,2.2,1.2h0v-1h1.9V277z M246.1,273.8
		c0-1.2-0.4-2.2-1.7-2.2c-1.1,0-1.6,1-1.6,2.1c0,1,0.4,2.2,1.6,2.2C245.6,275.8,246.1,274.8,246.1,273.8z"/>
</g>
<g enable-background="new    ">
	<path d="M147.4,284.3h2.2v3.8h4v-3.8h2.2v10h-2.2V290h-4v4.3h-2.2V284.3z"/>
	<path d="M161.1,286.9c2.3,0,3.8,1.5,3.8,3.8c0,2.3-1.5,3.8-3.8,3.8c-2.3,0-3.7-1.5-3.7-3.8C157.4,288.4,158.8,286.9,161.1,286.9z
		 M161.1,293c1.4,0,1.8-1.1,1.8-2.3c0-1.2-0.4-2.3-1.8-2.3c-1.3,0-1.8,1.2-1.8,2.3C159.4,291.8,159.8,293,161.1,293z"/>
	<path d="M166.2,287.1h1.9v1h0c0.5-0.7,1.3-1.2,2.2-1.2c0.9,0,1.7,0.3,2.1,1.2c0.4-0.6,1.2-1.2,2.2-1.2c1.5,0,2.6,0.7,2.6,2.6v4.8
		h-2v-4.1c0-1-0.1-1.8-1.2-1.8c-1.1,0-1.3,0.9-1.3,1.8v4h-2v-4.1c0-0.8,0.1-1.8-1.2-1.8c-0.4,0-1.3,0.3-1.3,1.7v4.2h-2V287.1z"/>
	<path d="M180.5,291.2c0.1,1.3,0.7,1.8,1.8,1.8c0.8,0,1.4-0.5,1.6-0.9h1.8c-0.6,1.7-1.8,2.4-3.4,2.4c-2.3,0-3.7-1.6-3.7-3.8
		c0-2.2,1.5-3.8,3.7-3.8c2.5,0,3.7,2.1,3.5,4.3H180.5z M183.7,289.9c-0.2-1-0.6-1.5-1.6-1.5c-1.3,0-1.6,1-1.7,1.5H183.7z"/>
	<path d="M192.5,291c0,1.3,1,1.8,2.2,1.8c0.8,0,1.9-0.2,1.9-1.2c0-1.1-1.5-1.2-3-1.7c-1.5-0.4-3-1-3-2.8c0-2.1,1.9-3,3.7-3
		c2.1,0,4,0.9,4,3.2h-2.1c-0.1-1.2-0.9-1.5-2-1.5c-0.7,0-1.5,0.3-1.5,1.1c0,0.8,0.5,0.9,3,1.5c0.7,0.2,3,0.7,3,2.9
		c0,1.8-1.4,3.2-4.2,3.2c-2.2,0-4.3-1.1-4.3-3.6H192.5z"/>
	<path d="M202.4,287.1h1.5v1.3h-1.5v3.6c0,0.7,0.2,0.8,0.8,0.8c0.2,0,0.4,0,0.6-0.1v1.6c-0.3,0.1-0.8,0.1-1.2,0.1
		c-1.2,0-2.3-0.3-2.3-1.7v-4.3h-1.2v-1.3h1.2v-2.2h2V287.1z"/>
	<path d="M204.7,289.3c0.1-1.8,1.8-2.4,3.4-2.4c1.4,0,3.2,0.3,3.2,2.1v3.8c0,0.7,0.1,1.3,0.3,1.6h-2c-0.1-0.2-0.1-0.5-0.1-0.7
		c-0.6,0.7-1.5,0.9-2.4,0.9c-1.4,0-2.5-0.7-2.5-2.2c0-3.3,4.9-1.5,4.8-3.2c0-0.8-0.6-1-1.3-1c-0.8,0-1.2,0.3-1.3,1.1H204.7z
		 M209.3,290.8c-0.3,0.3-1,0.3-1.7,0.4c-0.6,0.1-1.2,0.3-1.2,1.1c0,0.7,0.6,0.9,1.2,0.9c1.6,0,1.6-1.2,1.6-1.7V290.8z"/>
	<path d="M212.8,287.1h1.9v1h0c0.5-0.8,1.4-1.2,2.2-1.2c2.1,0,2.6,1.2,2.6,3v4.5h-2v-4.1c0-1.2-0.3-1.8-1.3-1.8
		c-1.1,0-1.5,0.6-1.5,2.1v3.8h-2V287.1z"/>
	<path d="M226.3,293.4L226.3,293.4c-0.5,0.8-1.3,1.1-2.2,1.1c-2.2,0-3.2-1.9-3.2-3.9c0-1.9,1.1-3.8,3.2-3.8c0.9,0,1.7,0.4,2.1,1.1h0
		v-3.6h2v10h-1.9V293.4z M224.5,288.4c-1.3,0-1.8,1.1-1.8,2.3c0,1.1,0.5,2.3,1.8,2.3c1.3,0,1.7-1.1,1.7-2.3
		C226.2,289.5,225.8,288.4,224.5,288.4z"/>
	<path d="M229.6,289.3c0.1-1.8,1.8-2.4,3.4-2.4c1.4,0,3.2,0.3,3.2,2.1v3.8c0,0.7,0.1,1.3,0.3,1.6h-2c-0.1-0.2-0.1-0.5-0.1-0.7
		c-0.6,0.7-1.5,0.9-2.4,0.9c-1.4,0-2.5-0.7-2.5-2.2c0-3.3,4.9-1.5,4.8-3.2c0-0.8-0.6-1-1.3-1c-0.8,0-1.2,0.3-1.3,1.1H229.6z
		 M234.2,290.8c-0.3,0.3-1,0.3-1.7,0.4c-0.6,0.1-1.2,0.3-1.2,1.1c0,0.7,0.6,0.9,1.2,0.9c1.6,0,1.6-1.2,1.6-1.7V290.8z"/>
	<path d="M237.7,287.1h1.9v1.3h0c0.4-0.9,1.3-1.5,2.3-1.5c0.2,0,0.3,0,0.4,0.1v1.8c-0.2,0-0.5-0.1-0.7-0.1c-1.5,0-2,1-2,2.3v3.3h-2
		V287.1z"/>
	<path d="M248.1,293.4L248.1,293.4c-0.5,0.8-1.3,1.1-2.2,1.1c-2.2,0-3.2-1.9-3.2-3.9c0-1.9,1.1-3.8,3.2-3.8c0.9,0,1.7,0.4,2.1,1.1h0
		v-3.6h2v10h-1.9V293.4z M246.3,288.4c-1.3,0-1.8,1.1-1.8,2.3c0,1.1,0.5,2.3,1.8,2.3c1.3,0,1.7-1.1,1.7-2.3
		C248,289.5,247.6,288.4,246.3,288.4z"/>
</g>
</svg>
