<?xml version="1.0" encoding="utf-8"?>
<!-- Generator: Adobe Illustrator 20.1.0, SVG Export Plug-In . SVG Version: 6.00 Build 0)  -->
<svg version="1.1" id="Layer_1" xmlns="http://www.w3.org/2000/svg" xmlns:xlink="http://www.w3.org/1999/xlink" x="0px" y="0px"
	 viewBox="0 0 172.6 68.9" enable-background="new 0 0 172.6 68.9" xml:space="preserve">
<g>
	<polygon fill="#FFFFFF" points="3.3,41.7 0,41.7 0,23.6 27.9,0 54.8,22.8 52.7,25.3 27.9,4.3 3.3,25.1 	"/>
</g>
<g>
	<path fill="#FFFFFF" d="M18,36.5h-3.9v-2.4h10.5v2.4h-3.9V47H18V36.5z"/>
	<path fill="#FFFFFF" d="M26.2,34.1H29V39h5.2v-4.9H37V47h-2.8v-5.5H29V47h-2.8V34.1z"/>
	<path fill="#FFFFFF" d="M39.5,34.1h9.6v2.4h-6.8v2.8h6.2v2.2h-6.2v3.2h6.9V47h-9.8V34.1z"/>
	<path fill="#FFFFFF" d="M56.2,34.1H59v10.5h6.3V47h-9.1V34.1z"/>
	<path fill="#FFFFFF" d="M66.9,34.1h2.8V47h-2.8V34.1z"/>
	<path fill="#FFFFFF" d="M78.1,47H75l-4.2-12.9h2.9l2.9,9h0l2.9-9h2.9L78.1,47z"/>
	<path fill="#FFFFFF" d="M83.5,34.1h2.8V47h-2.8V34.1z"/>
	<path fill="#FFFFFF" d="M88.8,34.1h2.8l5.4,8.6h0v-8.6h2.6V47h-2.8l-5.3-8.6h0V47h-2.6V34.1z"/>
	<path fill="#FFFFFF" d="M111.4,45.5c-1,1.3-2.3,1.8-3.5,1.8c-4,0-6.3-3-6.3-6.7c0-3.8,2.4-6.8,6.3-6.8c2.6,0,5.1,1.6,5.4,4.5h-2.7
		c-0.3-1.4-1.4-2.2-2.7-2.2c-2.5,0-3.5,2.2-3.5,4.4c0,2.1,1,4.3,3.5,4.3c1.9,0,2.9-1,3.1-2.8h-2.8V40h5.4v7h-1.8L111.4,45.5z"/>
	<path fill="#FFFFFF" d="M15.2,55.7H18v4.9h5.2v-4.9H26v12.9h-2.8V63H18v5.5h-2.8V55.7z"/>
	<path fill="#FFFFFF" d="M34.3,55.4c4,0,6.3,3,6.3,6.8c0,3.7-2.4,6.7-6.3,6.7c-4,0-6.3-3-6.3-6.7C28,58.4,30.3,55.4,34.3,55.4z
		 M34.3,66.5c2.5,0,3.5-2.2,3.5-4.3c0-2.3-1-4.4-3.5-4.4c-2.5,0-3.5,2.2-3.5,4.4C30.8,64.3,31.7,66.5,34.3,66.5z"/>
	<path fill="#FFFFFF" d="M42.5,55.7h4l3,8.8h0l2.8-8.8h4v12.9h-2.6v-9.1h0l-3.2,9.1h-2.2l-3.2-9h0v9h-2.6V55.7z"/>
	<path fill="#FFFFFF" d="M58.8,55.7h9.6v2.4h-6.8v2.8h6.2V63h-6.2v3.2h6.9v2.4h-9.8V55.7z"/>
	<path fill="#FFFFFF" d="M77.4,64.3c0,1.7,1.3,2.4,2.8,2.4c1,0,2.5-0.3,2.5-1.6c0-1.4-1.9-1.6-3.8-2.1c-1.9-0.5-3.8-1.3-3.8-3.7
		c0-2.6,2.5-3.9,4.8-3.9c2.7,0,5.1,1.2,5.1,4.1h-2.7c-0.1-1.5-1.2-1.9-2.5-1.9c-0.9,0-1.9,0.4-1.9,1.5c0,1,0.6,1.1,3.8,1.9
		c1,0.2,3.8,0.8,3.8,3.7c0,2.4-1.8,4.1-5.3,4.1c-2.8,0-5.5-1.4-5.5-4.6H77.4z"/>
	<path fill="#FFFFFF" d="M90,58.1h-3.9v-2.4h10.5v2.4h-3.9v10.5H90V58.1z"/>
	<path fill="#FFFFFF" d="M100.4,55.7h2.9l4.8,12.9h-2.9l-1-2.9h-4.8l-1,2.9h-2.9L100.4,55.7z M100.1,63.6h3.3l-1.6-4.7h0L100.1,63.6
		z"/>
	<path fill="#FFFFFF" d="M109.2,55.7h2.8l5.4,8.6h0v-8.6h2.6v12.9h-2.8l-5.3-8.6h0v8.6h-2.6V55.7z"/>
	<path fill="#FFFFFF" d="M122.5,55.7h5.5c3.3,0,5.8,2.1,5.8,6.4c0,3.7-1.9,6.5-5.8,6.5h-5.5V55.7z M125.4,66.2h2.5
		c1.6,0,3.2-1,3.2-3.9c0-2.6-0.9-4.2-3.7-4.2h-2V66.2z"/>
	<path fill="#FFFFFF" d="M139.4,55.7h2.9l4.8,12.9h-2.9l-1-2.9h-4.8l-1,2.9h-2.9L139.4,55.7z M139.1,63.6h3.3l-1.6-4.7h0L139.1,63.6
		z"/>
	<path fill="#FFFFFF" d="M148.2,55.7h6.9c2.3,0,3.8,1.6,3.8,3.5c0,1.5-0.6,2.6-2,3.2v0c1.4,0.4,1.8,1.7,1.9,3c0.1,0.8,0,2.3,0.5,3
		h-2.8c-0.3-0.8-0.3-2.1-0.5-3.1c-0.2-1.4-0.7-1.9-2.1-1.9H151v5h-2.8V55.7z M151,61.5h3.1c1.3,0,1.9-0.5,1.9-1.8
		c0-1.2-0.7-1.8-1.9-1.8H151V61.5z"/>
	<path fill="#FFFFFF" d="M161.2,55.7h5.5c3.3,0,5.8,2.1,5.8,6.4c0,3.7-1.9,6.5-5.8,6.5h-5.5V55.7z M164,66.2h2.5
		c1.6,0,3.2-1,3.2-3.9c0-2.6-0.9-4.2-3.7-4.2h-2V66.2z"/>
</g>
</svg>
